<svg id="Layer_10" data-name="Layer 10" xmlns="http://www.w3.org/2000/svg" viewBox="0 0 1273.32 1312.8"><defs><style>.cls-1{fill:#1d1d1b;}.cls-2{fill:#e52421;}</style></defs><title>111</title><path class="cls-1" d="M1167.5,881c-5.9,54.53-14.43,108.84-19,163.5-3.2,37.85-3.68,75.86-5.15,113.8-2.65,68.33-7,136.61-12.42,204.77-4.54,56.82-7.14,113.67-10,170.6-1.21,24.15-5,48-5.9,72.18-.79,21.21-1.09,42.68-6.71,63.29-4,14.51-10.21,34.17,3.88,45.39,10.56,8.4,25.45,6.51,37.73,3.94,1-.21,2.08-.33,3.07-.59-2.61.67-.47.06,1.07-.07a140.09,140.09,0,0,1,16.79-.14c21,.77,42,3.2,62.91,5.71,16.5,2,30.94,3.91,46.66,6.11q30.19,4.22,60.32,8.87c53.89,8.26,107.67,17.17,161.41,26.33q111.73,19.05,223.24,39.41,32.27,5.85,64.52,11.76c5.06.93,9.07-2.09,9.49-7.23Q1815,1619,1835,1429.85T1879.53,1052q13.68-105.64,28.76-211.08c.53-3.68-.86-8.49-5.24-9.23q-137.06-23.1-275.17-39.26-143.64-16.8-288-25.94-76.9-4.87-153.92-7.55c-4.29-.15-7.17,3.57-7.5,7.5q-4.75,57.35-10.93,114.56c-.44,4.06,3.76,7.46,7.5,7.5,4.41,0,7.07-3.49,7.5-7.5q6.16-57.21,10.93-114.56l-7.5,7.5q138.69,4.86,277,16.75,143.2,12.33,285.63,32.24,75.4,10.56,150.49,23.23l-5.24-9.23q-27,189.32-49.71,379.23-22.53,188.9-40.65,378.28-10.24,107-19.08,214.2l9.49-7.23q-118.82-21.77-237.81-42.57c-58.42-10.15-116.89-20-175.45-29.33-40.5-6.42-81.05-12.57-121.71-17.94-24.64-3.25-49.35-6.34-74.15-8.11-12.12-.87-25-2.08-37,.17-7.78,1.45-18.74,4.64-25.8-.43-5.43-3.9-3.64-12.78-2.39-18.29,2-8.68,4.79-17.07,6.3-25.88,3.62-21.12,3.54-42.54,4.61-63.87.69-13.75,2.69-27.29,4-41,2-20.79,2.32-41.75,3.28-62.61,1.49-32.53,3.27-65,5.71-97.52,4.92-65.56,10-131.07,13.15-196.74,2.07-42.82,2.65-85.72,5.13-128.51,2.55-44,9-87.6,14.3-131.32q3.44-28.22,6.48-56.49c.44-4.06-3.76-7.46-7.5-7.5C1170.59,873.45,1167.93,877,1167.5,881Z" transform="translate(-635.07 -605)"/><path class="cls-1" d="M892.5,1460.32c7.8,14.3,14.88,29,22.35,43.43s15.42,28.56,23.07,42.87c15.11,28.25,29.93,56.64,44.93,84.94,30.11,56.79,61.17,113.14,92.71,169.14q13.33,23.67,27,47.17c8.79,15.14,18.83,30,26.45,45.81l-1-3.79c.35,6,4,10.29,6.55,15.62,2.08,4.33,4.4,10.32,9.52,11.71,5.8,1.57,14.25-.51,20-1.58a172.1,172.1,0,0,0,19.36-5c13-4,26.2-8,39.09-12.48,12.69-4.41,25.1-9.56,37.64-14.36,26.08-10,51.46-22.54,76.4-35.08,24.78-12.46,49.4-25.53,73.18-39.81,27-16.2,53.87-32.49,81-48.43,8.32-4.89.78-17.86-7.57-13-42.17,24.79-83.52,51-126.73,74-43,22.84-86.93,43.71-132.67,60.34-12.86,4.68-26,8.46-39,12.67-12.6,4.07-25.34,7.82-38.68,8l3.79,1q2.44,2.94.89.53a9.16,9.16,0,0,0-1.2-1.84c-.78-1.36-1.36-2.85-2-4.26-1.6-3.33-3.81-6.35-5.4-9.65l1,3.79c-.4-7.06-5.07-13-8.51-19-4.16-7.27-8.4-14.5-12.63-21.73q-12.34-21.07-24.39-42.31c-16.08-28.29-31.83-56.76-47.48-85.29-31.32-57.07-61.84-114.53-92.39-172-8.63-16.23-17.47-32.35-26.17-48.54-9-16.68-17-33.85-26-50.47-4.62-8.48-17.58-.92-13,7.57Z" transform="translate(-635.07 -605)"/><path class="cls-1" d="M1164.22,942.36c-13.68,7.23-25.75,17.18-38.91,25.29q-20.4,12.57-41,24.88-39.43,23.6-79.48,46.15-79.34,44.65-161,84.91c-16,7.89-32,15.67-48.2,23.14-8.11,3.74-16.23,7.45-24.33,11.2-4.1,1.9-8.14,4-12.32,5.75-2.84,1.17-5.89,1.61-8.52,3.32a7.7,7.7,0,0,0-2.69,10.26c2.54,5.06,5.1,12.62,9.76,16.27,6.71,5.26,13.79-2.27,11.69-9.28s-7.71-20.3-17-18c-5,1.23-6.57,6.83-4.48,11,32.38,64.87,65.57,129.31,98.6,193.85Q860.64,1399,875,1426.75c4.46,8.57,17.41,1,13-7.57Q837.61,1322.4,788.42,1225q-13.9-27.61-27.69-55.27l-4.48,11a6.29,6.29,0,0,1-6-1.33,7.57,7.57,0,0,1,.54.6c-.73,0-.61-1,.29.62.7,1.29,1.43,2.54,2.07,3.86q.55,1.12,1,2.26c.65,1.46-.44-1.23.09.25a8.19,8.19,0,0,0,.57,1.61c.74,1.11-.15-.36-.07-.92l2.2-5.3,0,.06,5.3-2.2h-.07l3.79,1c.73.48,2.55,3.12,1.55,1.2-.47-.89-1-1.74-1.53-2.62-1.85-3.32-3.55-6.73-5.26-10.12L758,1180c1.83-1.19,4.66-1.56,6.74-2.48,3.57-1.57,7.06-3.33,10.6-5,7.52-3.5,15.07-7,22.61-10.42q21.76-10,43.26-20.55,41.11-20.13,81.69-41.33,80.81-42.25,159.22-88.9,23-13.66,45.79-27.67c7.67-4.71,15.24-9.43,22.56-14.65a189.12,189.12,0,0,1,21.28-13.67c8.54-4.51,1-17.46-7.57-13Z" transform="translate(-635.07 -605)"/><path class="cls-1" d="M1234.7,1047.93q102.56,12.87,205.38,23.57t205.83,19.2q58.44,4.83,116.94,8.95c3.21.23,3.2-4.77,0-5q-103.11-7.28-206.05-16.72t-205.65-21.1q-58.27-6.6-116.45-13.91c-3.18-.4-3.16,4.6,0,5Z" transform="translate(-635.07 -605)"/><path class="cls-1" d="M1230.72,1123.63Q1331.25,1137,1432,1148.31q101.28,11.39,202.77,20.76,56.93,5.25,113.92,9.87c3.21.26,3.19-4.74,0-5q-101.09-8.2-202-18.38-101.4-10.25-202.58-22.52-56.76-6.88-113.43-14.4c-3.18-.42-3.15,4.58,0,5Z" transform="translate(-635.07 -605)"/><path class="cls-1" d="M1224.82,1212.58q102.56,12.87,205.38,23.57t205.83,19.2q58.44,4.83,116.94,8.95c3.21.23,3.2-4.77,0-5q-103.11-7.28-206.05-16.72t-205.65-21.1q-58.27-6.6-116.45-13.91c-3.18-.4-3.16,4.6,0,5Z" transform="translate(-635.07 -605)"/><path class="cls-1" d="M1220.84,1288.29q100.54,13.33,201.32,24.68,101.28,11.39,202.77,20.76,56.93,5.25,113.92,9.87c3.21.26,3.19-4.74,0-5q-101.09-8.2-202-18.38-101.4-10.25-202.58-22.52-56.76-6.88-113.43-14.4c-3.18-.42-3.15,4.58,0,5Z" transform="translate(-635.07 -605)"/><path class="cls-1" d="M1210.73,1377.24q102.56,12.87,205.38,23.57t205.83,19.2q58.44,4.83,116.94,8.95c3.21.23,3.2-4.77,0-5q-103.11-7.28-206.05-16.72t-205.65-21.1q-58.27-6.6-116.45-13.91c-3.18-.4-3.16,4.6,0,5Z" transform="translate(-635.07 -605)"/><path class="cls-1" d="M1206.75,1452.95q100.54,13.33,201.32,24.68,101.28,11.39,202.77,20.76,56.93,5.25,113.92,9.87c3.21.26,3.19-4.74,0-5q-101.09-8.2-202-18.38-101.4-10.25-202.58-22.52-56.76-6.88-113.43-14.4c-3.18-.42-3.15,4.58,0,5Z" transform="translate(-635.07 -605)"/><path class="cls-1" d="M1203.67,1532.23q102.56,12.87,205.38,23.57t205.83,19.2q58.44,4.83,116.94,8.95c3.21.23,3.2-4.77,0-5q-103.11-7.28-206.05-16.72t-205.65-21.1q-58.27-6.6-116.45-13.91c-3.18-.4-3.16,4.6,0,5Z" transform="translate(-635.07 -605)"/><path class="cls-1" d="M1199.69,1607.94q100.54,13.33,201.32,24.68,101.28,11.39,202.77,20.76,56.93,5.25,113.92,9.87c3.21.26,3.19-4.74,0-5q-101.09-8.2-202-18.38-101.4-10.25-202.58-22.52-56.76-6.88-113.43-14.4c-3.18-.42-3.15,4.58,0,5Z" transform="translate(-635.07 -605)"/><path class="cls-1" d="M1424.73,869.34c-3.74-14.1-20.12-18.82-32.83-14.47-15,5.14-24,19.27-27.35,34.17-6.64,29.31,7.37,65.78,40.65,69.53,13.73,1.55,31.77-6.08,31.34-22.15-.09-3.21-5.09-3.22-5,0,.46,17.2-22.41,19.51-34.4,15.15-15.54-5.65-25.53-20-28.43-35.89-2.85-15.63.14-34.56,10.95-46.74,5.36-6,13-10.38,21.18-10.72s16.83,4,19.07,12.44c.82,3.11,5.65,1.79,4.82-1.33Z" transform="translate(-635.07 -605)"/><path class="cls-1" d="M1437.43,912.71l2.21,41.07c.17,3.2,5.17,3.22,5,0l-2.21-41.07c-.17-3.2-5.17-3.22-5,0Z" transform="translate(-635.07 -605)"/><path class="cls-1" d="M1438.26,914.3a222.7,222.7,0,0,0,23.7,3.11l-2.5-2.5,2,42.17c.15,3.2,5.15,3.22,5,0l-2-42.17a2.57,2.57,0,0,0-2.5-2.5,210.12,210.12,0,0,1-22.37-2.93c-3.15-.58-4.49,4.23-1.33,4.82Z" transform="translate(-635.07 -605)"/><path class="cls-1" d="M1469.45,917l2.4,38c.12,2,2.76,3.54,4.27,1.77a93.69,93.69,0,0,1,22.32-19.13c2.74-1.68.23-6-2.52-4.32a98,98,0,0,0-23.33,19.91l4.27,1.77-2.4-38c-.2-3.2-5.2-3.22-5,0Z" transform="translate(-635.07 -605)"/><path class="cls-1" d="M1495.08,915.91a167.68,167.68,0,0,0,.84,41.58c.45,3.17,5.27,1.82,4.82-1.33a162.67,162.67,0,0,1-.66-40.25c.34-3.2-4.66-3.17-5,0Z" transform="translate(-635.07 -605)"/><path class="cls-1" d="M1533.55,922.86c-3.19-5.93-10.85-7.78-16.77-4.81-7.28,3.66-10.42,12.75-10.3,20.44s3.6,15.92,10.54,20a18.72,18.72,0,0,0,21.59-1.62c2.47-2.06-1.08-5.58-3.54-3.54-10.32,8.61-22.69-2.31-23.54-13.34-.37-4.75.63-10,3.47-13.91,3.37-4.63,11-6.64,14.21-.67,1.52,2.84,5.84.31,4.32-2.52Z" transform="translate(-635.07 -605)"/><path class="cls-1" d="M1545.62,936.37c-3.3,9.34-1.5,22.36,9.87,24.92,9.6,2.17,18.56-7.27,20.69-15.81,2.25-9-2.55-19.23-11.89-21.81-9.17-2.53-18.41,4.84-18.27,14.22.05,3.21,5.05,3.22,5,0a9.61,9.61,0,0,1,13.91-8.63c6.16,3.18,8.17,10.49,5.83,16.73-2.08,5.55-8.1,11.94-14.59,10.2-8.24-2.22-8-12-5.73-18.49,1.08-3-3.75-4.35-4.82-1.33Z" transform="translate(-635.07 -605)"/><path class="cls-1" d="M1584.47,925.77a123.77,123.77,0,0,1-1.17,32c-.53,3.15,4.28,4.5,4.82,1.33a128.85,128.85,0,0,0,1.35-33.32c-.29-3.18-5.29-3.21-5,0Z" transform="translate(-635.07 -605)"/><path class="cls-1" d="M1587.32,946.59a24.22,24.22,0,0,0,22.15-19.34c.6-3.14-4.21-4.49-4.82-1.33a19.21,19.21,0,0,1-17.33,15.67c-3.19.22-3.22,5.23,0,5Z" transform="translate(-635.07 -605)"/><path class="cls-1" d="M1595.63,941.51a83.79,83.79,0,0,1,10.51,24.87c.76,3.12,5.59,1.8,4.82-1.33a88.22,88.22,0,0,0-11-26.06c-1.71-2.72-6-.21-4.32,2.52Z" transform="translate(-635.07 -605)"/><path class="cls-1" d="M1298.85,1021.87l.37-3a2.5,2.5,0,0,0-1.84-2.41c-9.34-2.46-18.61,4.94-17.2,14.76,1.44,10,13,14.59,21.19,8.92,2.63-1.82.13-6.16-2.52-4.32-5.36,3.71-13.06,1.31-13.81-5.67-.66-6.19,5.28-10.39,11-8.88l-1.84-2.41-.37,3c-.39,3.19,4.62,3.16,5,0Z" transform="translate(-635.07 -605)"/><path class="cls-1" d="M1297.49,1037.58c2.87,5.13,9.3,7.75,14.83,5.38a11.81,11.81,0,0,0,6.16-15.12,11.13,11.13,0,0,0-14.91-5.75c-6.06,2.81-7.77,10.23-4.59,15.83,1.59,2.8,5.91.28,4.32-2.52-1.81-3.19-.95-7.61,2.79-9a6.19,6.19,0,0,1,8.21,4.64c1.42,7.68-8.95,10.33-12.5,4-1.57-2.81-5.89-.29-4.32,2.52Z" transform="translate(-635.07 -605)"/><path class="cls-1" d="M1326.3,1026.55c-9.18-3.55-14.52,10.06-8.91,16.31,6.83,7.61,17.69.25,15.14-9-1.4-5.06-5.74-8.06-10.22-10.28-2.76-1.37-5.67-2.5-8.16-4.35-2.21-1.64-3.58-2.43-2.15-5.15s2.83-1.92,5.49-1.05c10.4,3.39,20.59,13.22,31.38,4.86,2.54-2-1-5.48-3.54-3.54-7.94,6.15-18.3-3.25-25.76-5.9-4.89-1.73-13.8-2.36-14.34,4.86-.49,6.54,6.69,10.83,11.69,13.23,4,1.9,9.52,3.92,10.77,8.65,1,3.86-2.46,7.22-5.88,4.52-2.75-2.17-2.16-10.44,3.13-8.39,3,1.16,4.3-3.67,1.33-4.82Z" transform="translate(-635.07 -605)"/><path class="cls-1" d="M1333.54,1038.39l3.46-8.1-4.66-1.26-1.63,31.23c-.17,3.22,4.83,3.21,5,0l1.63-31.23c.12-2.36-3.67-3.57-4.66-1.26l-3.46,8.1c-1.25,2.93,3.06,5.48,4.32,2.52Z" transform="translate(-635.07 -605)"/><path class="cls-1" d="M1333.4,1034.65c2.73-1.75,6.71,1.86,7.5,4.39.37,1.2.29,2.93-.79,3.77a1.83,1.83,0,0,1-3-.77c-1.32-2.93-5.63-.39-4.32,2.52a6.76,6.76,0,0,0,7.82,3.5c3.39-.89,5.42-4.32,5.44-7.68.06-6.77-8.83-14.15-15.23-10.06-2.7,1.73-.2,6.06,2.52,4.32Z" transform="translate(-635.07 -605)"/><path class="cls-1" d="M1362.46,1036.49c-.49-5.54-6-8.27-11-6.1-4.29,1.86-7.16,6.88-5.87,11.53s6.37,6.29,10.56,4.64c5.39-2.11,6.93-8,7.08-13.24l-4.91.66a57.07,57.07,0,0,0,4.46,13.45c1.37,2.91,5.68.37,4.32-2.52a51.89,51.89,0,0,1-4-12.25c-.56-2.85-4.83-2.06-4.91.66-.07,2.22-.26,4.61-1.5,6.54-1,1.48-3.39,3.22-5.26,2.1-1.6-1-1.34-3.16-.6-4.6,1-2,6.2-4.81,6.55-.87.28,3.18,5.28,3.21,5,0Z" transform="translate(-635.07 -605)"/><path class="cls-1" d="M1373.16,1034.38c-.43,3.09-1,6.16-1.24,9.27-.11,1.34-.34,3,.39,4.25,1.23,2.07,3.6,1.4,4.79-.23,1.91-2.6-2.43-5.09-4.32-2.52-.35.48,4.67-.23,4.06.9a2.67,2.67,0,0,0,0-.61c0-.48,0-1,.07-1.43.09-1.2.23-2.4.39-3.6.21-1.57.48-3.13.7-4.7.44-3.15-4.38-4.51-4.82-1.33Z" transform="translate(-635.07 -605)"/><path class="cls-1" d="M1365.1,1029l-1.85,1.34c-1.58,1.15-1.7,4.09.6,4.57a113.65,113.65,0,0,0,20.6,2.37c3.22.07,3.22-4.93,0-5a106.16,106.16,0,0,1-19.27-2.19l.6,4.57,1.85-1.34c2.58-1.88.08-6.22-2.52-4.32Z" transform="translate(-635.07 -605)"/><path class="cls-1" d="M1386.1,1031.61a55.59,55.59,0,0,0-1.31,10c-.09,2.51-.42,5.79,1.06,8,2.56,3.81,10.7,3.56,14.16,1.41,3.66-2.28,4.72-7.52,1.14-10.37-4.25-3.37-10.54-2.85-15.08-.48-2.85,1.49-.33,5.81,2.52,4.32a9.61,9.61,0,0,1,8-.64c1.78.68,2.41,2.29.09,3.26a9,9,0,0,1-3.87.23c-1.4-.11-2.26,0-3-1.33-.43-.84-.08-2.75-.06-3.75a48,48,0,0,1,1.16-9.25c.69-3.14-4.13-4.48-4.82-1.33Z" transform="translate(-635.07 -605)"/><path class="cls-1" d="M1428,1045l1.12-2.35-4.57-1.93a8,8,0,0,0,4.85,9.9c4.34,1.4,8.89-1.62,9.87-5.92.59-2.62-3.33-4.62-4.57-1.93a23.06,23.06,0,0,0-1.78,14.32c.59,3.16,5.41,1.82,4.82-1.33a17.21,17.21,0,0,1,1.28-10.47l-4.57-1.93c-.92,4-6.33,2.64-5.07-1.32.84-2.65-3.34-4.51-4.57-1.93l-1.12,2.35c-1.37,2.89,2.94,5.43,4.32,2.52Z" transform="translate(-635.07 -605)"/><path class="cls-1" d="M1440.24,1054.91a22.35,22.35,0,0,0,14.84-9.75,2.51,2.51,0,0,0-1.49-3.67c-8.09-1.56-17.28,4.93-13.31,13.84,3.25,7.28,14.37,6.24,15.76-1.77l-4.91-.66c-.26,4.06,3.12,7,7.1,7.14,5,.12,8-4.4,10.24-8.25,1.36-2.39-2-5.25-3.93-3-3.63,4.25-2,10.81,3.63,12.28,6.88,1.79,11.66-4.35,12.9-10.35.55-2.67-3.12-4.52-4.57-1.93-2.54,4.55-1.11,11.55,4.69,12.67,5.5,1.06,9.77-4.14,8.65-9.3-.61-2.82-4.84-2.09-4.91.66-.33,12.93,18.63,16.22,20.63,2.66,1.77-12-15.46-14.6-19-3.83-1,3.06,3.81,4.37,4.82,1.33,1.64-4.93,9.7-4.26,9.36,1.39-.46,7.74-10.95,5.52-10.77-1.55l-4.91.66q-3.7,5-4.41,1.19a2.73,2.73,0,0,1,.21-3.38l-4.57-1.93a10.29,10.29,0,0,1-1.61,4.33,3.06,3.06,0,0,1-1.81,1.68q-2.93,2.74-4.76-3.08l-3.93-3a22.89,22.89,0,0,1-2,3.21,4.63,4.63,0,0,1-1.4,1.48q-1.91,2.2-4.58-1.06c.18-2.77-4.42-3.46-4.91-.66-.86,4.94-6.88,3.2-6.82-1.2.05-3.93,4.7-5.33,7.86-4.72l-1.49-3.67a17.42,17.42,0,0,1-11.86,7.45c-3.16.56-1.82,5.38,1.33,4.82Z" transform="translate(-635.07 -605)"/><path class="cls-1" d="M1523.42,1048.13c-4.52-2.13-9.56-2.86-13.74.47a8.73,8.73,0,0,0-2.31,11.46c5.16,8.51,17.8.81,12.38-7.2-1.23-1.83-5-1.42-4.66,1.26a61.73,61.73,0,0,1-.84,21.25c-.71,3.15-1.51,6.68-3.12,9.5-2.62,4.59-7.86,2.68-11.46.32-1.86-1.22-6.2-4.09-6.91-6.43-1.26-4.14,7.23-6,9.6-6.92a108.68,108.68,0,0,1,19.7-5.2c3.17-.54,1.82-5.36-1.33-4.82a109.72,109.72,0,0,0-17.07,4.27c-4.43,1.51-10,3.13-13.8,6-7.31,5.52,1.82,13.66,6.66,17,7.1,4.89,15.38,5.85,19.53-2.87,4.6-9.68,5.35-21.61,4.05-32.08l-4.66,1.26q1.58,5.39-4.28,1a3.8,3.8,0,0,1,1.86-4c2.39-1.94,5.37-1.14,7.87,0,2.89,1.36,5.44-2.95,2.52-4.32Z" transform="translate(-635.07 -605)"/><path class="cls-1" d="M1547.44,1057.58c-5.35-7.52-20.93-9.36-22.82,2.3a7.09,7.09,0,0,0,7,8.29c6.13.19,9.41-5.29,11.57-10.21l-4.66-1.26c-.12,4.4,1.43,10.65,7.19,9.93,5-.63,8.24-7.92,9.74-12l-4.91-.66a38.4,38.4,0,0,0,.85,11.95c.67,3,4.6,1.92,4.91-.66l.3-2.45-2.5,2.5c6.54,0,13.66-1.23,15.64-8.44a2.51,2.51,0,0,0-4.57-1.93,17.35,17.35,0,0,0-2.18,13.21c.67,3.15,5.49,1.81,4.82-1.33a12.24,12.24,0,0,1,1.67-9.35l-4.57-1.93c-1.32,4.79-6.78,4.76-10.82,4.77a2.57,2.57,0,0,0-2.5,2.5l-.3,2.45,4.91-.66a34.07,34.07,0,0,1-.67-10.62c.26-3-4-3.13-4.91-.66a22.52,22.52,0,0,1-2.77,5.42l-1.76,2.1q-3.31-1.23-2.58-4.16c.07-2.34-3.64-3.59-4.66-1.26-.9,2.06-1.81,4.52-3.48,6.11-3.36,3.19-7.09,0-4.22-3.4,3.2-3.73,9.51-1.42,11.91,2,1.85,2.6,6.19.11,4.32-2.52Z" transform="translate(-635.07 -605)"/><path class="cls-1" d="M1271.07,1093.75a57.72,57.72,0,0,0,1.2,27.08c.9,3.13,5.4,1.8,4.82-1.33a18.11,18.11,0,0,1,13.38-20.52c3.12-.79,1.8-5.61-1.33-4.82a23.17,23.17,0,0,0-16.88,26.67l4.82-1.33a52,52,0,0,1-1.2-24.42c.6-3.14-4.22-4.49-4.82-1.33Z" transform="translate(-635.07 -605)"/><path class="cls-1" d="M1271.18,1110.42a51.84,51.84,0,0,0,18.08,14.65c2.88,1.41,5.41-2.9,2.52-4.32a48.62,48.62,0,0,1-17.06-13.87c-2-2.53-5.5,1-3.54,3.54Z" transform="translate(-635.07 -605)"/><path class="cls-1" d="M1295,1100.44a100,100,0,0,0,2.08,12.89c.57,2.39,1.31,5.41,4.23,5.81,6.29.86,9.3-9.49,9.33-14l-4.91.66a126.52,126.52,0,0,1,3.54,40.94c-.24,3.21,4.76,3.19,5,0a130.87,130.87,0,0,0-3.72-42.27c-.7-2.75-4.89-2.14-4.91.66a11.74,11.74,0,0,1-1.48,6.08c-1.61,2.74-1.58,2.91-2.27.77-1.16-3.62-1.5-7.81-1.9-11.56-.33-3.17-5.34-3.2-5,0Z" transform="translate(-635.07 -605)"/><path class="cls-1" d="M1303.68,1156.71c-6.87-2-11.94-8.1-11.47-15.47.54-8.27,7-12.48,13.92-15.46,9.32-4,20.55-9.55,18.8-21.58-.46-3.18-5.26-1.82-4.82,1.33l2.75,19.55c.41,2.9,4.79,2,4.91-.66,0-.78-.45-5.06-.09-5.66l3.34-1.1.83,2.69,3.06,9.87a2.53,2.53,0,0,0,3.67,1.49,22.51,22.51,0,0,0,10.66-18.5c.12-2.93-4-3.23-4.91-.66-2.15,6.3,2,14,8.89,14.66,7.45.76,12.48-6.49,11.5-13.27-.39-2.74-4-2-4.82,0-2.43,6.1,3.09,12.76,9.44,12.69,7.51-.08,11.53-8.25,11-14.83l-4.91.66,4,13,4.57-1.93a44.34,44.34,0,0,0-13.91-17.31l-2.52,4.32a60.56,60.56,0,0,0,26.77,6.6l-1.77-4.27c-7.36,8.53.3,21.25,11.37,17.71a2.54,2.54,0,0,0,1.1-4.18,9.65,9.65,0,0,0-12.62-2.08c-2.77,1.63-.26,6,2.52,4.32,2.46-1.45,4.79-.85,6.56,1.3l1.1-4.18c-6,1.9-10.82-4.36-6.51-9.35a2.53,2.53,0,0,0-1.77-4.27,54.67,54.67,0,0,1-24.25-5.92c-2.94-1.49-5,2.4-2.52,4.32a39.58,39.58,0,0,1,12.11,15.51c1.17,2.59,5.4.75,4.57-1.93l-4-13c-.8-2.58-5.14-2.26-4.91.66.26,3.34-.59,7.29-3.75,9.1-3.73,2.14-8.53-1.56-6.9-5.64h-4.82c.59,4.11-3.56,8.24-7.62,6.51-3.1-1.32-4.15-4.9-3.12-7.91l-4.91-.66a17.27,17.27,0,0,1-8.18,14.18l3.67,1.49c-1.42-4.58-2.55-9.42-4.35-13.86-1-2.47-2.6-4.61-5.43-4.86-8-.69-7,9.38-7.19,14.25l4.91-.66-2.75-19.55-4.82,1.33c1.31,9-9.8,13.06-16.21,15.8-6.23,2.66-12,6-14.87,12.46-5.17,11.54,1.42,24.28,13.31,27.74,3.1.9,4.42-3.92,1.33-4.82Z" transform="translate(-635.07 -605)"/><path class="cls-1" d="M1423.79,1117.49l1-1.82h-3.54c3.48,3.52,4.91,9.79,10.52,10.75a6.43,6.43,0,0,0,7.66-5.92c.3-2.61-3.46-3.19-4.66-1.26-5.12,8.22,1.47,21.09,11.85,19.1a13.38,13.38,0,0,0,10.08-10c.85-3.72-.24-10.12-5.14-10.1-4.63,0-5.11,6.27-4.64,9.7a15.1,15.1,0,0,0,8.78,11.83c9.68,4,20.21-6.18,16.8-16-1-3-5.7-1.81-4.82,1.33a24.47,24.47,0,0,0,12.07,15.25c2.82,1.55,5.35-2.77,2.52-4.32a19.58,19.58,0,0,1-9.78-12.26l-4.82,1.33c1.64,4.71-1.91,10.41-7.12,10.63-5.7.24-8.69-5.73-8.74-10.58,0-2.24.17.61.12,1a8.69,8.69,0,0,1-1.24,3.69,7.33,7.33,0,0,1-6.83,3.57c-5.33-.71-7.37-7.5-4.78-11.66l-4.66-1.26c-.49,4.26-6.48-4.27-6.7-4.61a22.6,22.6,0,0,0-2.95-3.75,2.55,2.55,0,0,0-3.54,0,6.81,6.81,0,0,0-2.45,5.36c-.18,3.21,4.82,3.2,5,0Z" transform="translate(-635.07 -605)"/><path class="cls-1" d="M1480.59,1123.39a105.87,105.87,0,0,0-14.33,14.92c-2,2.5,1.54,6.06,3.54,3.54a105.87,105.87,0,0,1,14.33-14.92c2.45-2.1-1.1-5.62-3.54-3.54Z" transform="translate(-635.07 -605)"/><path class="cls-1" d="M1485.64,1131.54l2.77-3.66-4.57-1.93c-2.28,8.41,4.65,17.81,13.65,17.25,9.9-.61,10.84-12.62,2.64-16.73-7.34-3.68-19.1.85-15.32,10.47,3.43,8.73,15.22,9,21.2,3l-4.18-1.1c.87,5.11,6.55,7.65,11.16,5.57,6.69-3,6.84-11.1,6.23-17.32a2.51,2.51,0,0,0-4.91-.66,17.26,17.26,0,0,0,5.47,19.44c2.49,2,6.05-1.53,3.54-3.54a12.51,12.51,0,0,1-4.19-14.57l-4.91-.66c.3,3,.79,6.4-.4,9.28s-6.33,6.06-7.17,1.14c-.32-1.91-3-2.33-4.18-1.1-2.71,2.72-7.19,3.76-10.59,1.54-2.35-1.54-4.08-4.8-1.12-7.18,1.67-1.35,4.73-.83,6.5-.1,3.2,1.32,5.82,5.82.78,7.39-1.67.52-3.73-.17-5.15-1a8.77,8.77,0,0,1-4.25-9.83c.79-2.92-2.95-4.07-4.57-1.93l-2.77,3.66c-1.94,2.57,2.4,5.06,4.32,2.52Z" transform="translate(-635.07 -605)"/><path class="cls-1" d="M1261.23,1196.31a3.21,3.21,0,0,1-2.47,2.84c-1.81.89-1.53,4.27.6,4.57,5.89.84,11.63,3.1,15.86,7.43,5,5.15,6.35,14.31-2.23,16.58-6.35,1.68-13.24-.64-18.82-3.59a60.38,60.38,0,0,1-7.35-4.55c-5.17-3.77-1.79-6.65,3-8.18,3.06-1,1.75-5.8-1.33-4.82-3.91,1.24-8,2.9-9.45,7.1-1.24,3.6.62,6.65,3.39,8.87,8.05,6.45,19.22,12,29.81,10.39,8.73-1.34,14.29-9,11.36-17.7-3.17-9.48-13.59-15-22.92-16.36l.6,4.57c3.64-1.79,7.49-6.48,4-10.36-2.33-2.62-6.73-2.56-8.4.68-1.47,2.86,2.84,5.39,4.32,2.52Z" transform="translate(-635.07 -605)"/><path class="cls-1" d="M1289.47,1199.12c-2.33-7-16.12-3.52-15.91,3.57.11,3.91,4.22,6,7.72,5.55,4.49-.64,6.58-5.06,8-8.86,1-2.73-3.14-4.28-4.57-1.93a5.92,5.92,0,0,0,4.42,9c6,.7,8.71-5.34,9.68-10.14H1294a113.34,113.34,0,0,1,2.66,27.18l4.91-.66c-.55-4-1.18-7.94-1.65-11.92a15.31,15.31,0,0,1-.18-4.81,3.82,3.82,0,0,1,2.35-3.54q3.73,4-.52,2.62c-2.29-2.27-5.82,1.27-3.54,3.54,7.16,7.1,17-6.19,7.11-10.49-4.35-1.88-8.59.7-9.93,5-2,6.29.67,14.67,1.54,20.92.4,2.87,4.85,2.05,4.91-.66a119.16,119.16,0,0,0-2.84-28.51c-.52-2.35-4.34-2.41-4.82,0a23.39,23.39,0,0,1-.75,3.16q-2.07,5.71-4.21,1.79l-4.57-1.93a14.56,14.56,0,0,1-1.41,3.19q-3.23,4.43-3.45.19c.34-.28,4.84-1.72,5.08-1,1,3,5.84,1.74,4.82-1.33Z" transform="translate(-635.07 -605)"/><path class="cls-1" d="M1313.58,1210.72a16.41,16.41,0,0,0,9.34-6.47,2.51,2.51,0,0,0-.39-3,7.25,7.25,0,0,0-11.54,2.06c-2.41,5.09,2.2,10.56,7.25,11.21a10.63,10.63,0,0,0,7.93-2.44,13.86,13.86,0,0,0,2.31-2.37c.27-.34,2.46-5,2.09-4.84-2.06.75-1.6,5.95-.9,7.33a8.12,8.12,0,0,0,6.24,4.13c5.56.64,14-5.67,14.56-11.35.43-4.63-4.51-7.37-8.52-5.37-5.64,2.81-4.42,10.79-1.16,14.87,4.16,5.21,11.12,5.84,16.69,2.61,2.78-1.61.27-5.94-2.52-4.32-3.64,2.11-8.19,1.77-10.72-2a5.55,5.55,0,0,1-1.1-3.06q-.74-1.61,1.19-1.16c-.76.71-1.47,1.46-2.27,2.13-2.08,1.75-6.49,5.25-7.16-1.29-.06-.56.76-1.19.79-1.77.08-1.63.5-2.86-.7-4.29-2-2.45-5.52-1.66-7.45.4-1.41,1.5-1.9,3.58-3.23,5.15-1.1,1.3-2.89,2.76-4.74,2.74-4.79-.05-3.54-7.81-.57-4.84l-.39-3a11,11,0,0,1-6.35,4.17c-3.11.83-1.79,5.66,1.33,4.82Z" transform="translate(-635.07 -605)"/><path class="cls-1" d="M1366.18,1205.35c-1.5-3.8-6-5.42-9.25-2.3s-2.59,8.42.13,11.61c7.63,9,19.82.75,19.19-9.46h-5l.79,10.68,4.91-.66q.84-3.35,1.25-1a17.77,17.77,0,0,1,.73,2.68c.66,2.71,5,2.18,4.91-.66q4.21-2.51,3.85.59.11.86.25,1.71a5.69,5.69,0,0,0,1,2,4.41,4.41,0,0,0,4.88,1.08c5.31-1.8,7.64-9.34,8.22-14.21h-5q.55,13.58,2.26,27.06c.39,3.1,5.21,3.28,5,0l-.85-13.08a34.62,34.62,0,0,1-.36-5.61q-.58-2.59,2.28-3.92,7.57,2.85-.73,4.9c-1.87-2.59-6.2-.09-4.32,2.52,7.15,9.91,19.87-3.77,10.31-10.71-3.69-2.68-10-2.32-12,2.3-1.24,2.91-.46,6.55-.27,9.58l.91,14h5q-1.71-13.48-2.26-27.06c-.13-3.29-4.62-3.13-5,0a15.35,15.35,0,0,1-2.67,7.19c-2.43,3.41-1.42,1.18-2-.61a7.36,7.36,0,0,0-4.33-5c-5-2-9.48,2.31-9.25,7.24l4.91-.66c-.87-3.58-2.21-9.43-7-9-5.16.51-5.32,6.12-4.59,10,.52,2.75,5.12,2.15,4.91-.66l-.79-10.68c-.23-3.18-5.2-3.23-5,0s-1.11,7-4.61,8a5.08,5.08,0,0,1-5.17-1.12l-1.18-1.43q-1.8-3,1.08-3.93c1.16,3,6,1.67,4.82-1.33Z" transform="translate(-635.07 -605)"/><path class="cls-1" d="M1414.16,1214.31l1.52-1.66-3.16-2.41a35.37,35.37,0,0,0,3.62,13c.77,1.55,2.79,1.48,3.93.51a21.2,21.2,0,0,0,6.54-10l-4.91-.66c0,4.3,1.2,9.64,6.41,10.07,6.16.51,8.57-5.93,9.36-10.8l-4.91-.66,2.37,30.49,4.91-.66a102.12,102.12,0,0,1-.94-16.6c0-1.8-.43-6.83.61-8.26q2.32-2.2,4.21.16,3.7,3-1.39,4.79c-2.21-2.35-5.74,1.19-3.54,3.54a6.6,6.6,0,0,0,11-1.92c2.24-5.27-1.78-10.58-6.57-12.51-13.83-5.6-9,26.17-8.19,32.14.38,2.77,5.13,2.14,4.91-.66l-2.37-30.49c-.2-2.6-4.43-3.64-4.91-.66-.12.76-.31,3.56-.88,4.13l-4.88.82a16.21,16.21,0,0,1-.18-2.89,2.51,2.51,0,0,0-4.91-.66,16.47,16.47,0,0,1-5.26,7.75l3.93.51a28.33,28.33,0,0,1-2.93-10.52c-.12-1.44-1.53-3.07-3.16-2.41a7.85,7.85,0,0,0-5,5.16c-1.08,3,3.75,4.34,4.82,1.33Z" transform="translate(-635.07 -605)"/><path class="cls-1" d="M1451.12,1216.42c-1.07,5.46.65,12.07,6.92,13.19,5.86,1,9.86-4.93,7.92-10.23-1.79-4.9-8.59-9.47-13.73-6.76-4.07,2.14-4.33,9.36.75,10.42,3.14.66,4.48-4.16,1.33-4.82-.2,0-.34-.31-.13-.74.42-.86,1.68-.65,2.45-.44,2.08.56,4.56,2.52,4.84,4.79a2.35,2.35,0,0,1-3.69,2.45c-2.21-1.28-2.26-4.32-1.83-6.53.61-3.14-4.2-4.49-4.82-1.33Z" transform="translate(-635.07 -605)"/><path class="cls-1" d="M1464.42,1228.51a30.7,30.7,0,0,0,5.87-35.71,2.52,2.52,0,0,0-4.32,0c-3.77,6.54-2.45,14.36-.41,21.28a57.36,57.36,0,0,0,4.84,11.55c1.55,2.79,3.53,6.92,6.61,8.38,5.34,2.53,7.57-3.75,5.95-7.89-2-5-8.26-5-10.23-.16a2.49,2.49,0,0,0,1.15,2.82,8.56,8.56,0,0,0,8,0c2.93-1.33.39-5.64-2.52-4.32h-3l1.15,2.82s-3.26-5-3.63-5.69a51,51,0,0,1-3.54-8.86c-1.63-5.54-3.14-12.14-.09-17.42H1466a25.6,25.6,0,0,1-5.09,29.65c-2.3,2.26,1.23,5.79,3.54,3.54Z" transform="translate(-635.07 -605)"/><path class="cls-1" d="M1490.59,1224.31l2-4.27a2.59,2.59,0,0,0-.9-3.42c-6.4-4.65-13.35,4-10.17,10.27a6.36,6.36,0,0,0,7.84,3c3.87-1.27,5.48-4.9,6.83-8.43h-4.82c.81,3.29-.6,8.83,4.45,9.36,4.25.44,9.47-5.56,12.26-8.09l-4.27-1.77,1.21,9,4.66-1.26a27.26,27.26,0,0,0-13.86-11.48c-2.62-1-4.52,3.44-1.93,4.57,7.38,3.22,14.52,5.93,22.65,4.44l-3.08-3.08c-2.35,5.9-1.77,14.9,6.75,13.65,2-.3,2.18-2.93,1.1-4.18a6.83,6.83,0,0,0-6.4-2.58c-3.17.32-3.2,5.32,0,5l2.87,1.11,1.1-4.18c-4,.59-1-6.54-.6-7.5.77-1.94-1.42-3.38-3.08-3.08-6.61,1.21-12.85-1.34-18.8-3.94l-1.93,4.57a21.7,21.7,0,0,1,10.87,9.18c1.18,1.93,5,1.35,4.66-1.26l-1.21-9c-.28-2.11-2.54-3.34-4.27-1.77-.95.86-6.52,6.57-7.64,6.19-.64-.21-.46-4.27-.71-5.26-.64-2.58-4-2.15-4.82,0a16.31,16.31,0,0,1-1.38,3.09q-7.67-.42-.81-2.24l-.9-3.42-2,4.27c-1.37,2.89,2.93,5.43,4.32,2.52Z" transform="translate(-635.07 -605)"/><path class="cls-1" d="M1530.56,1223.63a4.84,4.84,0,0,0-7.48-.9c-3.36,3-1.15,7.77,1.11,10.75,2.65,3.49,5.57,4.72,9.73,3.46,3.4-1,3.19.24,6.22.85a9,9,0,0,0,5.11-.54c7.66-3.08,6.45-14.83-1.8-16.18-3.4-.56-6.45,1.59-6.19,5.2.34,4.62,5.28,8.69,8.63,11.27,2.55,2,5-2.38,2.52-4.32a25,25,0,0,1-4.06-3.85c-1.09-1.32-2.15-3.92.22-1.79a3,3,0,0,1-.86,4.93c-2,1-2.94,0-4.62-.7a6.13,6.13,0,0,0-4.28-.71c-2.12.49-3,2.4-5.8.39-1.83-1.3-1.64-3.74-2.75-5.32,1.84,2.61,6.18.11,4.32-2.52Z" transform="translate(-635.07 -605)"/><path class="cls-1" d="M681,1558.95c-1.78,4.05-2.94,8.1-.62,12.21a13.77,13.77,0,0,0,9.16,6.47c9,1.84,16-5.83,18.67-13.51a2.52,2.52,0,0,0-1.15-2.82,32.82,32.82,0,0,0-23.31-4l3.08,3.08c1.35-5.81,6.42-10.37,12.63-9.85,5.3.45,9.35,4.52,12.06,8.78,1.62,2.55,6.22,10,4.55,12.87-1.22,2.09-6.62,1.79-8.9,1.72a30.93,30.93,0,0,1-9.93-2.08c-3-1.11-4.33,3.72-1.33,4.82a34.66,34.66,0,0,0,13.77,2.24c3.3-.17,8.35-.4,10.69-3.08,4.18-4.8-2.39-15.94-5.29-20.16-3.89-5.66-9.77-10.28-16.94-10.15-7.86.14-14.4,6.08-16.14,13.56a2.53,2.53,0,0,0,3.08,3.08,27.4,27.4,0,0,1,19.46,3.49l-1.15-2.82c-1.62,4.59-5.08,9.35-10.27,10a8.38,8.38,0,0,1-6.58-2c-3-2.63-2.77-5.76-1.23-9.29,1.28-2.92-3-5.47-4.32-2.52Z" transform="translate(-635.07 -605)"/><path class="cls-1" d="M720.31,1579q69-42,136.72-86.12c29.72-19.33,59.25-39,88.16-59.51,31.69-22.52,63.42-45.66,92.79-71.17,12.2-10.6,24.81-20.58,37.33-30.79a127.18,127.18,0,0,0,38.45-52.57c2.66-6.71-5.79-10.94-11-8.47a446.82,446.82,0,0,0-51.6,28.7c-13.8,8.93-26.73,18.9-39.88,28.73-30.17,22.56-61.74,43.28-92.6,64.89-37.21,26.05-75.46,50.63-113.76,75q-58.57,37.32-117.69,73.76c-8.19,5.07-.67,18.05,7.57,13,60.5-37.44,120.89-75.12,180.32-114.25,15.74-10.36,31.41-20.84,46.89-31.59,27.43-19.05,55.12-37.8,82.29-57.22,15.9-11.37,31.08-23.71,47.29-34.65a446.52,446.52,0,0,1,58.74-33.42l-11-8.47a110,110,0,0,1-32.38,44.13c-11.89,9.91-24.33,19.09-35.89,29.39-27.84,24.77-58.29,46.93-88.57,68.6-57,40.8-116.26,78.46-175.66,115.63q-26.94,16.86-54,33.45c-8.23,5-.7,18,7.57,13Z" transform="translate(-635.07 -605)"/><path class="cls-1" d="M716.21,1569.5a7,7,0,0,0,.91,10.25c4.77,4.06,11.45.86,16.35-1.16a398.42,398.42,0,0,0,79.63-43.89c5.95-4.23,11.87-8.56,17.51-13.19,3.45-2.83,7.31-7.39,3.39-11.5-2.22-2.33-5.76,1.21-3.54,3.54,1.76,1.85-23,19.08-25.71,20.9q-13.18,9-27,17-13.47,7.71-27.51,14.36-7.47,3.54-15.08,6.76c-2.56,1.08-5.13,2.27-7.77,3.16a13.38,13.38,0,0,1-4,1c-1.12,0-5.52-1.53-3.59-3.67,2.15-2.38-1.37-5.93-3.54-3.54Z" transform="translate(-635.07 -605)"/><path class="cls-1" d="M685.86,1571.72c-5.68,8.4,1.87,17.54,9.82,20.52,9.28,3.49,20,2.74,29.35,0,19.55-5.74,34.28-20.43,52.36-29.12,8.7-4.18,1.1-17.12-7.57-13-12.93,6.22-23.92,15.56-36.48,22.41a56.24,56.24,0,0,1-18.7,6.67,32.07,32.07,0,0,1-9.54,0,18.19,18.19,0,0,1-4.34-1.1,4.2,4.2,0,0,1-1.26-.56q-2-2.59-.67,1.7c5.42-8-7.57-15.53-13-7.57Z" transform="translate(-635.07 -605)"/><path class="cls-1" d="M717.67,1571.18l6.87,9.46c1.87,2.58,6.21.09,4.32-2.52l-6.87-9.46c-1.87-2.58-6.21-.09-4.32,2.52Z" transform="translate(-635.07 -605)"/><path class="cls-1" d="M725.9,1566.32l3,12c.78,3.12,5.6,1.8,4.82-1.33l-3-12c-.78-3.12-5.6-1.8-4.82,1.33Z" transform="translate(-635.07 -605)"/><path class="cls-1" d="M735.12,1561v13.58c0,3.22,5,3.22,5,0V1561c0-3.22-5-3.22-5,0Z" transform="translate(-635.07 -605)"/><path class="cls-1" d="M742.76,1555a48.12,48.12,0,0,0,.93,17.38c.74,3.13,5.56,1.81,4.82-1.33a44.35,44.35,0,0,1-.75-16.05c.41-3.18-4.59-3.15-5,0Z" transform="translate(-635.07 -605)"/><path class="cls-1" d="M751.85,1550.17a46.24,46.24,0,0,0,.89,17.72c.78,3.12,5.61,1.8,4.82-1.33a39.64,39.64,0,0,1-.89-15.06c.43-3.15-4.39-4.51-4.82-1.33Z" transform="translate(-635.07 -605)"/><path class="cls-1" d="M762,1543.16a54.7,54.7,0,0,0-1.28,19.4c.36,3.16,5.36,3.2,5,0a50.78,50.78,0,0,1,1.1-18.07c.77-3.12-4-4.46-4.82-1.33Z" transform="translate(-635.07 -605)"/><path class="cls-1" d="M772.52,1538.58a47.3,47.3,0,0,1-1.12,17.4c-.8,3.12,4,4.45,4.82,1.33a51.1,51.1,0,0,0,1.3-18.73c-.36-3.16-5.37-3.2-5,0Z" transform="translate(-635.07 -605)"/><path class="cls-1" d="M781.62,1531.5v17.58c0,3.22,5,3.22,5,0V1531.5c0-3.22-5-3.22-5,0Z" transform="translate(-635.07 -605)"/><path class="cls-1" d="M792.4,1526.58l-1.85,16.49c-.36,3.19,4.64,3.17,5,0l1.85-16.49c.36-3.19-4.64-3.17-5,0Z" transform="translate(-635.07 -605)"/><path class="cls-1" d="M799.61,1520.5v18.08c0,3.22,5,3.22,5,0V1520.5c0-3.22-5-3.22-5,0Z" transform="translate(-635.07 -605)"/><path class="cls-1" d="M807.29,1517.58l-1.79,15c-.38,3.19,4.62,3.16,5,0l1.79-15c.38-3.19-4.62-3.16-5,0Z" transform="translate(-635.07 -605)"/><path class="cls-1" d="M814.61,1511.77v16.3c0,3.22,5,3.22,5,0v-16.3c0-3.22-5-3.22-5,0Z" transform="translate(-635.07 -605)"/><path class="cls-1" d="M823.28,1505.62a42.15,42.15,0,0,0-1.07,16.55c.42,3.14,5.42,3.18,5,0a38.58,38.58,0,0,1,.89-15.22c.83-3.11-4-4.44-4.82-1.33Z" transform="translate(-635.07 -605)"/><path class="cls-1" d="M829.5,1501.71a39.58,39.58,0,0,0-1,16.42c.44,3.17,5.26,1.82,4.82-1.33a33.46,33.46,0,0,1,1-13.76c.87-3.1-4-4.43-4.82-1.33Z" transform="translate(-635.07 -605)"/><path class="cls-1" d="M835.63,1496a31.19,31.19,0,0,0-1,14.6c.5,3.17,5.32,1.82,4.82-1.33a25.64,25.64,0,0,1,1-11.94c1-3.07-3.84-4.39-4.82-1.33Z" transform="translate(-635.07 -605)"/><path class="cls-1" d="M832.29,1519.23a44.14,44.14,0,0,0,14.31-23.47c.75-3.13-4.07-4.46-4.82-1.33a39.65,39.65,0,0,1-13,21.27c-2.45,2.1,1.1,5.62,3.54,3.54Z" transform="translate(-635.07 -605)"/><path class="cls-1" d="M1049.87,1311.82c5.27,3.51,15.68,11.38,9,18.55-2.2,2.35,1.33,5.89,3.54,3.54a12.93,12.93,0,0,0,2.34-13.88c-2.23-5.69-7.44-9.26-12.33-12.52-2.69-1.79-5.19,2.54-2.52,4.32Z" transform="translate(-635.07 -605)"/><path class="cls-1" d="M1090.21,1287.83a5.07,5.07,0,0,1,3.39,5.18c-.16,3.22,4.84,3.21,5,0a10.12,10.12,0,0,0-7.06-10c-3.07-1-4.38,3.82-1.33,4.82Z" transform="translate(-635.07 -605)"/><path class="cls-1" d="M1095.61,1284.35a8.47,8.47,0,0,1,3.16,4.25c1,3,5.85,1.73,4.82-1.33a14.11,14.11,0,0,0-5.46-7.24,2.52,2.52,0,0,0-3.42.9,2.55,2.55,0,0,0,.9,3.42Z" transform="translate(-635.07 -605)"/><path class="cls-1" d="M1100.23,1281.77l2,2a2.5,2.5,0,0,0,3.54-3.54l-2-2a2.5,2.5,0,0,0-3.54,3.54Z" transform="translate(-635.07 -605)"/><path class="cls-1" d="M684,1553c-11.54,2.8-23.3,17.64-11.29,27.22,10.66,8.51,26.46,6.18,31.3-7.35,1.57-4.39-2.58-9.84-7.23-9.49-5.46.4-11.56,1.63-17,1l3.79,1,1.64,2.19v4l.28-.85-3.45,4.48.72-.47-9.09-1.17a52.38,52.38,0,0,0,7.37,5,7.58,7.58,0,0,0,11.29-6.48l.12-7.7-14.73,2a32.75,32.75,0,0,0,5.65,9.72c2.89,3.51,9.89,2.64,11.78-1.52a20.91,20.91,0,0,0,1.7-13.51l-13.71,5.78,2.5,5.66c3.5,7.93,15.83,2.21,13.71-5.78a16.05,16.05,0,0,0-7.32-9.78l-1.79,13.71a2.44,2.44,0,0,1-2.68-2.92c-2.36,8.56,9,12.53,13.71,5.78a18.81,18.81,0,0,0,3.14-7.51l-9.23,5.24-.64-7.78,9.09,11.78,3.63-2.85c3.21-2.52,2.59-8,0-10.61-3.11-3.18-7.44-2.49-10.61,0l-3.63,2.85c-6.65,5.22,2.09,16.61,9.09,11.78,7.36-5.09,6.68-17.47-2.94-19.63-3.69-.83-8.47,1.1-9.23,5.24a8,8,0,0,1-1.63,3.92l13.71,5.78c2.58-9.34-6.31-18.52-15.77-15.53a7.6,7.6,0,0,0-1.79,13.71q.58.06.42.82l13.71-5.78-2.5-5.66c-1.5-3.4-6.27-4.37-9.37-3.07-3.61,1.52-5,5.12-4.34,8.85a2.64,2.64,0,0,1-.19,2l11.78-1.52a11.39,11.39,0,0,1-1.79-3.1c-2.89-7.61-14.59-6.93-14.73,2l-.12,7.7,11.29-6.48a30.54,30.54,0,0,1-4.34-2.66c-2.56-2-6.08-3.13-9.09-1.17-6,3.91-6.31,12.61.24,16.29,5.79,3.25,15.06.81,21.34.35l-7.23-9.49c-1.18,3.29-4.66.53-6.48.4q-2.08-1.86-.48,1.88a4.65,4.65,0,0,1,1.39-1.79,8.17,8.17,0,0,1,4-1.91c9.38-2.28,5.41-16.74-4-14.46Z" transform="translate(-635.07 -605)"/><path class="cls-1" d="M689.69,1586a28.63,28.63,0,0,0,24.86-2.86c3.61-2.37,7.06-5.57,8.55-9.72,1.81-5,.26-9.77-1.79-14.45-3.22-7.39-8.7-14.05-16.53-16.74-7.56-2.6-16.81-.82-22,5.44-6.15,7.36,4.4,18,10.61,10.61,4.9-5.86,11.36.83,13.78,5.6.39.76,2.09,3.56,2,4.26-.17,1.22-3.06,2.71-4.05,3.17a14.42,14.42,0,0,1-11.4.22c-9.12-3.23-13,11.26-4,14.46Z" transform="translate(-635.07 -605)"/><path class="cls-2" d="M637.49,610c3.22,0,3.22-5,0-5s-3.22,5,0,5Z" transform="translate(-635.07 -605)"/></svg>