<svg id="Layer_11" data-name="Layer 11" xmlns="http://www.w3.org/2000/svg" viewBox="0 0 1173.03 996.19"><defs><style>.cls-1{fill:#1d1d1b;}.cls-2{fill:none;stroke:#1d1d1b;stroke-miterlimit:10;stroke-width:3px;}</style></defs><title>22</title><path class="cls-1" d="M1728.74,852.83c-60.53-6-121.15-11.06-181.72-16.6s-120.93-11-181.46-15.67q-45.31-3.48-90.68-6.25c-6.84-.41-13.88-1.34-20.73-1-6.58.28-12.78,3.56-17.74,7.74-9.82,8.28-12.12,19.45-14,31.48-4.54,29.08-11.7,57.75-18.43,86.38q-10.24,43.6-20.4,87.22-39.77,170.64-78.75,341.46c-13.28,57.94-27.45,115.75-40,173.85-5.41,25-10.28,52.36,6.73,74.15,16.84,21.57,43.62,30.64,69.47,35.43,28.89,5.36,58,10.09,86.94,14.93s58.33,8.34,87.54,12.45c59,8.3,118,17.43,176.91,26.72q22.11,3.49,44.18,7.18c9.44,1.59,13.5-12.87,4-14.46-57.56-9.66-115.32-18-173.05-26.53-57.17-8.45-114.4-16.05-171.35-26-14.72-2.56-29.46-5-44.18-7.53-12.48-2.14-25.09-4.49-37-9-11.61-4.42-24.19-12.62-31.87-22.54-6.93-8.95-9.29-20.14-8.61-31.26.82-13.54,4.07-27.11,7.18-40.27q4.93-20.86,9.72-41.76,9.83-42.85,19.66-85.7,38.31-167.1,76.92-334.13c13.2-56.82,27.15-113.5,39.7-170.46,3-13.78,6.06-27.58,8.39-41.5,1.79-10.69,1.77-23.14,11.61-30,5.44-3.8,10.92-2.77,17.24-2.4q11.39.66,22.77,1.37,22.2,1.39,44.39,3c118,8.42,235.85,19.86,353.67,30.67q21.48,2,42.94,4.08c4,.4,7.5-3.73,7.5-7.5,0-4.39-3.45-7.1-7.5-7.5Z" transform="translate(-619.76 -813.21)"/><path class="cls-1" d="M1722.27,859c-2.6,9.8-5.69,19.44-9.12,29-3.36,9.35-7.53,17.25-9.65,26.61-4.94,21.9-11,43.6-15.61,65.55-4.91,23.54-10.94,46.85-16.65,70.22-2.76,11.3-6.33,22.41-8.81,33.78-1.51,6.91-2.39,13.91-3.66,20.86-2.93,16-6.6,31.86-10,47.74q-11.26,52-22.85,104-18.69,84.3-37.59,168.54-27.14,121.21-54.45,242.38l-8,35.45c-2.12,9.4,12.34,13.42,14.46,4q28.4-126,56.67-252.11,19.85-88.57,39.56-177.16,12.38-55.73,24.57-111.5c3.92-18,7.91-36,11.49-54.13,1.64-8.25,2.63-16.61,4.45-24.83,2.6-11.71,6.26-23.18,9.09-34.85,2.77-11.46,5.32-23,8.24-34.39s5.58-22.54,8-34,5.59-22.44,8.31-33.7,5.18-22.46,7.72-33.7c1.78-7.89,6.48-17.09,9.5-25.51,3.33-9.29,6.32-18.68,8.85-28.23,2.47-9.34-12-13.33-14.46-4Z" transform="translate(-619.76 -813.21)"/><path class="cls-1" d="M1775.08,951.46q-40.58,164.42-78.7,329.43-37.89,164-73.35,328.63-20,92.94-39.25,186.05c-.65,3.14,4.17,4.48,4.82,1.33q34.27-165.85,71-331.17,36.53-164.35,75.5-328.14,22-92.49,44.79-184.8c.77-3.12-4-4.46-4.82-1.33Z" transform="translate(-619.76 -813.21)"/><path class="cls-1" d="M1764.38,954.94c-7.72,27.88-14.31,56.05-21.26,84.13-3.58,14.48-7.44,28.88-11.26,43.3-3.6,13.59-5.9,27.59-9.24,41.26-13.41,54.84-27.16,109.59-40.64,164.41q-10.21,41.53-19.58,83.24c-6.18,27.57-13.16,54.92-19.65,82.4-1.38,5.85-2.57,11.75-3.71,17.65-1.21,6.32-1.58,14.12-4.49,19.85-2.32,4.57-2.66,10.35-3.75,15.36q-2.37,10.94-4.89,21.85c-3,13-6,26-8.9,39.09q-2,9-3.83,18.1c-1.32,6.5-1.65,14.71-4.63,20.6-2.89,5.69-3.27,13.21-4.59,19.46q-2.49,11.84-5,23.67-4.8,22.76-9.67,45.51-9.86,46-20.26,91.9c-.71,3.13,4.11,4.47,4.82,1.33,12.42-54.52,24-109.22,35.51-163.95,1.24-5.89,2.05-11.74,4.57-17.14,1-2.13,1.08-4.72,1.51-7q1.13-6.07,2.36-12.12c2.66-13.19,5.62-26.32,8.63-39.44,3.1-13.5,6.25-27,9.18-40.52,1.19-5.48,2-10.88,4.33-15.91,1-2.08,1.11-4.6,1.54-6.84.8-4.15,1.57-8.31,2.36-12.46,5.25-27.35,13-54.24,19.16-81.41,6.28-27.67,12.39-55.37,19.13-82.94,13.33-54.53,27-109,40.41-163.49,3.78-15.39,8-30.75,11-46.32,3-15.72,7.58-31.05,11.5-46.57,8.06-31.89,15.36-64,24.14-95.67.86-3.11-4-4.43-4.82-1.33Z" transform="translate(-619.76 -813.21)"/><path class="cls-1" d="M1755.39,952.19c-14.67,54-27.45,108.55-40.75,162.93-3.2,13.09-6.41,26.19-9.73,39.25-3.42,13.46-7.55,26.75-10.38,40.35-1.31,6.31-2.19,12.7-3.52,19-1.42,6.7-3.73,13.14-5.39,19.77-3.33,13.34-6.13,26.81-9.47,40.16-6.72,26.89-13.25,53.83-19.18,80.91s-13.87,53.77-19.12,81c-5.2,27-12,53.67-18.24,80.47q-9.55,41.24-18.78,82.55-20.52,91.24-40.2,182.67c-.68,3.14,4.14,4.48,4.82,1.33q17.56-81.32,35.68-162.52,9.21-41.19,18.63-82.34c6.23-27.22,13.08-54.31,19-81.6,2.89-13.34,5.26-26.78,8.37-40.07s6.58-26.28,9.83-39.43c6.76-27.41,12.47-55.07,19.23-82.48,3.31-13.42,6.73-26.81,9.87-40.28,1.48-6.36,2.81-12.77,4.39-19.1,1.66-6.63,4-13.07,5.39-19.77,2.75-13,4.91-25.91,8.37-38.75q5.42-20.06,10.43-40.21c15.08-60.88,29.14-122,45.58-182.56.84-3.11-4-4.44-4.82-1.33Z" transform="translate(-619.76 -813.21)"/><path class="cls-1" d="M1748.48,952.19q-40.57,158.65-78.86,317.87-38.54,160.53-74.64,321.64-20.58,91.78-39.82,183.85c-.66,3.14,4.16,4.48,4.82,1.33,22.9-109.27,47.27-218.2,72.41-327q36.78-159.16,76-317.75,22.1-89.41,44.93-178.64c.8-3.12-4-4.45-4.82-1.33Z" transform="translate(-619.76 -813.21)"/><path class="cls-1" d="M1741.86,947.25q-40.28,158.64-78.7,317.74c-25.92,108.19-50.2,216.76-75.11,325.18-13.81,60.12-27.39,120.29-39.77,180.72-.64,3.14,4.17,4.48,4.82,1.33,22.33-109,48.08-217.23,72.75-325.67q36.44-160.15,76.06-319.56,22.07-89.28,44.76-178.41c.79-3.12-4-4.45-4.82-1.33Z" transform="translate(-619.76 -813.21)"/><path class="cls-1" d="M1732.34,940.92q-40.43,158.27-78.64,317.1-19.12,79.86-37.49,159.9-9.33,40.66-18.44,81.38-4.72,21.07-9.38,42.14-2.13,9.64-4.25,19.29c-.71,3.22-1.3,6.49-2.12,9.67-.57,2.2-1.68,3.85-2.42,5.94-2.52,7.07-3.29,15.34-4.8,22.69s-3,14.75-4.48,22.12c-2.95,14.58-5.93,29.15-9.28,43.65-3.49,15.1-7.82,30-11,45.17s-5.78,30.62-9.39,45.78c-.75,3.13,4.07,4.46,4.82,1.33,3.25-13.62,5.69-27.4,8.45-41.13,2.62-13.08,6.12-25.89,9.3-38.83,6.39-26,11.36-52.38,16.76-78.62q1.07-5.17,2.16-10.34c.7-3.31,1-7.37,2.26-10.49.59-1.4,1.5-2.55,2-4,1.26-3.67,1.72-7.83,2.55-11.61q4.44-20.21,8.94-40.4,9.1-40.87,18.41-81.7,36.39-159.63,75.79-318.55,22.17-89.67,45.06-179.15c.8-3.12-4-4.45-4.82-1.33Z" transform="translate(-619.76 -813.21)"/><path class="cls-1" d="M1722.63,935.46q-19.87,77.52-39.23,155.18-9.68,39.06-19.1,78.18-2.3,9.57-4.59,19.15c-1.5,6.28-2.26,13.49-5.17,19.22-2.24,4.41-2.38,10-3.26,14.87-1.23,6.8-2.92,13.39-4.79,20-3.66,13-6.24,26.2-9.05,39.38s-6.09,26.12-9.23,39.16q-9.57,39.72-19,79.47-18.55,78-36.37,156.21-20,88.33-38.54,177c-.65,3.14,4.17,4.48,4.82,1.33,21.84-105.1,45.67-209.78,70.4-314.23,12.49-52.72,25.37-105.34,37.17-158.22,2.9-13,7.09-25.67,9.45-38.78,1-5.36,1.51-10.54,3.84-15.42,2.58-5.4,3.2-12.84,4.59-18.67q9.27-38.89,18.83-77.71,21.54-87.52,44.08-174.8c.8-3.12-4-4.45-4.82-1.33Z" transform="translate(-619.76 -813.21)"/><path class="cls-1" d="M1714.18,924.42c-1.83,5.6-3.61,11.21-5.12,16.9s-1.85,12.61-4.52,17.87c-2.15,4.24-2.42,9.76-3.39,14.39q-2,9.54-4.3,19c-2.9,12.08-6.1,24.09-9.3,36.1q-2.28,8.55-4.53,17.1c-1.75,6.7-2.14,13.44-3.77,20.21q-18.41,76.49-36.52,153.06c-24.09,101.62-48,203.27-72.43,304.81-6.89,28.65-12.94,57.49-19.69,86.18-6.63,28.22-14.9,55.95-18.24,84.84-.37,3.19,4.63,3.16,5,0,3.06-26.54,10.53-52,16.74-77.93,5.92-24.72,11-49.63,16.84-74.38,12.11-51.51,24.66-102.93,36.87-154.42,24-101.17,47.81-202.4,72.08-303.51l5.1-21.19c1.61-6.69,2-13.3,3.8-20,3.57-13.57,7.27-27.1,10.69-40.71q2.57-10.23,4.88-20.52,1.13-5.05,2.17-10.12c.67-3.27.89-7.41,2.31-10.41,2.32-4.89,2.84-10.33,4.15-15.64,1.68-6.87,3.8-13.61,6-20.32,1-3.07-3.82-4.38-4.82-1.33Z" transform="translate(-619.76 -813.21)"/><path class="cls-1" d="M1061.77,1596.67c-3.14,21.71-3.33,44,2.33,65.3a108,108,0,0,0,46.42,63.8c18.21,11.61,39.2,17.66,60.23,21.74,22.19,4.3,44.48,8.16,66.77,11.9,49.52,8.32,99.17,15.8,148.87,22.92q65.31,9.35,130.73,17.85,34.79,4.54,69.6,8.84l2.47.3c4,.49,7.5-3.8,7.5-7.5,0-4.46-3.46-7-7.5-7.5q-28.36-3.45-56.69-7.14-59.53-7.68-119-16c-48.41-6.81-96.78-13.95-145-21.76q-34.69-5.61-69.28-11.8c-19.45-3.51-39.23-6.56-57.87-13.35-22.83-8.32-42.76-23.17-54.43-44.8-11.1-20.56-13.66-44.55-11.9-67.54.29-3.83.74-8,1.22-11.24.58-4-1-8-5.24-9.23-3.52-1-8.65,1.23-9.23,5.24Z" transform="translate(-619.76 -813.21)"/><path class="cls-1" d="M1706.43,913c8.83,34.12,46.74,54.54,80.06,42.24l-7.3-1.93.83.67-1.93-7.3q-33.15,146.26-63,293.23c-11.63,57.26-22.65,114.65-34.94,171.76-6.52,30.31-13.3,60.56-19.8,90.88-6.79,31.66-12.74,63.46-19.08,95.2-6.76,33.81-14.07,67.51-21.69,101.13q-5.85,25.8-11.9,51.55-3.07,13.12-6.16,26.23c-1,4.36-2.52,8.85-3.14,13.29-.46,3.3-2.47,6.49-3.9,9.91-1.57,3.76,1.7,8.21,5.24,9.23,4.31,1.23,7.67-1.52,9.23-5.24,1.18-2.81,2.62-5,3.45-8,1.05-3.75,1.8-7.62,2.69-11.41q2.88-12.21,5.75-24.43,5.41-23.06,10.7-46.16c6.83-29.86,13.44-59.78,19.65-89.78,6.54-31.59,12.23-63.34,18.83-94.91,6.36-30.45,13.12-60.81,19.76-91.19,22.81-104.44,42.42-209.57,64.75-314.12q18.51-86.71,38.09-173.19c.55-2.41.16-5.62-1.93-7.3-3.46-2.77-6.3-3.11-10.35-1.84a49.91,49.91,0,0,1-8.39,1.89,46.6,46.6,0,0,1-29.33-5.67A47.48,47.48,0,0,1,1720.9,909c-2.42-9.34-16.89-5.38-14.46,4Z" transform="translate(-619.76 -813.21)"/><path class="cls-1" d="M1266.64,1046.53a99,99,0,0,0-12-24.77l-5.65,7.34a305,305,0,0,0,99.31,5.18l-4.32-7.52-12.56,23.08c-3.08,5.65,5.56,10.71,8.63,5l12.56-23.08c1.64-3-.34-8-4.32-7.52a296.63,296.63,0,0,1-96.65-4.83c-4-.86-8.23,3.5-5.65,7.34a89.32,89.32,0,0,1,10.95,22.38c2,6.1,11.63,3.49,9.64-2.66Z" transform="translate(-619.76 -813.21)"/><path class="cls-1" d="M1281.75,1031.95a331.94,331.94,0,0,1,17.4-56.42L1293,979q11.56,2.12,23.26,3.14l-4.82-3.67a242.46,242.46,0,0,0,13,50.63c2.24,6,11.91,3.38,9.64-2.66a242.46,242.46,0,0,1-13-50.63c-.33-2.28-2.82-3.5-4.82-3.67-6.92-.6-13.77-1.53-20.6-2.79a5.2,5.2,0,0,0-6.15,3.49,331.94,331.94,0,0,0-17.4,56.42c-1.34,6.28,8.3,9,9.64,2.66Z" transform="translate(-619.76 -813.21)"/><path class="cls-1" d="M1348.56,1002.44l1.41,56.46c.16,6.42,10.16,6.45,10,0l-1.41-56.46c-.16-6.42-10.16-6.45-10,0Z" transform="translate(-619.76 -813.21)"/><path class="cls-1" d="M1353.77,1039.15l24.57.73c6.44.19,6.43-9.81,0-10l-24.57-.73c-6.44-.19-6.43,9.81,0,10Z" transform="translate(-619.76 -813.21)"/><path class="cls-1" d="M1377.65,1004a316.1,316.1,0,0,0-.13,58.88c.58,6.36,10.59,6.42,10,0a316.1,316.1,0,0,1,.13-58.88c.61-6.4-9.39-6.36-10,0Z" transform="translate(-619.76 -813.21)"/><path class="cls-1" d="M1392.34,1037.15c11.5,4.69,27.52,2.25,35.37-8.1,8.55-11.25-5.39-22.93-16-24.21-12.66-1.53-24,7.21-26.95,19.43s2.89,24.67,13.08,31.73c10.58,7.32,26.38,7.39,34.15-3.89,3.66-5.31-5-10.32-8.63-5-5,7.2-16.22,3.94-21.72-.67-7.44-6.24-10.36-17-4.62-25.43,4.61-6.73,18.21-9.8,22.62-.85,2.2,4.47-6.31,7.77-9.64,8.65a23.22,23.22,0,0,1-15-1.25c-6-2.43-8.55,7.24-2.66,9.64Z" transform="translate(-619.76 -813.21)"/><path class="cls-1" d="M1429.52,1010.65l4.47,45.24c.63,6.35,10.63,6.41,10,0l-4.47-45.24c-.63-6.35-10.63-6.41-10,0Z" transform="translate(-619.76 -813.21)"/><path class="cls-1" d="M1433.63,1015.39c4.29-2.21,10.54-.15,12.28,4.51,1.9,5.07-2.62,11-7.78,11.34l1.33,9.82c8.37-2.6,21.88-1,25.47,8.62,2,5.25-3.16,7.83-7.62,8.58a19.41,19.41,0,0,1-14.43-3.56c-5.32-3.65-10.33,5-5,8.63a29,29,0,0,0,23.74,4.21c7.67-2.05,14.47-7.92,13.83-16.46-1.33-17.82-24.26-24.13-38.61-19.68-5.16,1.6-4.52,10.24,1.33,9.82,11.62-.84,21.07-12.36,17.43-24-3.46-11.12-17.09-15.52-27-10.44-5.72,2.94-.67,11.58,5,8.63Z" transform="translate(-619.76 -813.21)"/><path class="cls-1" d="M1471.75,1010.1a270.2,270.2,0,0,1,3.41,54.18c-.23,6.44,9.77,6.43,10,0a283.32,283.32,0,0,0-3.76-56.84c-1.05-6.33-10.69-3.65-9.64,2.66Z" transform="translate(-619.76 -813.21)"/><path class="cls-1" d="M1480.67,1044.52a90.07,90.07,0,0,0,23.17,1c6.36-.57,6.42-10.58,0-10a80,80,0,0,1-20.51-.67c-6.29-1.06-9,8.58-2.66,9.64Z" transform="translate(-619.76 -813.21)"/><path class="cls-1" d="M1499.87,1010.4l2.93,34.2c.83,9.69.88,19.79,5.47,28.6,3,5.71,11.6.66,8.63-5-4.21-8.09-3.68-18.59-4.43-27.46l-2.59-30.29c-.54-6.36-10.55-6.42-10,0Z" transform="translate(-619.76 -813.21)"/><path class="cls-1" d="M1516,1016.27l.52,34.81c.11,7.4-2.24,20.61,6.07,24.6a5.3,5.3,0,0,0,6.06-.78,161.67,161.67,0,0,0,32.33-34c3.74-5.25-4.93-10.25-8.63-5a153.24,153.24,0,0,1-30.77,31.94l6.06-.78c-2-.95-1-9.08-1-11l-.19-12.93-.4-26.85c-.1-6.43-10.1-6.45-10,0Z" transform="translate(-619.76 -813.21)"/><path class="cls-1" d="M1552.06,1012.85a488.65,488.65,0,0,0,3.08,61.78c.72,6.32,10.73,6.39,10,0a488.65,488.65,0,0,1-3.08-61.78c.09-6.44-9.91-6.44-10,0Z" transform="translate(-619.76 -813.21)"/><path class="cls-1" d="M1563.35,1013.93v48.82c0,5-2,14.27,3.24,17.42,4.85,2.94,9.34-1.74,8.34-6.68-.45-2.22-2.72-3.56-4.82-3.67l-.44,0c-6.43-.33-6.41,9.67,0,10l.44,0-4.82-3.67-.11-1.55,3.49-3.49-.53.18,3.85.5-.7-.52,2.3,3c-1.44-3.89-.24-10.33-.24-14.5v-45.83c0-6.43-10-6.45-10,0Z" transform="translate(-619.76 -813.21)"/><path class="cls-1" d="M1567,1049.27c6.73,6.23,15.07,1.54,20.55-3.95a124,124,0,0,0,18.61-24.26c3.29-5.55-5.35-10.58-8.63-5-1.76,3-19.54,29.8-23.45,26.18-4.72-4.37-11.81,2.69-7.07,7.07Z" transform="translate(-619.76 -813.21)"/><path class="cls-1" d="M1580,1051.66c4.7,1.11,6.76,6,8.53,10,2.53,5.83,4.84,11.76,7.26,17.63s12.1,3.3,9.64-2.66c-3.1-7.52-5.83-15.35-9.46-22.63-2.81-5.64-7-10.52-13.31-12s-8.93,8.16-2.66,9.64Z" transform="translate(-619.76 -813.21)"/><path class="cls-1" d="M1534.19,1705.05c-8.62,21.57-4.69,47.2,8.2,66.27s32.74,31.58,54.51,37.75c9.3,2.64,13.27-11.83,4-14.46-17.87-5.07-35-15.23-45.55-30.86-10.92-16.16-14-36.47-6.69-54.71,1.51-3.79-1.66-8.2-5.24-9.23-4.26-1.22-7.73,1.49-9.23,5.24Z" transform="translate(-619.76 -813.21)"/><path class="cls-2" d="M1064.33,1611.67" transform="translate(-619.76 -813.21)"/><path class="cls-1" d="M823.79,1256.3c20.63,38.54,38.34,78.54,51.83,120.14,3.27,10.1,5.47,20.43,8,30.71,2.34,9.34,4.63,21.12,11.3,28.44,11.91,13.07,31.64,5.55,45.57.73q32.53-11.27,64.81-23.21c5.18-1.93,10.36-4.25,15.65-5.88s10.71-2.77,16-4.33c7.22-2.13,15.92-4.4,20.05-11.35,4.69-7.88,0-15.84-2.82-23.61q-5.32-14.71-11-29.3c-6.45-16.7-13.23-33.28-20.11-49.81q-11.1-26.71-23.32-52.92c-10-21.41-19.79-43.63-32.37-63.68-2.3-3.67-6.48-4.45-10.26-2.69q-67,31.15-135.93,57.81c-5,1.92-7.78,8.35-3.31,12.54,5.19,4.86,15.37,1.8,15.41-6a7.62,7.62,0,0,0-7.5-7.5,14,14,0,0,0-4.6.91c-3.66,1.2-6.62,5.24-5.24,9.23l2.58,7.43c3.14,9.06,17.64,5.17,14.46-4l-2.58-7.43-5.24,9.23q2.5-.65.61-.38l-7.5-7.5v.15l2.2-5.3a4.79,4.79,0,0,1,3-1.44l5.3,2.2-.28-.26-3.31,12.54q70.72-27.34,139.52-59.32l-10.26-2.69c9,14.3,16,29.84,23.44,45q8.83,18.08,17.08,36.43c11.33,25.22,21.84,50.84,31.9,76.6q9.35,23.93,17.83,48.18v-4c-.54,2.47-1.46,2.85-4.1,4-5.26,2.23-11.13,3.5-16.63,5-11.79,3.16-23.09,7.87-34.55,12.07s-23,8.35-34.6,12.42c-10.73,3.78-21.45,8.06-32.47,11-6,1.58-14.44,3.47-17.94-3.2-5.36-10.22-7-23.06-9.72-34.17-5.55-22.88-14.24-45.2-23.21-66.94a810.51,810.51,0,0,0-34.81-73.38c-4.56-8.51-17.51-.95-13,7.57Z" transform="translate(-619.76 -813.21)"/><path class="cls-1" d="M913.19,1320.55c-13.92,18.65-13.68,45.59,0,64.23a60.07,60.07,0,0,0,66.37,21.63c11.74-3.72,22.26-11.06,28.81-21.61,7.39-11.92,8.29-26.44,5-39.82-4.3-17.53-15.58-33.47-32.15-41.24a55.32,55.32,0,0,0-68,16.82c-2.47,3.25-.49,8.36,2.69,10.26,3.82,2.29,7.83.52,10.26-2.69.78-1-1.31,1.57-.18.25.4-.47.79-.94,1.2-1.4.91-1,1.86-2,2.85-2.93a42.06,42.06,0,0,1,9.7-6.82,39.27,39.27,0,0,1,31-1.72c11.79,4.12,21,13.75,25.57,25.12,3.53,8.79,5.39,18.76,2.89,28.06-2.55,9.49-9.33,16.71-18,21a45.16,45.16,0,0,1-51.55-8.63,40.57,40.57,0,0,1-3.47-53c2.44-3.27.51-8.35-2.69-10.26C919.65,1315.58,915.6,1317.32,913.19,1320.55Z" transform="translate(-619.76 -813.21)"/><path class="cls-1" d="M954.79,1341.26c4.88.23,8.61,5.24,8.91,9.88.35,5.26-4.22,8.06-9,8-4.56,0-9-2.57-8.93-7.55s3.95-10.16,9-10.37c9.62-.4,9.67-15.4,0-15-13.1.54-23.57,11.73-24,24.78-.45,13.41,11,23.1,23.92,23.14,12.69,0,24-9.29,24-22.45s-10.65-24.84-23.91-25.47c-9.65-.46-9.63,14.54,0,15Z" transform="translate(-619.76 -813.21)"/><path class="cls-1" d="M976.77,1278.24a9.74,9.74,0,0,0,8.06,1,2.53,2.53,0,0,0,1.49-3.67c-7.65-15.14-13.78-31-21.28-46.2a230.31,230.31,0,0,0-11.57-21.28c-2.67-4.22-6.95-7.68-12.1-8-6.91-.4-14.09,4.82-20.07,7.66q-12.39,5.88-24.83,11.68c-16.52,7.73-33,15.48-49.38,23.56-2.88,1.43-.35,5.74,2.52,4.32,14.6-7.22,29.32-14.17,44.06-21.07q11.08-5.19,22.16-10.39,5.77-2.72,11.54-5.46c3.45-1.64,7.19-4.08,10.91-5,7.43-1.87,10.77,5.27,13.74,10.56,3.86,6.89,7.68,13.7,11.06,20.85,6.46,13.7,12.08,27.77,18.92,41.29l1.49-3.67a4.18,4.18,0,0,1-4.2-.51c-2.75-1.68-5.27,2.64-2.52,4.32Z" transform="translate(-619.76 -813.21)"/><path class="cls-1" d="M975.59,1282.06c3.1-.86,6.19-1.75,9.23-2.8a2.55,2.55,0,0,0,1.49-3.67c-1.74-3.74-3.53-7.48-7.05-9.85-2.67-1.8-5.18,2.52-2.52,4.32s4,5.26,5.26,8.06l1.49-3.67c-3,1-6.13,1.94-9.23,2.8s-1.78,5.68,1.33,4.82Z" transform="translate(-619.76 -813.21)"/><path class="cls-1" d="M848.69,1248.77c9,10.78,13,24.56,18.25,37.34,2.38,5.73,5.1,13,9.3,17.66,3.07,3.39,6.77,7.84,11.84,7.32,3-.31,6.15-1.94,9-2.91q5.46-1.87,10.95-3.64c7.26-2.35,14.55-4.61,21.83-6.88,14.8-4.63,29.55-9.38,44-15.1,3-1.17,1.67-6-1.33-4.82-26.61,10.55-54.39,17.6-81.32,27.21-4.15,1.48-6,.62-8.89-2.57a36.21,36.21,0,0,1-5.07-6.63,135,135,0,0,1-8.57-18.83c-4.33-11.19-8.61-22.38-16.4-31.67-2.07-2.47-5.59,1.08-3.54,3.54Z" transform="translate(-619.76 -813.21)"/><path class="cls-1" d="M900.45,1206.58c.7-42.23-22.77-81.79-57.19-105.31-35.94-24.56-82.59-27.57-122.83-12.3-42.11,16-74.1,49.1-89.79,91.2-15.63,41.94-14.44,90.43,3.69,131.37,16.53,37.33,52.05,70.44,95.46,65.64,18.3-2,36.6-9.7,49-23.65,12.71-14.27,23.07-41.45,5.76-56.36-16.11-13.87-43-8.55-60.89-1.32-20.25,8.2-37.78,22.2-51.47,39.13-29.07,36-42.52,84.28-36.84,130.15C641,1510.22,665,1550.39,703.47,1575c35.58,22.79,81.38,30.23,121,13.9,37.66-15.51,68.81-49.16,77.12-89.62,3.79-18.46,4.71-43.64-11.49-56.83-19.55-15.91-46.56.05-64.43,11.13-36.32,22.52-66.7,56.77-79,98.24-11.38,38.33-4.51,81.85,19.19,114.26,11.73,16,27,29,45.41,36.73,22.12,9.27,46.41,10.17,69.77,5.74,47.91-9.1,90.44-38.22,129.38-66.12,75.08-53.78,143.95-119.95,187.35-202.42,22.14-42.07,35-87.8,52.3-131.86,8.54-21.7,18.52-42.95,31.54-62.34,6.32-9.41,13.4-20.11,23.32-26.06,6.07-3.64,13.9-5.11,16.46,2.05.81,2.27,1,5.15.17,6.54-.09.17-1.17.82-.15.38-.46.2-2.21.07-1,.4-1.13-.3-1.58-2-1.72-3.57a17,17,0,0,1,.09-2.08c.4-1.24.21-.7,1.22-.92l-9.23-5.24a58.93,58.93,0,0,1,1.12,21.75c-1,7.31,6.53,12.54,12.54,7.3a92.66,92.66,0,0,0,29.9-51.86c.77-4-1.08-8.11-5.24-9.23-18.11-4.86-42.57-.54-49.9,19.15-6,16.14,4.14,36.76,22.25,37.62,7.21.34,8.94-8.12,5.3-12.8a56.13,56.13,0,0,1-11.42-34.61c0-5.21-6.58-10-11.29-6.48a153.11,153.11,0,0,0-55.14,78c-2.83,9.25,11.64,13.21,14.46,4a136.18,136.18,0,0,1,48.25-69l-11.29-6.48c0,16.7,5.63,32.1,15.82,45.22l5.3-12.8c-8.34-.4-10.67-12.73-7.61-18.85,5.42-10.85,21.27-11.15,31.28-8.46l-5.24-9.23a79.47,79.47,0,0,1-26,45.24l12.54,7.3a79.09,79.09,0,0,0-1.12-29.73c-1-4.08-5.39-6.09-9.23-5.24-16.43,3.67-16.05,30.17-.63,35.07a16.39,16.39,0,0,0,19.52-8.12c3.38-6.68,2.46-15.16-.88-21.66-4.21-8.18-12.4-12.24-21.48-11.61-11,.77-20.53,7.71-27.86,15.54-15.15,16.16-26.54,36.54-36,56.42-19.51,41-31.16,85-48.75,126.79-17,40.34-40.57,77.8-68.45,111.49-28,33.88-60.18,64.24-94.5,91.69-17.26,13.8-35.13,26.82-53.41,39.23-19.14,13-38.71,25.44-59.65,35.35-39,18.45-86.75,27.81-124.3,1-29.56-21.11-44.67-59.38-43.35-95,1.48-39.87,24.68-76,54.34-101.31a186,186,0,0,1,23.92-17.23c9.16-5.59,19.12-11.48,29.61-14.11,23.3-5.84,26.25,20.68,24.09,37.37-4.88,37.64-32.68,70.13-66.93,85.07-36.38,15.87-78.26,8.74-110.91-12.43-35.28-22.89-57.16-61.2-60.71-102.94-3.65-42.83,9.8-88.08,39.07-120,13.55-14.79,30.5-26.85,50-32.14,8.91-2.41,19.1-4,28.2-1.73,10.77,2.72,13.18,11.23,10.37,21.34-9.2,33-53.06,44.07-81.61,31-37.33-17-56.39-60-60.15-98.9-4-41.57,7.23-85.59,35-117.41,26.3-30.09,66.17-47.93,106.22-46.3,39.43,1.61,75.21,24.58,94.65,58.7a104.08,104.08,0,0,1,13.93,53.28c-.16,9.66,14.84,9.66,15,0Z" transform="translate(-619.76 -813.21)"/><path class="cls-1" d="M811.69,1705.9c55.5,30.25,119.74,42.77,182.62,37.89s125.18-26.52,175.95-64.5c58.59-43.83,96.5-107.09,134.52-168.23,36.36-58.47,76.27-119.2,136.38-155.78,13.39-8.15,29.38-17.73,45.26-19.45,5.43-.59,14.16-.24,16.92,5.43a11.87,11.87,0,0,1-1.13,11.51,5.18,5.18,0,0,1-1.62,1.17l-.9,0,2.58.88a21,21,0,0,0-1.74-1.93,48.56,48.56,0,0,0-4.28-3.94,61.77,61.77,0,0,0-19.65-10.85,64.18,64.18,0,0,0-42.18.5,59.77,59.77,0,0,0-18.69,11.25c-7.25,6.4,3.39,17,10.61,10.61,10.08-8.89,24.32-12.13,37.47-10.09a48.68,48.68,0,0,1,19.2,7.32c6.11,4,9.6,11.34,17.58,11.26,13.93-.14,20.18-16,18.21-27.86-2.81-16.89-21.05-22-35.89-19.8-16.92,2.45-33.47,11.56-48,20.24a275.19,275.19,0,0,0-42,31.31c-26.21,23.48-48.34,51.26-68.34,80.12-42.59,61.45-75.7,130.24-128.58,184-45.52,46.31-105.22,76-168.92,87.6-62.34,11.3-128.91,4.81-186.91-21.22-7.11-3.19-14.07-6.68-20.91-10.41-8.48-4.62-16.06,8.33-7.57,13Z" transform="translate(-619.76 -813.21)"/><path class="cls-1" d="M1401.1,1380.13a334.09,334.09,0,0,1,30.43-28.25c9.87-8.06,20.32-16,32-21.18,16.74-7.42,44.24-7.19,50.9,14l14.46-4c-4.76-14.2-22.07-17.25-34.12-10.2-16,9.37-14.74,30.69-11.77,46.36.83,4.38,7.32,7.32,11,4.48l14.18-10.86c3.24-2.48,4.87-6.43,2.69-10.26-1.82-3.2-7-5.14-10.26-2.69-3.69,2.8-8.07-1.36-8.94-5.28-1.71-7.67,5.65-16.25,9.83-21.88,4.45-6-4.28-14.4-10.26-10.26a65.1,65.1,0,0,1-41.35,11.67c-4-.23-7.5,3.62-7.5,7.5,0,12.6,12.34,16.74,22.71,18.7,12.4,2.34,21.87,8.33,27.09,20.19,2.49,5.66,10.06,4,13,0l20.83-29.1c5.63-7.86-7.38-15.36-13-7.57l-20.83,29.1h13a46.82,46.82,0,0,0-25.42-24.24c-4.82-1.95-9.83-2.53-14.85-3.7-1.88-.44-7.48-1.51-7.48-3.38l-7.5,7.5a78.45,78.45,0,0,0,48.92-13.72l-10.26-10.26c-7.91,10.68-16.61,25.32-9.31,38.6,5.36,9.75,19,16.63,28.94,9.08l-7.57-13-14.18,10.86,11,4.48c-1.58-8.34-4.08-22.49,3.74-28.69,3-2.36,11.56-4.44,13.22.51,3,9.08,17.38,5.29,14.46-4-8.27-26.34-39.29-34.57-63.42-26.75-14.17,4.59-26.44,13.05-38.09,22.11a335.64,335.64,0,0,0-36.93,33.43c-6.66,7,3.93,17.61,10.61,10.61Z" transform="translate(-619.76 -813.21)"/><path class="cls-1" d="M1316,1219.61l4.05-14.46a7.63,7.63,0,0,0-5.24-9.23c-4.31-1.23-7.67,1.52-9.23,5.24a59.19,59.19,0,0,0-3.88,15.33c-1.08,8.09,10.27,9.17,14,3.79a34.24,34.24,0,0,0,5.8-17.32c.63-8.32-13.51-10.4-14.73-2l-2.5,17.19c-.55,3.75.61,7.28,4.34,8.85,3.28,1.38,7.63.26,9.37-3.07a50.17,50.17,0,0,0,4.76-12.94c1.71-8.11-9.22-13.36-13.71-5.78a42.56,42.56,0,0,0-5.56,17.21c-.87,7.3,11,10.36,14,3.79a23.5,23.5,0,0,0,2-14.34c-1-6.83-10.56-6.68-13.71-1.79a15.72,15.72,0,0,0,.29,17.67c3.34,4.58,9.7,5,13,0l9.93-15.4-13-7.57-8.43,18.4c-4.08,8.89,7.14,15.23,13,7.57l11.6-15.28-13-7.57c-3.66,6.71-10.4,15.19-10.12,23.08.21,6,8.37,10.53,12.8,5.3l12.31-14.5-11.78-9.09c-3.45,5.87-6.89,11.74-10.18,17.7-4,7.16,6.06,15.81,11.78,9.09a121.19,121.19,0,0,1,14-14l-10.61-10.61-12.74,16c-5.86,7.38,3.5,17.52,10.61,10.61a155.16,155.16,0,0,0,11.06-11.94c6.14-7.37-4.42-18-10.61-10.61a155.16,155.16,0,0,1-11.06,11.94l10.61,10.61,12.74-16c6-7.5-3.12-16.94-10.61-10.61a121.19,121.19,0,0,0-14,14l11.78,9.09c3.29-6,6.73-11.83,10.18-17.7,4.2-7.14-6.14-15.74-11.78-9.09l-12.31,14.5,12.8,5.3c-.08-2.14,2.68-5.6,3.7-7.47l4.38-8c4.75-8.71-7.26-15.07-13-7.57l-11.6,15.28,13,7.57,8.43-18.4c4-8.67-7.63-15.82-13-7.57l-9.93,15.4h13c-.95-1.3-1.13-1.23-.29-2.53l-13.71-1.79a5.53,5.53,0,0,1-.44,2.78l14,3.79a24.57,24.57,0,0,1,3.52-9.64L1308.3,1207a35.55,35.55,0,0,1-3.25,9.36l13.71,5.78,2.5-17.19-14.73-2a19.1,19.1,0,0,1-3.75,9.75l14,3.79a45.38,45.38,0,0,1,3.35-11.34l-14.46-4-4.05,14.46c-2.61,9.31,11.86,13.28,14.46,4Z" transform="translate(-619.76 -813.21)"/><path class="cls-1" d="M1435.16,1355.2c10.74-4,21.34-.06,31.22,4.53a47,47,0,0,1,6.53,3.24c1.72,1.16,1.95,2.23,2.74,4.11,2.41,5.7,7.8,9.64,12.19,13.8v-10.61l-.28.25,9.09-1.17-.47-.34,3.71,6.48v-.53l-5.51,7.23.89-.3h-4c7.71,1.42,13.5-1.59,16.46-8.86,1.54-3.78-1.67-8.21-5.24-9.23-4.28-1.22-7.71,1.5-9.23,5.24q4-2.08,0-1.88a7.92,7.92,0,0,0-2.89.56,7.73,7.73,0,0,0-5.51,7.23c0,3.34,1.57,5.47,4.17,7.34,2.77,2,6.78.91,9.09-1.17l.28-.25c3-2.66,2.83-7.93,0-10.61-2.66-2.52-6.16-4.95-8.31-7.91-1.54-2.12-2-4.89-3.63-7.09-3.77-5.09-10.15-7.47-15.74-10-12.47-5.53-26.22-9.5-39.59-4.58-9,3.31-5.1,17.81,4,14.46Z" transform="translate(-619.76 -813.21)"/><path class="cls-1" d="M1500.59,1376.94a78.47,78.47,0,0,1,12.12-15l-10.61-10.61c-3.51,3.49-7.64,9.35-12,11.53l3.79-1-1.13.11,3.79,1-.9-.59,3.45,4.48-.27-1v4c.44-1.87,2.74-4,4-5.46l-11.78-9.09a51.68,51.68,0,0,1-6.62,7.29l11.78,9.09a68.69,68.69,0,0,0,7.09-13.86c2.52-6.47-5.75-11.32-11-8.47a46.54,46.54,0,0,0-11.56,8.84l11.78,9.09,5.52-9.2c4.43-7.38-5.69-15-11.78-9.09l-6.29,6.08,11.78,9.09,5.25-9.43c3-5.33-2-13.33-8.47-11a38.88,38.88,0,0,0-12.24,7.07l12.54,7.3,1.4-8.29c1.14-6.78-7-13.32-12.54-7.3l-6,6.5,11.78,9.09,4.1-8.5a7.54,7.54,0,0,0-11.78-9.09l-6.72,5.69,12.54,7.3,2.38-5.78c2.42-5.87-5.95-12.23-11-8.47a36.8,36.8,0,0,0-7.84,7.78l13.71,5.78a16.81,16.81,0,0,1,2.93-5.05c5.07-6-1.62-17-9.09-11.78a66.18,66.18,0,0,0-8.29,6.8l11.78,9.09,3.3-6.26c3.8-7.21-5.89-15.75-11.78-9.09a22.09,22.09,0,0,1-4.49,4l11,8.47a36.6,36.6,0,0,1,3-6.18c4.38-7.34-5.72-15.08-11.78-9.09a52.9,52.9,0,0,1-6.09,5.29l10.26,10.26,3.66-6.29c4.24-7.3-5.78-15.28-11.78-9.09a33.73,33.73,0,0,1-7.93,6.11l10.26,10.26,3.61-8c2.75-6.09-3.44-15-10.26-10.26l-8.64,6,11,8.47a9.24,9.24,0,0,1,2.76-5.28c5.91-5.83-1.9-16.68-9.09-11.78a77.17,77.17,0,0,0-11.26,9.26l12.54,7.3a21.4,21.4,0,0,1,2.71-4.62c5-7-5.92-15.05-11.78-9.09a32.37,32.37,0,0,1-10.21,7l10.26,10.26a26.19,26.19,0,0,1,6-6.38c6.86-5.39-1.9-15.81-9.09-11.78a27,27,0,0,0-6.84,5.41l10.61,10.61a33.37,33.37,0,0,1,11.24-9.13L1447.21,1328l-5.26,7.35c-4.27,6,4.3,14.66,10.26,10.26l11.08-8.18-9.09-11.78-7,8c-6.46,7.35,3.19,16.69,10.61,10.61a56,56,0,0,1,8.3-5.52L1457,1327a74.28,74.28,0,0,1-8.63,9.33c-7.15,6.52,3.48,17.1,10.61,10.61a74.28,74.28,0,0,0,8.63-9.33c5-6.37-1.1-16.24-9.09-11.78a77.29,77.29,0,0,0-11.34,7.86l10.61,10.61,7-8c5.24-6-1.82-17.14-9.09-11.78l-11.08,8.18L1454.9,1343l5.26-7.35c4.71-6.58-4.17-13.34-10.26-10.26a43.62,43.62,0,0,0-14.28,11.47c-6,7.35,4,17.89,10.61,10.61a14,14,0,0,1,3.8-3.07l-9.09-11.78a38,38,0,0,0-8.39,9.42c-4.48,6.9,4,13.06,10.26,10.26a43.57,43.57,0,0,0,13.25-9.34l-11.78-9.09a36.18,36.18,0,0,0-4.23,8.21c-2.82,7.25,7.57,12.27,12.54,7.3a56.44,56.44,0,0,1,8.23-6.91l-9.09-11.78a23.36,23.36,0,0,0-6.62,11.9c-1.23,5.85,5.26,12.48,11,8.47l8.64-6-10.26-10.26-3.61,8c-3,6.55,3.26,14.21,10.26,10.26a48.11,48.11,0,0,0,11-8.46l-11.78-9.09-3.66,6.29c-3.54,6.09,3.94,14.85,10.26,10.26a77.93,77.93,0,0,0,9.12-7.63l-11.78-9.09a57.8,57.8,0,0,0-4.56,9.76c-2.24,6.1,5.74,11.94,11,8.47a37,37,0,0,0,7.53-6.38l-11.78-9.09-3.3,6.26c-3.92,7.43,5.54,15.19,11.78,9.09a42.17,42.17,0,0,1,5.25-4.46l-9.09-11.78a37.64,37.64,0,0,0-6.78,11.67c-1.29,3.5,1.16,7.51,4.34,8.85,3.71,1.56,7.07,0,9.37-3.07a13,13,0,0,1,2.46-2.4l-11-8.47-2.38,5.78c-3.14,7.63,7.52,11.54,12.54,7.3l6.72-5.69L1474.6,1342l-4.1,8.5c-3.49,7.24,5.66,15.74,11.78,9.09l6-6.5-12.54-7.3-1.4,8.29c-1.26,7.48,6.6,12.29,12.54,7.3a18.39,18.39,0,0,1,5.62-3.21l-8.47-11-5.25,9.43c-4.14,7.43,5.59,15.07,11.78,9.09l6.29-6.08-11.78-9.09-5.52,9.2c-4.35,7.25,5.85,15.31,11.78,9.09a32.93,32.93,0,0,1,8.52-6.49l-11-8.47a51.83,51.83,0,0,1-5.58,10.28c-4.93,7.27,5.76,14.72,11.78,9.09a71.52,71.52,0,0,0,9-10.33c5-6.87-6.13-15.4-11.78-9.09-5.14,5.75-13.87,17.77-2.35,22.48,8.89,3.64,17.52-9,22.87-14.36,6.86-6.82-3.68-17.35-10.61-10.61a95.05,95.05,0,0,0-14.46,18c-5.11,8.22,7.87,15.77,13,7.57Z" transform="translate(-619.76 -813.21)"/><path class="cls-1" d="M1470.78,1348.81l9-10.38-11.78-9.09-7.28,13.1a7.52,7.52,0,0,0,1.93,9.68c2.7,2,7.5,2.38,9.85-.59a40.67,40.67,0,0,1,10.41-9.52l-10.26-10.26-8.07,11.94c-4.71,7,6.35,15.7,11.78,9.09,3.64-4.43,8-9.63,13.05-12.52l-3.79,1h.61l-6.48-3.71.2.33-.76-5.78-.11.38,5.24-5.24-.31.05c-4,.7-6.24,5.59-5.24,9.23,1.16,4.21,5.22,5.94,9.23,5.24l.31-.05c2.55-.45,4.53-2.9,5.24-5.24,2.57-8.53-7.35-12.44-13.39-8a79.09,79.09,0,0,0-14.4,13.7l11.78,9.09,8.07-11.94c4.24-6.27-4.07-14.14-10.26-10.26a52.31,52.31,0,0,0-13.44,11.86l11.78,9.09,7.28-13.1c4-7.17-6-15.76-11.78-9.09l-9,10.38c-6.28,7.27,4.29,17.93,10.61,10.61Z" transform="translate(-619.76 -813.21)"/><path class="cls-1" d="M1480.52,1353.24l11.15-8.9c3.08-2.46,2.76-8.08,0-10.61-3.27-3-7.32-2.62-10.61,0l-11.15,8.9c-3.08,2.46-2.76,8.08,0,10.61,3.27,3,7.32,2.62,10.61,0Z" transform="translate(-619.76 -813.21)"/><path class="cls-1" d="M1486.9,1352.9l11.35-11.31c2.78-2.77,3-7.87,0-10.61a7.64,7.64,0,0,0-10.61,0l-11.35,11.31c-2.78,2.77-3,7.87,0,10.61a7.64,7.64,0,0,0,10.61,0Z" transform="translate(-619.76 -813.21)"/><path class="cls-1" d="M1487.58,1357.57l14-12c3.09-2.63,2.7-7.9,0-10.61-3.06-3.06-7.51-2.63-10.61,0l-14,12c-3.09,2.63-2.7,7.9,0,10.61,3.06,3.06,7.51,2.63,10.61,0Z" transform="translate(-619.76 -813.21)"/><path class="cls-1" d="M1493.13,1357.81l12.47-11.55c3-2.75,2.79-7.82,0-10.61a7.63,7.63,0,0,0-10.61,0l-12.47,11.55c-3,2.75-2.79,7.82,0,10.61a7.63,7.63,0,0,0,10.61,0Z" transform="translate(-619.76 -813.21)"/><path class="cls-1" d="M1489.67,1345.84c-3.33,1.38-5.53,3-6.51,6.68-2,7.47,7.09,12.21,12.54,7.3l15.84-14.3c3-2.72,2.76-7.85,0-10.61a7.63,7.63,0,0,0-10.61,0l-15.84,14.3,12.54,7.3.18-.66-1.93,3.31.46-.52-3.31,1.93.64-.26c3.74-1.55,6.41-5,5.24-9.23-1-3.54-5.46-6.8-9.23-5.24Z" transform="translate(-619.76 -813.21)"/><path class="cls-1" d="M1490.55,1347.86a8,8,0,0,0-1,.59c-3,2.22-4.62,5.69-3.07,9.37a7.48,7.48,0,0,0,8.85,4.34c3.26-1,5.7-3.92,8.24-6s5.1-4.15,7.43-6.49c2.77-2.79,3-7.86,0-10.61a7.63,7.63,0,0,0-10.61,0,82.11,82.11,0,0,1-6.21,5.48c-1,.83-2,1.67-3,2.53-.5.43-1,.87-1.47,1.32l-.55.49a4.25,4.25,0,0,1,2.2-1.17l5.78,13.71a8,8,0,0,1,1-.59,7.56,7.56,0,0,0,2.69-10.26,7.67,7.67,0,0,0-10.26-2.69Z" transform="translate(-619.76 -813.21)"/><path class="cls-1" d="M1490.36,1353.7l-1.22,1.19a7.61,7.61,0,0,0,0,10.61c3.1,3.1,7.46,2.58,10.61,0A95.68,95.68,0,0,0,1513,1352.3c2.57-3.12,3.06-7.55,0-10.61-2.65-2.65-8-3.14-10.61,0a95.68,95.68,0,0,1-13.22,13.19l10.61,10.61,1.22-1.19a7.5,7.5,0,0,0-10.61-10.61Z" transform="translate(-619.76 -813.21)"/><path class="cls-1" d="M1502.94,1364.27l12-10.65c3-2.69,2.74-7.86,0-10.61-3-3-7.57-2.69-10.61,0l-12,10.65c-3,2.69-2.74,7.86,0,10.61,3,3,7.57,2.69,10.61,0Z" transform="translate(-619.76 -813.21)"/><path class="cls-1" d="M1502.91,1369.56l8-6.65c3-2.52,2.8-8,0-10.61-3.22-3-7.37-2.69-10.61,0l-8,6.65c-3,2.52-2.8,8,0,10.61,3.22,3,7.37,2.69,10.61,0Z" transform="translate(-619.76 -813.21)"/><path class="cls-1" d="M1470.07,1359.21c2.17,4.7,4.5,9.31,7.06,13.8,2.36,4.15,4.76,8.89,8.63,11.83,8.51,6.45,19.34,2.36,26.21-4.39,6.4-6.29,14.23-14.34,17.6-22.76s1.15-19.18-7.48-23.43-16.24,8.68-7.57,13c6.82,3.36-10.21,19.77-13.15,22.63-1.27,1.24-3.6,3.65-5.65,3.28-1.78-.32-2.43-2.27-3.33-3.75a179.51,179.51,0,0,1-9.37-17.74c-4-8.75-17-1.14-13,7.57Z" transform="translate(-619.76 -813.21)"/><path class="cls-1" d="M1453,1329.25l5.45,12.24c1.65,3.7,7,4.57,10.26,2.69,3.81-2.23,4.34-6.55,2.69-10.26l-5.45-12.24c-1.65-3.7-7-4.57-10.26-2.69-3.81,2.23-4.34,6.55-2.69,10.26Z" transform="translate(-619.76 -813.21)"/><path class="cls-1" d="M1458.7,1328a31,31,0,0,1,6.36,13c2.27,9.38,16.74,5.41,14.46-4a47.43,47.43,0,0,0-10.22-19.62c-2.62-3.09-7.91-2.7-10.61,0-3.06,3.06-2.63,7.51,0,10.61Z" transform="translate(-619.76 -813.21)"/><path class="cls-1" d="M1465.33,1322.24a176.22,176.22,0,0,0,9.78,20.59c4.73,8.42,17.69.86,13-7.57a146.46,146.46,0,0,1-8.27-17c-1.51-3.75-5-6.4-9.23-5.24-3.56,1-6.76,5.45-5.24,9.23Z" transform="translate(-619.76 -813.21)"/><path class="cls-1" d="M1474.69,1323.36l11.06,20.81c4.53,8.53,17.48,1,13-7.57l-11.06-20.81c-4.53-8.53-17.48-1-13,7.57Z" transform="translate(-619.76 -813.21)"/><path class="cls-1" d="M1481.57,1322.39a227.5,227.5,0,0,0,9.78,26c1.64,3.69,7,4.59,10.26,2.69,3.8-2.25,4.35-6.53,2.69-10.26a195.84,195.84,0,0,1-8.27-22.38c-2.81-9.21-17.3-5.28-14.46,4Z" transform="translate(-619.76 -813.21)"/><path class="cls-1" d="M1490.11,1323.56l7.19,23.58c2.81,9.21,17.29,5.28,14.46-4l-7.19-23.58c-2.81-9.21-17.29-5.28-14.46,4Z" transform="translate(-619.76 -813.21)"/><path class="cls-1" d="M1499.2,1329q2.46,12.46,5.87,24.7c2.59,9.29,17.06,5.34,14.46-4q-3.41-12.24-5.87-24.7c-1.87-9.46-16.33-5.46-14.46,4Z" transform="translate(-619.76 -813.21)"/><path class="cls-1" d="M1508.94,1336.36l2.68,14c.76,4,5.54,6.25,9.23,5.24,4.17-1.15,6-5.23,5.24-9.23l-2.68-14c-.76-4-5.54-6.25-9.23-5.24-4.17,1.15-6,5.23-5.24,9.23Z" transform="translate(-619.76 -813.21)"/><path class="cls-1" d="M1304.86,1199.71a177.11,177.11,0,0,0,4.76,18.67c2.88,9.18,17.36,5.26,14.46-4a177.11,177.11,0,0,1-4.76-18.67c-.79-4-5.53-6.25-9.23-5.24-4.15,1.14-6,5.24-5.24,9.23Z" transform="translate(-619.76 -813.21)"/><path class="cls-1" d="M1317,1203.17c9.65,0,9.67-15,0-15s-9.67,15,0,15Z" transform="translate(-619.76 -813.21)"/><path class="cls-1" d="M1307.44,1199.76q2.37,7.66,5.09,15.2c1.37,3.81,5.1,6.37,9.23,5.24,3.68-1,6.62-5.4,5.24-9.23q-2.72-7.54-5.09-15.2c-2.84-9.19-17.33-5.27-14.46,4Z" transform="translate(-619.76 -813.21)"/><path class="cls-1" d="M1312.41,1197l9.12,23.42c1.47,3.77,5,6.39,9.23,5.24,3.6-1,6.72-5.43,5.24-9.23l-9.12-23.42c-1.47-3.77-5-6.39-9.23-5.24-3.6,1-6.72,5.43-5.24,9.23Z" transform="translate(-619.76 -813.21)"/><path class="cls-1" d="M1318.31,1196.38c3.54,8.5,7.3,16.9,11.36,25.16,4.26,8.66,17.2,1.07,13-7.57-3.49-7.1-6.81-14.28-9.85-21.58-1.56-3.74-5-6.41-9.23-5.24-3.53,1-6.81,5.46-5.24,9.23Z" transform="translate(-619.76 -813.21)"/><path class="cls-1" d="M1325.51,1194.95q4.48,9.77,9.47,19.28c4.48,8.55,17.43,1,13-7.57q-5-9.52-9.47-19.28c-1.69-3.68-7-4.59-10.26-2.69-3.78,2.21-4.39,6.57-2.69,10.26Z" transform="translate(-619.76 -813.21)"/><path class="cls-1" d="M1332.73,1195.36l5,11.48c1.57,3.61,7.14,4.71,10.26,2.69,3.75-2.42,4.37-6.4,2.69-10.26l-5-11.48c-1.57-3.61-7.14-4.71-10.26-2.69-3.75,2.42-4.37,6.4-2.69,10.26Z" transform="translate(-619.76 -813.21)"/><path class="cls-1" d="M1298.56,1208.94c.73,2.91,0,6,.24,9a28,28,0,0,0,2.54,9.55,95.59,95.59,0,0,0,9.63,17.5c2.38,3.32,6.51,4.83,10.26,2.69,3.27-1.86,5-7,2.69-10.26a84.36,84.36,0,0,1-8.92-15.92c-2.23-5.24-.6-11-2-16.5-2.34-9.36-16.81-5.39-14.46,4Z" transform="translate(-619.76 -813.21)"/><path class="cls-1" d="M1283.65,1242.36c4.49-11.29,21.22-11.13,25.58.16,1.45,3.76,5,6.41,9.23,5.24,3.6-1,6.71-5.41,5.24-9.23-4.33-11.22-14.23-19.28-26.51-19.76-12.77-.5-23.46,8.18-28,19.61-1.51,3.79,1.65,8.2,5.24,9.23,4.25,1.22,7.74-1.49,9.23-5.24Z" transform="translate(-619.76 -813.21)"/><path class="cls-1" d="M1297.5,1226.78l.45-.61-4.48,3.45.71-.27h-4l.74.15c4.86,1,9.32-2.13,9.49-7.23l.08-2.4h-15a14.16,14.16,0,0,0,3.62,8.44c3.09,3.53,9.65,2.6,11.78-1.52a13,13,0,0,0,1.26-8.91l-13.71,5.78a9.6,9.6,0,0,0,4.63,4.49c3.4,1.45,8.45,1.36,10.26-2.69a15.7,15.7,0,0,0,1.74-8.25h-15c.52,4.64,2.32,8.22,6.42,10.7,4.81,2.91,11.41-.82,11.29-6.48l-.1-4.51c-.16-7-10.62-10.83-14-3.79-1.8,3.77-2.24,8.21.42,11.74,2.4,3.18,6.47,5,10.26,2.69,5.1-3.13,7.46-10.25,3.71-15.4-4.46-6.11-13.28-3.87-14,3.79a17.9,17.9,0,0,0,2.17,9.81l8.47-11c-6.51-2-12.39,4.82-9.8,11,2.32,5.51,8.33,5.37,13.38,5.91,4,.43,7.5-3.76,7.5-7.5,0-4.41-3.45-7.07-7.5-7.5a19,19,0,0,1-4.11-.59l3.31,1.93-.42-.44,2.2,5.3,0-.59-2.2,5.3.44-.4-7.3,1.93.47.15c6.61,2.08,11.27-5.48,8.47-11a4.12,4.12,0,0,1-.13-2.24l-14,3.79a4.59,4.59,0,0,1,1.68-5.12l10.26,2.69-.42,3.4-14-3.79.1,4.51,11.29-6.48a2.72,2.72,0,0,1,1,2.25c-.45-4-3.12-7.5-7.5-7.5-3.74,0-7.91,3.45-7.5,7.5q-.08,1.93.31.68l10.26-2.69.75.89c-1.7-3.28-6.12-4.49-9.37-3.07-3.66,1.61-5,5-4.34,8.85l.17,1.08v-4l.08.26,11.78-1.52.77,2.17c-.54-4-3.06-7.5-7.5-7.5a7.62,7.62,0,0,0-7.5,7.5l-.08,2.4,9.49-7.23c-4.56-.94-7.63.49-10.38,4.17-2.42,3.25-.53,8.38,2.69,10.26,3.83,2.24,7.83.57,10.26-2.69Z" transform="translate(-619.76 -813.21)"/><path class="cls-1" d="M1311.58,1235c-2.8,3.75-1.82,9.12,1.34,12.33,3.75,3.81,9.32,3.71,13.8,1.26,8.42-4.61,15.82-12.11,21.15-20a61.72,61.72,0,0,0,9.77-25.12c.73-4.93,1.65-10.87-1.12-15.37a10.91,10.91,0,0,0-12.77-4.73c-9,3.27-5.12,17.77,4,14.46h.34l-3.79-1c-1.44-.78-.45-2.78-.93,0-.18,1-.12,2.11-.26,3.14a45.27,45.27,0,0,1-1.17,5.74,48.44,48.44,0,0,1-4.93,12,47.44,47.44,0,0,1-7.39,9.74,50.56,50.56,0,0,1-4.82,4.3c-1,.8-3.85,3.67-5.17,3.68l3.79,1,1.54,3.18-1,3.79.6-.81c2.44-3.27.51-8.35-2.69-10.26-3.8-2.28-7.85-.54-10.26,2.69Z" transform="translate(-619.76 -813.21)"/><path class="cls-1" d="M1310.36,1202.36a33.11,33.11,0,0,1,34.92-5c8.69,4.06,16.32-8.87,7.57-13a48.76,48.76,0,0,0-53.1,7.37c-7.29,6.35,3.35,16.92,10.61,10.61Z" transform="translate(-619.76 -813.21)"/><path class="cls-1" d="M1292.86,1200.26a40.1,40.1,0,0,0-1,17.38c.58,4,5.67,6.21,9.23,5.24,4.31-1.18,5.82-5.2,5.24-9.23a22.73,22.73,0,0,1,1-9.4,7.5,7.5,0,1,0-14.46-4Z" transform="translate(-619.76 -813.21)"/><path class="cls-1" d="M1283.61,1209.67l-.82,11.32c-.28,3.92,3.65,7.67,7.5,7.5a7.68,7.68,0,0,0,7.5-7.5l.82-11.32c.28-3.92-3.65-7.67-7.5-7.5a7.68,7.68,0,0,0-7.5,7.5Z" transform="translate(-619.76 -813.21)"/><path class="cls-1" d="M1274.91,1221.67l-.82,8c-.4,3.92,3.74,7.67,7.5,7.5,4.41-.2,7.07-3.31,7.5-7.5l.82-8c.4-3.92-3.74-7.67-7.5-7.5-4.41.2-7.07,3.31-7.5,7.5Z" transform="translate(-619.76 -813.21)"/><path class="cls-1" d="M1266.54,1230.36a42.51,42.51,0,0,0-1,11.3c.2,3.91,3.3,7.69,7.5,7.5,3.89-.17,7.72-3.3,7.5-7.5a35.39,35.39,0,0,1,0-4.32c0-.32.31-2.37.07-.87.12-.71.26-1.42.42-2.12.84-3.82-1.15-8.29-5.24-9.23-3.79-.86-8.32,1.14-9.23,5.24Z" transform="translate(-619.76 -813.21)"/><path class="cls-1" d="M1258,1247l.67,5.33a8.23,8.23,0,0,0,2.2,5.3,7.5,7.5,0,0,0,10.61,0c1.25-1.36,2.44-3.38,2.2-5.3L1273,1247a8.23,8.23,0,0,0-2.2-5.3,7.5,7.5,0,0,0-10.61,0c-1.25,1.36-2.44,3.38-2.2,5.3Z" transform="translate(-619.76 -813.21)"/><path class="cls-1" d="M817.75,1239.66a47.93,47.93,0,0,0,6.74,17.81c5.1,8.17,18.08.65,13-7.57a37,37,0,0,1-5.23-14.23c-.63-4-5.63-6.23-9.23-5.24-4.27,1.17-5.87,5.21-5.24,9.23Z" transform="translate(-619.76 -813.21)"/><path class="cls-1" d="M974,1259.68a169,169,0,0,1-5,19.88c-1,3.07,3.85,4.39,4.82,1.33a169,169,0,0,0,5-19.88c.59-3.14-4.22-4.49-4.82-1.33Z" transform="translate(-619.76 -813.21)"/><path class="cls-1" d="M967.62,1247.73q-3.28,17.57-5.49,35.3c-.4,3.18,4.6,3.16,5,0q2.14-17.07,5.31-34c.59-3.15-4.23-4.49-4.82-1.33Z" transform="translate(-619.76 -813.21)"/><path class="cls-1" d="M960.52,1235.66q-2.06,24.39-5.46,48.63c-.44,3.15,4.37,4.51,4.82,1.33q3.51-24.9,5.64-50c.27-3.21-4.73-3.19-5,0Z" transform="translate(-619.76 -813.21)"/><path class="cls-1" d="M954.06,1220.35,946,1285c-.4,3.18,4.61,3.16,5,0l8.08-64.65c.4-3.18-4.61-3.16-5,0Z" transform="translate(-619.76 -813.21)"/><path class="cls-1" d="M946.63,1213a713.2,713.2,0,0,0-8.24,78.7c-.16,3.22,4.84,3.21,5,0a701.09,701.09,0,0,1,8.06-77.37c.51-3.15-4.31-4.5-4.82-1.33Z" transform="translate(-619.76 -813.21)"/><path class="cls-1" d="M939.9,1202.77c-8.21,29.17-8.71,59.57-9,89.66,0,3.22,5,3.22,5,0,.31-29.65.76-59.58,8.85-88.33.87-3.1-4-4.43-4.82-1.33Z" transform="translate(-619.76 -813.21)"/><path class="cls-1" d="M923.84,1209.84q-2.91,43.63-7.09,87.16c-.31,3.2,4.69,3.18,5,0q4.19-43.52,7.09-87.16c.21-3.21-4.79-3.2-5,0Z" transform="translate(-619.76 -813.21)"/><path class="cls-1" d="M910.6,1215.65a354,354,0,0,1-7.13,84c-.65,3.14,4.17,4.48,4.82,1.33a359.73,359.73,0,0,0,7.31-85.31c-.11-3.21-5.11-3.22-5,0Z" transform="translate(-619.76 -813.21)"/><path class="cls-1" d="M900.83,1222.4c.81,13.4-.65,26.7-2.11,40l-4.35,39.78c-.35,3.19,4.65,3.17,5,0l4.35-39.78c1.46-13.3,2.92-26.61,2.11-40-.19-3.2-5.19-3.22-5,0Z" transform="translate(-619.76 -813.21)"/><path class="cls-1" d="M888.45,1227.69c2.36,26.68-4.13,53.12-2.73,79.81l4.66-1.26-1.4-1.84c-1.93-2.52-6.27,0-4.32,2.52l1.4,1.84c1.35,1.77,4.8,1.49,4.66-1.26-1.41-26.69,5.09-53.13,2.73-79.81-.28-3.18-5.28-3.21-5,0Z" transform="translate(-619.76 -813.21)"/><path class="cls-1" d="M877.3,1230.33l-.1,33.44c0,11.75,0,23.52-1.95,35.13-.54,3.15,4.28,4.5,4.82,1.33,3.89-22.84,2.16-46.82,2.22-69.9,0-3.22-5-3.22-5,0Z" transform="translate(-619.76 -813.21)"/><path class="cls-1" d="M867.31,1236.43l-2.55,37.89c-.22,3.21,4.78,3.2,5,0l2.55-37.89c.22-3.21-4.78-3.2-5,0Z" transform="translate(-619.76 -813.21)"/><path class="cls-1" d="M859,1239.68l-.56,23.25c-.08,3.22,4.92,3.22,5,0l.56-23.25c.08-3.22-4.92-3.22-5,0Z" transform="translate(-619.76 -813.21)"/><path class="cls-1" d="M934.8,1345.67a41,41,0,0,0,4,16.38c3.25,7.09,13.86,3.14,14-3.79a21.85,21.85,0,0,0-5.84-15.28c-4.43-5.08-12.7-.84-12.8,5.3-.14,8.34,5,17.39,13.36,19.85,10.57,3.1,13.1-8.88,11.27-16.61-1.71-7.18-10.3-19.85-18.47-11.62-6.33,6.38-.67,17.55,4.57,22.59,3.88,3.72,11.3,2.38,12.54-3.31a21.8,21.8,0,0,0-5.83-20.69c-3.57-3.6-9.13-2.45-11.78,1.52-4.4,6.6-1.89,15.05,4.59,19.11,6,3.73,12.17-2.41,11-8.47a51.16,51.16,0,0,0-2.81-9.6c-2.58-6.44-12.39-7.76-14.46,0a13.85,13.85,0,0,0,0,7.6l13.71-5.78-1.57,3.16-3.79-1q.33-.64.24,0a11.35,11.35,0,0,1-.44,2.84H960.7a28.2,28.2,0,0,0-7.9-12.49c-5.11-4.61-15.31-.22-12.54,7.3a40.23,40.23,0,0,0,7.55,12.81c4.4,5.08,12.73.85,12.8-5.3a34.73,34.73,0,0,0-1.79-11.6c-3.08-9.11-16.66-5.48-14.46,4a20.73,20.73,0,0,0,5.23,9.59c5.61,6.15,13.48-.62,12.54-7.3l-1.68-11.89-11,8.47c1.53,1,7.11,3.81,6.77,6.33h14.46a29.43,29.43,0,0,0-11.76-15.18c-5.61-3.78-12.59,2.45-11,8.47a103.55,103.55,0,0,0,4.74,14c2.2,5.24,10.6,8.31,13.71,1.79,2.11-4.41,3.45-9.37.56-13.81a10.07,10.07,0,0,0-13.12-3.54c-9.36,5.2-5.23,18.19,1.24,23.76,4.48,3.86,10.5,2.16,12.54-3.31,2.7-7.27,0-17.38-9.32-17.38-8.1,0-12.58,10-10.15,16.87,2.63,7.42,13.08,9.47,17.56,2.56,4.62-7.12-1.23-16-9.41-15.58-7.89.43-12.22,9-9.62,16,2.85,7.64,13.56,9.38,17.81,1.93,4.52-7.92-3.44-14.7-11.1-13.34-7,1.24-15.68,6.92-10.67,15,4.16,6.71,15.83,5.27,21.71,1.94,7.67-4.34,8.78-13.43,7.94-21.36l-14.73,2a15.51,15.51,0,0,1-1.36,8.34c-1.38,3.46,1.23,7.54,4.34,8.85,3.64,1.53,7.15,0,9.37-3.07a22.64,22.64,0,0,0-.18-26.24L958,1345.52c2.31,2.62,2.89,5.46,2.69,8.87-.57,9.64,14.43,9.61,15,0,.44-7.4-2.24-14-7.08-19.47-5.54-6.29-16.92,2.22-11.78,9.09,2.81,3.75,2.91,7.3.18,11.1l13.71,5.78c2.13-5.34,2.26-10.69,1.36-16.31-1.33-8.26-15.62-6.43-14.73,2,.2,1.88,1.17,6.36-.16,8-.46.56-1,.53-1.68.78a7.21,7.21,0,0,1-1.94.18q-2.63-.08-.62.21l3.45,4.48-.35-.85v4l.37-1-3.45,4.48a2.14,2.14,0,0,1,1.87-.76q5.18-.75-3.86-4l.76-5.78,1.3-1.11,3.79-1-1.09.11,3.79,1-7.28,1.89,1-3.79,1.19-1.09,3.79-1h-1.06l3.79,1,.47.42,1,3.79q.13-2.52-2.21.76h-4q-2.41-5.61-3.15-1.34l12.54-3.31c-.62-.53-1.36-1.72-2-2.1q0-.64-.38-.59-2,.13-2.67,3.05h-4l-3.24-3.74L967.1,1351a103.55,103.55,0,0,1-4.74-14l-11,8.47a12.32,12.32,0,0,1,4.86,6.22c2.19,6.13,13.36,8.06,14.46,0,1.5-11-4.86-17.79-13.66-23.27-6.16-3.84-11.86,2.48-11,8.47l1.68,11.89,12.54-7.3a5.37,5.37,0,0,1-1.37-3l-14.46,4a21.61,21.61,0,0,1,1.26,7.61l12.8-5.3a20,20,0,0,1-3.69-6.19l-12.54,7.3a12.93,12.93,0,0,1,4,5.87c2.16,6.59,12.84,7.67,14.46,0,1.79-8.46.06-20.54-11.08-20.83-10.76-.28-14.89,10.88-10.78,19.48,3.72,7.8,15.88,2.26,13.71-5.78v.37H938.08a51.16,51.16,0,0,1,2.81,9.6l11-8.47c.55.34.47,1.9.79,1.41l-11.78,1.52a6.19,6.19,0,0,1,2,6.1l12.54-3.31c-1.68-1.62-3-3.44-2.76-5.87l-1,3.79.39-.81-4.48,3.45.73-.3-5.78-.76c.81.5,1.32,2.47,1.56,3.38a6.05,6.05,0,0,1,.31,1.78q-.58,5,3.87-2.67h4c-2.46-.68-3.18-3.42-3.14-5.6l-12.8,5.3a6.12,6.12,0,0,1,1.45,4.67l14-3.79a22.29,22.29,0,0,1-1.9-8.81c-.26-9.63-15.27-9.67-15,0Z" transform="translate(-619.76 -813.21)"/></svg>