<svg id="Layer_14" data-name="Layer 14" xmlns="http://www.w3.org/2000/svg" viewBox="0 0 1318.37 1152.08"><defs><style>.cls-1{fill:#1d1d1b;}.cls-2{fill:none;stroke:#1d1d1b;stroke-miterlimit:10;}</style></defs><title>33</title><path class="cls-1" d="M783.65,1542.76c-20.55-47.59-40.68-95.35-61-143l-51.48-120.56-32.66-76.5-4.48,11,276.87-75.23L989,1117.23c2.83-.77,5.93-4,5.51-7.23l-.09-.66-14.73,2,90.62,223.78,25.46,62.88,3.45-8.47L857.62,1505.31l-68.51,32.84c-8.7,4.17-1.1,17.11,7.57,13l241.59-115.79,68.51-32.84c2.68-1.29,4.6-5.62,3.45-8.47l-90.62-223.78-25.46-62.88c-1.42-3.5-4.24-5.91-8.23-5.37-3.29.45-7,3.67-6.5,7.37l.09.66,5.51-7.23L708.14,1178,630,1199.23c-5.14,1.4-6.34,6.67-4.48,11l59.35,139q19.56,45.82,39.1,91.65,23.21,54.79,46.74,109.44c1.62,3.75,7,4.52,10.26,2.69,3.87-2.2,4.29-6.56,2.69-10.26Z" transform="translate(-603.54 -648.99)"/><path class="cls-1" d="M779.76,1552.51q167.14,6.34,334.27,12.88,131,5.15,261.95,10.63c57.47,2.43,115,4.89,172.4,7.83,16,.82,31.92,1.65,47.86,2.72,4.45.3,8.9.61,13.34,1,1.07.1,5.81.8,2,.18a80.71,80.71,0,0,0,20.27,1.15,67.24,67.24,0,0,0,36.34-14.5c10.31-8,20-16.87,30.18-25,20.13-16,41.12-31,62.22-45.71,42.6-29.76,86-58.74,124.93-93.32q14.37-12.77,27.73-26.6c4.4-4.56,1.34-13-5.3-12.8l-315.44,7.37-313.19,7.32-178,4.16c-9.64.23-9.67,15.23,0,15l315.44-7.37,313.19-7.32,178-4.16-5.3-12.8c-36,37.27-77.93,67.66-120.27,97.16-21.4,14.91-42.93,29.65-64,45.08q-15.54,11.41-30.65,23.39c-9.94,7.92-19.26,16.74-29.39,24.4a52.9,52.9,0,0,1-34.66,10.92c-4.27-.15-6.88-.71-11.07-1.21-3.47-.41-7-.67-10.45-.93-14.05-1-28.13-1.79-42.2-2.54-53.79-2.85-107.6-5.16-161.41-7.47q-125.78-5.39-251.57-10.29-161.31-6.39-322.64-12.49l-44.61-1.69c-9.65-.37-9.64,14.63,0,15Z" transform="translate(-603.54 -648.99)"/><path class="cls-1" d="M676.63,1309.8l269.12-87.85,75.81-24.75c9.14-3,5.23-17.47-4-14.46l-269.12,87.85-75.81,24.75c-9.14,3-5.23,17.47,4,14.46Z" transform="translate(-603.54 -648.99)"/><path class="cls-1" d="M734.25,1440.69,993.83,1339l73.5-28.79c3.76-1.47,6.41-5,5.24-9.23-1-3.59-5.42-6.73-9.23-5.24L803.76,1397.44l-73.5,28.79c-3.76,1.47-6.41,5-5.24,9.23,1,3.59,5.42,6.73,9.23,5.24Z" transform="translate(-603.54 -648.99)"/><path class="cls-1" d="M1003.46,1559.9l167.9-123.8,47.4-34.95c3.28-2.42,4.85-6.47,2.69-10.26-1.84-3.24-7-5.09-10.26-2.69L1043.29,1512l-47.4,34.95c-3.28,2.42-4.85,6.47-2.69,10.26,1.84,3.24,7,5.09,10.26,2.69Z" transform="translate(-603.54 -648.99)"/><path class="cls-1" d="M1211.27,1566.84l159.35-170.37c6.59-7-4-17.67-10.61-10.61l-159.35,170.37c-6.59,7,4,17.67,10.61,10.61Z" transform="translate(-603.54 -648.99)"/><path class="cls-1" d="M1360,1572.92l152.23-179.77c6.2-7.33-4.36-18-10.61-10.61l-152.23,179.77c-6.2,7.33,4.36,18,10.61,10.61Z" transform="translate(-603.54 -648.99)"/><path class="cls-1" d="M1513.64,1578.3l152.1-147.51,43.56-42.24c6.94-6.73-3.67-17.33-10.61-10.61l-152.1,147.51L1503,1567.7c-6.94,6.73,3.67,17.33,10.61,10.61Z" transform="translate(-603.54 -648.99)"/><path class="cls-1" d="M625.05,1204.52c-1.2,5.75-4.85,10-8.54,14.35-4.45,5.28-8.6,10.59-10.94,17.17-5.25,14.7.62,30.49,7,43.8,7,14.52,14.53,28.71,21.2,43.38,6.6,14.52,12.77,29.22,18.66,44,24.1,60.7,43.54,123.13,67.42,183.92,3.2,8.15,6.18,16.52,9.94,24.43,3.07,6.47,8.85,12.94,16.63,12.65,8.51-.32,13.75-9,18.72-14.74l19.93-23.21c6.26-7.29-4.3-17.95-10.61-10.61l-15.43,18-7.71,9c-1.28,1.5-2.54,3-3.86,4.49q-.86,1-1.81,2-1.33.81.42.15c-3.53-2.42-5.63-10.76-7.31-14.92q-4.15-10.28-8.12-20.63c-10.84-28.19-20.83-56.7-30.88-85.18-20-56.84-40.4-113.84-67.8-167.64-6.28-12.33-16.48-28-12.67-42.53,1.69-6.43,6.5-11.16,10.57-16.16,4.34-5.32,8.22-10.87,9.65-17.7,2-9.42-12.49-13.45-14.46-4Z" transform="translate(-603.54 -648.99)"/><path class="cls-1" d="M746,1588.28q144.06,5.1,288.12,10.5,118.83,4.49,237.65,9.4,89.25,3.74,178.47,8.09c37.43,1.89,74.87,3.77,112.24,6.66,5.5.42,11,.88,16.5,1.4q3.36.32,6.71.69l2.6.3c1.14.14,3.59.5.83.09,5.43.81,10.8,2,16.26,2.6,18.74,2,37.89-4.77,46.1-22.83,3.63-8,5.12-16.53,5.62-25.25.56-9.64-14.44-9.61-15,0-.46,8-1.93,16.41-6.57,23.11-4.84,7-12.93,9.93-21.16,10.27-6.86.29-13.21-1.2-19.9-2.19-9.12-1.35-18.32-2.11-27.5-2.85-35.15-2.84-70.39-4.63-105.6-6.45-57-2.93-114-5.46-171-7.87q-114.25-4.85-228.53-9.13-139.11-5.3-278.24-10.21L746,1573.28c-9.65-.34-9.64,14.66,0,15Z" transform="translate(-603.54 -648.99)"/><path class="cls-1" d="M1634.28,1623.48q88.22-62.09,175.93-124.89c31.39-22.56,63.28-44.73,93.52-68.83,4.2-3.35,7.77-6.51,10.78-11.12s5.51-10.74,5.27-16.51c-.36-8.54-3-17.38-4.93-25.68-2.13-9.41-16.59-5.43-14.46,4,1.51,6.68,4,15.46,4.36,21.33.05.74,0,1.47,0,2.22,0-1,.47-1.62-.07,0a26.68,26.68,0,0,1-4,8.37c-1.95,2.51-4.62,4.47-7.08,6.44l-2.33,1.85-1.49,1.17-.51.4q-3.68,2.83-7.39,5.63-9.58,7.22-19.25,14.32c-43.51,32-87.53,63.35-131.57,94.64q-52.08,37-104.33,73.75c-7.83,5.51-.35,18.53,7.57,13Z" transform="translate(-603.54 -648.99)"/><path class="cls-2" d="M723,1290.67" transform="translate(-603.54 -648.99)"/><path class="cls-2" d="M1010.33,1171.67" transform="translate(-603.54 -648.99)"/><path class="cls-1" d="M619.82,1292.33q6.12,173.82,3.15,347.79-.84,48.73-2.4,97.45a7.59,7.59,0,0,0,7.5,7.5l14.81-.07a7.6,7.6,0,0,0,7.5-7.5l-3.7-327.79-1-91.94c-.11-9.65-15.11-9.67-15,0l3.7,327.79,1,91.94,7.5-7.5-14.81.07,7.5,7.5q5.54-174.15,2-348.42-1-48.42-2.71-96.82c-.34-9.63-15.34-9.67-15,0Z" transform="translate(-603.54 -648.99)"/><path class="cls-1" d="M913.28,1587.73a358.11,358.11,0,0,0-1.34,65.81,7.76,7.76,0,0,0,5.51,7.23,19.57,19.57,0,0,0,11.85-.14,7.76,7.76,0,0,0,5.51-7.23q1.34-32.83-.26-65.67c-.47-9.61-15.47-9.67-15,0q1.6,32.82.26,65.67l5.51-7.23a5,5,0,0,1-3.87.14l5.51,7.23a358.11,358.11,0,0,1,1.34-65.81c.45-4-3.77-7.5-7.5-7.5-4.43,0-7,3.46-7.5,7.5Z" transform="translate(-603.54 -648.99)"/><path class="cls-1" d="M1025.62,1592.72a445.61,445.61,0,0,0-.92,60.86,7.82,7.82,0,0,0,5.51,7.23,13,13,0,0,0,9.39-.13c3.2-1.31,5.4-3.62,5.51-7.23q.92-30.37-.18-60.74c-.35-9.62-15.35-9.67-15,0q1.1,30.36.18,60.74l5.51-7.23q-1.35,1.32-1.42.13l5.51,7.23a445.61,445.61,0,0,1,.92-60.86c.8-9.62-14.2-9.57-15,0Z" transform="translate(-603.54 -648.99)"/><path class="cls-1" d="M1828,1474.08l-2,135.23c0,2.37,1.4,5.49,3.71,6.48,6.82,2.91,12.85,2.95,19.59-.3A7.41,7.41,0,0,0,1853,1609l.67-145.58c0-9.65-15-9.67-15,0L1838,1609l3.71-6.48a5.39,5.39,0,0,1-4.44.3l3.71,6.48,2-135.23c.15-9.66-14.85-9.66-15,0Z" transform="translate(-603.54 -648.99)"/><path class="cls-1" d="M818.59,1583.63,809.41,1750c-.22,4.06,3.62,7.49,7.5,7.5l14.44,0a7.64,7.64,0,0,0,7.5-7.5l5.92-165.21c.35-9.65-14.65-9.64-15,0l-5.92,165.21,7.5-7.5-14.44,0,7.5,7.5,9.18-166.4c.53-9.65-14.47-9.62-15,0Z" transform="translate(-603.54 -648.99)"/><path class="cls-1" d="M1498.63,1611.76l-9.86,181.77c-.22,4.06,3.61,7.49,7.5,7.5l14.44,0a7.63,7.63,0,0,0,7.5-7.5l5.92-176.76c.32-9.65-14.68-9.64-15,0l-5.92,176.76,7.5-7.5-14.44,0,7.5,7.5,9.86-181.77c.52-9.65-14.48-9.62-15,0Z" transform="translate(-603.54 -648.99)"/><path class="cls-1" d="M1082.45,1327.79c.12-2.53,8.46-3.27,10.17-3.45a121.28,121.28,0,0,1,19.33-.45,117.47,117.47,0,0,1,39.74,9.29c10.38,4.46,21.88,10.58,28.2,20.33,7.77,12,2.59,25.15-2.23,37.23-1.51,3.79,1.65,8.2,5.24,9.23,4.26,1.22,7.73-1.49,9.23-5.24,6.46-16.19,10.85-33.82.32-49.41-9-13.35-23.71-21.38-38.31-27.25a131.74,131.74,0,0,0-51-9.35c-13.28.21-34.9,1.47-35.71,19.07-.44,9.65,14.56,9.63,15,0Z" transform="translate(-603.54 -648.99)"/><path class="cls-1" d="M1087.81,1312.7c-9.58-12.46-22.41-31.1-10.63-46.24,9.48-12.19,27.3-15.94,41.56-18.79,17.6-3.52,38.44-7.25,56.13-2.42,15.88,4.34,23.94,18.51,24.22,34.36.37,20.83-12,39.25-22.93,56-5.27,8.12,7.71,15.65,13,7.57,11.92-18.38,24.24-38.15,25-60.73.62-19.64-8.21-40.08-26.79-48.58-20.27-9.28-44.93-5.56-66.11-1.9-18.69,3.23-40.52,8-53.75,22.86a37.87,37.87,0,0,0-9.59,30.42c1.7,13.18,9.09,24.67,17,35,2.49,3.23,6.42,4.88,10.26,2.69,3.18-1.81,5.16-7.06,2.69-10.26Z" transform="translate(-603.54 -648.99)"/><path class="cls-1" d="M1094.07,1242.87c-9.49-12.15-21.6-31.86-8.16-45.72,5.64-5.81,13.51-9.22,21-11.85a110.43,110.43,0,0,1,26.84-5.88,114.16,114.16,0,0,1,27.48.8c8.2,1.29,18.64,3,25.8,7.44,3.23,2,2.38,6,2.22,9.38a75,75,0,0,1-1.87,13.37,82.64,82.64,0,0,1-10.5,25.15c-5.11,8.22,7.86,15.76,13,7.57,9.34-15,15.51-33.86,14.47-51.74-.58-9.86-6.06-15.49-14.92-19a114.9,114.9,0,0,0-25.88-6.87,128.76,128.76,0,0,0-54.78,3.49c-15.53,4.53-33.49,12.12-40.52,27.85-9.15,20.5,2.81,40.75,15.22,56.64,2.51,3.22,8,2.59,10.61,0,3.19-3.12,2.48-7.43,0-10.61Z" transform="translate(-603.54 -648.99)"/><path class="cls-1" d="M1097.88,1174.14a151.44,151.44,0,0,1-16.12-16.92c-4.15-5.12-11.25-12.75-11.4-19.71-.14-6.25,7.39-12.22,12-15.58a63.1,63.1,0,0,1,18.56-9.29c14.94-4.68,30.82-4.34,46-1.1a176.42,176.42,0,0,1,23.75,7c5.86,2.14,12.2,4.53,16.9,8.79,14.23,12.91-2.41,30.47-12,40-6.88,6.79,3.73,17.4,10.61,10.61,13.27-13.11,27.9-31.12,19.37-50.91-7.35-17-29.41-23.22-45.69-27.72-19.17-5.3-39.66-7.22-59.1-2.18-16.43,4.25-36.36,14.79-43.38,31.22-4.7,11,.53,21.4,6.91,30.42a158.28,158.28,0,0,0,23,26c7.14,6.46,17.78-4.11,10.61-10.61Z" transform="translate(-603.54 -648.99)"/><path class="cls-1" d="M1094,1100.42c-9.56-4.65-13.83-15.17-12.71-25.48,1.3-12,10.7-20.94,21.28-25.62,13-5.73,27.61-5,41.08-1.57a152.89,152.89,0,0,1,23,8.1c5.55,2.42,11.63,5,15.88,9.5,5.5,5.79,3.09,12.67-.32,19-4.57,8.44-9.66,16.64-14.51,24.92s8.08,15.91,13,7.57c5.26-9,11.1-17.86,15.71-27.21,4.29-8.7,6.48-18.32,2.07-27.45-3.53-7.33-10.48-12.46-17.53-16.14a166.93,166.93,0,0,0-27.17-11c-18-5.64-37.81-7.31-55.61,0-14.91,6.12-28.19,18.37-31.16,34.8-3,16.73,3.47,35.77,19.46,43.54,8.65,4.2,16.26-8.73,7.57-13Z" transform="translate(-603.54 -648.99)"/><path class="cls-1" d="M1091.4,1041.66l-6.9-8.85c-2.33-3-5.57-6.23-6.9-9.85-2.24-6.11,3.87-12.32,7.91-16.1,9.31-8.69,21.63-13.26,33.81-16.23,19.43-4.75,58-13.64,66,12.65,4.71,15.44-2.66,30.79-10.12,44-4.75,8.42,8.2,16,13,7.57,8.83-15.66,16.15-32.9,12.7-51.21-3.24-17.16-16.56-29.3-33.63-32-16.29-2.6-33.69.37-49.63,4s-31.94,10-43.78,21.67c-7.18,7.07-13.25,16.71-11.26,27.19,1,5.35,4.09,9.61,7.36,13.82q5.42,7,10.88,14c2.51,3.22,8,2.59,10.61,0,3.19-3.12,2.48-7.43,0-10.61Z" transform="translate(-603.54 -648.99)"/><path class="cls-1" d="M1160.52,934.1c6,5.08,10.71,11.62,12.13,19.47a21.42,21.42,0,0,1-.56,10.15,19.54,19.54,0,0,1-2.18,4.65c-.56.88-1.52,1.78-2,2.68-.71,1.27-3,1.1.18.78l3.79,1-.46-.28,3.71,6.48v-.79c-.09-9.65-15.09-9.67-15,0,.09,10,10.79,9.86,16.71,4.94s9.7-12.9,10.77-20.5c2.08-14.88-5.25-29.69-16.45-39.22-7.31-6.22-18,4.34-10.61,10.61Z" transform="translate(-603.54 -648.99)"/><path class="cls-1" d="M1096.45,983.59c-4.31-4.48-8.48-9.09-12.41-13.91-3.51-4.31-7.57-8.92-9.83-14.05-4.16-9.46,4.4-17.77,11.84-22.49,17-10.8,40.15-11.74,59.15-6.5,9.32,2.57,13.3-11.9,4-14.46-24.62-6.79-55.13-4.57-75.79,11.66-10.22,8-18.24,20.18-14.44,33.63,2,7,6.62,12.79,11,18.44a228,228,0,0,0,15.88,18.3c6.71,7,17.31-3.65,10.61-10.61Z" transform="translate(-603.54 -648.99)"/><path class="cls-1" d="M1099.54,912c-10.28-5.66-17.4-17.34-9.44-27.92a38,38,0,0,1,32.74-15c9.62.79,9.57-14.21,0-15-18.1-1.49-38,9-47.24,24.78-10,17.28.12,37.11,16.37,46.05,8.46,4.66,16-8.29,7.57-13Z" transform="translate(-603.54 -648.99)"/><path class="cls-1" d="M909.83,1052.08l32.91,36.84c4.42,5,12.8.94,12.8-5.3l.09-69.52-12.8,5.3,11.27,9.19c5.68,4.64,14.31.41,12.54-7.3a163.13,163.13,0,0,1-4.1-39.28l-12.8,5.3a110.53,110.53,0,0,0,18.88,12.27c4.22,2.13,9.75.44,11-4.48q8.67-33.62,20-66.47L987,931.94l12.55,14.3c2.93,3.34,9.9,2.79,11.78-1.52,9.58-21.94,20.84-43.9,38.77-60.24,16.11-14.68,39-23.91,60.76-18.86,9.39,2.17,13.4-12.29,4-14.46-25.76-6-51.77,3.21-71.77,19.62-20.92,17.17-34.05,42-44.7,66.38l11.78-1.52-12.55-14.3c-4-4.52-10.83-1.66-12.54,3.31q-11.29,32.83-20,66.47l11-4.48a92.44,92.44,0,0,1-15.84-9.93c-4.92-3.9-12.7-1.69-12.8,5.3a180.52,180.52,0,0,0,4.64,43.26l12.54-7.3-11.27-9.19c-4.83-3.94-12.79-1.66-12.8,5.3l-.09,69.52,12.8-5.3-32.91-36.84c-6.44-7.21-17,3.42-10.61,10.61Z" transform="translate(-603.54 -648.99)"/><path class="cls-1" d="M907.18,1042l-17.77,28.91,14,3.79a371.2,371.2,0,0,1,9.74-71.27c1.79-7.57-6.91-12.11-12.54-7.3a96.22,96.22,0,0,1-35.5,19.12l8.47,11a401,401,0,0,1,46-63.43c3.61-4.07,2.45-11.09-3.31-12.54l-26.08-6.53v14.46a456.07,456.07,0,0,0,53.24-23.76c5.47-2.88,4.19-9.8,0-13a120.3,120.3,0,0,0-38.57-19.21v14.46q36.41-15.1,74.1-26.71a7.6,7.6,0,0,0,1.79-13.71L964.84,866l-3.79,14c28.13.05,53.5-12.08,79.83-20.25,22.33-6.93,48.4-10.87,69.14,2.54,8.13,5.26,15.66-7.72,7.57-13-22.21-14.36-50.06-12.5-74.55-5.84-27.26,7.41-53.13,21.56-82,21.51-7.7,0-9.86,10-3.79,14l15.86,10.36,1.79-13.71q-37.66,11.61-74.1,26.71c-6.49,2.69-7.7,12.21,0,14.46a108.82,108.82,0,0,1,35,17.69v-13a425.36,425.36,0,0,1-49.65,22.25c-6.52,2.43-7.71,12.54,0,14.46l26.08,6.53-3.31-12.54a421.1,421.1,0,0,0-48.33,66.47c-3.26,5.57,2.15,12.88,8.47,11a114,114,0,0,0,42.12-23l-12.54-7.3a392.72,392.72,0,0,0-10.27,75.26c-.3,7.67,10.22,9.89,14,3.79l17.77-28.91c5.07-8.25-7.9-15.79-13-7.57Z" transform="translate(-603.54 -648.99)"/><path class="cls-1" d="M767.29,988.45A865.82,865.82,0,0,1,883.14,874.81c2.91-2.36,2.94-8.26,0-10.61a53.65,53.65,0,0,1-19.61-32l-7.23,9.49a85.39,85.39,0,0,1,35.4,13.38c5.22,3.39,10.73-1.22,11.29-6.48a71.66,71.66,0,0,1,18-40.1l-12.54-3.31,4.83,23.16c1.11,5.34,8.94,7.47,12.54,3.31a186.07,186.07,0,0,1,45.71-38.4l-11.29-6.48-.77,20.1c-.27,7.07,8.12,9.13,12.8,5.3,26.49-21.68,61.26-48.15,97-30.91,26.42,12.76,53.3,44.27,42.14,75.33-3.27,9.1,11.22,13,14.46,4,10.14-28.22-5.57-58.73-26.82-77.25-11.75-10.24-26-18.9-41.6-21.5-16.73-2.79-33.33.64-48.66,7.52-17.46,7.83-32.39,20.19-47.09,32.22l12.8,5.3.77-20.1c.22-5.71-6.53-9.31-11.29-6.48a198.88,198.88,0,0,0-48.74,40.74l12.54,3.31L923,801.25c-1.13-5.42-8.88-7.37-12.54-3.31A88.83,88.83,0,0,0,888,848.65l11.29-6.48a102.17,102.17,0,0,0-43-15.42c-5.2-.67-8.08,5.31-7.23,9.49a66.31,66.31,0,0,0,23.47,38.57V864.21A865.82,865.82,0,0,0,756.68,977.84c-6.19,7.33,4.37,18,10.61,10.61Z" transform="translate(-603.54 -648.99)"/><path class="cls-1" d="M767.13,985.54a291.52,291.52,0,0,0,52.76-193.31l-7.5,7.5a155,155,0,0,0,51.45-9.89c5.11-1.93,7.62-8.28,3.31-12.54a40.46,40.46,0,0,0-16.76-10l-2,14.73,70.2-6.58c5.93-.56,10.58-8.1,5.3-12.8A67.72,67.72,0,0,0,906,751l-3.79,14,71,3.37c5.09.24,8.24-5,7.23-9.49-1.88-8.43-8-14.58-16.12-17.25l-4,14.46,61.44,16.1c6.05,1.59,10-3.73,9.23-9.23a80,80,0,0,0-4.3-16.83l-5.24,9.23c11.52-2,23.47,4.62,33.64,9.2a207.89,207.89,0,0,1,27.8,14.58c18.63,12.06,31.6,30,30.93,52.92-.28,9.66,14.72,9.65,15,0,.81-27.68-14.73-50.18-37.09-65-10.21-6.79-21.37-12-32.55-17-13.45-6-26.7-11.75-41.71-9.15-3.76.65-6.56,5.7-5.24,9.23a80,80,0,0,1,4.3,16.83l9.23-9.23-61.44-16.1c-9.4-2.46-13.12,11.46-4,14.46,3.27,1.08,4.92,3.53,5.64,6.77l7.23-9.49-71-3.37c-7.09-.34-10.69,10.94-3.79,14a55.49,55.49,0,0,1,14.83,9.34l5.3-12.8-70.2,6.58c-8.19.77-10.46,12.1-2,14.73a24.23,24.23,0,0,1,10.14,6.13l3.31-12.54a142.48,142.48,0,0,1-47.46,9.35c-3.79.09-7.86,3.38-7.5,7.5A278.63,278.63,0,0,1,754.18,978c-5.62,7.87,7.38,15.37,13,7.57Z" transform="translate(-603.54 -648.99)"/><path class="cls-1" d="M1126.07,855.74a435.33,435.33,0,0,1-32.76-53.62l-8.47,11a49.46,49.46,0,0,1,14.45,5.68c3.2,1.88,8.62,1,10.26-2.69,2.44-5.53,2.52-10.38-.18-15.85-4.27-8.66-17.21-1.06-13,7.57a.89.89,0,0,1,.18.71l10.26-2.69a62.94,62.94,0,0,0-18-7.2,7.6,7.6,0,0,0-8.47,11,435.33,435.33,0,0,0,32.76,53.62c5.57,7.79,18.58.3,13-7.57Z" transform="translate(-603.54 -648.99)"/><path class="cls-1" d="M1115,788l.79-26-11.29,6.48,22.53,15c3.94,2.63,10,.05,11-4.48a264.44,264.44,0,0,1,13.52-42h-14.46a54.86,54.86,0,0,0,15.72,27.88,7.58,7.58,0,0,0,12.54-3.31A275,275,0,0,1,1189.5,704l-13.71-1.79L1184,740c1.44,6.67,10.38,6.86,13.71,1.79A188.28,188.28,0,0,1,1306,663.71l-7.3-12.54a160.19,160.19,0,0,0-38.16,56.4c-2.68,6.6,5.81,11.08,11,8.47a60,60,0,0,1,33.06-5.86l-6.48-11.29a204.67,204.67,0,0,1-51.62,63.27c-5.9,4.84.46,14.64,7.3,12.54a54.9,54.9,0,0,1,14.27-2.61c1.84-.07,3.69-.05,5.52,0,.29,0,4.47.81,4.64.7q1.13-5.59-1.07-3.34-1.46,1-2.93,2-2.21,1.45-4.46,2.85-5.61,3.49-11.43,6.64a216,216,0,0,1-48.11,18.88c-8.25,2.17-6.44,14.62,2,14.73a251.54,251.54,0,0,1,39,3.5l-1.79-13.71c-24.59,13.71-53.93,11-80.81,15.84-23.29,4.18-47.71,14.55-59.2,36.55-4.46,8.55,8.48,16.14,13,7.57,10.56-20.23,34.4-27.56,55.56-30.52,26.88-3.75,54.65-2.88,79.07-16.49,5.27-2.94,4.71-12.6-1.79-13.71a277.41,277.41,0,0,0-43-4l2,14.73a230.15,230.15,0,0,0,66.84-29.39c4.52-2.94,9.62-5.93,11.07-11.51s-1.55-10.75-6.32-13.49c-10-5.73-25.66-2.83-36,.35l7.3,12.54a215.45,215.45,0,0,0,54-66.3c2.81-5.35-.77-10.74-6.48-11.29a74.4,74.4,0,0,0-40.63,7.91l11,8.47a142.9,142.9,0,0,1,34.3-49.79c5.52-5.24-.21-14.43-7.3-12.54a204.05,204.05,0,0,0-117.31,85l13.71,1.79-8.19-37.81c-1.37-6.35-10.65-7.25-13.71-1.79a293,293,0,0,0-25.64,61.18l12.54-3.31A40.73,40.73,0,0,1,1151.58,733c-1.76-8-11.91-6.14-14.46,0a264.44,264.44,0,0,0-13.52,42l11-4.48-22.53-15c-4.93-3.29-11.12,1.11-11.29,6.48l-.79,26c-.29,9.66,14.71,9.65,15,0Z" transform="translate(-603.54 -648.99)"/><path class="cls-1" d="M1114,861.08A253.2,253.2,0,0,1,1146.49,947c1.23,6.77,10.47,6.75,13.71,1.79a278.16,278.16,0,0,1,31.71-40l-11.78-1.52q53.22,81.34,98.4,167.54c2.87,5.49,12.49,4.54,13.71-1.79l15.8-82.35-11,4.48a919.42,919.42,0,0,1,129.16,112.09c5.19,5.42,14.59-.16,12.54-7.3A491.22,491.22,0,0,1,1421,927.37c.22-3-2.47-6.69-5.51-7.23l-70-12.42v14.46a191.49,191.49,0,0,0,43.37-21.83c6.09-4.13,3.9-13.73-3.79-14a884.14,884.14,0,0,1-157.77-19.26v14.46A61.51,61.51,0,0,0,1258,865.36c5.12-4.92.76-12.13-5.3-12.8a681.59,681.59,0,0,0-129.48-2.09c-9.56.76-9.64,15.76,0,15a681.59,681.59,0,0,1,129.48,2.09l-5.3-12.8a47.23,47.23,0,0,1-24.15,12.37c-7.22,1.42-7.09,12.94,0,14.46A907.17,907.17,0,0,0,1385,901.38l-3.79-14a176.16,176.16,0,0,1-39.78,20.32c-6.29,2.24-7.93,13.06,0,14.46l70,12.42-5.51-7.23a503.67,503.67,0,0,0,18.29,176.55l12.54-7.3a939.9,939.9,0,0,0-132.2-114.44c-3.77-2.69-10.16,0-11,4.48l-15.8,82.35,13.71-1.79q-45.12-86.1-98.4-167.54c-2.57-3.93-8.3-5.17-11.78-1.52a299.73,299.73,0,0,0-34.05,43L1161,943a264.93,264.93,0,0,0-34-89.46c-5-8.25-18-.72-13,7.57Z" transform="translate(-603.54 -648.99)"/><path class="cls-1" d="M1222.24,1295.19c6.6-11.7,13.63-24.53,25.13-32.12,13.19-8.7,29-7.29,43.27-2.29,29.42,10.28,52.72,35.15,84.85,38.12,31.21,2.89,50-23.39,75.39-36.06A109.64,109.64,0,0,1,1536,1258c26.75,9.68,50.3,30.28,79.68,31.82,26.55,1.38,44.3-17.31,62.72-33.4,8.84-7.72,18.56-14.83,30.32-17.08,9.71-1.86,19.67.23,28.7,3.9,20.09,8.16,36.79,23,55.37,33.85,17.85,10.44,38.73,17.58,59.07,10,22.91-8.55,36.62-30.13,53.56-46.41a90.21,90.21,0,0,1,14.11-11.29c5.42-3.44.41-12.1-5-8.63-20.86,13.25-33.22,35.6-53.07,49.89-9,6.5-19.38,10.25-30.57,9.64-10-.54-19.6-4.48-28.35-9.19-35.75-19.27-73.67-60.38-116.49-33-19.86,12.68-34.54,36.09-58.75,41-14.33,2.92-28.87-2.07-41.72-8.08-13.4-6.27-26.1-14-39.72-19.76a119.59,119.59,0,0,0-84.76-3.33c-13.8,4.66-25.91,11.94-37.43,20.74s-23.35,18.69-38.16,20.29c-31.84,3.44-58.25-23.75-85.74-35.24-13.79-5.77-29.31-9.26-44.07-5.23-13.39,3.66-23.45,13.15-31.33,24.2a194.74,194.74,0,0,0-10.77,17.53c-3.17,5.61,5.47,10.66,8.63,5Z" transform="translate(-603.54 -648.99)"/><path class="cls-1" d="M1222.24,1363.56c6.6-11.7,13.63-24.53,25.13-32.12,13.19-8.7,29-7.29,43.27-2.29,29.42,10.28,52.72,35.15,84.85,38.12,31.21,2.89,50-23.39,75.39-36.06a109.64,109.64,0,0,1,85.16-4.88c26.75,9.68,50.3,30.28,79.68,31.82,26.55,1.38,44.3-17.31,62.72-33.4,8.84-7.72,18.56-14.83,30.32-17.08,9.71-1.86,19.67.23,28.7,3.9,20.09,8.16,36.79,23,55.37,33.85,17.85,10.44,38.73,17.58,59.07,10,22.91-8.55,36.62-30.13,53.56-46.41a90.21,90.21,0,0,1,14.11-11.29c5.42-3.44.41-12.1-5-8.63-20.86,13.25-33.22,35.6-53.07,49.89-9,6.5-19.38,10.25-30.57,9.64-10-.54-19.6-4.48-28.35-9.19-35.75-19.27-73.67-60.38-116.49-33-19.86,12.68-34.54,36.09-58.75,41-14.33,2.92-28.87-2.07-41.72-8.08-13.4-6.27-26.1-14-39.72-19.76a119.59,119.59,0,0,0-84.76-3.33c-13.8,4.66-25.91,11.94-37.43,20.74s-23.35,18.69-38.16,20.29c-31.84,3.44-58.25-23.75-85.74-35.24-13.79-5.77-29.31-9.26-44.07-5.23-13.39,3.66-23.45,13.15-31.33,24.2a194.74,194.74,0,0,0-10.77,17.53c-3.17,5.61,5.47,10.66,8.63,5Z" transform="translate(-603.54 -648.99)"/><path class="cls-1" d="M1884,1378.89c10.51-11.94,20.52-24.55,34.34-32.85,2.76-1.65.24-6-2.52-4.32-14.21,8.53-24.54,21.35-35.35,33.63-2.12,2.41,1.4,6,3.54,3.54Z" transform="translate(-603.54 -648.99)"/><path class="cls-1" d="M1662.8,1386.36c15.44-13.44,30.77-30.85,52.79-31.49,22.86-.67,42.11,13.7,59.68,26.49,2.6,1.9,5.1-2.44,2.52-4.32-18.73-13.63-39.48-28.61-63.89-27.09-22.77,1.42-38.52,18.85-54.64,32.88-2.43,2.12,1.12,5.64,3.54,3.54Z" transform="translate(-603.54 -648.99)"/><path class="cls-1" d="M1432.62,1393.53c8.84-6.16,18.05-12,28-16.15a97.77,97.77,0,0,1,33.4-6.94,113.89,113.89,0,0,1,34.52,3.55c11.83,3.17,22.72,8.65,33.42,14.5,5.65,3.09,10.7-5.54,5-8.63-11.15-6.1-22.63-11.87-34.93-15.27a123.14,123.14,0,0,0-38.05-4.15c-12.06.53-24,2.49-35.28,7s-21.37,10.62-31.2,17.47c-5.24,3.65-.25,12.33,5,8.63Z" transform="translate(-603.54 -648.99)"/><path class="cls-1" d="M1231.93,1393.8c10.08-13.32,24.07-21.86,41.18-20.66,17.37,1.21,33.3,10.24,47.91,19,2.77,1.66,5.28-2.66,2.52-4.32-16.3-9.79-34.44-19.78-54-19.83-17.56,0-31.64,9.68-41.92,23.27-1.94,2.57,2.4,5.06,4.32,2.52Z" transform="translate(-603.54 -648.99)"/><path class="cls-1" d="M814,1746l10.44,7c3.27,2.19,8.45.74,10.26-2.69a7.68,7.68,0,0,0-2.69-10.26l-10.44-7c-3.27-2.19-8.45-.74-10.26,2.69A7.68,7.68,0,0,0,814,1746Z" transform="translate(-603.54 -648.99)"/><path class="cls-1" d="M815.82,1738.22l11.35,8c3.22,2.26,8.48.69,10.26-2.69,2-3.85.75-7.85-2.69-10.26l-11.35-8c-3.22-2.26-8.48-.69-10.26,2.69-2,3.85-.75,7.85,2.69,10.26Z" transform="translate(-603.54 -648.99)"/><path class="cls-1" d="M815.92,1728.72l12,6c3.5,1.75,8.29,1,10.26-2.69,1.8-3.4,1.05-8.39-2.69-10.26l-12-6c-3.5-1.75-8.29-1-10.26,2.69-1.8,3.4-1.05,8.39,2.69,10.26Z" transform="translate(-603.54 -648.99)"/><path class="cls-1" d="M816.48,1716.92a61,61,0,0,1,10.49,7.44,7.68,7.68,0,0,0,10.61,0c2.73-2.73,3-7.92,0-10.61a83,83,0,0,0-13.53-9.79c-3.4-2-8.36-.91-10.26,2.69a7.63,7.63,0,0,0,2.69,10.26Z" transform="translate(-603.54 -648.99)"/><path class="cls-1" d="M817.48,1707.76l10.82,7.42c3.24,2.22,8.46.71,10.26-2.69a7.69,7.69,0,0,0-2.69-10.26L825,1694.81c-3.24-2.22-8.46-.71-10.26,2.69a7.69,7.69,0,0,0,2.69,10.26Z" transform="translate(-603.54 -648.99)"/><path class="cls-1" d="M819.74,1698c.26.08,2.85,1.08,1.5.49.75.33,1.49.7,2.21,1.1s1.43.82,2.11,1.27q.59.39,1.16.8-.87-.7.15.13c3,2.49,7.69,3.18,10.61,0,2.53-2.76,3.23-7.94,0-10.61a41.32,41.32,0,0,0-13.75-7.66,7.56,7.56,0,0,0-9.23,5.24,7.67,7.67,0,0,0,5.24,9.23Z" transform="translate(-603.54 -648.99)"/><path class="cls-1" d="M818,1686l9.94,6.76c3.25,2.21,8.46.72,10.26-2.69a7.68,7.68,0,0,0-2.69-10.26l-9.94-6.76c-3.25-2.21-8.46-.72-10.26,2.69A7.68,7.68,0,0,0,818,1686Z" transform="translate(-603.54 -648.99)"/><path class="cls-1" d="M818.43,1677l10.07,7.23c3.2,2.3,8.49.66,10.26-2.69,2-3.88.72-7.81-2.69-10.26L826,1664c-3.2-2.3-8.49-.66-10.26,2.69-2,3.88-.72,7.81,2.69,10.26Z" transform="translate(-603.54 -648.99)"/><path class="cls-1" d="M818.75,1669.14l10.41,6.41a7.5,7.5,0,1,0,7.57-13l-10.41-6.41a7.5,7.5,0,0,0-7.57,13Z" transform="translate(-603.54 -648.99)"/><path class="cls-1" d="M819.07,1660.37l10.84,7.07a7.56,7.56,0,0,0,10.26-2.69,7.67,7.67,0,0,0-2.69-10.26l-10.84-7.07a7.56,7.56,0,0,0-10.26,2.69,7.67,7.67,0,0,0,2.69,10.26Z" transform="translate(-603.54 -648.99)"/><path class="cls-1" d="M819.27,1652.06a116.68,116.68,0,0,0,11.14,7c3.43,1.9,8.34.95,10.26-2.69s1-8.23-2.69-10.26a116.68,116.68,0,0,1-11.14-7c-3.21-2.28-8.48-.67-10.26,2.69-2,3.86-.73,7.83,2.69,10.26Z" transform="translate(-603.54 -648.99)"/><path class="cls-1" d="M821.2,1642.83l9.3,6.72c3.19,2.31,8.49.65,10.26-2.69,2.05-3.89.71-7.8-2.69-10.26l-9.3-6.72c-3.19-2.31-8.49-.65-10.26,2.69-2.05,3.89-.71,7.8,2.69,10.26Z" transform="translate(-603.54 -648.99)"/><path class="cls-1" d="M819.55,1631.78a39.51,39.51,0,0,0,13.38,8.64c3.64,1.49,8.4-1.62,9.23-5.24,1-4.36-1.34-7.63-5.24-9.23,1.48.61-1-.54-1.28-.67q-1.19-.64-2.32-1.4-.56-.38-1.11-.78.93.73-.08-.09c-.67-.61-1.34-1.21-2-1.85-2.77-2.78-7.87-3-10.61,0a7.64,7.64,0,0,0,0,10.61Z" transform="translate(-603.54 -648.99)"/><path class="cls-1" d="M821.23,1624.12l8.52,6.21c3.18,2.32,8.5.64,10.26-2.69,2.06-3.9.71-7.79-2.69-10.26l-8.52-6.21c-3.18-2.32-8.5-.64-10.26,2.69-2.06,3.9-.71,7.79,2.69,10.26Z" transform="translate(-603.54 -648.99)"/><path class="cls-1" d="M820.34,1612.32a31.91,31.91,0,0,0,11.49,8.62c3.59,1.57,8.22,1.17,10.26-2.69,1.71-3.24,1.15-8.58-2.69-10.26a31.27,31.27,0,0,1-5.17-2.92c.6.41.44.37,0-.05-.33-.29-.66-.58-1-.88a28.33,28.33,0,0,1-2.25-2.41c-2.54-3-8-2.81-10.61,0-2.94,3.21-2.71,7.39,0,10.61Z" transform="translate(-603.54 -648.99)"/><path class="cls-1" d="M821.21,1603.46a44.75,44.75,0,0,0,11.3,8.1c3.51,1.74,8.28,1.06,10.26-2.69,1.79-3.39,1.06-8.41-2.69-10.26a38.5,38.5,0,0,1-4.91-2.86c-.11-.08-1.23-.87-.59-.4s-.44-.37-.55-.46c-.77-.65-1.5-1.33-2.22-2-2.81-2.74-7.84-3-10.61,0a7.63,7.63,0,0,0,0,10.61Z" transform="translate(-603.54 -648.99)"/><path class="cls-1" d="M823.4,1597.9a53.18,53.18,0,0,0,9.71,5.8c3.56,1.64,8.24,1.13,10.26-2.69,1.75-3.3,1.11-8.51-2.69-10.26a53.18,53.18,0,0,1-9.71-5.8c-3.15-2.37-8.52-.61-10.26,2.69-2.08,3.94-.67,7.74,2.69,10.26Z" transform="translate(-603.54 -648.99)"/><path class="cls-1" d="M915.86,1652.18l6.68,4c3.37,2,8.38.87,10.26-2.69a7.64,7.64,0,0,0-2.69-10.26l-6.68-4c-3.37-2-8.38-.87-10.26,2.69a7.64,7.64,0,0,0,2.69,10.26Z" transform="translate(-603.54 -648.99)"/><path class="cls-1" d="M915.86,1642.17l8,5.39c3.26,2.2,8.45.73,10.26-2.69a7.68,7.68,0,0,0-2.69-10.26l-8-5.39c-3.26-2.2-8.45-.73-10.26,2.69a7.68,7.68,0,0,0,2.69,10.26Z" transform="translate(-603.54 -648.99)"/><path class="cls-1" d="M915.25,1632.08l6.66,4c3.37,2,8.39.86,10.26-2.69a7.64,7.64,0,0,0-2.69-10.26l-6.66-4c-3.37-2-8.39-.86-10.26,2.69a7.64,7.64,0,0,0,2.69,10.26Z" transform="translate(-603.54 -648.99)"/><path class="cls-1" d="M915.77,1622.31l6.67,4.66c3.23,2.25,8.47.69,10.26-2.69,2-3.84.75-7.86-2.69-10.26l-6.67-4.66c-3.23-2.25-8.47-.69-10.26,2.69-2,3.84-.75,7.86,2.69,10.26Z" transform="translate(-603.54 -648.99)"/><path class="cls-1" d="M915.87,1613.5l7.33,4c3.44,1.88,8.33,1,10.26-2.69s1-8.26-2.69-10.26l-7.33-4c-3.44-1.88-8.33-1-10.26,2.69s-1,8.26,2.69,10.26Z" transform="translate(-603.54 -648.99)"/><path class="cls-1" d="M917.21,1604.14l4,2a8,8,0,0,0,5.78.76,7.65,7.65,0,0,0,4.48-3.45,7.57,7.57,0,0,0,.76-5.78,7.47,7.47,0,0,0-3.45-4.48l-4-2a8,8,0,0,0-5.78-.76,7.65,7.65,0,0,0-4.48,3.45,7.57,7.57,0,0,0-.76,5.78,7.47,7.47,0,0,0,3.45,4.48Z" transform="translate(-603.54 -648.99)"/><path class="cls-1" d="M1031,1651.47l.24.09-1.79-.76a10.44,10.44,0,0,1,2.21,1.28l-1.52-1.17a10.7,10.7,0,0,1,1.47,1.42,7.5,7.5,0,0,0,12.8-5.3,8.38,8.38,0,0,0-2.2-5.3A17.59,17.59,0,0,0,1035,1637a7.53,7.53,0,0,0-5.78.76,7.5,7.5,0,0,0-2.69,10.26l1.17,1.52a7.49,7.49,0,0,0,3.31,1.93Z" transform="translate(-603.54 -648.99)"/><path class="cls-1" d="M1027.11,1637.57l4.61,5.38a7.5,7.5,0,0,0,12.8-5.3,8.37,8.37,0,0,0-2.2-5.3l-4.61-5.38a7.5,7.5,0,0,0-12.8,5.3,8.37,8.37,0,0,0,2.2,5.3Z" transform="translate(-603.54 -648.99)"/><path class="cls-1" d="M1027.8,1627.55,1031,1631a7.5,7.5,0,0,0,10.61,0,7.55,7.55,0,0,0,2.2-5.3,8.09,8.09,0,0,0-2.2-5.3l-3.19-3.47a7.5,7.5,0,0,0-10.61,0,7.55,7.55,0,0,0-2.2,5.3,8.09,8.09,0,0,0,2.2,5.3Z" transform="translate(-603.54 -648.99)"/><path class="cls-1" d="M1031,1616.91l.27.09-1.79-.76a3.44,3.44,0,0,1,.73.42l-1.52-1.17a3.73,3.73,0,0,1,.5.49l-1.17-1.52a3.44,3.44,0,0,1,.43.72l-.76-1.79a2.74,2.74,0,0,1,.09.27,7.89,7.89,0,0,0,3.45,4.48,5.58,5.58,0,0,0,2.79.89,5.68,5.68,0,0,0,3-.13,7.5,7.5,0,0,0,5.24-9.23,9.19,9.19,0,0,0-3.7-5.38,11.94,11.94,0,0,0-1-.79,11.13,11.13,0,0,0-2.5-1.06,5.68,5.68,0,0,0-3-.13,5.58,5.58,0,0,0-2.79.89,8.39,8.39,0,0,0-3.45,4.48,7.59,7.59,0,0,0,.76,5.78,8,8,0,0,0,4.48,3.45Z" transform="translate(-603.54 -648.99)"/><path class="cls-1" d="M1495.32,1790.67c-.29-.22-1.15-.93-.4-.3l.91.76q.81.69,1.58,1.43c1,1,2,2,2.93,3.09,2.57,3,8,2.84,10.61,0a7.69,7.69,0,0,0,0-10.61,52.41,52.41,0,0,0-8.05-7.33c-1.44-1.1-4.13-1.21-5.78-.76a7.65,7.65,0,0,0-4.48,3.45,7.57,7.57,0,0,0-.76,5.78,8.85,8.85,0,0,0,3.45,4.48Z" transform="translate(-603.54 -648.99)"/><path class="cls-1" d="M1493,1776.2a44.21,44.21,0,0,0,11.2,13.6c3.16,2.53,7.52,3.08,10.61,0,2.62-2.62,3.18-8.06,0-10.61a30.87,30.87,0,0,1-8.85-10.57c-1.91-3.57-6.86-4.68-10.26-2.69a7.63,7.63,0,0,0-2.69,10.26Z" transform="translate(-603.54 -648.99)"/><path class="cls-1" d="M1493.33,1765.36a95.58,95.58,0,0,0,12.25,14.41,7.5,7.5,0,0,0,10.61-10.61,76.58,76.58,0,0,1-9.9-11.37c-2.32-3.31-6.56-4.85-10.26-2.69-3.28,1.92-5,6.93-2.69,10.26Z" transform="translate(-603.54 -648.99)"/><path class="cls-1" d="M1494,1754.68a68.66,68.66,0,0,0,13.27,13.39c3.12,2.4,8.53.58,10.26-2.69,2.1-4,.64-7.7-2.69-10.26.63.48,0,0-.26-.23-.48-.41-1-.81-1.43-1.23q-1.27-1.13-2.46-2.34t-2.06-2.21q-.62-.71-1.22-1.44c-.12-.15-1.1-1.42-.45-.56-2.35-3.12-6.58-5.06-10.26-2.69-3.09,2-5.21,6.91-2.69,10.26Z" transform="translate(-603.54 -648.99)"/><path class="cls-1" d="M1493.35,1740.67a79,79,0,0,0,12.38,13.6c3.08,2.63,7.58,3,10.61,0,2.69-2.69,3.09-8,0-10.61a71.31,71.31,0,0,1-5.69-5.4q-1.27-1.35-2.47-2.78a28.41,28.41,0,0,1-1.87-2.39c-2.39-3.26-6.51-4.88-10.26-2.69-3.22,1.88-5.1,7-2.69,10.26Z" transform="translate(-603.54 -648.99)"/><path class="cls-1" d="M1494.93,1731a51.91,51.91,0,0,0,13.71,13,7.56,7.56,0,0,0,10.26-2.69,7.67,7.67,0,0,0-2.69-10.26c-.51-.33-1-.66-1.51-1-.1-.07-1.22-.88-.7-.49s-.81-.67-.93-.78q-.69-.59-1.35-1.21-1.19-1.11-2.28-2.32c-.32-.36-.64-.73-1-1.09-1.52-1.74.76,1.1-.61-.76-2.33-3.14-6.6-5.05-10.26-2.69-3.11,2-5.19,6.89-2.69,10.26Z" transform="translate(-603.54 -648.99)"/><path class="cls-1" d="M1495.3,1719.4l11.22,12.77c2.68,3,7.87,2.73,10.61,0,3-3,2.68-7.56,0-10.61l-11.22-12.77c-2.68-3-7.87-2.73-10.61,0-3,3-2.68,7.56,0,10.61Z" transform="translate(-603.54 -648.99)"/><path class="cls-1" d="M1497.62,1711.7l10.05,11.28c2.62,2.94,8,2.87,10.61,0a7.68,7.68,0,0,0,0-10.61l-10.05-11.28c-2.62-2.94-8-2.87-10.61,0a7.68,7.68,0,0,0,0,10.61Z" transform="translate(-603.54 -648.99)"/><path class="cls-1" d="M1497.55,1701.77l10.25,11.1a7.56,7.56,0,0,0,10.61,0,7.66,7.66,0,0,0,0-10.61l-10.25-11.1a7.56,7.56,0,0,0-10.61,0,7.66,7.66,0,0,0,0,10.61Z" transform="translate(-603.54 -648.99)"/><path class="cls-1" d="M1497.63,1692.38a42.43,42.43,0,0,1,9.64,11,7.5,7.5,0,1,0,13-7.57,57,57,0,0,0-12-14.06c-3.11-2.6-7.56-3-10.61,0-2.67,2.67-3.12,8,0,10.61Z" transform="translate(-603.54 -648.99)"/><path class="cls-1" d="M1499.58,1681.74l9.56,10.46a7.56,7.56,0,0,0,10.61,0,7.67,7.67,0,0,0,0-10.61l-9.56-10.46a7.56,7.56,0,0,0-10.61,0,7.67,7.67,0,0,0,0,10.61Z" transform="translate(-603.54 -648.99)"/><path class="cls-1" d="M1499.75,1670.92a60.68,60.68,0,0,1,8,10.59,7.5,7.5,0,1,0,13-7.57,86.17,86.17,0,0,0-10.35-13.63c-2.76-3-7.82-2.79-10.61,0a7.63,7.63,0,0,0,0,10.61Z" transform="translate(-603.54 -648.99)"/><path class="cls-1" d="M1500.26,1659.72l8.1,9.92c2.49,3.05,8.05,2.78,10.61,0,3-3.24,2.66-7.35,0-10.61l-8.1-9.92c-2.49-3.05-8.05-2.78-10.61,0-3,3.24-2.66,7.35,0,10.61Z" transform="translate(-603.54 -648.99)"/><path class="cls-1" d="M1501.81,1648.87l7.91,9.41c2.53,3,8,2.81,10.61,0,2.94-3.21,2.7-7.39,0-10.61l-7.91-9.41c-2.53-3-8-2.81-10.61,0-2.94,3.21-2.7,7.39,0,10.61Z" transform="translate(-603.54 -648.99)"/><path class="cls-1" d="M1500.39,1635.53a68.15,68.15,0,0,0,8,10.75,7.55,7.55,0,0,0,10.61,0,7.67,7.67,0,0,0,0-10.61c-.57-.63-1.14-1.27-1.68-1.92l-.81-1c.67.82.19.25-.18-.26-1.07-1.46-2.06-3-3-4.53-2-3.37-6.83-4.9-10.26-2.69a7.63,7.63,0,0,0-2.69,10.26Z" transform="translate(-603.54 -648.99)"/><path class="cls-1" d="M1502.4,1626.27l6.54,8.1c2.47,3.07,8.07,2.77,10.61,0,3-3.26,2.64-7.33,0-10.61l-6.54-8.1c-2.47-3.07-8.07-2.77-10.61,0-3,3.26-2.64,7.33,0,10.61Z" transform="translate(-603.54 -648.99)"/><path class="cls-1" d="M1504.42,1618.92l4,4.67a7.5,7.5,0,0,0,12.8-5.3,8.37,8.37,0,0,0-2.2-5.3l-4-4.67a7.5,7.5,0,0,0-12.8,5.3,8.37,8.37,0,0,0,2.2,5.3Z" transform="translate(-603.54 -648.99)"/><path class="cls-1" d="M1830.19,1604.48a99.85,99.85,0,0,0,8.18,7.15,8.18,8.18,0,0,0,5.3,2.2,7.63,7.63,0,0,0,5.3-2.2c2.47-2.69,3.3-8,0-10.61a99.85,99.85,0,0,1-8.18-7.15c-2.81-2.74-7.84-3-10.61,0a7.63,7.63,0,0,0,0,10.61Z" transform="translate(-603.54 -648.99)"/><path class="cls-1" d="M1830.5,1595.5l9.09,8.92c2.8,2.75,7.85,3,10.61,0a7.63,7.63,0,0,0,0-10.61l-9.09-8.92c-2.8-2.75-7.85-3-10.61,0a7.63,7.63,0,0,0,0,10.61Z" transform="translate(-603.54 -648.99)"/><path class="cls-1" d="M1833.13,1578.86l10,12c2.06,2.47,5.58-1.08,3.54-3.54l-10-12c-2.06-2.47-5.58,1.08-3.54,3.54Z" transform="translate(-603.54 -648.99)"/><path class="cls-1" d="M1833.43,1569.88l9.74,8.95c2.37,2.17,5.91-1.35,3.54-3.54l-9.74-8.95c-2.37-2.17-5.91,1.35-3.54,3.54Z" transform="translate(-603.54 -648.99)"/><path class="cls-1" d="M1834.12,1557.93l9.08,11.53c2,2.53,5.51-1,3.54-3.54l-9.08-11.53c-2-2.53-5.51,1-3.54,3.54Z" transform="translate(-603.54 -648.99)"/><path class="cls-1" d="M1834.59,1548.75l8.06,7.94c2.29,2.26,5.83-1.27,3.54-3.54l-8.06-7.94c-2.29-2.26-5.83,1.27-3.54,3.54Z" transform="translate(-603.54 -648.99)"/><path class="cls-1" d="M1838.58,1535.68l-.17-.27.25,1.93q-3.5.3-1.79,1.5l1,1,2,1.9,4,3.8c2.32,2.23,5.87-1.3,3.54-3.54-2.63-2.52-5.17-5.48-8.08-7.66a3.48,3.48,0,0,0-4.25-.21,3.1,3.1,0,0,0-.77,4.12c1.7,2.72,6,.22,4.32-2.52Z" transform="translate(-603.54 -648.99)"/><path class="cls-1" d="M1834.52,1526.15l8,6.69c2.45,2.06,6-1.46,3.54-3.54l-8-6.69c-2.45-2.06-6,1.46-3.54,3.54Z" transform="translate(-603.54 -648.99)"/><path class="cls-1" d="M1833.93,1515.4l10,9.3c2.36,2.18,5.9-1.34,3.54-3.54l-10-9.3c-2.36-2.18-5.9,1.34-3.54,3.54Z" transform="translate(-603.54 -648.99)"/><path class="cls-1" d="M1834.58,1506.75a45.69,45.69,0,0,0,10.43,7.19c2.87,1.43,5.41-2.88,2.52-4.32a41,41,0,0,1-9.42-6.41c-2.37-2.16-5.92,1.36-3.54,3.54Z" transform="translate(-603.54 -648.99)"/><path class="cls-1" d="M1835.4,1496.61a51.35,51.35,0,0,0,9.45,7.59c2.73,1.71,5.25-2.61,2.52-4.32a45.71,45.71,0,0,1-8.43-6.81c-2.25-2.3-5.79,1.23-3.54,3.54Z" transform="translate(-603.54 -648.99)"/><path class="cls-1" d="M1834.59,1486.73l9.24,7.45c2.48,2,6-1.52,3.54-3.54l-9.24-7.45c-2.48-2-6,1.52-3.54,3.54Z" transform="translate(-603.54 -648.99)"/><path class="cls-1" d="M1835.74,1479.16a17,17,0,0,1,6.41,5.12,2.58,2.58,0,0,0,3.42.9,2.52,2.52,0,0,0,.9-3.42,22.15,22.15,0,0,0-8.21-6.91c-2.89-1.38-5.43,2.93-2.52,4.32Z" transform="translate(-603.54 -648.99)"/><path class="cls-1" d="M1838.38,1474.61l4,1.4a2.52,2.52,0,0,0,3.08-1.75,2.56,2.56,0,0,0-1.75-3.08l-4-1.4a2.52,2.52,0,0,0-3.08,1.75,2.56,2.56,0,0,0,1.75,3.08Z" transform="translate(-603.54 -648.99)"/><path class="cls-1" d="M625.46,1734.37c.72.42,1.42.85,2.11,1.32s.82.41,0,0a6.51,6.51,0,0,1,1.06.89,28.88,28.88,0,0,1,3.58,3.84c1.1,1.41,3.61,2.2,5.3,2.2a7.63,7.63,0,0,0,5.3-2.2c3-3.29,2.59-7.29,0-10.61a34.13,34.13,0,0,0-9.81-8.37c-3.4-2-8.36-.9-10.26,2.69a7.63,7.63,0,0,0,2.69,10.26Z" transform="translate(-603.54 -648.99)"/><path class="cls-1" d="M624.65,1721.35l12.92,13.08c6.79,6.88,17.4-3.73,10.61-10.61l-12.92-13.08c-6.79-6.88-17.4,3.73-10.61,10.61Z" transform="translate(-603.54 -648.99)"/><path class="cls-1" d="M626,1712.71a76.14,76.14,0,0,0,10.2,9.8c3.06,2.44,7.66,3.21,10.61,0,2.49-2.72,3.28-8,0-10.61a76.14,76.14,0,0,1-10.2-9.8c-2.57-3-8-2.84-10.61,0a7.69,7.69,0,0,0,0,10.61Z" transform="translate(-603.54 -648.99)"/><path class="cls-1" d="M624.4,1701.41a99.83,99.83,0,0,0,10.15,11.92c2.79,2.76,7.86,3,10.61,0a7.63,7.63,0,0,0,0-10.61c-1.54-1.52-3-3.09-4.45-4.73q-1-1.15-2-2.34c-.08-.1-.92-1.16-.6-.74s-.81-1.1-.79-1.07c-2.32-3.15-6.61-5-10.26-2.69-3.12,2-5.18,6.88-2.69,10.26Z" transform="translate(-603.54 -648.99)"/><path class="cls-1" d="M638,1687.37l-.12-.31v4l.06-.33L625.39,1694q5,4.76,10,9.5c2.85,2.7,7.82,3,10.61,0s3-7.72,0-10.61q-5-4.74-10-9.5c-3.75-3.59-11.52-2.49-12.54,3.31a8.22,8.22,0,0,0,.06,4.63c1.41,3.65,5.1,6.57,9.23,5.24,3.55-1.15,6.76-5.31,5.24-9.23Z" transform="translate(-603.54 -648.99)"/><path class="cls-1" d="M625.85,1685.39q4.73,3.95,9.34,8c2.93,2.6,7.76,3.11,10.61,0,2.61-2.85,3.13-7.83,0-10.61s-6.19-5.41-9.34-8-7.7-3.17-10.61,0c-2.55,2.77-3.22,7.92,0,10.61Z" transform="translate(-603.54 -648.99)"/><path class="cls-1" d="M625.39,1676.09c4,3.12,8.11,6.1,12.4,8.84a7.56,7.56,0,0,0,10.26-2.69,7.66,7.66,0,0,0-2.69-10.26c-1.75-1.12-3.49-2.27-5.19-3.46q-1.19-.84-2.37-1.7l-1.34-1q-1.09-.84-.46-.35c-3.09-2.4-7.63-3.24-10.61,0-2.46,2.68-3.31,8,0,10.61Z" transform="translate(-603.54 -648.99)"/><path class="cls-1" d="M626.58,1667.36a20.55,20.55,0,0,1,2.81,1.73q.53.4.12.08l.59.45c.64.5,1.28,1,1.93,1.48a59.38,59.38,0,0,0,6.33,3.83c3.44,1.89,8.34,1,10.26-2.69s1-8.24-2.69-10.26a65.23,65.23,0,0,1-6.33-3.83c-.32-.23-.87-.65-.24-.17-.71-.53-1.39-1.09-2.1-1.62a20.7,20.7,0,0,0-3.1-1.94c-3.51-1.75-8.28-1.05-10.26,2.69-1.79,3.4-1.06,8.39,2.69,10.26Z" transform="translate(-603.54 -648.99)"/><path class="cls-1" d="M627.24,1659.52c3.72,2,6.88,4.91,10.59,7,3.43,1.9,8.34.95,10.26-2.69s1-8.23-2.69-10.26-6.88-5-10.59-7c-3.46-1.84-8.32-1-10.26,2.69-1.84,3.48-1,8.29,2.69,10.26Z" transform="translate(-603.54 -648.99)"/><path class="cls-1" d="M629.05,1652.37q1.25.51.33.12l1.4.62q1,.48,2.08,1c1.6.79,3.18,1.63,4.73,2.52,3.41,1.95,8.36.91,10.26-2.69a7.63,7.63,0,0,0-2.69-10.26A99,99,0,0,0,633,1637.9c-3.65-1.47-8.4,1.6-9.23,5.24-1,4.34,1.33,7.65,5.24,9.23Z" transform="translate(-603.54 -648.99)"/><path class="cls-1" d="M626.87,1643.91a93.18,93.18,0,0,1,10.8,5.77,7.57,7.57,0,0,0,10.26-2.69,7.65,7.65,0,0,0-2.69-10.26,93.18,93.18,0,0,0-10.8-5.77c-3.57-1.62-8.24-1.14-10.26,2.69-1.74,3.29-1.12,8.53,2.69,10.26Z" transform="translate(-603.54 -648.99)"/><path class="cls-1" d="M626.87,1636.93l10.71,5.7c3.46,1.84,8.32,1,10.26-2.69,1.84-3.48,1-8.29-2.69-10.26l-10.71-5.7c-3.46-1.84-8.32-1-10.26,2.69-1.84,3.48-1,8.29,2.69,10.26Z" transform="translate(-603.54 -648.99)"/><path class="cls-1" d="M627.87,1629.42a44.79,44.79,0,0,0,6,2.74c1,.41-1.08-.51-.07,0,.37.18.75.34,1.12.52a18,18,0,0,1,2.38,1.42c3.22,2.26,8.48.69,10.26-2.69,2-3.84.75-7.85-2.69-10.26a27.54,27.54,0,0,0-5.25-2.68c-.58-.25-1.17-.5-1.76-.73-1-.41,1.08.51.07,0-.85-.4-1.68-.79-2.49-1.26-3.4-2-8.36-.91-10.26,2.69a7.63,7.63,0,0,0,2.69,10.26Z" transform="translate(-603.54 -648.99)"/><path class="cls-1" d="M626.88,1618.67l11,8.38c3.13,2.39,8.53.59,10.26-2.69,2.09-4,.65-7.71-2.69-10.26l-11-8.38c-3.13-2.39-8.53-.59-10.26,2.69-2.09,4-.65,7.71,2.69,10.26Z" transform="translate(-603.54 -648.99)"/><path class="cls-1" d="M628,1610.91l10.14,7c3.23,2.24,8.47.7,10.26-2.69,2-3.83.76-7.87-2.69-10.26l-10.14-7c-3.23-2.24-8.47-.7-10.26,2.69-2,3.83-.76,7.87,2.69,10.26Z" transform="translate(-603.54 -648.99)"/><path class="cls-1" d="M628.17,1602.3a97.9,97.9,0,0,0,8.69,5c3.49,1.78,8.3,1,10.26-2.69,1.81-3.42,1-8.36-2.69-10.26a97.9,97.9,0,0,1-8.69-5,7.56,7.56,0,0,0-10.26,2.69,7.67,7.67,0,0,0,2.69,10.26Z" transform="translate(-603.54 -648.99)"/><path class="cls-1" d="M627.87,1593.3l8.81,5.23c3.38,2,8.38.87,10.26-2.69a7.64,7.64,0,0,0-2.69-10.26l-8.81-5.23c-3.38-2-8.38-.87-10.26,2.69a7.64,7.64,0,0,0,2.69,10.26Z" transform="translate(-603.54 -648.99)"/><path class="cls-1" d="M631,1579.25a16.64,16.64,0,0,1,4,1.87l4.37,2.24c2.86,1.46,5.39-2.85,2.52-4.32l-5-2.56a18.34,18.34,0,0,0-4.57-2.05c-3.14-.61-4.49,4.21-1.33,4.82Z" transform="translate(-603.54 -648.99)"/><path class="cls-1" d="M630.54,1570.7q4.43,2.58,8.78,5.28c2.74,1.7,5.26-2.62,2.52-4.32q-4.36-2.7-8.78-5.28c-2.79-1.62-5.3,2.7-2.52,4.32Z" transform="translate(-603.54 -648.99)"/><path class="cls-1" d="M630.48,1561.93a75,75,0,0,1,9.11,4.64c2.77,1.66,5.29-2.67,2.52-4.32a75,75,0,0,0-9.11-4.64,2.59,2.59,0,0,0-3.42.9,2.52,2.52,0,0,0,.9,3.42Z" transform="translate(-603.54 -648.99)"/><path class="cls-1" d="M631.6,1553.45c2.77,1,5.26,2.93,7.72,4.52,2.71,1.75,5.22-2.58,2.52-4.32-2.88-1.85-5.68-3.84-8.91-5-3-1.1-4.33,3.73-1.33,4.82Z" transform="translate(-603.54 -648.99)"/><path class="cls-1" d="M630.76,1543.37a91.46,91.46,0,0,0,9.18,4.34A2.52,2.52,0,0,0,643,1546a2.56,2.56,0,0,0-1.75-3.08,79.9,79.9,0,0,1-8-3.84c-2.82-1.54-5.35,2.77-2.52,4.32Z" transform="translate(-603.54 -648.99)"/><path class="cls-1" d="M630.81,1533.87a52.47,52.47,0,0,0,8.9,4.56,2.52,2.52,0,0,0,3.08-1.75,2.56,2.56,0,0,0-1.75-3.08,45.86,45.86,0,0,1-7.7-4.05c-2.71-1.75-5.22,2.58-2.52,4.32Z" transform="translate(-603.54 -648.99)"/><path class="cls-1" d="M631.39,1525.75a37.08,37.08,0,0,0,8,4c3,1.11,4.33-3.72,1.33-4.82a31.69,31.69,0,0,1-6.77-3.49c-2.68-1.8-5.19,2.53-2.52,4.32Z" transform="translate(-603.54 -648.99)"/><path class="cls-1" d="M631.12,1515.27a49.36,49.36,0,0,0,8.08,4.05,2.52,2.52,0,0,0,3.08-1.75,2.56,2.56,0,0,0-1.75-3.08,42.42,42.42,0,0,1-6.88-3.55c-2.73-1.72-5.24,2.61-2.52,4.32Z" transform="translate(-603.54 -648.99)"/><path class="cls-1" d="M632.36,1507.54a37.37,37.37,0,0,0,5,3,2.56,2.56,0,0,0,3.42-.9,2.52,2.52,0,0,0-.9-3.42,37.37,37.37,0,0,1-5-3,2.52,2.52,0,0,0-3.42.9,2.56,2.56,0,0,0,.9,3.42Z" transform="translate(-603.54 -648.99)"/><path class="cls-1" d="M630.77,1498.84q3.7,1.67,7.43,3.28a2.58,2.58,0,0,0,3.42-.9,2.52,2.52,0,0,0-.9-3.42q-3.73-1.61-7.43-3.28a2.58,2.58,0,0,0-3.42.9,2.52,2.52,0,0,0,.9,3.42Z" transform="translate(-603.54 -648.99)"/><path class="cls-1" d="M630.73,1491l7.73,3.92c2.86,1.45,5.4-2.86,2.52-4.32l-7.73-3.92c-2.86-1.45-5.4,2.86-2.52,4.32Z" transform="translate(-603.54 -648.99)"/><path class="cls-1" d="M630.75,1482.77l7.75,3.62a2.57,2.57,0,0,0,3.42-.9,2.52,2.52,0,0,0-.9-3.42l-7.75-3.62a2.57,2.57,0,0,0-3.42.9,2.52,2.52,0,0,0,.9,3.42Z" transform="translate(-603.54 -648.99)"/><path class="cls-1" d="M630.91,1474.22a43,43,0,0,0,7.81,3.81,2.52,2.52,0,0,0,3.08-1.75,2.55,2.55,0,0,0-1.75-3.08,36.57,36.57,0,0,1-6.61-3.3c-2.74-1.71-5.25,2.61-2.52,4.32Z" transform="translate(-603.54 -648.99)"/><path class="cls-1" d="M630.48,1465.3a35.89,35.89,0,0,0,7.86,4,2.52,2.52,0,0,0,3.08-1.75,2.55,2.55,0,0,0-1.75-3.08A30.64,30.64,0,0,1,633,1461c-2.67-1.82-5.17,2.51-2.52,4.32Z" transform="translate(-603.54 -648.99)"/><path class="cls-1" d="M631.5,1457.75l6.61,3.28c2.87,1.43,5.41-2.89,2.52-4.32l-6.61-3.28c-2.87-1.43-5.41,2.89-2.52,4.32Z" transform="translate(-603.54 -648.99)"/><path class="cls-1" d="M630.5,1450.75l7.38,3.24a2.58,2.58,0,0,0,3.42-.9,2.52,2.52,0,0,0-.9-3.42l-7.38-3.24a2.58,2.58,0,0,0-3.42.9,2.52,2.52,0,0,0,.9,3.42Z" transform="translate(-603.54 -648.99)"/><path class="cls-1" d="M630.39,1443.86a68.53,68.53,0,0,0,7.54,3.61,2.52,2.52,0,0,0,3.08-1.75,2.56,2.56,0,0,0-1.75-3.08,58.05,58.05,0,0,1-6.35-3.11c-2.81-1.58-5.33,2.74-2.52,4.32Z" transform="translate(-603.54 -648.99)"/><path class="cls-1" d="M632,1436.39l.28-.08h-1.33c1,.4,2,1.18,2.94,1.68s2.2,1.11,3.32,1.63a2.57,2.57,0,0,0,3.42-.9,2.52,2.52,0,0,0-.9-3.42c-1.52-.7-3-1.45-4.48-2.25s-2.84-2-4.58-1.48c-3.08.9-1.77,5.73,1.33,4.82Z" transform="translate(-603.54 -648.99)"/><path class="cls-1" d="M630.27,1428.47l7.48,4.29c2.8,1.6,5.32-2.71,2.52-4.32l-7.48-4.29c-2.8-1.6-5.32,2.71-2.52,4.32Z" transform="translate(-603.54 -648.99)"/><path class="cls-1" d="M629.77,1421q4,1.9,7.81,4.13c2.78,1.63,5.3-2.69,2.52-4.32q-3.82-2.23-7.81-4.13c-2.89-1.38-5.43,2.93-2.52,4.32Z" transform="translate(-603.54 -648.99)"/><path class="cls-1" d="M630.18,1409.61l0,0,3.42.9,0-.05-2.16,3.76h.14l-1.26-.34,7.35,3.89c2.84,1.5,5.37-2.81,2.52-4.32l-4.46-2.36c-1.3-.69-2.79-1.83-4.29-1.87a2.53,2.53,0,0,0-2.16,3.76l0,.05a2.54,2.54,0,0,0,3.42.9l0,0c2.85-1.49.33-5.8-2.52-4.32Z" transform="translate(-603.54 -648.99)"/><path class="cls-1" d="M630.25,1406.26l7.83,5.19c2.69,1.78,5.2-2.55,2.52-4.32l-7.83-5.19c-2.69-1.78-5.2,2.55-2.52,4.32Z" transform="translate(-603.54 -648.99)"/><path class="cls-1" d="M629.53,1399.35q3.39,2.3,6.92,4.37c2.78,1.63,5.3-2.69,2.52-4.32q-3.53-2.07-6.92-4.37c-2.67-1.81-5.17,2.52-2.52,4.32Z" transform="translate(-603.54 -648.99)"/><path class="cls-1" d="M630.58,1391.38a14.6,14.6,0,0,1,3.29,1.89l3.55,2.12c2.77,1.65,5.29-2.67,2.52-4.32l-4.06-2.42a15.54,15.54,0,0,0-4-2.09c-3.12-.77-4.46,4.05-1.33,4.82Z" transform="translate(-603.54 -648.99)"/><path class="cls-1" d="M629.45,1382.82c3.1.85,5.42,3.59,8.4,4.82a2.52,2.52,0,0,0,3.08-1.75,2.56,2.56,0,0,0-1.75-3.08c-3-1.26-5.12-3.92-8.4-4.82-3.11-.85-4.43,4-1.33,4.82Z" transform="translate(-603.54 -648.99)"/><path class="cls-1" d="M629.23,1374.17q3.62,2.07,7.39,3.84a2.57,2.57,0,0,0,3.42-.9,2.52,2.52,0,0,0-.9-3.42q-3.78-1.77-7.39-3.84c-2.8-1.6-5.32,2.72-2.52,4.32Z" transform="translate(-603.54 -648.99)"/><path class="cls-1" d="M632.77,1362.73l.21.3-3.08,3.08a40.13,40.13,0,0,1,5.82,2.94c2.76,1.67,5.28-2.66,2.52-4.32a47.94,47.94,0,0,0-7-3.44c-1.86-.74-3.49,1.4-3.08,3.08a4.15,4.15,0,0,0,1.08,1.9c2.2,2.36,5.73-1.18,3.54-3.54Z" transform="translate(-603.54 -648.99)"/><path class="cls-1" d="M630.5,1357.37a7.21,7.21,0,0,1,2.86,1.11c1.09.54,2.17,1.12,3.23,1.73,2.8,1.59,5.32-2.72,2.52-4.32-2.55-1.45-5.59-3.5-8.61-3.52-3.22,0-3.22,5,0,5Z" transform="translate(-603.54 -648.99)"/><path class="cls-1" d="M629.26,1349.13a23.12,23.12,0,0,0,6.84,3.5c3.07,1,4.38-3.83,1.33-4.82a19.13,19.13,0,0,1-5.64-3,2.52,2.52,0,0,0-3.42.9,2.56,2.56,0,0,0,.9,3.42Z" transform="translate(-603.54 -648.99)"/><path class="cls-1" d="M629.23,1342.93q3.36,2,6.89,3.6a2.57,2.57,0,0,0,3.42-.9,2.52,2.52,0,0,0-.9-3.42q-3.53-1.64-6.89-3.6c-2.78-1.63-5.3,2.69-2.52,4.32Z" transform="translate(-603.54 -648.99)"/><path class="cls-1" d="M628.85,1334.67a60.69,60.69,0,0,0,7.75,4.13,2.58,2.58,0,0,0,3.42-.9,2.52,2.52,0,0,0-.9-3.42,60.69,60.69,0,0,1-7.75-4.13c-2.73-1.72-5.24,2.61-2.52,4.32Z" transform="translate(-603.54 -648.99)"/><path class="cls-1" d="M628.24,1327.65l8.75,4.76c2.83,1.54,5.35-2.78,2.52-4.32l-8.75-4.76c-2.83-1.54-5.35,2.78-2.52,4.32Z" transform="translate(-603.54 -648.99)"/><path class="cls-1" d="M627.85,1318.8a79.49,79.49,0,0,0,8,4.4c2.89,1.38,5.43-2.93,2.52-4.32a79.49,79.49,0,0,1-8-4.4c-2.73-1.71-5.25,2.61-2.52,4.32Z" transform="translate(-603.54 -648.99)"/><path class="cls-1" d="M627.86,1312.54a54.65,54.65,0,0,1,8.13,5.11,2.52,2.52,0,0,0,3.42-.9,2.56,2.56,0,0,0-.9-3.42,54.65,54.65,0,0,0-8.13-5.11c-2.86-1.46-5.39,2.85-2.52,4.32Z" transform="translate(-603.54 -648.99)"/><path class="cls-1" d="M627.34,1306.57q1.61.91,3.27,1.71a2.5,2.5,0,0,0,2.52-4.32q-1.67-.79-3.27-1.71a2.5,2.5,0,1,0-2.52,4.32Z" transform="translate(-603.54 -648.99)"/><path class="cls-1" d="M797,1541.55q26-17.64,53.19-33.51c14.68-8.56,30-16.37,43.23-27.14a82.61,82.61,0,0,0,16.43-17.48c2.36-3.48,9.18-12.34,4.4-16.25-2.09-1.71-5.62-1.43-8.12-1.43a83,83,0,0,0-14.37,1.35c-9.7,1.68-19.1,4.67-28.61,7.14-5.54,1.44-11.52,3.28-17.28,3.47-4.14.14-8.56-2.33-6.93-7,1.08-3.11,3.84-4.76,6.9-5.46,8.6-2,17.64,2.75,25-3.9a1.28,1.28,0,0,0,.2-1.51c-5.71-12.6-24.82-10.08-35.11-5.85A46.45,46.45,0,0,0,809,1463.47a1.26,1.26,0,0,0,.87,1.54,156.25,156.25,0,0,0,41.87,4.62q5.24-.15,10.46-.67c.81-.08,3.28-.89,3.94-.37,2.58,2-.92,4.5-2.11,5.52a51.78,51.78,0,0,1-17.54,9.47c-23.63,7.84-49.84,3.45-72.45,15-1.43.73-.17,2.89,1.26,2.16,26.25-13.41,58.51-4.82,84.06-20.23,3.2-1.93,11.45-6.63,11.31-11.05-.13-3.91-4.82-3.35-7.52-3.09a155.86,155.86,0,0,1-52.61-3.77l.87,1.54a43.45,43.45,0,0,1,19.83-25.08c8.91-5.23,22.2-8.72,32-3.82a12.42,12.42,0,0,1,3.86,2.83c1.7,1.95,1.44,1.74,0,3-2.27,2.06-7,1.79-9.81,1.68-5-.19-10.43-1.2-15.14,1-5.21,2.46-9.06,10.3-3.63,14.62,2.72,2.16,6.48,2,9.71,1.56a140.59,140.59,0,0,0,18.14-4c12.44-3.33,24.95-7.39,37.94-7.69,1.44,0,3.95-.41,5.32.09,5.25,1.91,3.56,3.82,2.12,6.77a57,57,0,0,1-3.71,6.43,73.13,73.13,0,0,1-11.35,13.17c-8.11,7.54-17.49,13.57-27,19.18-25,14.76-50,29.21-74,45.5-1.32.9-.07,3.06,1.26,2.16Z" transform="translate(-603.54 -648.99)"/><path class="cls-1" d="M820.37,1434.46c16.56-15.92,40.69-16.77,62.24-14.39,12.17,1.34,24.25,3.56,36.48,4.34a168.94,168.94,0,0,0,33.12-1.19,171.33,171.33,0,0,0,60-19.75c7.12-3.93,16.17-8.84,18.69-17.24,2.26-7.53-3.66-13.88-9.41-17.88s-15.84-5.31-19.13,2.61c-2.46,5.93,3.82,12.11,9.59,9.44l-1.71-1.71a24.22,24.22,0,0,1-11,8.22c-1.74.63-4.47,1.75-6.17.94-1.26-.6-2.07-2.12-3-3.19A76.64,76.64,0,0,0,973.78,1370v2.16a19.44,19.44,0,0,0,4.59-4.29,52.26,52.26,0,0,1,3.37-4.29c2.18-2.18,8.23-4.46,8.44.67,0,1,1.39,1.75,2.13.88a30,30,0,0,1,32.55-8.89,1.26,1.26,0,0,0,1.22-2.09c-8.07-8.15-19.7-10.39-30.77-8.87-7.57,1-14.79,3.65-21.86,6.45-6.26,2.47-12.69,4.88-18.49,8.34-11.75,7-16.68,19.46-26.36,28.48-10.86,10.12-26.59,11-40.66,10.72-15.16-.28-30.73-1.36-44.62,5.84-1.43.74-.17,2.9,1.26,2.16,28.45-14.76,67,6.46,90-21.54,5-6.07,8.91-13.07,14.72-18.44,6.72-6.22,15.56-9.48,23.93-12.81,16.09-6.4,37-12.74,51,1.44l1.22-2.09a32.4,32.4,0,0,0-35,9.54l2.13.88a6,6,0,0,0-7.23-5.69c-6.08.92-8.27,8.43-12.93,11.45a1.27,1.27,0,0,0,0,2.16,74.82,74.82,0,0,1,12.5,10.51c2.37,2.5,4.53,7.67,8,8,7.34.79,15.29-5.38,19.41-10.76.85-1.11-.72-2.17-1.71-1.71-2.1,1-5.85-1.45-6.29-3.47-.35-1.62.7-3.53,1.64-4.64a8.2,8.2,0,0,1,6.17-2.62c5,0,9.58,3.74,12.8,7.22,8.23,8.89.74,17.5-7.42,22.7A161.11,161.11,0,0,1,969,1417.55a168,168,0,0,1-51.69,4.24c-18.24-1.36-36.27-5.76-54.63-5.26-16.05.44-32.3,4.81-44.11,16.17-1.16,1.12.61,2.88,1.77,1.77Z" transform="translate(-603.54 -648.99)"/><path class="cls-1" d="M960.56,1445.19c29.6-11.27,61.42-22.92,84.69-45.28a62.09,62.09,0,0,0,12.52-16.21c3.34-6.54,3.86-12.64,4.39-19.8.51-6.92,6.69-10.73,5.08-18-1.22-5.47-10.5-18.46-1.69-22,1.48-.59.83-3-.66-2.41-14,5.58,3.85,22.86-.7,31.23-1.53,2.82-3.52,4.46-4.18,7.78-.81,4-.22,8.18-1,12.22-1.52,7.88-5.9,14.92-11.15,20.86-22.33,25.23-57.38,37.52-88,49.17-1.49.57-.84,3,.66,2.41Z" transform="translate(-603.54 -648.99)"/><path class="cls-1" d="M731.44,1411.75,780,1382.93c14.08-8.35,28.54-16.35,41.5-26.41a106.46,106.46,0,0,0,17-16.14c4.13-5,8.58-10.77,9.62-17.33,2.16-13.66-12.2-16.27-22.49-16l1.21,1.58a33.11,33.11,0,0,1,17-20.27c1.38-.69,3.38-1.84,4.93-1.94l1.36-.37q3.37,5.06-1.49,5.92c-1.46.61-.82,3,.66,2.41,3.17-1.33,7.73-3.82,6.35-8.1-1.47-4.59-7-2.59-10.22-1.35a35.77,35.77,0,0,0-21,23,1.26,1.26,0,0,0,1.21,1.58c5.66-.15,12.87-.25,17.28,3.93,6.58,6.24.82,15.79-3.38,21.55-8.38,11.47-19.77,20.32-31.56,28-25.24,16.51-51.85,31.14-77.78,46.53a1.25,1.25,0,0,0,1.26,2.16Z" transform="translate(-603.54 -648.99)"/><path class="cls-1" d="M853.69,1303.55c7.44.7,15.89,1.51,21.57,7,4.46,4.29,6.07,10.61,5.67,16.64-1,14.58-12.58,24.19-24.55,30.7-13.54,7.36-27.89,13.41-41.84,20l-44.71,21c-1.45.68-.19,2.84,1.26,2.16l53.66-25.24c15-7.06,32.13-13.05,45-23.77,9.57-8,16-20.23,13-32.9-3.29-13.85-16.7-16.88-29.09-18.06-1.6-.15-1.59,2.35,0,2.5Z" transform="translate(-603.54 -648.99)"/><path class="cls-1" d="M760.23,1378.54c22.2-12.37,47.42-27.57,51.63-55A1.3,1.3,0,0,0,811,1322a21.52,21.52,0,0,0-12.88-1c-4.56,1.12-8.17,4.21-12.53,5.8-3.82,1.4-8.16,1.44-10.3-2.8-.93-1.84-1-4-1.5-5.95-.67-2.81-1.8-5.52-4.56-6.84-3.1-1.48-6.74-.57-9.83.42-5.85,1.87-11.62,4-17.41,6.07l-35.3,12.34c-1.51.53-.86,2.94.66,2.41l32.52-11.37,16.72-5.84c2.59-.91,5.36-2.13,8.13-2.29,4.12-.23,6,2.88,6.78,6.38,1.43,6.06,3.33,11.28,10.67,10.81,3.46-.22,6.5-1.91,9.46-3.56,6.11-3.4,11.92-4.76,18.69-2.22l-.87-1.54c-4.12,26.83-28.81,41.44-50.48,53.52-1.41.78-.15,2.94,1.26,2.16Z" transform="translate(-603.54 -648.99)"/><path class="cls-1" d="M699,1319.95l45.14-17.32c7.12-2.73,15-6.68,22.79-6a15.07,15.07,0,0,1,11.2,6.34c1.22,1.67,2.3,3.45,4.05,4.62,8.31,5.55,17.06-8.74,18.26-15.33,2.05-11.26-13.1-18.53-21.82-21a1.25,1.25,0,0,0-.66,2.41,37,37,0,0,1,16.3,9c6,6,3.42,12.42-1.11,18.5-2.42,3.25-7.13,7-10.8,3.24-1.46-1.5-2.37-3.46-3.77-5a17.1,17.1,0,0,0-10.88-5.23c-10.92-1.27-22.46,5.29-32.35,9.08l-37,14.2c-1.49.57-.84,3,.66,2.41Z" transform="translate(-603.54 -648.99)"/><path class="cls-1" d="M942.47,1216.42a614.41,614.41,0,0,0-47.75,41.17c-6,5.71-13.27,12-15.1,20.51-1.41,6.53,1.65,12.43,6.8,16.33,12.95,9.8,32.71,9.55,47.78,6.15,17.85-4,33.25-13.43,47.72-24.29,8.4-6.3,16.83-12.79,26.46-17.12,11.72-5.27,24.64-6.61,37.28-7.9,1.59-.16,1.6-2.66,0-2.5-17.29,1.76-33.75,4.37-48.71,13.77-14.33,9-26.71,20.61-42.06,28-15.62,7.57-33.71,11.85-51,8.27-7.85-1.63-19.19-5.14-21.63-13.93-2.82-10.19,7-18.66,13.54-24.94a615,615,0,0,1,48.42-41.81c1.27-1-.51-2.74-1.77-1.77Z" transform="translate(-603.54 -648.99)"/><path class="cls-1" d="M954.76,1213.86c-6.09,15.42-18,27-30.2,37.83-5.89,5.21-11.89,10.3-17.58,15.72-4.46,4.25-12.67,10.52-13.84,17-1,5.75,5.06,8.39,9.75,9,8.35,1,17.57-2.12,25.14-5.32,16.33-6.89,28.06-19.39,40.08-31.94,14.32-15,33.26-31.44,55.65-26.25,1.57.36,2.23-2,.66-2.41-33.64-7.79-54.65,26.43-76.4,45.15a79.36,79.36,0,0,1-23.78,14.3,73.53,73.53,0,0,1-11.31,3.29,33.25,33.25,0,0,1-8.32.83,18.6,18.6,0,0,1-3.88-.64,10.46,10.46,0,0,1-3.15-1.34l-1-6.47c.77-2.9,5.42-6.6,7.5-8.74,2.73-2.81,5.57-5.5,8.46-8.14,5.44-5,11.08-9.72,16.55-14.66,11.57-10.43,22.3-21.8,28.11-36.49.59-1.5-1.83-2.15-2.41-.66Z" transform="translate(-603.54 -648.99)"/><path class="cls-1" d="M958.08,1232.45c-6.49,11.48-18.66,20.21-28.18,29.08l-8.7,8.11c-1.65,1.53-4.25,3.19-5.37,5.17-1.36,2.4-.3,4.47,2.23,5.32,8.44,2.86,18.27-7.93,23.18-13.21,8.24-8.84,16.43-17.9,21.29-29.11.63-1.46-1.52-2.74-2.16-1.26-4,9.23-10.25,16.94-17,24.33-3,3.34-6.05,6.73-9.38,9.78a36.83,36.83,0,0,1-5.81,4.45c-1.64,1-6.16,3.7-8.14,2.88l-1.45-2.53,1.45-1.35a20.45,20.45,0,0,1,2.9-2.7l5.8-5.4,12.32-11.48c6.87-6.4,14.47-12.52,19.15-20.8a1.25,1.25,0,0,0-2.16-1.26Z" transform="translate(-603.54 -648.99)"/><path class="cls-1" d="M649.92,1240.68q49.39-15.48,99.56-28.3,5.68-1.45,11.36-2.86c2.41-.6,11.17-4.17,12.68-1.56,2,3.46-2.45,9.14-4.61,11.4a36.7,36.7,0,0,1-9.64,7c-14.29,7.48-30.19,12.83-45.61,17.43-4.77,1.42-11.14,2.35-14.39,6.59-2.79,3.64-2.05,8.43.57,12,7.47,10,22.88,4.27,32.69,1.85,23.1-5.7,47.71-13.23,65.33-30.07a66.3,66.3,0,0,0,11.58-14.63c4.14-7.16,6.35-15.34,11-22.23,8.92-13.35,26.29-19.28,41.59-15l-.55-2.09-19,16.21c-1.23,1,.55,2.81,1.77,1.77l19-16.21a1.26,1.26,0,0,0-.55-2.09c-15.89-4.47-33.93,1.43-43.62,15-6.18,8.63-8.58,19.32-14.72,28a72.36,72.36,0,0,1-20.32,18.9c-16,10.24-34.56,15.7-52.82,20.18-4.43,1.09-8.9,2.3-13.4,3-6.65,1.09-20.06-.65-17.44-10.77,1.52-5.86,9.92-6.78,14.89-8.28q8.82-2.66,17.49-5.8c11.2-4.07,24.06-8.1,33.7-15.28,6.55-4.88,12.12-12.11,8.46-20.41a1.26,1.26,0,0,0-1.41-.57q-62.66,15.12-124.2,34.41c-1.53.48-.88,2.89.66,2.41Z" transform="translate(-603.54 -648.99)"/><path class="cls-1" d="M886.33,1189.73q56.31-27,113.87-51.36c1.48-.62.2-2.78-1.26-2.16q-57.54,24.31-113.87,51.36c-1.45.7-.18,2.85,1.26,2.16Z" transform="translate(-603.54 -648.99)"/><path class="cls-1" d="M867.5,1547.54c5.07-2,9.18-5.18,13.32-8.64q8.36-7,16.68-14l33.36-28-2-1.51-9.28,14.42a1.28,1.28,0,0,0,.45,1.71c5.05,3.89,11.19-.47,13.64-5.27,2.12-4.14,2.72-10.32,7.3-12.59,1-.48,3.52-1.25,4.51-.66,2.41,1.44,2.44,5.77,1.86,8a23.22,23.22,0,0,1-3.17,6.9c-10.11,15.24-31.11,19-39.39,35.9-.7,1.44,1.45,2.71,2.16,1.26,9.19-18.79,36.29-21.81,42.63-42.69,1.89-6.24.16-13.85-7.92-11.58-3.71,1-5.77,3.84-7.31,7.21-2,4.39-5.75,17-13,11.39l.45,1.71,9.28-14.42c.81-1.26-.93-2.38-2-1.51l-30.32,25.46-14.4,12.09c-5.47,4.59-10.78,9.81-17.53,12.45-1.48.58-.84,3,.66,2.41Z" transform="translate(-603.54 -648.99)"/><path class="cls-1" d="M969.76,1460.39q-7.3,8.43-14.39,17a1.27,1.27,0,0,0,.25,2c14.49,7.13,23-13.05,35.4-15.43l-1.54-1.54A35.86,35.86,0,0,1,979,1477.75a1.26,1.26,0,0,0,.25,2c4,2.78,10.92-1.83,14.68-3.73a41.14,41.14,0,0,0,15.05-13c10-13.53,24.26-21.66,41.4-20.59l-1.21-1.58a32.25,32.25,0,0,1-5.13,8.63c-1,1.23.74,3,1.77,1.77a36.53,36.53,0,0,0,5.77-9.73c.32-.81-.48-1.54-1.21-1.58a48.38,48.38,0,0,0-34.43,11.39c-5.48,4.68-8.67,11-13.74,16a37.38,37.38,0,0,1-9.54,6.52c-2.74,1.39-9.29,5.71-12.16,3.73l.25,2a38.27,38.27,0,0,0,11.1-16.43c.34-1-.68-1.7-1.54-1.54-5.18,1-9.09,4-12.91,7.48-5.42,4.94-12.6,12.12-20.57,8.2l.25,2q7.08-8.61,14.39-17c1-1.21-.71-3-1.77-1.77Z" transform="translate(-603.54 -648.99)"/><path class="cls-1" d="M1037.55,1456.66c-9.6,7.18-19.42,14.15-28.74,21.69-8.35,6.75-15.93,14.4-20.52,24.23a1.27,1.27,0,0,0,.45,1.71c12.86,6.86,27.23-1.19,37.33-9.39,12.78-10.37,22.78-23.67,35.53-34.11a151.7,151.7,0,0,1,21.65-14.77c7.46-4.2,15.44-7.33,22.94-11.42,6.23-3.4,12.08-7.64,16.15-13.54,4.37-6.31,5.19-12.92,4.35-20.43-.18-1.58-2.68-1.6-2.5,0,1,8.69-.68,15.86-6.66,22.45-5.09,5.61-11.95,9.2-18.69,12.42-12.84,6.12-25.08,12.58-36.33,21.38s-20.54,19.72-30.85,29.67c-10.13,9.77-26.82,23.5-41.66,15.58l.45,1.71c4.5-9.65,11.94-17.1,20.13-23.72,9.16-7.41,18.81-14.25,28.24-21.3,1.27-1,0-3.12-1.26-2.16Z" transform="translate(-603.54 -648.99)"/><path class="cls-1" d="M1097.37,1412.76c1.05.3.53,3.2.36,3.94a13.36,13.36,0,0,1-1.68,3.53,21,21,0,0,1-4.37,5.11,20,20,0,0,1-6.79,3.81,16.26,16.26,0,0,1-3.61.78c-2.58.19-3.26-.19-5-2.29-1.93-2.36-1.79-3.41-.42-6.11a12.32,12.32,0,0,1,2.39-3,26.57,26.57,0,0,1,5.59-4c4-2.28,8.14-4.26,12.21-6.36l-1.84-.75.67,3.3c.32,1.58,2.73.91,2.41-.66l-.67-3.3a1.26,1.26,0,0,0-1.84-.75c-6.89,3.54-16.4,6.77-20.74,13.66-3.26,5.17-2.12,11.77,4.6,12.7s13.8-3.35,17.84-8.43c2.2-2.77,7.62-11.87,1.53-13.58a1.25,1.25,0,0,0-.66,2.41Z" transform="translate(-603.54 -648.99)"/><path class="cls-1" d="M1159.14,1398.78c-4.07.39-6.3,3.27-7.13,7.14-.6,2.76-.29,5.65-.87,8.42a24.17,24.17,0,0,1-3.56,8.27c-7.38,11.21-20.6,15.94-31.16,23.38-5,3.5-8.85,7.84-13,12.17-4.67,4.82-10.21,8.36-15.8,12a69.64,69.64,0,0,0-13.18,10.47c-4.34,4.62-8.79,11-15.92,10.23l1.08,1.88a196.73,196.73,0,0,1,46.3-47.67c1.29-.94,0-3.11-1.26-2.16a200.3,200.3,0,0,0-47.2,48.56c-.59.86.23,1.78,1.08,1.88,10.61,1.21,17-11.46,24.42-17,5.13-3.83,10.79-6.89,15.89-10.78,4.81-3.66,8.48-8.31,12.81-12.47,9-8.61,21.07-12.77,30.49-20.79a36.49,36.49,0,0,0,9.75-12.25,24.6,24.6,0,0,0,2.06-7.23c.48-3.8-.59-11,5.24-11.56,1.59-.15,1.6-2.65,0-2.5Z" transform="translate(-603.54 -648.99)"/><path class="cls-1" d="M1054,1553.58c26-10.34,42.73-33.34,61.69-52.66,22.94-23.38,49.31-43,75.55-62.43,1.28-.95,0-3.12-1.26-2.16-24.95,18.51-50,37.09-72.2,58.95-20.1,19.82-37.33,45.09-64.44,55.89-1.48.59-.83,3,.66,2.41Z" transform="translate(-603.54 -648.99)"/><path class="cls-1" d="M1220.68,1397.5c-13,23.81-17.87,52.22-35.76,73.28-15.91,18.73-39.06,29.71-54.26,49.13-5.36,6.85-9.64,16.26.77,20.72,9.87,4.22,23.43,1.39,33.33-1.48,11.76-3.41,24.38-9.57,33-18.52,1.91-2,4.26-5.25,2-7.89-1-1.22-2.61-1.4-4.1-1.49-4-.22-8.3.7-12.26,1.06-.84.08-4.12.89-4.85.4q-.69-4.64,2.75-5.15,1.83-.55,3.68-1.07c5-1.36,10.19-2.54,15.35-1.7,8.88,1.44,14.68,8.69,12.25,17.72-4.27,15.89-23.6,25.4-38.24,28.84-1.57.37-.9,2.78.66,2.41,12.2-2.87,24.64-9,33-18.49,6.17-7,11.12-18.16,4.5-26.51-7.82-9.87-23-7-33.19-3.21-2.87,1.07-6.13,3.38-5,6.93,1.37,4.31,7.69,2.46,10.87,2.17,2.6-.23,8-1.82,10.42-.89l1,1.52q2,1.37.16,2.55a9.48,9.48,0,0,1-2.06,2.13,62,62,0,0,1-5.46,4.4,80.53,80.53,0,0,1-40.86,15.27c-5.78.46-14.21,1.26-18.87-3-9.58-8.85,15.59-28.43,22-33.64,9.87-8,20.36-15.36,29.44-24.32,22.28-22,27.29-53.29,41.85-79.89.77-1.41-1.39-2.68-2.16-1.26Z" transform="translate(-603.54 -648.99)"/><path class="cls-1" d="M1195.6,1494c12.88,2.79,22.73-8.43,27.61-19,3-6.48,5.1-13.38,8.82-19.51,4.65-7.67,11.61-11.59,19.91-14.38,14.74-5,28.8-10.51,42.07-18.76a165.8,165.8,0,0,0,18.36-13.26c4.16-3.45,9.83-8.17,7.45-14.22-.58-1.48-3-.84-2.41.66,2.8,7.12-10.76,15.1-15.38,18.43a164.85,164.85,0,0,1-17.44,11,162.1,162.1,0,0,1-20.79,9.53c-6.09,2.28-12.47,3.86-18.45,6.43-10.57,4.55-15.94,12.88-20.26,23.18-4.92,11.72-12.54,31.06-28.82,27.53-1.57-.34-2.24,2.07-.66,2.41Z" transform="translate(-603.54 -648.99)"/><path class="cls-1" d="M1332.33,1392.39c-7.67,13.26-15.49,26.71-26.06,37.91-11.17,11.83-24.58,17.62-39.12,24.12-6.32,2.82-12.5,6-17.8,10.55-5.76,4.91-10.1,11.23-14.39,17.4s-8.5,12.47-10.4,19.75c-2,7.58-.61,15.11,1.46,22.5a1.25,1.25,0,0,0,2.41-.66c-2.71-9.66-3.37-18.7,1.08-28,3.2-6.65,7.72-12.79,12.1-18.71a57.18,57.18,0,0,1,17.62-16.16c6.19-3.55,12.88-6.12,19.41-9a88.57,88.57,0,0,0,32.57-23.62c9.16-10.63,16.28-22.79,23.28-34.89a1.25,1.25,0,0,0-2.16-1.26Z" transform="translate(-603.54 -648.99)"/><path class="cls-1" d="M1245.31,1513.54c.57-11.75,1.47-24.46,10.59-33,8.32-7.81,20.35-11.62,30.61-16.13,1.47-.65.2-2.8-1.26-2.16-11.27,5-24.89,9.13-33.23,18.71-7.82,9-8.66,21.24-9.21,32.6-.08,1.61,2.42,1.6,2.5,0Z" transform="translate(-603.54 -648.99)"/><path class="cls-1" d="M1466.1,1425.64a38.61,38.61,0,0,0-18.46,10.49,26.15,26.15,0,0,0-5.55,7.68,9.47,9.47,0,0,0-.8,4.48c.14,2,1.84,4.57.39,6.52-1,1.29,1.21,2.54,2.16,1.26,1.21-1.62,1.13-2.94.71-4.85-1.14-5.29.39-8.35,3.84-12.23a36.13,36.13,0,0,1,18.37-10.94,1.25,1.25,0,0,0-.66-2.41Z" transform="translate(-603.54 -648.99)"/><path class="cls-1" d="M1434.73,1471.19c-8.3-4.63-11.63-14.56-9.94-23.64,1.8-9.71,9.37-17.15,17.71-21.8,11.87-6.61,39.27-7.85,37.17-27.31-.17-1.58-2.67-1.6-2.5,0,1.6,14.79-16.58,17.47-26.85,21.09-8.24,2.91-16.15,7.53-21.7,14.41-9.47,11.74-9.51,31.41,4.85,39.41,1.41.78,2.67-1.37,1.26-2.16Z" transform="translate(-603.54 -648.99)"/><path class="cls-1" d="M1466.74,1399.35c-15.12,18-40,22.55-56.61,38.69a45.26,45.26,0,0,0-4,60c1,1.27,2.75-.51,1.77-1.77a42.93,42.93,0,0,1-8.1-34.45c2.29-11.73,9.53-20.93,19.08-27.78,16.18-11.6,36.51-17.24,49.64-32.91,1-1.23-.73-3-1.77-1.77Z" transform="translate(-603.54 -648.99)"/><path class="cls-1" d="M1244.19,1563c19.38-25.83,50-38.41,78.15-52,14-6.78,28.7-14,40.63-24.14,5.63-4.79,7.38-10.62,9.17-17.56a78.47,78.47,0,0,1,8.65-20.86,76.94,76.94,0,0,1,14.85-17.94c5.59-5,12-9,17.5-14,2.52-2.3,8.09-6.7,5.14-10.6-2.76-3.65-9.18-2.15-12.89-1.65-13.31,1.79-24.56,6-31.89,17.8-4,6.46-7.11,13.46-10.93,20a240,240,0,0,1-13.71,21c-1.57,2.15-3.17,4.74-5.51,6.13-1.9,1.14-4.32,1.43-6.43,2a93.67,93.67,0,0,0-11.45,3.8,162,162,0,0,0-21.18,10.68c-14.9,8.72-29.16,18.67-45.31,25-1.48.58-.84,3,.66,2.41,26-10.22,47.24-30.12,74.05-38.4,5.51-1.7,10.67-2.06,14.57-6.7a158.37,158.37,0,0,0,12.29-17.73c3.92-6.24,7.49-12.67,10.87-19.21,3.53-6.83,7.22-13.71,13.83-18,6.08-4,13.55-5.35,20.63-6.3,1.64-.22,3.34-.53,5-.58,2.88-.1,3.68-.39,3.56,3-.12,3.15-.91,3.63-3.07,5.6-1.43,1.31-2.93,2.54-4.45,3.75-10.87,8.62-21,16.62-28.29,28.72A79.65,79.65,0,0,0,1371,1464c-2.7,8.52-3.6,16.11-11,22-12,9.55-26,16.56-39.73,23.19-28.42,13.7-58.73,26.55-78.24,52.54-1,1.29,1.2,2.53,2.16,1.26Z" transform="translate(-603.54 -648.99)"/><path class="cls-1" d="M1273.61,1518.33c9.44-7.66,19-15.37,29.68-21.19,11.07-6,23.16-8.93,35.35-11.66l-1-2.28a238.37,238.37,0,0,1-54.51,31.59c-1.47.61-.82,3,.66,2.41a240.59,240.59,0,0,0,55.11-31.84,1.26,1.26,0,0,0-1-2.28c-12.41,2.78-24.69,5.81-36,11.91-10.91,5.91-20.59,13.79-30.18,21.58-1.25,1,.53,2.77,1.77,1.77Z" transform="translate(-603.54 -648.99)"/><path class="cls-1" d="M1372.7,1390.62c-7.57,27.13-37.44,38.88-49.08,63.66-.68,1.45,1.47,2.72,2.16,1.26,11.74-25,41.65-36.76,49.33-64.26a1.25,1.25,0,0,0-2.41-.66Z" transform="translate(-603.54 -648.99)"/><path class="cls-1" d="M1347.68,1566c6.3-16.53,20.42-28.4,27.33-44.62.62-1.46-1.53-2.74-2.16-1.26-7,16.42-21.2,28.46-27.58,45.21-.57,1.5,1.84,2.16,2.41.66Z" transform="translate(-603.54 -648.99)"/><path class="cls-1" d="M1399.09,1568.66a250.59,250.59,0,0,1,32.12-34.85c11.3-10.13,23.42-19.31,34.49-29.71,21.79-20.48,35.68-46.41,49-72.79.73-1.43-1.43-2.7-2.16-1.26-13.87,27.37-28.3,53.8-51.27,74.7-11,10-22.87,19-33.85,29.09a253.39,253.39,0,0,0-30.53,33.56c-1,1.28,1.2,2.53,2.16,1.26Z" transform="translate(-603.54 -648.99)"/><path class="cls-1" d="M1454.59,1552.88c12.87-25.62,38.15-40.73,56.94-61.42,8.61-9.48,16.08-20.32,19.63-32.75,4.13-14.47,3.51-30.56,17.27-40a32.32,32.32,0,0,1,10.22-4.69c2.76-.71,9.67-2.29,12.07.19,1.3,1.33,1,5.28.38,6.67s-2.05,2.6-3,3.77l-4.09,5.13-8.76,11a1.27,1.27,0,0,0,.25,2c6.88,3.14,13.09-1.73,18.2-6.07a115.09,115.09,0,0,0,10.19-9.83c1.6-1.74,3.12-3.54,4.62-5.37.34-.41,1.55-2.34,2-2.41l3.57,1.93a14,14,0,0,1-.85,2.32c-6.71,16.73-22.94,27.48-37.22,37.24-13.08,8.94-26.89,18.76-34.5,33.09-2.11,4-7.2,13.24-3.1,17.33,4.61,4.6,10.56-3.18,13.06-6.25,12.25-15,24-32.38,42.88-39.46l-1.58-1.21c1.6,14.64-9.94,26.54-20.16,35.42s-21.52,15.88-32.76,23.1c-18.43,11.85-41.87,25.89-44.81,49.8-.2,1.59,2.31,1.58,2.5,0,3.31-27,34.56-41.6,54.72-54.83,10.38-6.82,20.61-14.09,29.27-23.06,7.92-8.21,15-18.49,13.74-30.43-.08-.73-.75-1.52-1.58-1.21-14.44,5.41-25,16.54-34.48,28.26-2.56,3.15-5.06,6.34-7.6,9.5-1.26,1.57-2.51,3.14-3.81,4.67a26.65,26.65,0,0,1-1.85,2.1l-1.86,1.49-4.26-3.91c-.3-1.37,1.3-4.42,1.8-5.67a45.73,45.73,0,0,1,3.11-6.3,60.6,60.6,0,0,1,8.4-10.92c11.45-12,26.18-20,39.18-30.11a89,89,0,0,0,16.36-15.91c3.23-4.23,8.74-11.45,8.08-17.17-.24-2.07-1.5-3.76-3.72-3.84-3.07-.12-5.2,3.35-6.85,5.36a115,115,0,0,1-10.94,11.57c-4.46,4.11-11.68,11.73-18.48,8.62l.25,2c5.48-6.87,11.88-13.56,16.61-21,2.54-4,1.64-8.21-2.87-10.08-11.21-4.64-26.11,4.78-32.27,13.64-4.72,6.78-6.12,15-7.56,22.94-1.62,8.93-4.13,17.26-8.75,25.14-8.5,14.5-21.27,25.81-33.69,36.86-13.79,12.26-27.66,24.89-36.06,41.62-.72,1.43,1.44,2.7,2.16,1.26Z" transform="translate(-603.54 -648.99)"/><path class="cls-1" d="M1538.48,1387c-7.11,9.86-17.91,15.57-27.85,22.11a76.22,76.22,0,0,0-23.79,24.08c-6.79,11-11.72,23.07-18.14,34.31a236.48,236.48,0,0,1-24.76,35.29l2,1.51a493.71,493.71,0,0,1,49.14-89.33c.92-1.33-1.25-2.58-2.16-1.26a493.71,493.71,0,0,0-49.14,89.33c-.5,1.17,1,2.71,2,1.51a240.47,240.47,0,0,0,23.81-33.49c6.72-11.46,11.81-23.79,18.62-35.2,7-11.72,16.08-19.75,27.48-27,9.23-5.86,18.52-11.59,25-20.61.94-1.31-1.23-2.56-2.16-1.26Z" transform="translate(-603.54 -648.99)"/><path class="cls-1" d="M1652.16,1386.25c-7.55,12.69-18.24,21.83-31.3,28.51-8.83,4.52-21.21,10.56-21.9,22-.61,10.15,10.3,13.17,18.14,9.55,6.09-2.81,9.82-8.92,14.12-13.75,4.7-5.27,10.69-8.92,16.21-13.22,5.34-4.16,9.3-9.16,13.16-14.68,4.36-6.23,8.79-12.75,16.15-15.63,1.48-.58.84-3-.66-2.41-12.08,4.72-16.49,17.42-25,26.18-5.63,5.81-13,9.54-18.83,15.07-5.63,5.3-9.69,13.81-17.29,16.62-3.52,1.31-8.38,1.5-11.3-1.27-4-3.81-2-9.91.7-13.78,4.51-6.43,12.29-9.71,19-13.21a75.87,75.87,0,0,0,30.9-28.75,1.25,1.25,0,0,0-2.16-1.26Z" transform="translate(-603.54 -648.99)"/><path class="cls-1" d="M1556.62,1575.35c24.71-20,41-47.53,59.68-72.78,9.63-13.05,20.29-27.36,33.7-36.79,4.18-2.94,9.2-5.48,14.45-5.19s7.72,4.83,5.12,9.1a16.49,16.49,0,0,1-4.74,4.46c-6.2,4.4-11.29,8.78-14.93,15.6a1.27,1.27,0,0,0,.45,1.71c5.8,3.41,11.71.15,17.22-2.29a112.82,112.82,0,0,1,13.5-5c4-1.2,8.81-3,13.05-3,13.74,0,3,21.38-1.1,26.22-5.54,6.51-13,11-20,15.73-25.32,16.91-46,43-76.39,51l1.41,1.84c13.35-21.62,39.37-34,47.21-59.18a1.26,1.26,0,0,0-1.21-1.58,24.79,24.79,0,0,0-18.59,11.27c-.89,1.35,1.28,2.6,2.16,1.26a22.09,22.09,0,0,1,16.43-10l-1.21-1.58c-7.72,24.81-33.78,37.23-47,58.58a1.26,1.26,0,0,0,1.41,1.84c26.32-6.91,45.25-27.29,66.09-43.42,10.76-8.32,24.1-14.53,32.6-25.43,3.67-4.71,6.45-10.34,7-16.36.37-4.21-.06-9.87-4.37-12-5.43-2.64-14.81,1.28-20,2.91q-5.42,1.71-10.65,4c-4.93,2.12-11.07,6.15-16.39,3l.45,1.71c3.83-7.18,9.26-10.93,15.49-15.76,3.67-2.84,7.38-7.74,5.14-12.64-2-4.43-7.55-4.92-11.8-4.3-6.78,1-12.61,5.25-17.61,9.68-21.76,19.23-36.78,44.82-53.87,68-10.15,13.75-21.21,26.84-34.55,37.62-1.25,1,.53,2.77,1.77,1.77Z" transform="translate(-603.54 -648.99)"/><path class="cls-1" d="M1726.22,1383.89a282,282,0,0,0-25.76,20.95c-5.7,5.24-14.92,12.43-13.66,21.3,1.18,8.28,10.26,2.64,14.24.32a107.53,107.53,0,0,0,12.72-8.83c4.89-3.87,9.83-8,16.42-7.84l-1.21-1.58c-4.19,11.08-11.89,20.06-18.82,29.49a94.07,94.07,0,0,0-8.81,14c-3,6-6.17,17.44-15.28,14.39l.75,1.84a144.63,144.63,0,0,0,16.07-31.61c.39-1.06-.95-1.92-1.84-1.41a77.41,77.41,0,0,1-9.3,4.57c-2.33.94-5.79,2.73-8-.06-.73-.91-1-2.63-1.4-3.74-2.37-7-3.92-14.53-.1-21.35,4.32-7.7,12.29-12.4,15.16-21.05.51-1.53-1.9-2.19-2.41-.66-2.38,7.15-8.51,11.66-12.9,17.48a22,22,0,0,0-4.52,16.84,51.44,51.44,0,0,0,2.95,11.18c.65,1.73,1.33,3.76,3,4.82,4.85,3.12,14.75-3.56,18.81-5.87l-1.84-1.41a141.94,141.94,0,0,1-15.82,31,1.26,1.26,0,0,0,.75,1.84c5.15,1.72,9.91-.86,12.94-5.09,4.22-5.87,6.26-13.2,10.32-19.28,7.81-11.68,17.67-21.92,22.71-35.26a1.26,1.26,0,0,0-1.21-1.58c-6.19-.13-11,3-15.76,6.64-3.54,2.74-7,5.56-10.76,8-3.1,2-13.75,9.79-14.29,1.47-.47-7.19,11.57-15.71,16.24-19.86a277.35,277.35,0,0,1,21.86-17.5c1.29-.93,0-3.1-1.26-2.16Z" transform="translate(-603.54 -648.99)"/><path class="cls-1" d="M1792.08,1386c-17.17,17.49-37.41,31.27-48,54.18-5.09,11-5.68,22.11-8,33.76-2.54,12.64-10.41,23.21-14.74,35.21-.49,1.36,1.58,2.15,2.28,1l21-35.33c6.73-11.35,13.87-22.58,19.69-34.43,5.3-10.78,7.25-24.61,16.22-33.05,4.83-4.54,10.65-8.13,16-12l17.65-12.51c1.3-.92.05-3.09-1.26-2.16-10.76,7.63-22.33,14.73-32.4,23.25-9.81,8.31-11.72,20.64-16.83,31.83-5.72,12.54-13.26,24.25-20.28,36.08l-22,37,2.28,1c4.13-11.44,11.58-21.53,14.37-33.48s2.91-23.59,8.14-34.89c10.53-22.73,30.64-36.34,47.65-53.67,1.13-1.15-.64-2.92-1.77-1.77Z" transform="translate(-603.54 -648.99)"/></svg>