<svg id="Layer_6" data-name="Layer 6" xmlns="http://www.w3.org/2000/svg" viewBox="0 0 1401.33 1500.36"><defs><style>.cls-1{fill:#1d1d1b;}.cls-2{fill:#f6e93e;}.cls-3{fill:#fcee6c;}.cls-4{fill:#e5c093;}.cls-5{fill:#fdd7a4;}</style></defs><title>4</title><ellipse class="cls-1" cx="130.11" cy="1420.85" rx="46.5" ry="64.51"/><ellipse class="cls-1" cx="544.7" cy="1435.85" rx="46.5" ry="64.51"/><path class="cls-2" d="M1394.17,1717.27l9.64-35.18s44.87-381.72,122.59-405.71c0,0,131.71-90,281.68,0,0,0,168,167.92,132,440.89C1940.06,1717.27,1754.09,1858.22,1394.17,1717.27Z" transform="translate(-543.78 -467.38)"/><polygon class="cls-2" points="1010.92 793.85 796.65 994.97 1210.31 1435.86 1396.27 1249.89 1010.92 793.85"/><path class="cls-3" d="M1208.2,1903.23l9.64-35.18s44.87-381.72,122.59-405.71c0,0,131.71-90,281.68,0,0,0,168,167.92,132,440.89C1754.09,1903.23,1568.13,2044.18,1208.2,1903.23Z" transform="translate(-543.78 -467.38)"/><path class="cls-1" d="M1539.91,1398.65c5.37-15.05,11.06-30,16.83-44.89q8.76-22.6,18-45,1.29-3.12,2.59-6.24l1.11-2.65.7-1.66c1.23-2.93-1,2.4-.39.92q2.65-6.23,5.32-12.45,5.59-12.95,11.43-25.78c13.71-30.11,28.08-60.77,47.18-87.91q1.34-1.9,2.72-3.77c.44-.6.91-1.18,1.35-1.79-1.12,1.58-2.19,2.74-.42.56s3.5-4.26,5.38-6.27a67.27,67.27,0,0,1,5.19-5.05c.45-.39.94-.74,1.37-1.14,1.39-1.3-3.79,2.65-1.69,1.3.9-.57,1.73-1.23,2.65-1.78.75-.45,1.57-.8,2.32-1.24,2-1.19-4.36,1.36-2.07.88.42-.09.82-.3,1.24-.4,3.37-.8-1,.32-1.57.08a8.55,8.55,0,0,0,2.33,0s-5.15-.73-2.86-.35a7.14,7.14,0,0,1,1.11.32c2,.69-3.78-2.15-2.5-1.07a9.31,9.31,0,0,0,1.16.64c2.84,1.71-3-3.12-1-.78a15.6,15.6,0,0,0,1.84,2c-3.38-2.65-2.22-3.16-1.24-1.52.23.38.49.75.72,1.13.63,1,1.16,2.13,1.71,3.22,1.79,3.51-1.29-3.69.08.23.51,1.47,1,2.93,1.47,4.42,1,3.24,1.72,6.54,2.37,9.85q.55,2.79,1,5.6c.16,1,.29,2,.45,3,.36,2.3-.25-1.94-.25-1.91,0,.71.18,1.43.27,2.14,3.05,25,2.85,50.51,2.16,75.69q-.35,12.71-1,25.41c-.37,7.85,7.17,15.35,15,15a15.33,15.33,0,0,0,15-15c1.39-29.33,2.27-58.88.06-88.19-1.32-17.45-3.17-35.79-10.89-51.75-6-12.39-17.85-20-31.71-17.48-10.76,2-19.84,10.58-26.7,18.6-21.45,25.05-36.33,55.85-50.38,85.43-16.18,34.07-30.74,68.93-44.58,104-7.39,18.73-15.53,37.59-21.53,56.83-.09.29-.2.57-.3.85-2.64,7.4,3,16.74,10.48,18.45,8.42,1.92,15.63-2.55,18.45-10.48Z" transform="translate(-543.78 -467.38)"/><path class="cls-1" d="M1273.89,494.39l-10.31,40.05-24.89,96.69-30,116.54-26,101.13c-4.19,16.29-8.74,32.52-12.59,48.89-.05.23-.12.46-.18.68-3.26,12.65,4.15,27.72,17.46,30.75,13,3,27.26-3.91,30.75-17.46l10.31-40.05,24.89-96.69,30-116.54,26-101.13c4.19-16.29,8.74-32.52,12.59-48.89.05-.23.12-.46.18-.68,3.26-12.65-4.15-27.72-17.46-30.75-13-3-27.26,3.91-30.75,17.46Z" transform="translate(-543.78 -467.38)"/><path class="cls-1" d="M1073,494.39l-10.31,40.05-24.89,96.69-30,116.54-26,101.13c-4.19,16.29-8.74,32.52-12.59,48.89-.05.23-.12.46-.18.68-3.26,12.65,4.15,27.72,17.46,30.75,13,3,27.26-3.91,30.75-17.46l10.31-40.05,24.89-96.69,30-116.54,26-101.13c4.19-16.29,8.74-32.52,12.59-48.89.05-.23.12-.46.18-.68,3.26-12.65-4.15-27.72-17.46-30.75-13-3-27.26,3.91-30.75,17.46Z" transform="translate(-543.78 -467.38)"/><path class="cls-4" d="M909.09,1009l-208,692s-80,148,104,152h400s60.24,22,102.59-120l157.41-724s28-104-100-104H1075.73S939.09,909.25,909.09,1009Z" transform="translate(-543.78 -467.38)"/><path class="cls-5" d="M769.09,1009l-208,692s-80,148,104,152h400s60.24,22,102.59-120l157.41-724s28-104-100-104H935.73S799.09,909.25,769.09,1009Z" transform="translate(-543.78 -467.38)"/><path class="cls-1" d="M1075.73,609l68-1.3,109-2.08,24.91-.48c13.07-.25,25.61-11.32,25-25-.6-13.33-11-25.27-25-25l-68,1.3-109,2.08-24.91.48c-13.07.25-25.61,11.32-25,25,.6,13.33,11,25.27,25,25Z" transform="translate(-543.78 -467.38)"/><path class="cls-1" d="M1096.9,521.24l68-1.3,109-2.08,24.91-.48c13.07-.25,25.61-11.32,25-25-.6-13.33-11-25.27-25-25l-68,1.3-109,2.08-24.91.48c-13.07.25-25.61,11.32-25,25,.6,13.33,11,25.27,25,25Z" transform="translate(-543.78 -467.38)"/></svg>