<svg id="Layer_13" data-name="Layer 13" xmlns="http://www.w3.org/2000/svg" viewBox="0 0 1267.95 1276.56"><defs><style>.cls-1{fill:#1d1d1b;}</style></defs><title>44</title><path class="cls-1" d="M613,1279.77c17.3,104.67-14.65,209.46-8.94,314.42,2.47,45.43,12.1,90.55,34.18,130.66,19.23,34.92,47.83,66,84.21,83.22,44.63,21.16,95.3,19.79,143.5,18.24,52.8-1.69,105.49-5.76,158.11-10.39,105.34-9.27,210.75-20.93,316.64-20.41,26.25.13,52.5,1,78.69,2.88,25.84,1.83,51.46,5.58,77.26,7.73,23.4,2,47.79,1.54,69.87-7.35a112,112,0,0,0,44.8-33.23c24.26-29.72,35.93-68.55,36.95-106.56,1.37-50.82-13.24-100.25-22.32-149.79-7.77-42.37-8.8-85.83-18.55-127.86-9.5-41-29.35-78-65.1-101.66-36-23.8-80-31.85-121.9-38.2q-78.28-11.87-157.41-16.84c-105.65-6.57-211.15-2.88-316.33,8.5-26.71,2.89-53.54,5.6-80.45,5.12-25.95-.47-51.25-6.3-77.1-7.47-24.39-1.1-48,4.78-71.24,11.47-22.24,6.4-44.8,13.55-68.18,13.43-10.81-.05-22.93-2.4-32.28,4.55-7.85,5.83-11.84,16.88-6.25,25.62,5.18,8.11,18.17.6,13-7.57-1.43-2.24.52-5.27,3.28-6.68,4.93-2.52,11.71-1.31,17-1.07a151.75,151.75,0,0,0,34.41-2.74c22.23-4.08,43.55-11.87,65.5-17.13a167.13,167.13,0,0,1,33-5c12.49-.44,25,1,37.32,2.64,26,3.53,51.48,5.72,77.75,4.47,25.55-1.21,51-4.41,76.38-7.06q38.38-4,76.9-6.33,76.53-4.62,153.27-2.62,77.14,2,153.92,10.71c24.82,2.82,49.59,6.13,74.26,10.07,20.46,3.28,40.89,7.23,60.69,13.44,19.19,6,37.86,14.34,54,26.54,15.54,11.77,27.68,27.24,36.37,44.62,18,35.95,21.29,77.56,25.74,116.88,2.52,22.29,5.61,44.43,10,66.44,4.82,24.31,10.5,48.46,14.55,72.92,6.81,41.15,8,83.39-8,122.64-13.92,34.19-40.62,62-77.83,69-23.39,4.39-47.72,1.12-71.1-1.66-25.26-3-50.58-5.23-76-6.47-102-5-203.95,3.72-305.43,13-51.32,4.68-102.63,9.53-154.06,12.89-25.66,1.68-51.35,3-77.06,3.7-24.14.68-48.43,1.18-72.48-1.45-21.89-2.39-43.69-7.91-63.18-18.36a166.29,166.29,0,0,1-44.74-35.57c-26.29-29.16-43.16-66.07-51.75-104.15-22.55-100,5.86-202.15,6.26-302.81a439,439,0,0,0-5.58-73.41c-1.57-9.5-16-5.47-14.46,4Z" transform="translate(-603.36 -550.53)"/><path class="cls-1" d="M1229.09,1166.78c63.87-6.55,128-15.77,192.34-13.22,7.74.31,15.48.54,23.17,1.53,3.44.44,7,1.16,10.41,1.41s7.22-.22,10.81.16c15.35,1.61,30.83,4.75,46,7.83a354.34,354.34,0,0,1,44.62,11.83c14.36,4.93,29.25,9.93,42.47,17.52,9.7,5.57,13.14,16.6,16.26,26.67,4.4,14.24,8.72,28,11.28,42.77,5.55,32,13.9,63.32,20.53,95.08,3.26,15.6,6.39,31.23,9.57,46.85s7.16,31.2,9.86,46.9c1.33,7.7,1.37,15.79,2.09,23.58s1.5,15.73,2.22,23.6c1.42,15.74,2.59,31.52,2.64,47.34,0,15.33-.36,31.18-4.52,46-2,7.08-2.12,14.1-3.41,21.27s-2,14.16-3.54,21.17a191.85,191.85,0,0,1-14.37,40.24c-3.18,6.67-6.56,13.28-10.18,19.73-1.54,2.74-3.82,4.8-5.45,7.47-1.83,3-3.25,6.33-4.94,9.41-3.3,6-6.74,11.61-12,16.11-7.38,6.25,3.28,16.81,10.61,10.61,5.53-4.68,9.65-10.66,13.19-16.95,1.65-2.93,3.34-5.89,4.85-8.9,1.62-3.23,4.06-5.48,5.88-8.59a278.3,278.3,0,0,0,19.68-41.38c5.41-14.22,8-28.43,10.49-43.35,1.16-7,1.39-14.39,3.25-21.26a138.3,138.3,0,0,0,4.18-22.83c3.29-32.62-.32-65.31-3.35-97.8-.77-8.2-1.3-16.43-2.05-24.63s-3.3-16.49-5-24.56c-3.42-16.21-6.68-32.46-10-48.7s-6.66-32.62-10.25-48.87c-3.63-16.47-8.15-32.78-11.53-49.3-3.29-16.05-5-32.44-9.74-48.18-3.63-12-7-25.3-13.13-36.33-7-12.77-19.1-18.52-32-24a384.37,384.37,0,0,0-45.44-16.12,461,461,0,0,0-46.93-10.27c-8-1.38-16-2.63-24-3.86-7.4-1.13-14.73-.9-22.11-1.85a402.43,402.43,0,0,0-47.89-2.8c-8.1-.07-16.14.21-24.22.69-7.8.46-15.63,0-23.43.55-33.85,2.43-67.59,6.16-101.33,9.77q-12.72,1.36-25.44,2.68c-4,.41-7.5,3.15-7.5,7.5,0,3.74,3.45,7.92,7.5,7.5Z" transform="translate(-603.36 -550.53)"/><path class="cls-1" d="M1038.24,1179.8c49.45,1,99-3.84,148.2-8.63,4-.39,7.5-3.17,7.5-7.5,0-3.75-3.44-7.89-7.5-7.5-49.17,4.78-98.74,9.6-148.2,8.63-9.66-.19-9.66,14.81,0,15Z" transform="translate(-603.36 -550.53)"/><path class="cls-1" d="M622.95,1280.27c7-11.73,11.67-24.65,18.66-36.34,1.51-2.52,3.72-4.36,5.21-6.87a39.72,39.72,0,0,1,4.61-6.63c4-4.49,9.35-9,9.59-15.43l-1,3.79c1.79-3.71,5.93-7.11,8.89-9.93a92.93,92.93,0,0,1,11.64-9.45,105.57,105.57,0,0,1,24.67-12.51c20.81-7.27,42.8-7.45,64.6-8.24,24.52-.89,49.05-1.06,73.58-.78,25.14.28,50.31,1.73,75.44,1.61,27.49-.13,55-.77,82.45.69,9.65.51,9.62-14.49,0-15-26.16-1.39-52.35-.88-78.54-.71-25.78.17-51.58-1.26-77.37-1.57-26.52-.32-53-.13-79.55.91-22.58.89-45.34,1.45-66.76,9.4a118.92,118.92,0,0,0-29.84,15.92A115.12,115.12,0,0,0,655.51,1201c-4.09,4.2-9.3,8.81-9.52,15l1-3.79c-2.3,4.77-7.17,8.35-10.29,12.62a130.41,130.41,0,0,0-9.39,13.89c-6.13,11.15-10.84,23-17.33,34-4.93,8.32,8,15.88,13,7.57Z" transform="translate(-603.36 -550.53)"/><path class="cls-1" d="M994.62,1174.65c-.5,15.24,5.64,31.44,22.6,33.21,4,.42,7.5-3.75,7.5-7.5,0-4.41-3.45-7.08-7.5-7.5-7.42-.77-7.78-12.82-7.6-18.21.32-9.66-14.68-9.64-15,0Z" transform="translate(-603.36 -550.53)"/><path class="cls-1" d="M998.58,1148.46c-1.44,7.2-2.82,14.38-3.62,21.68-.44,4,3.76,7.5,7.5,7.5,4.42,0,7.05-3.46,7.5-7.5.66-6,1.91-11.83,3.09-17.7.8-4-1.14-8.1-5.24-9.23-3.7-1-8.43,1.25-9.23,5.24Z" transform="translate(-603.36 -550.53)"/><path class="cls-1" d="M1175.25,1153.34c4.83,14.13,6.69,33.13,18.36,43.66,11.24,10.14,27.43,7.83,36.56-3.9,8.22-10.56,8.26-24.64,6.27-37.26-2.57-16.28-9-32.51-17.33-46.68a98.17,98.17,0,0,0-63.92-46.16c-32.49-7-66,0-95.28,14.74-13.92,7-27.36,15.7-38.31,26.87a85.14,85.14,0,0,0-22.76,42.65c-2,9.41,12.44,13.44,14.46,4,2.59-12.08,7.16-22.85,15.35-32.21a110.94,110.94,0,0,1,26.43-21.52c22.66-13.71,48.56-22.57,75.24-22.27,23.57.26,46.58,8,63.31,25.06,8.5,8.65,14.58,19,19.48,30.08,5.11,11.5,9.3,24.35,9.5,37,.08,5.17-.44,10.77-3.31,15.23-2.65,4.13-7.67,7.58-12.63,5.35-5.63-2.53-7.9-9.58-9.73-14.92-2.68-7.82-4.53-15.89-7.21-23.71-3.11-9.08-17.6-5.18-14.46,4Z" transform="translate(-603.36 -550.53)"/><path class="cls-1" d="M1121,1114.32c11.38-.86,22.76.62,32.55,6.85,10.77,6.85,16.64,18.36,21,30,3.34,9,17.84,5.09,14.46-4-5.61-15.05-13.1-29-26.72-38.2-12-8.11-27-10.72-41.26-9.64-9.57.72-9.64,15.73,0,15Z" transform="translate(-603.36 -550.53)"/><path class="cls-1" d="M1066.36,1134.57c14.88-11.51,33.41-17.41,51.83-20,4-.56,6.23-5.69,5.24-9.23-1.21-4.32-5.18-5.81-9.23-5.24-21.27,3-41.41,10.67-58.45,23.85-3.23,2.5-2.58,8,0,10.61,3.13,3.2,7.42,2.47,10.61,0Z" transform="translate(-603.36 -550.53)"/><path class="cls-1" d="M1048.82,1157a55.63,55.63,0,0,1,14.28-19.72c7.17-6.5-3.46-17.08-10.61-10.61a65.8,65.8,0,0,0-16.63,22.76c-1.59,3.72-1.11,8,2.69,10.26,3.15,1.84,8.67,1.06,10.26-2.69Z" transform="translate(-603.36 -550.53)"/><path class="cls-1" d="M1009.34,1206.91c11.74,4.87,23.92-3,30-12.95,6.92-11.38,5.54-25.4,9.84-37.66,3.2-9.13-11.28-13.05-14.46-4-3.26,9.28-3.13,19.24-6,28.61-2,6.58-7.67,14.72-15.38,11.52-3.77-1.56-8.21,1.69-9.23,5.24-1.23,4.3,1.51,7.68,5.24,9.23Z" transform="translate(-603.36 -550.53)"/><path class="cls-1" d="M738.94,1461.86c6.26-4.13,13.22-2.32,20.06-.81,6.52,1.44,13.45,2.92,20,1a20.8,20.8,0,0,0,8.66-5.05c3.05-3,4-8.17,7.33-10.72,3.62-2.73,9.31-1.6,13.47-1.18,5,.51,10.13,1,15-.4A16.88,16.88,0,0,0,836,1429.77c.72-7.74-3.18-15-8.19-20.64-5.38-6-12.56-9.82-18.68-15a27.84,27.84,0,0,1-6.79-7.68c-2.24-4.11-2.11-8.42-2.4-12.95-.66-10-3.31-19.42-11.17-26.23a33.46,33.46,0,0,0-26-8.29l4.32,7.52c8.63-15.89-6.82-32.13-22.61-33.38-20.33-1.61-36.06,15.84-55.53,18.56-6.35.89-3.65,10.52,2.66,9.64,14.91-2.08,26.65-11.84,40.65-16.44,6.61-2.17,14-3,20.13,1,5.07,3.38,9.33,9.54,6.07,15.54-1.61,3,.33,8,4.32,7.52a24.25,24.25,0,0,1,21.11,7.43c6,6.37,5.71,14.63,6.32,22.76,1.09,14.6,11.78,22.17,22.69,30.11,5.79,4.22,12.85,10.33,13.2,18.09.43,9.29-10.17,8.39-16.63,7.75-7.41-.74-15.62-1.4-21.56,4-5.21,4.75-5.58,12.55-13.68,13.68-6.63.93-13.5-1.93-20-3-7.15-1.13-14.13-.76-20.33,3.33-5.35,3.53-.35,12.19,5,8.63Z" transform="translate(-603.36 -550.53)"/><path class="cls-1" d="M687.14,1336.1c-9-.09-25.93.49-28,12.24-1.27,7.06,5.32,11,8.65,16.46,3.63,5.93,3.88,14.31-2.46,18.79-2.69,1.9-3.78,7,0,8.63,4.69,2,14,2.79,13-5.16-.82-6.68-8.72-6.54-13-3.47-2.79,2-3.67,6.85,0,8.63,5.93,2.89,12.36,6.09,16.59,11.34,5.34,6.64,2.47,12.25-.35,19.21-2,4.91-2.78,10.87.93,15.21,4,4.63,9.69,4.49,15.26,4.45,2.3,0,5.28-.44,5.93,2.42.57,2.54-1.4,6-2.09,8.35-1.6,5.44-1.48,10.91,2.24,15.46,6.93,8.47,19.9,7.3,29.46,5.3,2.68-.56,4.13-3.66,3.49-6.15-.53-2.07-.13-3.22,1-4.95,3.57-5.38-5.09-10.39-8.63-5a15.06,15.06,0,0,0-2,12.65l3.49-6.15c-4.67,1-9.83,1.69-14.52.52-5.73-1.43-6.08-5.21-4.48-10.23,1.68-5.29,3.3-10.78.26-16-2.78-4.72-7.75-6.16-12.92-6.25-2.14,0-5.69.79-7.67-.18-2.33-1.14-1.32-3.68-.56-5.69,2.31-6.11,5.41-11.4,4.22-18.2-2.18-12.38-14.21-19.7-24.59-24.75v8.63c2.82-2,3.69-7,0-8.63v8.63c6.75-4.77,11.1-13.56,10-21.85-1.13-8.7-7.25-15.56-12.8-21.91L669,1352c0-6.85,13.52-6,18.14-5.9,6.44.07,6.44-9.93,0-10Z" transform="translate(-603.36 -550.53)"/><path class="cls-1" d="M680.58,1358.21l21.3,40.29,11.12,21c2.72,5.15,5.37,10.32,9.17,14.78a22.38,22.38,0,0,0,13.49,7.94c6.63,1,13-1.42,19.14-3.6q21.2-7.52,42.3-15.3c6-2.21,3.4-11.87-2.66-9.64q-18.86,6.95-37.79,13.7c-5.55,2-11.93,5.25-17.93,5.12-5.61-.12-9.29-4.53-12.05-8.93-6.73-10.71-12.1-22.47-18-33.65l-19.45-36.79c-3-5.69-11.64-.64-8.63,5Z" transform="translate(-603.36 -550.53)"/><path class="cls-1" d="M796.88,1408.54a446.68,446.68,0,0,1-64.49-75.24,5.07,5.07,0,0,0-9.14,1.19c-1.74,5.77-15.42,4.16-20.13,5a31,31,0,0,0-21.35,15.41c-3.19,5.6,5.45,10.65,8.63,5,5.42-9.54,14-10.58,23.89-11.51,8-.74,16-2.73,18.59-11.26l-9.14,1.19a458.37,458.37,0,0,0,66.05,77.27c4.7,4.39,11.78-2.66,7.07-7.07Z" transform="translate(-603.36 -550.53)"/><path class="cls-1" d="M957.25,1318.25a34.17,34.17,0,0,0-16.64,21.46c-.64,2.43.8,5.67,3.49,6.15a17.63,17.63,0,0,1,11.93,7.45c3.19,4.73,2.19,9.06,2.27,14.4s1.78,9,5,13.14c1.47,1.85,3.44,4.13,3.92,6.53.59,3-.8,6.36-1.37,9.29-2.1,10.89-3.21,22.58.4,33.29,1.43,4.25,4,7.51,8.7,8,2.74.31,5.67-.09,8.43,0,3.77.12,7.53.74,11.28,1.23,25.81,3.37,51.6,7.51,77.65,8.54,12.13.48,23.53.32,35.45-2.15,5.9-1.22,11.18-2,17.24-1.4,6.66.68,13.19,2.39,19.67,4,9.78,2.43,18.8,4.43,28.65,1.1,7.89-2.67,15.15-7.86,19.21-15.27a30.38,30.38,0,0,0,.51-27.76c-1.25-2.55-3.73-4.75-4.81-7.29-1.19-2.81.79-6,1.86-8.45a26.46,26.46,0,0,0,1.81-14.94c-1.59-10.9-8.4-18.44-13.56-27.68-2.85-5.11-3.59-10.81-3.64-16.57,0-5,1.12-10.78,0-15.72-1.82-8.05-11-10.3-18.19-9.89-5.12.29-10,2.3-15,3.42a135.61,135.61,0,0,1-20,3,171.12,171.12,0,0,1-42.78-2.54c-6.42-1.16-12.7-3.21-19.27-2.93-6.38.27-11.72,1.19-17.52,3.95-2.85,1.36-5.67,3.16-8.71,4.09-3.44,1.06-7.4.22-10.85-.33-5.79-.91-11.33-1.8-17.16-.61-14.21,2.9-28,4.16-41.89-1-6-2.24-8.65,7.42-2.66,9.64,10.68,4,21.95,4.73,33.21,3.42,5.32-.62,10.56-2.18,15.85-2.72s10.95,1.27,16.32,1.81a25.55,25.55,0,0,0,14.14-2.35c5.37-2.43,9.92-5.25,15.92-5.68,11.51-.82,23.07,3.18,34.53,4.49a163.88,163.88,0,0,0,35.52.34,157.63,157.63,0,0,0,16.17-2.5c5.16-1.09,10.54-3.54,15.82-3.52,2.2,0,5.85.09,6.81,2.33.83,2-.14,6.38-.19,8.41-.07,2.72-.13,5.44,0,8.16a43.47,43.47,0,0,0,2.87,14c2,5.05,5.44,9.2,8.3,13.79a41.72,41.72,0,0,1,5.76,12.81,21.53,21.53,0,0,1,.51,7.29c-.39,3.07-2.19,5.77-3.21,8.67-1.49,4.25-1.71,8.83.58,12.85,3.06,5.39,6.68,9.1,6.62,15.75-.08,8.58-5.59,15.5-13.21,19-9.34,4.25-18,1.7-27.49-.63-10.71-2.64-22.5-5.7-33.55-3.59-5.2,1-10.33,2.32-15.57,3.06-6.07.86-12.14.48-18.24.36-24.62-.5-49-4.07-73.41-7.37-6.54-.88-13.19-2.19-19.77-2.57-1.65-.1-7.33.9-8.61,0s-2-6.77-2.18-8.47a65.41,65.41,0,0,1,1-18.52c1-5.35,3.12-10.88,1.69-16.33s-6.61-8.77-8.28-13.87c-1.54-4.71.67-10.12-.58-15a27.31,27.31,0,0,0-21.29-19.64l3.49,6.15a24.15,24.15,0,0,1,12-15.49c5.63-3.12.59-11.76-5-8.63Z" transform="translate(-603.36 -550.53)"/><path class="cls-1" d="M967.23,1345.5q5.5,30,11,59.94c1.34,7.29,2.78,14.94,7.84,20.68,5.2,5.9,13,7.32,20.47,7.45,20.22.34,40.54-.58,60.76-1.11q30.84-.8,61.66-2.08c9.35-.39,18.95-.25,28.24-1.4,7.16-.89,13.29-4.63,15.3-11.9s-.22-15-2.18-22.12l-8-29c-2.64-9.53-5-19.18-7.93-28.62-2.3-7.45-6.58-13-14.66-14.15-8.78-1.28-18.39.57-27.14,1.55-9.67,1.09-19.32,2.42-29,3.65-22.07,2.81-44,4.67-66.24,2.75-16.58-1.44-35-2.84-48,9.63-4.64,4.47,2.43,11.54,7.07,7.07,10-9.59,25.24-8,37.92-7a274.45,274.45,0,0,0,49.95-.27c17.43-1.69,34.73-4.46,52.14-6.29,4.19-.44,8.38-.83,12.58-1.14,3.43-.25,7.39-.9,10.74.19,3.59,1.17,4.45,4.81,5.39,8.09,1.24,4.36,2.42,8.74,3.63,13.11,4.55,16.45,9.81,32.87,13.64,49.5,1.44,6.24,2,13.77-5.88,15-8.31,1.27-17.18.92-25.58,1.27q-53.69,2.24-107.42,3.07c-7.95.12-18.54,2-26.11-1.14-7.34-3-8.29-12.66-9.54-19.45q-5.52-30-11-59.94c-1.16-6.32-10.8-3.64-9.64,2.66Z" transform="translate(-603.36 -550.53)"/><path class="cls-1" d="M642.6,1487.73a247,247,0,0,1,52.78-24.48c6.09-2,3.48-11.65-2.66-9.64a258.43,258.43,0,0,0-55.17,25.49c-5.47,3.36-.46,12,5,8.63Z" transform="translate(-603.36 -550.53)"/><path class="cls-1" d="M635.46,1489.33q2.38-1.57,4.8-3.09c2.72-1.71.21-6-2.52-4.32q-2.42,1.52-4.8,3.09a2.56,2.56,0,0,0-.9,3.42,2.53,2.53,0,0,0,3.42.9Z" transform="translate(-603.36 -550.53)"/><path class="cls-1" d="M631.47,1489.58l55.87,63.8c3.7,4.22,11.13-1.39,7.85-6.06a312.36,312.36,0,0,0-58-62.59c-4.94-4-12.06,3-7.07,7.07a303.24,303.24,0,0,1,56.47,60.57l7.85-6.06-55.87-63.8c-4.25-4.85-11.3,2.25-7.07,7.07Z" transform="translate(-603.36 -550.53)"/><path class="cls-1" d="M754.11,1475.08c-4.48-6.27-9.1-12.44-13.28-18.92-3.48-5.39-12.14-.38-8.63,5,4.18,6.48,8.8,12.65,13.28,18.92,3.71,5.19,12.38.2,8.63-5Z" transform="translate(-603.36 -550.53)"/><path class="cls-1" d="M694.94,1557.31c19.74-9.65,38.68-20.78,58.24-30.76,6.75-3.45,15.43-7.23,17.29-15.44,2-8.69-5.55-19.53-9.89-26.45-3.41-5.44-12.07-.43-8.63,5,3,4.75,12.26,17,6.76,22.1s-13.81,7.65-20.28,11.1c-16.17,8.64-32.07,17.71-48.54,25.77-5.78,2.83-.72,11.45,5,8.63Z" transform="translate(-603.36 -550.53)"/><path class="cls-1" d="M756.1,1480.64c2-4.79,3.24-8.06-.63-12.26-3.57-3.87-6.88-7.65-6.2-13.21.78-6.37-9.23-6.32-10,0a20,20,0,0,0,3.48,13.39,44.49,44.49,0,0,0,4.08,5.2q.76.87,1.57,1.69l-.23-1.31c-.21,1.19-1.25,2.72-1.71,3.84-2.43,6,7.24,8.54,9.64,2.66Z" transform="translate(-603.36 -550.53)"/><path class="cls-1" d="M626.26,1474.8c-7.94,3.28-13.7,10-8.67,18.57,3,5.15,12.84,9.91,10.68,16.58-1.47,4.52,3.68,7.33,7.34,5.65a8.58,8.58,0,0,0,4.51-4.68c1.65-3.89-2.32-10.32-6.84-6.84a23.13,23.13,0,0,0-4.51,4.68c-2.15,2.83.34,6.31,3,7.34a11.63,11.63,0,0,0,3.62.79c1,.05,3.65-.69,4.45-.23,1.62.95.63,5,.77,7.08.24,3.55,3,5.3,6.33,4.82,4.51-.65,6.44,7,3.6,9.56-4,3.62.31,9.22,4.86,8.36a9,9,0,0,1,10.37,8.2c.24,4.5,7.11,7.38,9.32,2.52.68-1.49-.26-1.14,1.48-.58a11.3,11.3,0,0,1,2.91,1.74A24.07,24.07,0,0,1,684,1563c3.08,3.89,6.28,8.46,11.29,10s10.47-.92,13.32-5.32a13.27,13.27,0,0,0-.78-16L703,1560c10.46,1.76,21-6.42,19.77-17.57l-9.32,2.52c6.34,8.82,16.32,4.32,23.8-.47,9.34-6,18.66-12.4,23.94-22.47h-8.63c5.73,8.14,15.74,5.59,22.5.1,2.1-1.71,4-4.1,6.62-5s5.55-.24,8.17-.75a12.65,12.65,0,0,0,9.57-7.65c3.68-9.09-3.07-17.24-10.94-20.94-10.37-4.88-21.93-8.94-33.47-9.19-6.44-.14-6.44,9.86,0,10,8.1.18,15.64,2.81,23.13,5.7,3.87,1.49,12.92,4,12.26,9.58-.42,3.55-4.15,2.72-6.84,2.93a18.37,18.37,0,0,0-8.67,2.59c-1.66,1-11.34,11-13.7,7.62-2-2.88-6.76-3.58-8.63,0-3.72,7.1-9.73,11.86-16.29,16.23-1.9,1.26-12.44,9.14-14.18,6.71-2.54-3.54-9.92-2.94-9.32,2.52.45,4-2.51,8.71-7.12,7.93-5.13-.86-8,4.35-4.86,8.36,1,1.28-.39,4.33-1.86,4.68s-3.13-1.71-4.05-2.72c-2.63-2.87-4.61-6.25-7.58-8.8-6-5.19-16.55-9.1-20.82.31l9.32,2.52a19.22,19.22,0,0,0-23-17.84l4.86,8.36c11-10,.39-28.24-13.33-26.28l6.33,4.82c-.33-5,1.08-10.33-2.87-14.32-4.11-4.15-8.71-1.17-13.31-3l3,7.34.92-1.09-6.84-6.84-.92,1.09,7.34,5.65c2-6.29-.05-11.74-4.36-16.46-2-2.17-4.38-4-6.22-6.28-2.25-2.8-1.8-4,1.59-5.42,5.86-2.42,3.29-12.1-2.66-9.64Z" transform="translate(-603.36 -550.53)"/><path class="cls-1" d="M693.58,1435.63c-3.87,12.55-19.67,12.9-30.49,14.64-6.07,1-12.22,2.21-17.7,5.12-7.79,4.14-11.7,12.25-18,18-4.76,4.35,2.32,11.4,7.07,7.07,6.17-5.62,9.89-14.09,17.95-17.37,6.28-2.55,13.31-3.17,19.95-4.22,13.4-2.13,26.51-6.37,30.9-20.61,1.9-6.16-7.75-8.8-9.64-2.66Z" transform="translate(-603.36 -550.53)"/><path class="cls-1" d="M626.82,1286.07c8.95,46.65,1.37,94.21-6.43,140.44S605.12,1518.95,609,1566a374.53,374.53,0,0,0,33.7,127.35c17.65,37.95,41.87,77.45,78.34,99.84,34.91,21.42,77,24.53,116.95,21.62,43.69-3.18,86.7-12.34,130.3-16.45,50.09-4.72,100.46-7,150.68-9.93,50.48-2.94,101-5.62,151.5-7.53s101-3,151.57-2.88c24.33.08,48.63.85,73,1.06,21,.18,42.84-.91,62.53-9,36.65-15,54.66-51.55,61.6-88.62,8.54-45.57,5.81-93.49.39-139.25a1322.84,1322.84,0,0,0-24.32-140c-9-39.23-24-78.25-57.06-103.32-33.91-25.69-78.67-33.43-119.72-39.52-47.55-7.06-95.6-9.74-143.64-10-96.06-.46-191.88,8.38-287.92,8.94-47.76.28-95.61-1.5-143-7.57-23.55-3-48.07-10.33-71.88-6.85-11.44,1.67-22.21,6-33.11,9.65q-16.91,5.69-34.31,9.77a371.05,371.05,0,0,1-68.62,9.36c-9.62.42-9.67,15.42,0,15a394,394,0,0,0,69.86-9.26q16.95-3.83,33.49-9.22c11-3.57,21.73-8.09,33.11-10.24,11.2-2.11,22.73-.66,33.86,1.15,11.89,1.93,23.78,3.84,35.73,5.4,23,3,46.21,5,69.41,6.21,94,5,188.1-2.56,282.07-5.89,46.86-1.66,93.8-2.3,140.65.19,45.11,2.4,90.91,7.06,134.77,18.28,19.14,4.9,37.94,11.6,54.55,22.48,16.11,10.55,28.54,25.15,37.57,42.08,9.18,17.21,14.77,36.1,19.21,55,5,21.43,8.89,43.16,12.85,64.81,8.67,47.43,15.81,95.34,16.19,143.65.29,38.11-1.4,81.1-22.46,114.31a75.2,75.2,0,0,1-42.47,32.29c-19.74,5.88-40.69,5.43-61.08,5q-73.47-1.69-147,0c-99.09,2.23-198,8.29-297,14.32-47.37,2.89-94.29,7.14-141.23,14.21-38.8,5.84-79.32,12.3-118.48,6-18.79-3-36.92-9.12-53-19.41-17.4-11.13-31.34-26.92-43-43.84-24.28-35.35-41.49-75.49-51.36-117.17-10.1-42.66-11.53-86.27-6.32-129.72,5.6-46.65,16.94-92.57,19.45-139.59a274.9,274.9,0,0,0-4.1-66.55c-1.82-9.47-16.28-5.46-14.46,4Z" transform="translate(-603.36 -550.53)"/><path class="cls-1" d="M1226,1152.86c62.56-5.71,125.05-14.09,188-14,15.73,0,31.46.56,47.14,1.79,3.23.25,6.71.21,9.87.86s5.83,1.66,9,2a209.56,209.56,0,0,1,21.93,3c3,.64,6,1.76,9.07,2,3.48.27,6.67.21,10.14.91s6.7,1.54,10,2.45c.76.21,4.44.75,4.86,1.37q-3-1.85-1.06-.24a7.49,7.49,0,0,0,3.31,1.93c5.46,2,11.68,2.6,17.29,4.33a135.93,135.93,0,0,1,19.56,7.74,177,177,0,0,1,15.54,8.62c5.61,3.47,12.63,7.16,17.27,11.89,2.9,3,7.44,9.82,10.72,14.21,4.54,6.08,9.89,12.56,13,19.52,2.75,6.09,4,13.48,5.68,19.93q3.19,11.9,6.16,23.86,5.47,22,10.25,44.19c6.42,29.7,12,59.58,17,89.55,5.11,30.52,10.44,61.11,12.22,92,2,34.47,1.07,69.47-6.39,103.3a220.52,220.52,0,0,1-5.84,22.9c-2.65,7.84-8.08,14.36-11,22-1.08,2.83-1.49,5.79-2.64,8.62a112.16,112.16,0,0,1-5.06,10.72,100.58,100.58,0,0,1-13,19c-6.34,7.23,4.23,17.89,10.61,10.61a124.91,124.91,0,0,0,21.88-36.32c1.1-2.74,1.52-5.69,2.74-8.33,1.44-3.13,3.44-6.06,5-9.12a105.57,105.57,0,0,0,8.23-21.87c8.13-30.76,11.49-62.76,11.26-94.53-.23-32.51-4.25-64.36-9.29-96.43-4.85-30.78-10.17-61.49-16.31-92-6.21-30.91-13.26-61.66-21.43-92.12-1.92-7.17-3.26-15.2-6.34-22-3.18-7-8.26-13.47-12.79-19.61-4.28-5.8-8.49-11.94-13.21-17.39-4.53-5.23-11.38-9.17-17.17-13a176.32,176.32,0,0,0-36.47-18.36,139.9,139.9,0,0,0-19.44-5.48l-1.7-.34q-3.48-.9.1.61c.06,0-3.27-2.46-2.27-1.86-3.05-1.84-7.27-2.44-10.68-3.32-6.92-1.78-13.71-2.19-20.68-3.23-7.5-1.12-14.81-3-22.39-3.91-3.24-.37-6.63-.4-9.8-1.13a73.87,73.87,0,0,0-10-1.94q-12.79-1.19-25.62-1.77c-72.76-3.4-145.12,6.72-217.4,13.32-9.53.87-9.63,15.88,0,15Z" transform="translate(-603.36 -550.53)"/><path class="cls-1" d="M1043.11,1160.21c46.21.27,92.44-.71,138.54-4.14,9.57-.71,9.65-15.72,0-15-46.09,3.43-92.33,4.41-138.54,4.14-9.65-.06-9.66,14.94,0,15Z" transform="translate(-603.36 -550.53)"/><path class="cls-1" d="M666,1203.54c4.56-8,12.12-12.64,19.87-17.17,8.32-4.86,16.15-10.14,25.07-13.87,20.91-8.74,43.4-12.11,65.76-15,24-3.11,48.61-2.07,72.8-2.32,24.41-.26,48.82-.53,73.23-.23,27.7.33,55.4,1.44,83,4,9.61.91,9.54-14.1,0-15-51.27-4.83-102.8-4.37-154.24-3.83-24.9.26-50.06-.66-74.83,2.35-23.21,2.82-47.76,5.79-69.3,15.35-5.47,2.43-11.1,4.41-16.17,7.68-4.66,3-9.39,5.82-14.17,8.64-9.52,5.61-18.39,12-24,21.8-4.79,8.4,8.17,16,13,7.57Z" transform="translate(-603.36 -550.53)"/><path class="cls-1" d="M1614.44,1205.58a152.51,152.51,0,0,1-45.73,58.85c-2.53,2,1,5.5,3.54,3.54a155.55,155.55,0,0,0,46.52-59.86c1.28-2.92-3-5.47-4.32-2.52Z" transform="translate(-603.36 -550.53)"/><path class="cls-1" d="M1622.25,1232a283.72,283.72,0,0,1-60.45,55.74c-2.64,1.8-.14,6.14,2.52,4.32a288.11,288.11,0,0,0,61.46-56.52c2-2.48-1.51-6-3.54-3.54Z" transform="translate(-603.36 -550.53)"/><path class="cls-1" d="M1627.61,1252.55l-59.93,51.09c-2.45,2.09,1.1,5.61,3.54,3.54l59.93-51.09c2.45-2.09-1.1-5.61-3.54-3.54Z" transform="translate(-603.36 -550.53)"/><path class="cls-1" d="M1635.26,1276q-28.63,21.73-58.45,41.81c-2.66,1.79-.16,6.12,2.52,4.32q29.82-20.07,58.45-41.81c2.53-1.92,0-6.26-2.52-4.32Z" transform="translate(-603.36 -550.53)"/><path class="cls-1" d="M1637.14,1294.21l-36,27c-2.54,1.91-.05,6.25,2.52,4.32l36-27c2.54-1.91.05-6.25-2.52-4.32Z" transform="translate(-603.36 -550.53)"/><path class="cls-1" d="M1643.37,1315.6,1591,1349.8c-2.68,1.75-.18,6.08,2.52,4.32l52.32-34.2c2.68-1.75.18-6.08-2.52-4.32Z" transform="translate(-603.36 -550.53)"/><path class="cls-1" d="M1645.95,1333.7l-27.31,20.6c-2.54,1.91,0,6.26,2.52,4.32l27.31-20.6c2.54-1.91,0-6.26-2.52-4.32Z" transform="translate(-603.36 -550.53)"/><path class="cls-1" d="M1650.08,1348.48l-44.94,36.09c-2.51,2,1,5.53,3.54,3.54l44.94-36.09c2.51-2-1-5.53-3.54-3.54Z" transform="translate(-603.36 -550.53)"/><path class="cls-1" d="M1655.16,1372.27l-39,27c-2.63,1.82-.13,6.15,2.52,4.32l39-27c2.63-1.82.13-6.15-2.52-4.32Z" transform="translate(-603.36 -550.53)"/><path class="cls-1" d="M1657.87,1392.47l-44.45,30.8c-2.63,1.82-.13,6.16,2.52,4.32l44.45-30.8c2.63-1.82.13-6.16-2.52-4.32Z" transform="translate(-603.36 -550.53)"/><path class="cls-1" d="M1661.21,1404.83l-35.68,27.42c-2.52,1.93,0,6.28,2.52,4.32l35.68-27.42c2.52-1.93,0-6.28-2.52-4.32Z" transform="translate(-603.36 -550.53)"/><path class="cls-1" d="M1666.67,1426.24l-48,36c-2.55,1.91-.06,6.25,2.52,4.32l48-36c2.55-1.91.06-6.25-2.52-4.32Z" transform="translate(-603.36 -550.53)"/><path class="cls-1" d="M1669.09,1444.08a338.15,338.15,0,0,1-34.4,31.61c-2.51,2,1,5.53,3.54,3.54a338.15,338.15,0,0,0,34.4-31.61c2.21-2.34-1.32-5.88-3.54-3.54Z" transform="translate(-603.36 -550.53)"/><path class="cls-1" d="M1673,1466.86l-36.77,35.21c-2.33,2.23,1.21,5.76,3.54,3.54l36.77-35.21c2.33-2.23-1.21-5.76-3.54-3.54Z" transform="translate(-603.36 -550.53)"/><path class="cls-1" d="M1675.54,1493.29l-36.34,29.59c-2.5,2,1.06,5.55,3.54,3.54l36.34-29.59c2.5-2-1.06-5.55-3.54-3.54Z" transform="translate(-603.36 -550.53)"/><path class="cls-1" d="M1675.85,1516.26l-47.93,39.1c-2.49,2,1.06,5.55,3.54,3.54l47.93-39.1c2.49-2-1.06-5.55-3.54-3.54Z" transform="translate(-603.36 -550.53)"/><path class="cls-1" d="M1676.83,1536.74a125.17,125.17,0,0,1-35.26,32c-2.74,1.67-.23,6,2.52,4.32a131.48,131.48,0,0,0,37-33.75c1.93-2.58-2.41-5.07-4.32-2.52Z" transform="translate(-603.36 -550.53)"/><path class="cls-1" d="M1679.44,1555.31,1643,1581.7c-2.58,1.87-.09,6.21,2.52,4.32l36.45-26.39c2.58-1.87.09-6.21-2.52-4.32Z" transform="translate(-603.36 -550.53)"/><path class="cls-1" d="M1676,1579.4a70.24,70.24,0,0,0-25,21.82c-1.87,2.63,2.46,5.13,4.32,2.52a64.94,64.94,0,0,1,23.18-20c2.86-1.48.33-5.8-2.52-4.32Z" transform="translate(-603.36 -550.53)"/><path class="cls-1" d="M1672.59,1599.92a258,258,0,0,1-33,23.57c-2.75,1.66-.24,6,2.52,4.32a266.2,266.2,0,0,0,34.06-24.35c2.47-2.07-1.09-5.59-3.54-3.54Z" transform="translate(-603.36 -550.53)"/><path class="cls-1" d="M1670.14,1617.16l-21,15c-2.59,1.86-.1,6.2,2.52,4.32l21-15c2.59-1.86.1-6.2-2.52-4.32Z" transform="translate(-603.36 -550.53)"/><path class="cls-1" d="M1668.23,1640.67c3.22,0,3.22-5,0-5s-3.22,5,0,5Z" transform="translate(-603.36 -550.53)"/><path class="cls-1" d="M1666.58,1636.55l-26.78,21.29c-2.52,2,1,5.52,3.54,3.54l26.78-21.29c2.52-2-1-5.52-3.54-3.54Z" transform="translate(-603.36 -550.53)"/><path class="cls-1" d="M1607.79,1192.15l-48,51c-2.2,2.34,1.32,5.88,3.54,3.54l48-51c2.2-2.34-1.32-5.88-3.54-3.54Z" transform="translate(-603.36 -550.53)"/><path class="cls-1" d="M1599.61,1186.21,1553,1223.93c-2.5,2,1.05,5.54,3.54,3.54l46.62-37.72c2.5-2-1.05-5.54-3.54-3.54Z" transform="translate(-603.36 -550.53)"/><path class="cls-1" d="M1583.79,1178.55a189.61,189.61,0,0,1-44.5,38.61c-2.72,1.7-.22,6,2.52,4.32a193.92,193.92,0,0,0,45.51-39.4c2.06-2.44-1.46-6-3.54-3.54Z" transform="translate(-603.36 -550.53)"/><path class="cls-1" d="M1569,1173.51a570.42,570.42,0,0,1-80.38,62.73c-2.69,1.74-.19,6.07,2.52,4.32a577.77,577.77,0,0,0,81.4-63.51c2.35-2.2-1.19-5.73-3.54-3.54Z" transform="translate(-603.36 -550.53)"/><path class="cls-1" d="M1556.49,1167q-35.29,26.53-72.54,50.29c-2.71,1.73-.2,6.05,2.52,4.32q37.23-23.74,72.54-50.29c2.54-1.91.05-6.25-2.52-4.32Z" transform="translate(-603.36 -550.53)"/><path class="cls-1" d="M1541.3,1165.53l-72.64,44c-2.75,1.66-.24,6,2.52,4.32l72.64-44c2.75-1.66.24-6-2.52-4.32Z" transform="translate(-603.36 -550.53)"/><path class="cls-1" d="M1525.74,1160.12a422.81,422.81,0,0,0-57.51,39.39c-2.5,2,1.06,5.55,3.54,3.54a415.14,415.14,0,0,1,56.5-38.61c2.8-1.59.28-5.91-2.52-4.32Z" transform="translate(-603.36 -550.53)"/><path class="cls-1" d="M1510.91,1155.07a488.88,488.88,0,0,0-71.19,43.52c-2.57,1.89-.07,6.23,2.52,4.32a488.88,488.88,0,0,1,71.19-43.52c2.88-1.44.35-5.75-2.52-4.32Z" transform="translate(-603.36 -550.53)"/><path class="cls-1" d="M1492.17,1152.74l-77.9,48.17c-2.73,1.69-.22,6,2.52,4.32l77.9-48.17c2.73-1.69.22-6-2.52-4.32Z" transform="translate(-603.36 -550.53)"/><path class="cls-1" d="M1475.31,1150.61a390.33,390.33,0,0,0-80,48.36c-2.53,2,1,5.49,3.54,3.54a385.41,385.41,0,0,1,79-47.58c2.93-1.32.39-5.63-2.52-4.32Z" transform="translate(-603.36 -550.53)"/><path class="cls-1" d="M1453.21,1150a748.48,748.48,0,0,1-79.21,49.26c-2.83,1.53-.31,5.84,2.52,4.32a748.48,748.48,0,0,0,79.21-49.26c2.6-1.85.11-6.19-2.52-4.32Z" transform="translate(-603.36 -550.53)"/><path class="cls-1" d="M1440.38,1146.5a851.62,851.62,0,0,1-93.5,53.23c-2.89,1.41-.36,5.73,2.52,4.32a851.62,851.62,0,0,0,93.5-53.23c2.68-1.76.18-6.09-2.52-4.32Z" transform="translate(-603.36 -550.53)"/><path class="cls-1" d="M1413.61,1144.71,1334,1196.25c-2.69,1.74-.19,6.07,2.52,4.32l79.61-51.53c2.69-1.74.19-6.07-2.52-4.32Z" transform="translate(-603.36 -550.53)"/><path class="cls-1" d="M1390.2,1144.71,1321,1186.36c-2.75,1.66-.24,6,2.52,4.32l69.22-41.64c2.75-1.66.24-6-2.52-4.32Z" transform="translate(-603.36 -550.53)"/><path class="cls-1" d="M1355.59,1145q-41.79,27.35-84.84,52.7c-2.77,1.63-.26,6,2.52,4.32q43-25.35,84.84-52.7c2.68-1.76.18-6.09-2.52-4.32Z" transform="translate(-603.36 -550.53)"/><path class="cls-1" d="M1310.59,1151.13l-72.58,41c-2.8,1.58-.28,5.9,2.52,4.32l72.58-41c2.8-1.58.28-5.9-2.52-4.32Z" transform="translate(-603.36 -550.53)"/><path class="cls-1" d="M1273.93,1156l-72,45c-2.72,1.7-.22,6,2.52,4.32l72-45c2.72-1.7.22-6-2.52-4.32Z" transform="translate(-603.36 -550.53)"/><path class="cls-1" d="M1184.59,1172.73a424.51,424.51,0,0,1-36.75,28.14c-2.64,1.8-.14,6.14,2.52,4.32a436.34,436.34,0,0,0,37.76-28.92c2.45-2.1-1.1-5.62-3.54-3.54Z" transform="translate(-603.36 -550.53)"/><path class="cls-1" d="M1187.37,1184.36a290.22,290.22,0,0,1-30.68,25.28c-2.6,1.85-.1,6.19,2.52,4.32a299.62,299.62,0,0,0,31.7-26.06c2.34-2.21-1.2-5.75-3.54-3.54Z" transform="translate(-603.36 -550.53)"/><path class="cls-1" d="M1163.34,1165.54l-48.24,35.68c-2.56,1.89-.07,6.23,2.52,4.32l48.24-35.68c2.56-1.89.07-6.23-2.52-4.32Z" transform="translate(-603.36 -550.53)"/><path class="cls-1" d="M1139.21,1168.39,1078.9,1210c-2.63,1.81-.14,6.15,2.52,4.32l60.31-41.56c2.63-1.81.14-6.15-2.52-4.32Z" transform="translate(-603.36 -550.53)"/><path class="cls-1" d="M1114.56,1170.43,1063.92,1204c-2.67,1.77-.17,6.1,2.52,4.32l50.64-33.55c2.67-1.77.17-6.1-2.52-4.32Z" transform="translate(-603.36 -550.53)"/><path class="cls-1" d="M1090.71,1171.74a399.55,399.55,0,0,1-68.85,44.15c-2.87,1.45-.34,5.77,2.52,4.32a405.54,405.54,0,0,0,69.86-44.93c2.51-2-1-5.52-3.54-3.54Z" transform="translate(-603.36 -550.53)"/><path class="cls-1" d="M1061.22,1171.82,1025,1198.51c-2.56,1.89-.07,6.23,2.52,4.32l36.24-26.68c2.56-1.89.07-6.23-2.52-4.32Z" transform="translate(-603.36 -550.53)"/><path class="cls-1" d="M997.92,1189l-48,33c-2.64,1.81-.14,6.15,2.52,4.32l48-33c2.64-1.81.14-6.15-2.52-4.32Z" transform="translate(-603.36 -550.53)"/><path class="cls-1" d="M992.4,1171.71l-66,45c-2.64,1.8-.15,6.13,2.52,4.32l66-45c2.64-1.8.15-6.13-2.52-4.32Z" transform="translate(-603.36 -550.53)"/><path class="cls-1" d="M970.33,1173.05l-77.64,48.59c-2.72,1.7-.21,6,2.52,4.32l77.64-48.59c2.72-1.7.21-6-2.52-4.32Z" transform="translate(-603.36 -550.53)"/><path class="cls-1" d="M937.2,1172.75A681.06,681.06,0,0,0,875,1213.15c-2.57,1.88-.08,6.22,2.52,4.32a681.06,681.06,0,0,1,62.17-40.41c2.79-1.6.27-5.93-2.52-4.32Z" transform="translate(-603.36 -550.53)"/><path class="cls-1" d="M911,1171.1l-65.83,42.28c-2.7,1.73-.19,6.06,2.52,4.32l65.83-42.28c2.7-1.73.19-6.06-2.52-4.32Z" transform="translate(-603.36 -550.53)"/><path class="cls-1" d="M880.14,1172.81l-76.86,49.78c-2.69,1.74-.19,6.07,2.52,4.32l76.86-49.78c2.69-1.74.19-6.07-2.52-4.32Z" transform="translate(-603.36 -550.53)"/><path class="cls-1" d="M847.82,1168.78a253.88,253.88,0,0,1-69.73,52.28c-2.87,1.46-.34,5.78,2.52,4.32a257.94,257.94,0,0,0,70.74-53.06c2.2-2.34-1.32-5.88-3.54-3.54Z" transform="translate(-603.36 -550.53)"/><path class="cls-1" d="M820.74,1170.76l-48.1,32.87c-2.64,1.8-.14,6.14,2.52,4.32l48.1-32.87c2.64-1.8.14-6.14-2.52-4.32Z" transform="translate(-603.36 -550.53)"/><path class="cls-1" d="M793.84,1170.91l-78,54c-2.63,1.82-.13,6.15,2.52,4.32l78-54c2.63-1.82.13-6.15-2.52-4.32Z" transform="translate(-603.36 -550.53)"/><path class="cls-1" d="M772,1172.69l-64.87,43.69c-2.65,1.79-.16,6.12,2.52,4.32L774.54,1177c2.65-1.79.16-6.12-2.52-4.32Z" transform="translate(-603.36 -550.53)"/><path class="cls-1" d="M748.88,1171l-78.23,59.71c-2.52,1.93,0,6.27,2.52,4.32l78.23-59.71c2.52-1.93,0-6.27-2.52-4.32Z" transform="translate(-603.36 -550.53)"/><path class="cls-1" d="M722.57,1175.73q-31,27.14-64,51.8c-2.55,1.9-.06,6.24,2.52,4.32q33.54-25,65-52.58c2.43-2.12-1.12-5.65-3.54-3.54Z" transform="translate(-603.36 -550.53)"/><path class="cls-1" d="M700.21,1180A423.06,423.06,0,0,1,653,1218.91c-2.6,1.85-.11,6.18,2.52,4.32a432,432,0,0,0,48.24-39.71c2.33-2.22-1.21-5.76-3.54-3.54Z" transform="translate(-603.36 -550.53)"/><path class="cls-1" d="M1003.71,1186.64l12.36,14.7c2.07,2.47,5.59-1.09,3.54-3.54l-12.36-14.7c-2.07-2.47-5.59,1.09-3.54,3.54Z" transform="translate(-603.36 -550.53)"/><path class="cls-1" d="M1033.27,1185.11l2.33,2.53a2.52,2.52,0,0,0,3.54,0,2.55,2.55,0,0,0,0-3.54l-2.33-2.53a2.52,2.52,0,0,0-3.54,0,2.55,2.55,0,0,0,0,3.54Z" transform="translate(-603.36 -550.53)"/><path class="cls-1" d="M1029.62,1136.53l9.49,11.6c2,2.49,5.56-1.06,3.54-3.54l-9.49-11.6c-2-2.49-5.56,1.06-3.54,3.54Z" transform="translate(-603.36 -550.53)"/><path class="cls-1" d="M1036.6,1129.69l12,12c2.27,2.28,5.81-1.25,3.54-3.54l-12-12c-2.27-2.28-5.81,1.25-3.54,3.54Z" transform="translate(-603.36 -550.53)"/><path class="cls-1" d="M1018,1153.69l17.6,16.18c2.37,2.17,5.91-1.35,3.54-3.54l-17.6-16.18c-2.37-2.17-5.91,1.35-3.54,3.54Z" transform="translate(-603.36 -550.53)"/><path class="cls-1" d="M1025,1146.86l12,12c2.27,2.28,5.81-1.25,3.54-3.54l-12-12c-2.27-2.28-5.81,1.25-3.54,3.54Z" transform="translate(-603.36 -550.53)"/><path class="cls-1" d="M1014.3,1170.06l17.6,17.71c2.27,2.29,5.81-1.25,3.54-3.54l-17.6-17.71c-2.27-2.29-5.81,1.25-3.54,3.54Z" transform="translate(-603.36 -550.53)"/><path class="cls-1" d="M1012.55,1178.45l16.78,16.33c2.31,2.25,5.85-1.29,3.54-3.54l-16.78-16.33c-2.31-2.25-5.85,1.29-3.54,3.54Z" transform="translate(-603.36 -550.53)"/><path class="cls-1" d="M1009.2,1184.07l12.15,14c2.11,2.44,5.63-1.11,3.54-3.54l-12.15-14c-2.11-2.44-5.63,1.11-3.54,3.54Z" transform="translate(-603.36 -550.53)"/><path class="cls-1" d="M1014.3,1159.89l19,16.88c2.4,2.13,5.94-1.39,3.54-3.54l-19-16.88c-2.4-2.13-5.94,1.39-3.54,3.54Z" transform="translate(-603.36 -550.53)"/><path class="cls-1" d="M1045.61,1123.63l10.42,10.13c2.31,2.24,5.85-1.29,3.54-3.54l-10.42-10.13c-2.31-2.24-5.85,1.29-3.54,3.54Z" transform="translate(-603.36 -550.53)"/><path class="cls-1" d="M1049.57,1117.1l12,12c2.27,2.28,5.81-1.25,3.54-3.54l-12-12c-2.27-2.28-5.81,1.25-3.54,3.54Z" transform="translate(-603.36 -550.53)"/><path class="cls-1" d="M1058.58,1111l10.42,10.13c2.31,2.24,5.85-1.29,3.54-3.54l-10.42-10.13c-2.31-2.24-5.85,1.29-3.54,3.54Z" transform="translate(-603.36 -550.53)"/><path class="cls-1" d="M1070.57,1106.62l9.17,8.82c2.32,2.23,5.86-1.3,3.54-3.54l-9.17-8.82c-2.32-2.23-5.86,1.3-3.54,3.54Z" transform="translate(-603.36 -550.53)"/><path class="cls-1" d="M1079.74,1101.48l11,9.55c2.42,2.11,6-1.42,3.54-3.54l-11-9.55c-2.42-2.11-6,1.42-3.54,3.54Z" transform="translate(-603.36 -550.53)"/><path class="cls-1" d="M1089.67,1094.6l13.28,13.76c2.24,2.32,5.77-1.22,3.54-3.54l-13.28-13.76c-2.24-2.32-5.77,1.22-3.54,3.54Z" transform="translate(-603.36 -550.53)"/><path class="cls-1" d="M1105.15,1094.09l11.12,13.95c2,2.51,5.52-1,3.54-3.54l-11.12-13.95c-2-2.51-5.52,1-3.54,3.54Z" transform="translate(-603.36 -550.53)"/><path class="cls-1" d="M1115.72,1089.72a27.51,27.51,0,0,0,15.6,19.92c2.91,1.32,5.45-3,2.52-4.32a22.92,22.92,0,0,1-13.3-16.93c-.59-3.16-5.41-1.82-4.82,1.33Z" transform="translate(-603.36 -550.53)"/><path class="cls-1" d="M1126.81,1094l15.13,14.87c2.3,2.26,5.84-1.28,3.54-3.54l-15.13-14.87c-2.3-2.26-5.84,1.28-3.54,3.54Z" transform="translate(-603.36 -550.53)"/><path class="cls-1" d="M1144.3,1097.31l9.72,17.6c1.56,2.82,5.88.3,4.32-2.52l-9.72-17.6c-1.56-2.82-5.88-.3-4.32,2.52Z" transform="translate(-603.36 -550.53)"/><path class="cls-1" d="M1156.35,1100.88a122.32,122.32,0,0,1,3.45,17.46c.38,3.15,5.38,3.19,5,0a131.35,131.35,0,0,0-3.62-18.79c-.84-3.1-5.67-1.79-4.82,1.33Z" transform="translate(-603.36 -550.53)"/><path class="cls-1" d="M1166.65,1107a107.93,107.93,0,0,1,.46,17.35c-.17,3.22,4.83,3.21,5,0a107.93,107.93,0,0,0-.46-17.35c-.34-3.17-5.34-3.2-5,0Z" transform="translate(-603.36 -550.53)"/><path class="cls-1" d="M1178.35,1116.93l-5.14,17.39c-.91,3.09,3.91,4.41,4.82,1.33l5.14-17.39c.91-3.09-3.91-4.41-4.82-1.33Z" transform="translate(-603.36 -550.53)"/><path class="cls-1" d="M1183.72,1126.86a138.47,138.47,0,0,0-6.69,17.61c-.93,3.09,3.89,4.41,4.82,1.33a128.9,128.9,0,0,1,6.19-16.41c1.33-2.9-3-5.45-4.32-2.52Z" transform="translate(-603.36 -550.53)"/><path class="cls-1" d="M1188.59,1137.91a69.5,69.5,0,0,1-6.45,11.8c-1.81,2.67,2.52,5.17,4.32,2.52a69.5,69.5,0,0,0,6.45-11.8c1.25-2.93-3.06-5.48-4.32-2.52Z" transform="translate(-603.36 -550.53)"/><path class="cls-1" d="M1190.09,1161.77l9.1-13.49c1.8-2.68-2.53-5.18-4.32-2.52l-9.1,13.49c-1.8,2.68,2.53,5.18,4.32,2.52Z" transform="translate(-603.36 -550.53)"/><path class="cls-1" d="M1192.31,1170.79q6.49-8.66,12.49-17.66c1.79-2.69-2.54-5.19-4.32-2.52q-6,9-12.49,17.66c-1.93,2.58,2.41,5.07,4.32,2.52Z" transform="translate(-603.36 -550.53)"/><path class="cls-1" d="M1194.38,1181.52l10.91-16.51c1.78-2.69-2.55-5.2-4.32-2.52L1190.07,1179c-1.78,2.69,2.55,5.2,4.32,2.52Z" transform="translate(-603.36 -550.53)"/><path class="cls-1" d="M1199,1186.18l13.52-19.2c1.86-2.64-2.48-5.14-4.32-2.52l-13.52,19.2c-1.86,2.64,2.48,5.14,4.32,2.52Z" transform="translate(-603.36 -550.53)"/><path class="cls-1" d="M1203.73,1194.21a156,156,0,0,1,11.7-16.77c2-2.49-1.52-6-3.54-3.54a165.67,165.67,0,0,0-12.48,17.79c-1.67,2.76,2.65,5.27,4.32,2.52Z" transform="translate(-603.36 -550.53)"/><path class="cls-1" d="M1211.67,1195.49l8.16-12.56c1.76-2.71-2.57-5.22-4.32-2.52l-8.16,12.56c-1.76,2.71,2.57,5.22,4.32,2.52Z" transform="translate(-603.36 -550.53)"/><path class="cls-1" d="M1007,1193q12.33.5,24.64,1.33c3.21.22,3.2-4.78,0-5q-12.31-.83-24.64-1.33c-3.22-.13-3.21,4.87,0,5Z" transform="translate(-603.36 -550.53)"/><path class="cls-1" d="M1009,1185.73l27.35-.76c3.21-.09,3.22-5.09,0-5l-27.35.76c-3.21.09-3.22,5.09,0,5Z" transform="translate(-603.36 -550.53)"/><path class="cls-1" d="M1007.66,1176.05l29.35-2.41c3.18-.26,3.21-5.26,0-5l-29.35,2.41c-3.18.26-3.21,5.26,0,5Z" transform="translate(-603.36 -550.53)"/><path class="cls-1" d="M1013,1163.89l26.68-4.61c3.16-.55,1.82-5.37-1.33-4.82l-26.68,4.61c-3.16.55-1.82,5.37,1.33,4.82Z" transform="translate(-603.36 -550.53)"/><path class="cls-1" d="M1021.67,1148.9l23.32-1.53c3.19-.21,3.22-5.21,0-5l-23.32,1.53c-3.19.21-3.22,5.21,0,5Z" transform="translate(-603.36 -550.53)"/><path class="cls-1" d="M1029,1138.63l27.41-5.62c3.15-.65,1.82-5.47-1.33-4.82l-27.41,5.62c-3.15.65-1.82,5.47,1.33,4.82Z" transform="translate(-603.36 -550.53)"/><path class="cls-1" d="M1044.38,1123.69l32.66-5.35c3.17-.52,1.82-5.34-1.33-4.82l-32.66,5.35c-3.17.52-1.82,5.34,1.33,4.82Z" transform="translate(-603.36 -550.53)"/><path class="cls-1" d="M1063.68,1109.61a338.1,338.1,0,0,1,43.33-.91c3.22.14,3.21-4.86,0-5a338.1,338.1,0,0,0-43.33.91c-3.18.27-3.21,5.27,0,5Z" transform="translate(-603.36 -550.53)"/><path class="cls-1" d="M1195,1188.78a85,85,0,0,1,16-.56c3.21.19,3.2-4.81,0-5a85,85,0,0,0-16,.56c-3.15.41-3.19,5.41,0,5Z" transform="translate(-603.36 -550.53)"/><path class="cls-1" d="M1192.94,1181.82c4.66-1,9.34-1.74,14.06-2.31,3.15-.38,3.19-5.39,0-5-5.16.63-10.29,1.45-15.39,2.49-3.15.65-1.82,5.47,1.33,4.82Z" transform="translate(-603.36 -550.53)"/><path class="cls-1" d="M1191.59,1173.12a186.21,186.21,0,0,1,19.41-3.59c3.15-.41,3.19-5.41,0-5a198.69,198.69,0,0,0-20.74,3.77c-3.13.75-1.8,5.57,1.33,4.82Z" transform="translate(-603.36 -550.53)"/><path class="cls-1" d="M1189.54,1162.41a180,180,0,0,1,21.48-6.2c3.14-.7,1.81-5.52-1.33-4.82a180,180,0,0,0-21.48,6.2c-3,1.07-1.71,5.91,1.33,4.82Z" transform="translate(-603.36 -550.53)"/><path class="cls-1" d="M1183.56,1153.07l22.79-6.94c3.07-.94,1.76-5.76-1.33-4.82l-22.79,6.94c-3.07.94-1.76,5.76,1.33,4.82Z" transform="translate(-603.36 -550.53)"/><path class="cls-1" d="M1182.3,1142.59l25.32-5.41c3.15-.67,1.81-5.49-1.33-4.82l-25.32,5.41c-3.15.67-1.81,5.49,1.33,4.82Z" transform="translate(-603.36 -550.53)"/><path class="cls-1" d="M1175.63,1134.51a158.58,158.58,0,0,0,23.4-5c3.08-.9,1.77-5.73-1.33-4.82a158.58,158.58,0,0,1-23.4,5c-3.17.43-1.82,5.25,1.33,4.82Z" transform="translate(-603.36 -550.53)"/><path class="cls-1" d="M1169,1126.64l28-9.25c3-1,1.74-5.83-1.33-4.82l-28,9.25c-3,1-1.74,5.83,1.33,4.82Z" transform="translate(-603.36 -550.53)"/><path class="cls-1" d="M1163,1119.24a168.59,168.59,0,0,0,27.39-9.21c2.95-1.27.4-5.58-2.52-4.32a161.21,161.21,0,0,1-26.2,8.71c-3.13.76-1.8,5.58,1.33,4.82Z" transform="translate(-603.36 -550.53)"/><path class="cls-1" d="M1151.13,1111.61c8.34-6.42,20-5.94,27.56-13.64,2.26-2.29-1.27-5.83-3.54-3.54-7.12,7.23-18.59,6.75-26.54,12.86-2.52,1.93,0,6.28,2.52,4.32Z" transform="translate(-603.36 -550.53)"/><path class="cls-1" d="M1139.13,1108.5a100.77,100.77,0,0,0,23.84-11.28c2.69-1.74.19-6.07-2.52-4.32a95.5,95.5,0,0,1-22.64,10.78c-3,1-1.75,5.81,1.33,4.82Z" transform="translate(-603.36 -550.53)"/><path class="cls-1" d="M1127.68,1108.7a158.8,158.8,0,0,0,21.22-10.91c2.74-1.68.23-6-2.52-4.32a158.8,158.8,0,0,1-21.22,10.91c-3,1.25-.41,5.56,2.52,4.32Z" transform="translate(-603.36 -550.53)"/><path class="cls-1" d="M1115.71,1110a163.52,163.52,0,0,0,21-15.29c2.45-2.09-1.1-5.62-3.54-3.54a155.38,155.38,0,0,1-20,14.51c-2.74,1.68-.23,6,2.52,4.32Z" transform="translate(-603.36 -550.53)"/><path class="cls-1" d="M1104.23,1104.16l-.34,0a2.63,2.63,0,0,0-2.41,1.84,3,3,0,0,0,.33,2.71A2.49,2.49,0,0,0,1104,1110c3.31-.11,6.12-3.65,8.54-5.62l10.93-8.92c2.49-2-1.06-5.56-3.54-3.54l-8.2,6.69-3.82,3.12c-.69.57-3.09,3.24-3.91,3.26l2.16,1.24-.21-.37.25,1.93.14-.41-2.41,1.84.34,0c3.16-.35,3.2-5.35,0-5Z" transform="translate(-603.36 -550.53)"/><path class="cls-1" d="M1252.35,1137.81q-.23-34.75,1.47-69.46c.95-19,.59-39.52,6.72-57.73,2.42-7.18,6.44-14.07,12.82-18.39,7.75-5.25,17.51-6.42,26.61-7.25,22.32-2,44.72-3.27,67.12-3.95a1169.34,1169.34,0,0,1,267.54,22.72q16.55,3.36,33,7.19c9.39,2.19,19.14,4.22,27.93,8.32,16.45,7.7,25.1,22.5,30.19,39.34,5.88,19.43,8.78,39.9,12.38,59.83q6,33.25,11.18,66.65a2708,2708,0,0,1,28.15,272.63q1.8,34.23,2.73,68.5c.52,19.06,2.71,40.55-6.63,58-12.7,23.73-42.79,37.43-69.13,32.18a55.36,55.36,0,0,1-18.38-7.2c-8.25-5.06-15.79,7.91-7.57,13,26.92,16.52,62.78,12,87.4-6.76,12.7-9.67,22.39-22.88,26.49-38.43,5.93-22.5,3-47.34,2.22-70.31a2746.1,2746.1,0,0,0-25.09-286.78c-6.69-47.69-14.55-95.24-23.86-142.49-3.53-17.92-8-36.81-19.11-51.72-12.63-16.93-31.29-23.57-51.15-28.29a1183.16,1183.16,0,0,0-281.26-31.84q-35.7.25-71.33,2.67c-20.39,1.39-44.82.58-61.42,14.39-14.23,11.85-18.22,31.35-20,48.84-2.44,23.41-3.18,47.12-3.69,70.64q-.39,17.86-.26,35.73c.06,9.65,15.06,9.67,15,0Z" transform="translate(-603.36 -550.53)"/><path class="cls-1" d="M1762.05,1614.34c16-12.26,32.62-23.66,49.13-35.2,8.31-5.81,16.58-11.66,24.73-17.7,7.81-5.79,16.22-11.41,22.77-18.64,6.18-6.83,10.61-14.88,12.05-24.06,1.59-10.1-.48-19.61-2.36-29.51-4-20.76-8-41.52-11.79-62.3-7.37-40-14.05-80.19-18.21-120.69-4.32-42-5.22-84.39-7.35-126.53q-.8-15.9-1.67-31.79c-.56-10.08-1.89-19.92-2.86-29.94-2-20.22-4.28-40.24-7.09-60.37-2.78-19.85-8.17-39.09-11.68-58.8-3.1-17.39-9.7-37.27-24.26-48.32-14.15-10.75-31.33-14.95-48.63-17.26-8.64-1.15-17.32-1.9-26-3-9.61-1.27-19.12-3.19-28.74-4.46-9.92-1.3-19.86-1.24-29.83-2.06q-15.46-1.27-31-2-30.8-1.5-61.66-.94c-82.14,1.5-165.17,13.31-244,36.81-9.26,2.76-18.51,5.59-27.77,8.36s-5.3,17.24,4,14.46c18.24-5.45,36.41-11.46,54.89-16.05q29.55-7.34,59.49-12.93A935.94,935.94,0,0,1,1523.11,937,923.16,923.16,0,0,1,1642.56,938q7.27.54,14.53,1.19c4.91.44,9.83,0,14.73.52,9.5.92,18.88,2.63,28.3,4.16,16.64,2.7,33.68,3.07,50.05,7.3,16.08,4.16,30.42,12.35,36.39,28.59,6.51,17.7,9.47,36.47,13.56,54.85,4.23,19,6.75,38.51,9.09,57.85,1.18,9.75,1.25,19.73,2.73,29.41s2,19.26,2.58,29c2.25,41.06,4,82.14,6.3,123.19,2.22,39.64,7.9,79.1,14.48,118.22,3.29,19.55,6.87,39,10.55,58.53q2.72,14.39,5.48,28.78c1.83,9.56,4.78,19.57,5.11,29.31.68,20.15-15.9,30.62-30.4,41.27-15.75,11.57-32,22.51-47.9,33.82-8,5.66-15.89,11.43-23.65,17.38-3.24,2.48-4.87,6.43-2.69,10.26,1.81,3.18,7.05,5.15,10.26,2.69Z" transform="translate(-603.36 -550.53)"/><path class="cls-1" d="M1439.39,948.74q-6.29-152.53-11.33-305.1-1.42-42.88-2.73-85.76l-9.49,7.23a1709.84,1709.84,0,0,0,225.85,19.8l-7.5-7.5c-11.26,98.38-23.06,196.72-33.73,295.17-3,27.5-5.39,55.08-5.66,82.76-.09,9.65,14.91,9.66,15,0,.48-49.2,7.36-98.15,13-147l16.9-147.7,9.53-83.27c.47-4.09-3.82-7.42-7.5-7.5a1679.78,1679.78,0,0,1-221.86-19.26c-4.59-.71-9.66,1.9-9.49,7.23Q1415,710.46,1421,863q1.67,42.87,3.44,85.74c.4,9.62,15.4,9.67,15,0Z" transform="translate(-603.36 -550.53)"/><path class="cls-1" d="M1448.2,960c15.88-43.47-2.37-88.87-9.46-132.13-7.57-46.21.47-93.15,5-139.24,2.54-26,4-52.21,1.42-78.29l-7.5,7.5a662.29,662.29,0,0,1,99.23,2.3q24.69,2.45,49.12,6.85c2,.37,8.46.43,9.91,2s1.32,7.8,1.58,10q1.37,11.44,1.95,22.95c3.29,63.52-9.64,126.31-16.28,189.19-3.72,35.24-5.45,70.79-1.46,106.09a8,8,0,0,0,5.51,7.23c8.31,3.16,17.74-2.37,19.84-10.79,2.33-9.37-12.13-13.37-14.46-4-.29,1.15,0,.84-1.38.31l5.51,7.23c-7.47-66.18,5.22-132.06,12.95-197.6,3.86-32.7,6.54-65.68,4.75-98.61q-.65-12-2.12-23.86c-.94-7.46-1.19-16.39-8.37-20.8-6.48-4-16.15-4.22-23.51-5.43q-12.53-2.06-25.12-3.64a661.43,661.43,0,0,0-117.62-4.39c-3.74.19-7.92,3.29-7.5,7.5,4.6,46.19-3.69,92.1-7.59,138-1.94,22.86-2.8,45.93-.28,68.79,2.47,22.46,8.34,44.26,12.74,66.38,4.8,24.1,7.34,48.93-1.27,72.48-3.32,9.08,11.17,13,14.46,4Z" transform="translate(-603.36 -550.53)"/><path class="cls-1" d="M1432.92,957.37a36.5,36.5,0,0,0,7.93.82c3.22,0,3.22-5,0-5a30.17,30.17,0,0,1-6.6-.64c-3.14-.67-4.48,4.15-1.33,4.82Z" transform="translate(-603.36 -550.53)"/><path class="cls-1" d="M1436.35,698.38c23.51,12.37,51,11.5,76.88,12.27q43.28,1.29,86.57,1.73c9.66.1,9.66-14.9,0-15q-41.33-.43-82.64-1.62c-24-.7-51.31,1.2-73.24-10.34-8.54-4.49-16.13,8.45-7.57,13Z" transform="translate(-603.36 -550.53)"/><path class="cls-1" d="M1432.85,737.57a629,629,0,0,0,85.91,2.83c28.1-1,56.24-5,84.35-2.17,4,.4,7.5-3.74,7.5-7.5,0-4.39-3.45-7.09-7.5-7.5-28.11-2.81-56.25,1.15-84.35,2.17a629,629,0,0,1-85.91-2.83c-4-.41-7.5,3.74-7.5,7.5,0,4.39,3.45,7.09,7.5,7.5Z" transform="translate(-603.36 -550.53)"/><path class="cls-1" d="M1246.49,1084.42a146.87,146.87,0,0,0,19.76,32.34c2,2.51,5.53-1,3.54-3.54a142.21,142.21,0,0,1-19-31.33c-1.3-2.94-5.61-.39-4.32,2.52Z" transform="translate(-603.36 -550.53)"/><path class="cls-1" d="M1247,1068.17a384.63,384.63,0,0,0,36.17,51.65c2.06,2.48,5.58-1.08,3.54-3.54a376.84,376.84,0,0,1-35.39-50.64c-1.62-2.78-5.94-.26-4.32,2.52Z" transform="translate(-603.36 -550.53)"/><path class="cls-1" d="M1245,1050.18a721.52,721.52,0,0,0,52.95,69.86c2.1,2.45,5.62-1.1,3.54-3.54a710.87,710.87,0,0,1-52.16-68.85c-1.78-2.67-6.11-.16-4.32,2.52Z" transform="translate(-603.36 -550.53)"/><path class="cls-1" d="M1247.42,1040.61a933,933,0,0,0,62.82,70.14c2.27,2.29,5.8-1.25,3.54-3.54a933,933,0,0,1-62.82-70.14c-2-2.5-5.54,1.05-3.54,3.54Z" transform="translate(-603.36 -550.53)"/><path class="cls-1" d="M1249.52,1024.4q40.65,45.79,84.32,88.77c2.3,2.26,5.83-1.27,3.54-3.54q-43.65-42.95-84.32-88.77c-2.14-2.41-5.67,1.14-3.54,3.54Z" transform="translate(-603.36 -550.53)"/><path class="cls-1" d="M1252.74,1010.27a1144.59,1144.59,0,0,0,98.69,89.25c2.48,2,6-1.52,3.54-3.54a1144.59,1144.59,0,0,1-98.69-89.25c-2.26-2.3-5.8,1.24-3.54,3.54Z" transform="translate(-603.36 -550.53)"/><path class="cls-1" d="M1259.76,998.35q56.84,45.88,116.32,88.32c2.62,1.87,5.12-2.46,2.52-4.32q-58.95-42-115.31-87.54c-2.48-2-6,1.51-3.54,3.54Z" transform="translate(-603.36 -550.53)"/><path class="cls-1" d="M1269.59,992.35a1553.64,1553.64,0,0,0,131.18,89.75c2.75,1.68,5.27-2.64,2.52-4.32A1553.64,1553.64,0,0,1,1272.12,988c-2.56-1.95-5.05,2.39-2.52,4.32Z" transform="translate(-603.36 -550.53)"/><path class="cls-1" d="M1279.88,985.9q66.3,35.86,134.74,67.51c2.9,1.34,5.44-3,2.52-4.32q-68.41-31.64-134.74-67.51c-2.83-1.53-5.36,2.78-2.52,4.32Z" transform="translate(-603.36 -550.53)"/><path class="cls-1" d="M1284.51,982.77l159.72,43c3.11.84,4.44-4,1.33-4.82l-159.72-43c-3.11-.84-4.44,4-1.33,4.82Z" transform="translate(-603.36 -550.53)"/><path class="cls-1" d="M1316.45,978.94A1197.82,1197.82,0,0,0,1456,1003.19c3.19.36,3.17-4.64,0-5a1186.53,1186.53,0,0,1-138.26-24.07c-3.13-.74-4.46,4.08-1.33,4.82Z" transform="translate(-603.36 -550.53)"/><path class="cls-1" d="M1356.25,975.89q58.54,10.54,117.67,17.3c3.19.37,3.17-4.64,0-5q-58.43-6.69-116.34-17.12c-3.15-.57-4.5,4.25-1.33,4.82Z" transform="translate(-603.36 -550.53)"/><path class="cls-1" d="M1429.43,947.53l8.9,7.12a2.58,2.58,0,0,0,3.54,0,2.52,2.52,0,0,0,0-3.54L1433,944a2.58,2.58,0,0,0-3.54,0,2.52,2.52,0,0,0,0,3.54Z" transform="translate(-603.36 -550.53)"/><path class="cls-1" d="M1431,940.77l8.72,6.38c2.6,1.9,5.1-2.43,2.52-4.32l-8.72-6.38c-2.6-1.9-5.1,2.43-2.52,4.32Z" transform="translate(-603.36 -550.53)"/><path class="cls-1" d="M1430.84,933l8.9,6.14c2.65,1.83,5.16-2.5,2.52-4.32l-8.9-6.14c-2.65-1.83-5.16,2.5-2.52,4.32Z" transform="translate(-603.36 -550.53)"/><path class="cls-1" d="M1429.9,923.87l7.8,4.36c2.81,1.57,5.34-2.75,2.52-4.32l-7.8-4.36c-2.81-1.57-5.34,2.75-2.52,4.32Z" transform="translate(-603.36 -550.53)"/><path class="cls-1" d="M1429.77,916.11l8,4.05c2.86,1.45,5.4-2.86,2.52-4.32l-8-4.05c-2.86-1.45-5.4,2.86-2.52,4.32Z" transform="translate(-603.36 -550.53)"/><path class="cls-1" d="M1428.83,907l7.94,5.09c2.72,1.74,5.23-2.58,2.52-4.32l-7.94-5.09c-2.72-1.74-5.23,2.58-2.52,4.32Z" transform="translate(-603.36 -550.53)"/><path class="cls-1" d="M1430.32,896.67l10.95,9.06c2.46,2,6-1.48,3.54-3.54l-10.95-9.06c-2.46-2-6,1.48-3.54,3.54Z" transform="translate(-603.36 -550.53)"/><path class="cls-1" d="M1429.41,885.2a67,67,0,0,1,12.31,6c2.75,1.69,5.26-2.63,2.52-4.32a73.47,73.47,0,0,0-13.5-6.5c-3-1.1-4.33,3.73-1.33,4.82Z" transform="translate(-603.36 -550.53)"/><path class="cls-1" d="M1429.39,876.17a25,25,0,0,1,9.27,4.11c2.63,1.86,5.13-2.47,2.52-4.32a28.76,28.76,0,0,0-10.46-4.61c-3.14-.69-4.48,4.13-1.33,4.82Z" transform="translate(-603.36 -550.53)"/><path class="cls-1" d="M1426.91,865.82l8.75,4.49c2.86,1.47,5.39-2.85,2.52-4.32l-8.75-4.49c-2.86-1.47-5.39,2.85-2.52,4.32Z" transform="translate(-603.36 -550.53)"/><path class="cls-1" d="M1427.42,858.18l6,2.08a2.5,2.5,0,0,0,1.33-4.82l-6-2.08a2.5,2.5,0,0,0-1.33,4.82Z" transform="translate(-603.36 -550.53)"/><path class="cls-1" d="M1587.42,948.17l8.92,3.22c3,1.1,4.34-3.73,1.33-4.82l-8.92-3.22c-3-1.1-4.34,3.73-1.33,4.82Z" transform="translate(-603.36 -550.53)"/><path class="cls-1" d="M1585.83,939l11,6c2.82,1.54,5.35-2.77,2.52-4.32l-11-6c-2.82-1.54-5.35,2.77-2.52,4.32Z" transform="translate(-603.36 -550.53)"/><path class="cls-1" d="M1585.38,932.1a39.56,39.56,0,0,1,13.13,4.46c2.82,1.56,5.34-2.76,2.52-4.32a43.49,43.49,0,0,0-14.33-5c-3.15-.5-4.5,4.32-1.33,4.82Z" transform="translate(-603.36 -550.53)"/><path class="cls-1" d="M1585.41,923.15l15.9,4.35c3.11.85,4.43-4,1.33-4.82l-15.9-4.35c-3.11-.85-4.43,4-1.33,4.82Z" transform="translate(-603.36 -550.53)"/><path class="cls-1" d="M1588.85,916.91l6.94,3.13a2.58,2.58,0,0,0,3.42-.9,2.52,2.52,0,0,0-.9-3.42l-6.94-3.13a2.58,2.58,0,0,0-3.42.9,2.52,2.52,0,0,0,.9,3.42Z" transform="translate(-603.36 -550.53)"/><path class="cls-1" d="M1589.38,908.27l9.94,3.19c3.07,1,4.39-3.84,1.33-4.82l-9.94-3.19c-3.07-1-4.39,3.84-1.33,4.82Z" transform="translate(-603.36 -550.53)"/><path class="cls-1" d="M1588.31,896.5l11.05,2.79c3.12.79,4.45-4,1.33-4.82l-11.05-2.79c-3.12-.79-4.45,4-1.33,4.82Z" transform="translate(-603.36 -550.53)"/><path class="cls-1" d="M1589.37,886.21l12.93,2.39c3.15.58,4.49-4.24,1.33-4.82l-12.93-2.39c-3.15-.58-4.49,4.24-1.33,4.82Z" transform="translate(-603.36 -550.53)"/><path class="cls-1" d="M1589.38,877.24a48.22,48.22,0,0,0,13.62,1.27c3.2-.16,3.22-5.16,0-5a43.3,43.3,0,0,1-12.29-1.09c-3.13-.74-4.46,4.08-1.33,4.82Z" transform="translate(-603.36 -550.53)"/><path class="cls-1" d="M1589.35,868.35l13.95,2.31c3.15.52,4.5-4.3,1.33-4.82l-13.95-2.31c-3.15-.52-4.5,4.3-1.33,4.82Z" transform="translate(-603.36 -550.53)"/><path class="cls-1" d="M1591.29,858.67l12,1.95c3.15.51,4.5-4.31,1.33-4.82l-12-1.95c-3.15-.51-4.5,4.31-1.33,4.82Z" transform="translate(-603.36 -550.53)"/><path class="cls-1" d="M1592,846.46a28.52,28.52,0,0,1,10.33,2c3,1.16,4.3-3.67,1.33-4.82a32.44,32.44,0,0,0-11.66-2.15c-3.22,0-3.22,5,0,5Z" transform="translate(-603.36 -550.53)"/><path class="cls-1" d="M1592.38,836.16l13,2.11c3.15.51,4.5-4.31,1.33-4.82l-13-2.11c-3.15-.51-4.5,4.31-1.33,4.82Z" transform="translate(-603.36 -550.53)"/><path class="cls-1" d="M1593.38,829.13l15,2.29c3.15.48,4.5-4.34,1.33-4.82l-15-2.29c-3.15-.48-4.5,4.34-1.33,4.82Z" transform="translate(-603.36 -550.53)"/><path class="cls-1" d="M1595,822.48a33.07,33.07,0,0,1,13.33,2c3,1.09,4.34-3.74,1.33-4.82a36.74,36.74,0,0,0-14.66-2.13c-3.2.18-3.22,5.18,0,5Z" transform="translate(-603.36 -550.53)"/><path class="cls-1" d="M1597.54,813a11.1,11.1,0,0,1,9.15,1.19c2.76,1.67,5.28-2.65,2.52-4.32a16.14,16.14,0,0,0-13-1.7c-3.08.9-1.77,5.73,1.33,4.82Z" transform="translate(-603.36 -550.53)"/><path class="cls-1" d="M1597.37,803.17l14,2.22c3.15.5,4.5-4.32,1.33-4.82l-14-2.22c-3.15-.5-4.5,4.32-1.33,4.82Z" transform="translate(-603.36 -550.53)"/><path class="cls-1" d="M1599,796.5a21.57,21.57,0,0,1,10.74,1.65c2.92,1.29,5.46-3,2.52-4.32A26.66,26.66,0,0,0,1599,791.5c-3.18.28-3.21,5.28,0,5Z" transform="translate(-603.36 -550.53)"/><path class="cls-1" d="M1599,789.5a28.27,28.27,0,0,1,9.34.91c3.11.84,4.44-4,1.33-4.82A32.65,32.65,0,0,0,1599,784.5c-3.19.21-3.22,5.21,0,5Z" transform="translate(-603.36 -550.53)"/><path class="cls-1" d="M1602,779.33l8,1a2.51,2.51,0,0,0,2.5-2.5,2.56,2.56,0,0,0-2.5-2.5l-8-1a2.51,2.51,0,0,0-2.5,2.5,2.56,2.56,0,0,0,2.5,2.5Z" transform="translate(-603.36 -550.53)"/><path class="cls-1" d="M1602,769.49l13,1.18c3.2.29,3.18-4.71,0-5l-13-1.18c-3.2-.29-3.18,4.71,0,5Z" transform="translate(-603.36 -550.53)"/><path class="cls-1" d="M1606.67,758.46a17.34,17.34,0,0,1,10.09,1.64c2.88,1.41,5.42-2.9,2.52-4.32a23.29,23.29,0,0,0-13.95-2.14c-3.17.46-1.82,5.28,1.33,4.82Z" transform="translate(-603.36 -550.53)"/><path class="cls-1" d="M1604,745.35l8,1.06a2.51,2.51,0,0,0,2.5-2.5,2.56,2.56,0,0,0-2.5-2.5l-8-1.06a2.51,2.51,0,0,0-2.5,2.5,2.56,2.56,0,0,0,2.5,2.5Z" transform="translate(-603.36 -550.53)"/><path class="cls-1" d="M1605,737.5h11c3.22,0,3.22-5,0-5h-11c-3.22,0-3.22,5,0,5Z" transform="translate(-603.36 -550.53)"/><path class="cls-1" d="M1607,728.26l13-1c3.19-.23,3.22-5.24,0-5l-13,1c-3.19.23-3.22,5.24,0,5Z" transform="translate(-603.36 -550.53)"/><path class="cls-1" d="M1609,716.5h7c3.22,0,3.22-5,0-5h-7c-3.22,0-3.22,5,0,5Z" transform="translate(-603.36 -550.53)"/><path class="cls-1" d="M1609,707.64l12-1.22c3.17-.32,3.2-5.33,0-5l-12,1.22c-3.17.32-3.2,5.33,0,5Z" transform="translate(-603.36 -550.53)"/><path class="cls-1" d="M1609,700.51a37,37,0,0,0,16.31-4.26c2.85-1.49.33-5.81-2.52-4.32a31.19,31.19,0,0,1-13.79,3.58c-3.21.09-3.22,5.09,0,5Z" transform="translate(-603.36 -550.53)"/><path class="cls-1" d="M1608,691.5h15c3.22,0,3.22-5,0-5h-15c-3.22,0-3.22,5,0,5Z" transform="translate(-603.36 -550.53)"/><path class="cls-1" d="M1608.7,682.6l15-3c3.15-.63,1.82-5.45-1.33-4.82l-15,3c-3.15.63-1.82,5.45,1.33,4.82Z" transform="translate(-603.36 -550.53)"/><path class="cls-1" d="M1609,672.5h13c3.22,0,3.22-5,0-5h-13c-3.22,0-3.22,5,0,5Z" transform="translate(-603.36 -550.53)"/><path class="cls-1" d="M1608.62,664.13a83.86,83.86,0,0,1,18.37-.55c3.21.24,3.19-4.76,0-5a89.61,89.61,0,0,0-19.7.73c-3.17.46-1.82,5.28,1.33,4.82Z" transform="translate(-603.36 -550.53)"/><path class="cls-1" d="M1606.27,653.66A65.28,65.28,0,0,0,1624,655.5c3.21-.11,3.22-5.11,0-5a60.18,60.18,0,0,1-16.4-1.66c-3.13-.76-4.46,4.06-1.33,4.82Z" transform="translate(-603.36 -550.53)"/><path class="cls-1" d="M1609,642.34l11,1.09c3.2.32,3.18-4.68,0-5l-11-1.09c-3.2-.32-3.18,4.68,0,5Z" transform="translate(-603.36 -550.53)"/><path class="cls-1" d="M1604,632.5a57.08,57.08,0,0,1,18.34,1.91c3.11.85,4.44-4,1.33-4.82A61.46,61.46,0,0,0,1604,627.5c-3.2.18-3.22,5.18,0,5Z" transform="translate(-603.36 -550.53)"/><path class="cls-1" d="M1434.75,727l9.65-15.6c1.7-2.74-2.63-5.26-4.32-2.52l-9.65,15.6c-1.7,2.74,2.63,5.26,4.32,2.52Z" transform="translate(-603.36 -550.53)"/><path class="cls-1" d="M1434.19,733.25A91.87,91.87,0,0,0,1451,713.16c1.7-2.74-2.62-5.26-4.32-2.52a87.16,87.16,0,0,1-16,19.08c-2.4,2.15,1.15,5.68,3.54,3.54Z" transform="translate(-603.36 -550.53)"/><path class="cls-1" d="M1446.2,732.07a90.22,90.22,0,0,0,15.58-14.29c2.08-2.43-1.44-6-3.54-3.54a84.92,84.92,0,0,1-14.57,13.51c-2.58,1.87-.09,6.21,2.52,4.32Z" transform="translate(-603.36 -550.53)"/><path class="cls-1" d="M1454.94,733.95l16.78-16.23c2.32-2.24-1.22-5.78-3.54-3.54l-16.78,16.23c-2.32,2.24,1.22,5.78,3.54,3.54Z" transform="translate(-603.36 -550.53)"/><path class="cls-1" d="M1471.16,734.21a192.42,192.42,0,0,0,16.5-16.54c2.12-2.4-1.4-6-3.54-3.54a192.42,192.42,0,0,1-16.5,16.54c-2.41,2.14,1.14,5.67,3.54,3.54Z" transform="translate(-603.36 -550.53)"/><path class="cls-1" d="M1483.2,734.07a95.84,95.84,0,0,0,18.58-17.29c2-2.47-1.49-6-3.54-3.54a91.14,91.14,0,0,1-17.57,16.51c-2.6,1.85-.1,6.19,2.52,4.32Z" transform="translate(-603.36 -550.53)"/><path class="cls-1" d="M1495.9,734.92a237.76,237.76,0,0,0,18.82-18.2c2.18-2.36-1.34-5.9-3.54-3.54a237.76,237.76,0,0,1-18.82,18.2c-2.44,2.11,1.11,5.63,3.54,3.54Z" transform="translate(-603.36 -550.53)"/><path class="cls-1" d="M1509.39,734.34a76.14,76.14,0,0,0,16.76-17.08c1.87-2.63-2.46-5.13-4.32-2.52a68.58,68.58,0,0,1-15,15.29c-2.55,1.9-.06,6.24,2.52,4.32Z" transform="translate(-603.36 -550.53)"/><path class="cls-1" d="M1525,734a103.24,103.24,0,0,0,16.1-16.83c2-2.55-2.38-5-4.32-2.52a98,98,0,0,1-15.32,15.81c-2.48,2.05,1.07,5.57,3.54,3.54Z" transform="translate(-603.36 -550.53)"/><path class="cls-1" d="M1539.77,733.77l14-15c2.19-2.35-1.33-5.89-3.54-3.54l-14,15c-2.19,2.35,1.33,5.89,3.54,3.54Z" transform="translate(-603.36 -550.53)"/><path class="cls-1" d="M1551.82,732.82l11.92-13.07c2.16-2.37-1.36-5.92-3.54-3.54l-11.92,13.07c-2.16,2.37,1.36,5.92,3.54,3.54Z" transform="translate(-603.36 -550.53)"/><path class="cls-1" d="M1563.77,731.77l13-13c2.28-2.28-1.26-5.82-3.54-3.54l-13,13c-2.28,2.28,1.26,5.82,3.54,3.54Z" transform="translate(-603.36 -550.53)"/><path class="cls-1" d="M1576.85,731.85l13.9-14.1c2.26-2.29-1.27-5.83-3.54-3.54l-13.9,14.1c-2.26,2.29,1.27,5.83,3.54,3.54Z" transform="translate(-603.36 -550.53)"/><path class="cls-1" d="M1586.12,731.17a87.82,87.82,0,0,0,13.92-16c1.82-2.67-2.51-5.17-4.32-2.52a82.46,82.46,0,0,1-13.14,15c-2.4,2.15,1.15,5.68,3.54,3.54Z" transform="translate(-603.36 -550.53)"/><path class="cls-1" d="M1593,732l9.72-12.22c2-2.49-1.53-6.05-3.54-3.54l-9.72,12.22c-2,2.49,1.53,6.05,3.54,3.54Z" transform="translate(-603.36 -550.53)"/><path class="cls-1" d="M1598.77,732.77l7-7c2.28-2.28-1.26-5.81-3.54-3.54l-7,7c-2.28,2.28,1.26,5.81,3.54,3.54Z" transform="translate(-603.36 -550.53)"/><path class="cls-1" d="M1683.41,1605.6l26.17,19.77c2.57,1.94,5.06-2.4,2.52-4.32l-26.17-19.77c-2.57-1.94-5.06,2.4-2.52,4.32Z" transform="translate(-603.36 -550.53)"/><path class="cls-1" d="M1688,1590a257,257,0,0,0,43,36.19c2.68,1.8,5.19-2.53,2.52-4.32a251.05,251.05,0,0,1-42-35.41c-2.22-2.33-5.76,1.21-3.54,3.54Z" transform="translate(-603.36 -550.53)"/><path class="cls-1" d="M1690.65,1569.33a615.57,615.57,0,0,0,54.25,49.85c2.47,2,6-1.5,3.54-3.54a615.57,615.57,0,0,1-54.25-49.85c-2.24-2.32-5.77,1.22-3.54,3.54Z" transform="translate(-603.36 -550.53)"/><path class="cls-1" d="M1757.46,1607.54a299.28,299.28,0,0,0-62.74-70.25c-2.47-2-6,1.5-3.54,3.54a295.11,295.11,0,0,1,62,69.24c1.73,2.7,6.06.19,4.32-2.52Z" transform="translate(-603.36 -550.53)"/><path class="cls-1" d="M1767.7,1597.34l-65.28-89.06c-1.88-2.57-6.22-.08-4.32,2.52l65.28,89.06c1.88,2.57,6.22.08,4.32-2.52Z" transform="translate(-603.36 -550.53)"/><path class="cls-1" d="M1773.2,1585.71A937.59,937.59,0,0,0,1695,1469.07c-2-2.53-5.5,1-3.54,3.54a929.29,929.29,0,0,1,77.45,115.63c1.59,2.8,5.91.28,4.32-2.52Z" transform="translate(-603.36 -550.53)"/><path class="cls-1" d="M1781.76,1577.42q-34.88-67.19-74.29-131.88c-1.67-2.74-6-.23-4.32,2.52q39.39,64.65,74.29,131.88c1.48,2.86,5.8.33,4.32-2.52Z" transform="translate(-603.36 -550.53)"/><path class="cls-1" d="M1790.34,1561.1q-32-59.47-61.88-120c-1.43-2.88-5.74-.35-4.32,2.52q29.92,60.52,61.88,120c1.52,2.84,5.84.31,4.32-2.52Z" transform="translate(-603.36 -550.53)"/><path class="cls-1" d="M1789.27,1533.68l-36.48-73.76c-1.43-2.88-5.74-.35-4.32,2.52L1785,1536.2c1.43,2.88,5.74.35,4.32-2.52Z" transform="translate(-603.36 -550.53)"/><path class="cls-1" d="M1788.13,1502.25,1753,1431.82c-1.44-2.88-5.75-.35-4.32,2.52l35.13,70.43c1.44,2.88,5.75.35,4.32-2.52Z" transform="translate(-603.36 -550.53)"/><path class="cls-1" d="M1433.16,717.74l-5.3-7.35-3.93,3,7.3,7.35c2.27,2.29,5.81-1.25,3.54-3.54l-7.3-7.35c-1.94-2-5.63.67-3.93,3l5.3,7.35a2.57,2.57,0,0,0,3.42.9,2.52,2.52,0,0,0,.9-3.42Z" transform="translate(-603.36 -550.53)"/><path class="cls-1" d="M1422.25,692.71l8.71,11.46c1.92,2.53,6.27,0,4.32-2.52l-8.71-11.46c-1.92-2.53-6.27,0-4.32,2.52Z" transform="translate(-603.36 -550.53)"/><path class="cls-1" d="M1418.75,670.32l13.85,20.1c1.81,2.63,6.15.13,4.32-2.52l-13.85-20.1c-1.81-2.63-6.15-.13-4.32,2.52Z" transform="translate(-603.36 -550.53)"/><path class="cls-1" d="M1417,658.11,1429.19,674c1.93,2.52,6.27,0,4.32-2.52l-12.15-15.88c-1.93-2.52-6.27,0-4.32,2.52Z" transform="translate(-603.36 -550.53)"/><path class="cls-1" d="M1417.48,646.53l9.89,10.1c2.25,2.3,5.79-1.23,3.54-3.54L1421,643c-2.25-2.3-5.79,1.23-3.54,3.54Z" transform="translate(-603.36 -550.53)"/><path class="cls-1" d="M1417.4,626.63l11.87,14.11c2.07,2.47,5.6-1.09,3.54-3.54l-11.87-14.11c-2.07-2.47-5.6,1.09-3.54,3.54Z" transform="translate(-603.36 -550.53)"/><path class="cls-1" d="M1419.53,614.4a42.4,42.4,0,0,1,10.92,14c1.4,2.89,5.72.36,4.32-2.52a45.86,45.86,0,0,0-11.7-15.06c-2.44-2.06-6,1.46-3.54,3.54Z" transform="translate(-603.36 -550.53)"/><path class="cls-1" d="M1418,600.78a75.79,75.79,0,0,1,15.14,14.07c2,2.49,5.57-1.07,3.54-3.54a80.4,80.4,0,0,0-16.15-14.85c-2.64-1.85-5.15,2.49-2.52,4.32Z" transform="translate(-603.36 -550.53)"/><path class="cls-1" d="M1416.81,584.28a39.93,39.93,0,0,0,14.94,14.85c2.8,1.59,5.32-2.73,2.52-4.32a34.89,34.89,0,0,1-13.15-13.06c-1.61-2.79-5.93-.27-4.32,2.52Z" transform="translate(-603.36 -550.53)"/><path class="cls-1" d="M1417.28,570.72l42.15,39.84c2.34,2.21,5.88-1.32,3.54-3.54l-42.15-39.84c-2.34-2.21-5.88,1.32-3.54,3.54Z" transform="translate(-603.36 -550.53)"/><path class="cls-1" d="M1428.19,563.94l43.36,38.46c2.4,2.13,5.95-1.39,3.54-3.54l-43.36-38.46c-2.4-2.13-5.95,1.39-3.54,3.54Z" transform="translate(-603.36 -550.53)"/><path class="cls-1" d="M1447.28,566.72a283.84,283.84,0,0,0,48.39,42.53c2.65,1.84,5.15-2.49,2.52-4.32a278.2,278.2,0,0,1-47.38-41.75c-2.16-2.39-5.69,1.15-3.54,3.54Z" transform="translate(-603.36 -550.53)"/><path class="cls-1" d="M1457.52,564.41l50.08,39.9c2.49,2,6.05-1.53,3.54-3.54l-50.08-39.9c-2.49-2-6.05,1.53-3.54,3.54Z" transform="translate(-603.36 -550.53)"/><path class="cls-1" d="M1481.91,568.88a194.15,194.15,0,0,1,38.77,32.39c2.19,2.37,5.72-1.17,3.54-3.54a199.26,199.26,0,0,0-39.78-33.17c-2.73-1.73-5.24,2.6-2.52,4.32Z" transform="translate(-603.36 -550.53)"/><path class="cls-1" d="M1506.71,571.34a356.83,356.83,0,0,0,53.16,39.59c2.76,1.68,5.27-2.64,2.52-4.32a349.79,349.79,0,0,1-52.15-38.81c-2.39-2.15-5.93,1.38-3.54,3.54Z" transform="translate(-603.36 -550.53)"/><path class="cls-1" d="M1534.3,573.72a297.27,297.27,0,0,0,47.39,37.51c2.72,1.74,5.23-2.59,2.52-4.32a290.79,290.79,0,0,1-46.38-36.73c-2.31-2.24-5.85,1.29-3.54,3.54Z" transform="translate(-603.36 -550.53)"/><path class="cls-1" d="M1555.13,576.87A499.26,499.26,0,0,0,1603.86,619c2.56,1.94,5.06-2.4,2.52-4.32a489.53,489.53,0,0,1-47.71-41.35c-2.29-2.26-5.83,1.27-3.54,3.54Z" transform="translate(-603.36 -550.53)"/><path class="cls-1" d="M1572.6,579.44q24.85,23.18,50.82,45.1c2.44,2.06,6-1.46,3.54-3.54q-26-21.91-50.82-45.1c-2.35-2.19-5.89,1.33-3.54,3.54Z" transform="translate(-603.36 -550.53)"/><path class="cls-1" d="M1590,580.8a404.5,404.5,0,0,1,43.17,36c2.32,2.23,5.86-1.3,3.54-3.54a413.74,413.74,0,0,0-44.19-36.81c-2.61-1.89-5.11,2.45-2.52,4.32Z" transform="translate(-603.36 -550.53)"/><path class="cls-1" d="M1605.74,581.16a131.57,131.57,0,0,1,25.49,19.61c2.29,2.26,5.83-1.27,3.54-3.54a137,137,0,0,0-26.51-20.39c-2.78-1.64-5.29,2.68-2.52,4.32Z" transform="translate(-603.36 -550.53)"/><path class="cls-1" d="M1620,578.75l11.93,8.1c2.67,1.81,5.17-2.52,2.52-4.32l-11.93-8.1c-2.67-1.81-5.17,2.52-2.52,4.32Z" transform="translate(-603.36 -550.53)"/><path class="cls-1" d="M1435.76,712.27l15.63,16.36c2.23,2.33,5.76-1.21,3.54-3.54l-15.63-16.36c-2.23-2.33-5.76,1.21-3.54,3.54Z" transform="translate(-603.36 -550.53)"/><path class="cls-1" d="M1435.63,702.29a159.54,159.54,0,0,1,25,26.11c1.92,2.53,6.26,0,4.32-2.52a164.84,164.84,0,0,0-25.81-27.13c-2.45-2-6,1.47-3.54,3.54Z" transform="translate(-603.36 -550.53)"/><path class="cls-1" d="M1439,695.08l40.15,35.83c2.39,2.14,5.94-1.39,3.54-3.54l-40.15-35.83c-2.39-2.14-5.94,1.39-3.54,3.54Z" transform="translate(-603.36 -550.53)"/><path class="cls-1" d="M1460.61,703.41A203.81,203.81,0,0,0,1490,726.8c2.7,1.77,5.21-2.56,2.52-4.32a196.71,196.71,0,0,1-28.35-22.61c-2.32-2.23-5.86,1.3-3.54,3.54Z" transform="translate(-603.36 -550.53)"/><path class="cls-1" d="M1483.09,710.94,1505,729.09c2.46,2,6-1.48,3.54-3.54l-21.88-18.14c-2.46-2-6,1.48-3.54,3.54Z" transform="translate(-603.36 -550.53)"/><path class="cls-1" d="M1497.92,708.88a70.5,70.5,0,0,1,17.34,15.87c2,2.53,5.5-1,3.54-3.54a74.43,74.43,0,0,0-18.35-16.65c-2.71-1.75-5.22,2.58-2.52,4.32Z" transform="translate(-603.36 -550.53)"/><path class="cls-1" d="M1514.93,707.08,1535,727c2.29,2.27,5.83-1.27,3.54-3.54l-20.09-19.91c-2.29-2.27-5.83,1.27-3.54,3.54Z" transform="translate(-603.36 -550.53)"/><path class="cls-1" d="M1539.19,714.09l4.06,8c1.46,2.87,5.78.34,4.32-2.52l-4.06-8c-1.46-2.87-5.78-.34-4.32,2.52Z" transform="translate(-603.36 -550.53)"/></svg>