<svg id="Layer_7" data-name="Layer 7" xmlns="http://www.w3.org/2000/svg" viewBox="0 0 1587.53 1008.8"><defs><style>.cls-1{fill:#69b434;}.cls-2{fill:#589131;}.cls-3{fill:#fdd7a4;}.cls-4{fill:#ffec34;}.cls-5{fill:#1d1d1b;}</style></defs><title>5</title><path class="cls-1" d="M528.77,1441.43l144-162,60-269.95s78-150,156-150c0,0,126-54,251.95-42,0,0,100.44,24,188.19,96l279.72-97.72s-168,67.73-162,133.71-36,72-36,72,102,192,12,287.94c0,0-36,228-353.93,198,0,0-89.11,19.22-299.94-39.76,0,0-126,27.77-120-44.22,0,0-216,54-228,87S528.77,1441.43,528.77,1441.43Z" transform="translate(-419.95 -805.12)"/><path class="cls-2" d="M762.73,1363.44c-6,6-114,60-114,60s-10.81,39,30.62,44.22S762.73,1363.44,762.73,1363.44Z" transform="translate(-419.95 -805.12)"/><path class="cls-2" d="M1362.61,967.52l96.76-54.91s-.77,120.9-48.76,108.9S1362.61,967.52,1362.61,967.52Z" transform="translate(-419.95 -805.12)"/><circle class="cls-3" cx="549.83" cy="356.19" r="80.05"/><circle class="cls-3" cx="782.1" cy="237.37" r="75.01"/><path d="M907,1210.93s-4.08-86.56,129.81-93.43C1036.77,1117.49,1015.2,1196.38,907,1210.93Z" transform="translate(-419.95 -805.12)"/><path d="M1137.16,1089.2s-4.08-86.56,129.81-93.43C1267,995.77,1245.4,1074.66,1137.16,1089.2Z" transform="translate(-419.95 -805.12)"/><path class="cls-2" d="M740.39,995.77s184.07-79.95,273.87,10.06S1092,967.48,1092,967.48s-45-122.67,18-151.67S786.83,807.48,740.39,995.77Z" transform="translate(-419.95 -805.12)"/><ellipse class="cls-3" cx="1188.61" cy="711.86" rx="398.92" ry="296.94"/><path class="cls-4" d="M1896.78,1121.2c-.31-12.65-9.78-21.64-20.53-26.8-12.5-6-26-9.63-39.46-12.53-43.5-9.35-88.45-13-132.8-15.44-57-3.16-114.27-3.41-171.33-1-46.89,2-94.12,5.51-140.34,14-14.11,2.6-28.44,5.57-41.85,10.81-10.49,4.1-21.49,9.15-27.19,19.48-7.55,13.69.45,27.34,12.05,35.14,10,6.7,22.66,10.18,34.18,13.1,40.55,10.3,83.13,13.94,124.75,16.79,56.55,3.88,113.36,4.61,170,2.87,49.25-1.52,98.65-4.8,147.35-12.51,15.57-2.47,31.21-5.36,46.28-10,10.94-3.39,23.09-7.67,31.25-16.13a26.36,26.36,0,0,0,7.62-17.8c.22-9.16-8.21-17.92-17.5-17.5-9.67.43-17.26,7.69-17.5,17.5-.07,2.79,1.15-5.71.33-2.77-.65,2.32,2.6-5.21.89-2.32-1.42,2.41,3.67-3.73,1.42-1.85a13.19,13.19,0,0,0-1.79,1.67c2.83-3.7,3.39-2.4,1.28-1.09-.74.46-1.47.92-2.23,1.35-.92.52-1.86,1-2.81,1.47-.46.23-.94.43-1.4.66-3.3,1.64,3-1.14,1.47-.59a254.07,254.07,0,0,1-37.85,10.39c-8.33,1.64-16.71,3-25.1,4.28-2.19.32-4.37.63-6.56.94-4.58.65,3.9-.49-.75.1l-3.44.44q-8.23,1-16.49,1.93c-23.28,2.52-46.63,4.24-70,5.45-54.08,2.81-108.34,3-162.45.83-24.28-1-48.55-2.49-72.75-4.75q-16.2-1.51-32.34-3.55l-2.75-.36c-4.65-.6,3.83.55-.75-.1-2.19-.31-4.38-.62-6.56-.94q-6.84-1-13.66-2.18c-14.29-2.46-28.67-5.31-42.43-9.95-2.43-.82-4.78-1.81-7.18-2.68,6.59,2.36-.57-.36-2.43-1.4-.76-.43-1.49-.89-2.23-1.35-3-1.85.31-.31,1.28,1.09a9.81,9.81,0,0,0-1.66-1.53c-2.55-2.06,2.78,4.41,1.11,1.43-1.36-2.42,1.73,5.12,1,2.46s.27,5.66.37,2.92-1,5.59-.37,2.92-2.57,5.1-.84,2.18c1.44-2.44-3.63,3.71-1.42,1.85a13.07,13.07,0,0,0,1.63-1.53c-1.34,1.67-4,2.71-1.12,1,.9-.55,1.79-1.11,2.71-1.62,1.81-1,8.34-3.43,1.94-1.14,2.53-.91,5-1.95,7.55-2.8,6.28-2.1,12.7-3.77,19.15-5.27,7.59-1.76,15.24-3.23,22.91-4.55q6.82-1.17,13.66-2.18c2.19-.32,4.37-.63,6.56-.94,4.4-.63-2.76.35.07,0l4.82-.62c22.18-2.79,44.46-4.74,66.76-6.19,53.64-3.48,107.49-4.18,161.21-2.64,25.47.73,50.93,2,76.34,4q16.68,1.32,33.33,3.13,7.17.79,14.32,1.68l4.14.53c4.48.57-2.72-.39.08,0,2.62.37,5.25.74,7.87,1.13,15.8,2.36,31.62,5.14,47,9.45,5.32,1.49,10.41,3.41,15.61,5.25-6-2.12-2.15-.91-.66-.19,1,.5,2.08,1,3.08,1.6.76.43,1.49.89,2.23,1.35.27.17.53.38.8.55,2.78,1.64-3.24-3-1.76-1.36a12.43,12.43,0,0,0,1.46,1.39c2.19,1.73-2.83-4.05-1.42-1.85,1.76,2.76-1.46-4.27-.93-2.47.93,3.18-.35-5.42-.28-2.63.22,9.14,7.89,17.93,17.5,17.5C1888.58,1138.28,1897,1131,1896.78,1121.2Z" transform="translate(-419.95 -805.12)"/><path class="cls-5" d="M1405.68,1473c19,20.42,45.29,38.55,74.54,35.89,24.27-2.21,44-17.28,56.83-37.4,5.21-8.16-7.77-15.7-13-7.57-10,15.68-25.87,28.72-45.06,30.07-25.06,1.77-46.51-14.14-62.75-31.59-6.59-7.08-17.18,3.54-10.61,10.61Z" transform="translate(-419.95 -805.12)"/><path class="cls-5" d="M1684.48,1473c19,20.42,45.29,38.55,74.54,35.89,24.27-2.21,44-17.28,56.83-37.4,5.21-8.16-7.77-15.7-13-7.57-10,15.68-25.87,28.72-45.06,30.07-25.06,1.77-46.51-14.14-62.75-31.59-6.59-7.08-17.18,3.54-10.61,10.61Z" transform="translate(-419.95 -805.12)"/></svg>