<svg id="Layer_12" data-name="Layer 12" xmlns="http://www.w3.org/2000/svg" viewBox="0 0 1642.2 1022.52"><defs><style>.cls-1{fill:#1d1d1b;}.cls-2{fill:none;stroke:#1d1d1b;stroke-miterlimit:10;}</style></defs><title>55</title><path class="cls-1" d="M1617.83,1737.11c-135.73,30.62-275.77,25.09-413.71,17.81-69.11-3.65-138.24-7.79-207.47-8.26-71.8-.49-143.5,3.92-215.27,4.72-64.08.72-131.88,1.51-192.53-22.13-50-19.5-96.44-62.61-103.26-118.27-6.7-54.64,31.08-99.78,75.32-126.32,52.12-31.27,116.21-42.41,176.32-38.94a339.83,339.83,0,0,1,94.32,19.11c10,3.56,27,9.37,29.19,21.67.73,4.18-1.46,9.06-4.74,11.68-4.33,3.48-7.5.78-9.59-3.68-2.45-5.2-3.52-11-6.46-16a32.89,32.89,0,0,0-12.08-11.83c-9.47-5.37-21.11-6.25-31.56-3.64-25.57,6.39-36,32.78-31.18,57,5.6,28.2,29.33,46.54,54.56,57,24.09,10,51,15.61,77.12,14.1,23.74-1.37,48-8.89,64.68-26.62,17.5-18.59,22.84-44,18.36-68.73a107.59,107.59,0,0,0-38.34-63.76c-22.74-18-50.61-27.64-79-32.3-31.87-5.24-64-3.63-96-6.46-28.53-2.52-60.74-11.29-78-36.17-9.1-13.13-11.8-27.81-.67-40.5,9.59-10.93,22.45-19.58,35-26.8A183.88,183.88,0,0,1,787,1267.4a88.48,88.48,0,0,1,10.09-1.13c2-.07,5.1,1.23,6.89,1,0,0,.41-1.91,1-1.69-.78-.29-3.44.91-4.48,1.07-4.86.76-9.84.76-14.62,2-4.5,1.17-8.91,3.24-11.85,7-4.24,5.37-.92,11.6,2.62,16.48,12.68,17.46,38,18.37,56.51,10.93,25.57-10.28,37.37-36.57,49.07-59.64,6-11.8,12.4-23.34,21.42-33.13A114.11,114.11,0,0,1,933.82,1187a120.82,120.82,0,0,1,70.61-13.54c29.34,3.45,52.91,20.8,76.6,37,25.24,17.26,52.14,30,82.06,36.77,28.78,6.52,58.45,8.29,87.89,8.42,31.07.14,62.1-1.56,93.17-1.83,14.87-.13,29.8,0,44.65,1,11.06.77,26.34,2.67,31.79,14,5.2,10.75-1.42,24-9.79,31.06-11.16,9.43-26.51,12.52-40.37,15.66-6.81,1.54-6.69,10.24-1.79,13.71,20.73,14.69,48.82,14.84,71.18,3.79a64.83,64.83,0,0,0,26.14-23.47c5.56-8.89,11-28.8,25.23-24,12.28,4.18,18.24,18.27,15.25,30.26-3.57,14.3-14.33,25.56-24.45,35.68-13.37,13.37-26.94,26.54-40.42,39.8-9.91,9.75-25.16,23-20.68,38.86,4.25,15,21.05,16.4,34,17.87,18.85,2.14,37.81,3.19,56.75,4.15,35.09,1.78,70.42,3.15,104.82,10.89,30.76,6.91,61.42,18.72,85.67,39.39,21.66,18.46,37.18,44,41.82,72.21a88.78,88.78,0,0,1-4,45c-6.3,17.08-18.66,31.17-31.71,43.49-29,27.4-61.42,51.86-93.1,76.07-7.57,5.78-.1,18.82,7.57,13,29.45-22.51,58.73-45.48,86.67-69.86,24-20.93,45.34-45.68,49.77-78.29,4-29.2-4.82-59.31-21.07-83.6-17.52-26.19-43.6-45-72.32-57.29-67.55-28.94-142-21.86-213.31-30.36-4.79-.57-15.35-.73-17.06-6.58-2-6.78,7.3-14.88,11.45-19,14.27-14.14,28.66-28.16,43-42.28,19.45-19.21,44.4-48.47,26.53-76.78-7.61-12.05-22.24-21.66-36.9-17.21-16.51,5-19.52,22.65-28.9,34.7-17.21,22.11-51.68,26.64-74.27,10.63l-1.79,13.71c27-6.11,59.22-17.12,62.66-49.2a33.6,33.6,0,0,0-14.57-31.65c-10.81-7.5-24.82-8.82-37.58-9.51-61.93-3.37-124.12,5.2-185.93-1.54-30-3.27-59.95-10.86-86.52-25.51-26.94-14.85-49.89-36.35-79-47.33-47.48-17.93-105.36-3.11-139.83,33.7-10.66,11.39-18.29,24.74-25.26,38.59-7.1,14.1-13.85,29-24.83,40.59a45.31,45.31,0,0,1-31.2,14.24c-10.26.38-21.88-2.87-25.87-13.39l-.76,5.78c2.84-3.73,13.84-3,18-3.6,6.25-1,12.82-3.59,14.71-10.28,2.62-9.27-4.48-16.92-13.07-18.89-9.77-2.24-21.09.48-30.72,2.41a195.75,195.75,0,0,0-65.73,26.32c-17.48,11-40.51,26.63-43.41,48.88-2.95,22.61,13.66,43.48,30.84,56,18.71,13.63,41.51,19.52,64.18,22.08,25.27,2.85,50.79,1.69,76.11,3.86,23,2,46.47,6.12,67.71,15.52,36.21,16,65.88,51.09,61.87,92.76a58.86,58.86,0,0,1-27.92,44.39c-16,9.87-35.33,12.66-53.88,12.09a170.33,170.33,0,0,1-58.85-12.94c-19.59-8-38.85-21.45-44.87-42.79-4.9-17.37.3-38.21,19.63-43,7-1.74,15.09-1.21,21.19,2.84,7.49,5,8.24,14.18,12,21.7,4.23,8.53,12.83,14.6,22.61,12.46,8.24-1.8,14.61-8.73,17.69-16.3,8.18-20.08-9.86-36-26.56-43.32-44.67-19.55-96.65-26.52-145.09-24.48-46.58,2-94,12.39-135.6,33.91-35.68,18.47-69.29,46.56-85.83,84-17,38.44-12.61,81.18,8.43,117.14,22.31,38.14,58.89,64.65,99.86,79.79,46,17,96.08,20.16,144.73,21,55.22,1,110.42-1.4,165.61-3.1,54.82-1.69,109.56-2,164.37-.05,53.76,1.87,107.47,5.14,161.19,7.87,106.84,5.43,214.37,8.7,320.67-5.73q38.41-5.21,76.27-13.69c9.41-2.12,5.43-16.59-4-14.46Z" transform="translate(-470.23 -753.09)"/><path class="cls-1" d="M1589.9,1260.83a188.22,188.22,0,0,1-36.23,96.68,176.58,176.58,0,0,1-17.1,19.84c-6.11,6.15-13,11.84-17.38,19.46-8,13.93-2.8,30.15,11.67,36.89,15,7,31.61,4.92,47.47,2.74,19.65-2.7,39-7.25,58.28-11.77,38-8.9,77.14-18.11,116.24-11.23,37.15,6.53,72,23.11,109.87,26.12a112.51,112.51,0,0,0,51.72-7.57c15.42-6.33,29.23-15.5,42.7-25.22,13.25-9.55,26.26-19.55,40.58-27.47,14.81-8.2,30.55-12,46.94-15.62,16.19-3.6,32.5-8,45.65-18.61,12.8-10.3,20-25.75,21.73-41.87,3.73-33.86-20.16-63.32-51.48-73.42-14.05-4.53-33-6.43-44.85,4.34-5.43,4.93-8.38,12.39-6.06,19.56a21.57,21.57,0,0,0,14.18,13.55c6.65,1.87,13.33-.62,16.7-6.71h-13c1.79,3.43-.48,7.09-3.06,9.43a13,13,0,0,1-13.38,3c-11.09-3.67-17.32-15.69-21.81-25.59-5.44-12-10.1-24.58-19.77-33.95-8.33-8.07-19.25-13.11-30.57-15.3-12-2.31-24.08-2-36.1-.4-11.35,1.56-24.11,3.71-32.85,11.76-8.17,7.52-10,19.93-3.5,29.17A16.72,16.72,0,0,0,1880,1246a21.33,21.33,0,0,0,7.61-1.75,20,20,0,0,1,3.49-1.38c1-.16.53-.31,1.27.3.94.78,1.83,4.07,1.62,6.1-.4,3.9-3.46,5.43-7.23,5.73-11.44.91-21.48-9.81-26.71-18.8a49.78,49.78,0,0,1-6.28-32.84c2.24-13.23,9.3-26.46,4.06-39.92-4.52-11.59-16.08-17.25-27.73-19.2-14.42-2.42-29.5-2.21-44-1.28-30.83,2-61.12,8.83-90.72,17.4-16.48,4.77-32.81,10-49.11,15.39-13.84,4.53-28.12,9.37-40,18-11.07,8.09-19.7,19-22.68,32.65-2.84,13-.46,26.16,8.54,36.18,6.46,7.2,17-3.44,10.61-10.61-6.94-7.73-6.4-19.14-2.66-28.25,4.54-11.06,14.36-18.38,24.69-23.68,12-6.13,25.16-9.8,37.91-13.92,14.61-4.72,29.26-9.33,44.05-13.44,29.28-8.15,59.26-14.49,89.74-15.23,12.41-.3,27.48-1.33,39.21,3.71,13.18,5.66,8.55,19.2,5.6,30-6.55,24-1.21,50.9,18.24,67.74,9.27,8,22.58,13.79,34.85,9.68,10.61-3.55,16-13.59,14.22-24.4-1.48-9.19-8.59-17.19-18.45-16.29a19.93,19.93,0,0,0-5,1.19c-1.13.4-3.24,1.83-4.45,1.7s-.5.44-1.78-.77c-2.61-2.49-1.23-7,.78-9.17,3.61-3.9,9.37-5.38,14.36-6.55a117.56,117.56,0,0,1,16.74-2.68c11.37-1,23-.53,33.79,3.35,28.46,10.22,27.51,45.57,48.21,63.84,10.2,9,24.34,13.16,36.73,5.87,11.13-6.54,17.32-19.87,11.05-31.88-2.6-5-10.3-4.78-13,0-1.08,2,.73-.18.74,0,0-.15.1.45-.5-.08-1.32-1.17-3.34-1.61-3.88-3.61-1-3.9,5.48-6.42,8.47-7.19,12.7-3.28,27.8,2.27,38.49,8.93,23.88,14.87,34.52,46,19.72,71.13-15.42,26.17-51.15,25.46-76.84,33.84-28.69,9.36-51.34,29.54-75.95,46.12-12,8.06-24.61,15.41-38.57,19.39-15.26,4.35-31.42,4.38-47,1.88-33.64-5.38-65.16-19.59-98.82-24.91-35.55-5.62-70.94.38-105.66,8.28-17.57,4-35.06,8.4-52.75,11.82-15,2.91-32,6.92-47.37,4.68-9.24-1.35-21.85-6.74-15.9-18.16,3.54-6.79,10.1-11.73,15.41-17.07a192.68,192.68,0,0,0,15.37-17.51,202.41,202.41,0,0,0,39.27-86.11,212.71,212.71,0,0,0,3.08-23.51c.73-9.63-14.27-9.58-15,0Z" transform="translate(-470.23 -753.09)"/><path class="cls-1" d="M1515,961a462.55,462.55,0,0,1-27.38,116.18c-1.5,4,2.81,6.64,6.15,6.15l52.84-7.66c2.17-.31,3.63-2.82,3.67-4.82l.17-8c.14-6.44-9.86-6.44-10,0l-.17,8,3.67-4.82-52.84,7.66,6.15,6.15A472.53,472.53,0,0,0,1525,961c.65-6.4-9.36-6.35-10,0Z" transform="translate(-470.23 -753.09)"/><path class="cls-1" d="M1485,1151.68c13,24.56,43.14,32.63,69,28.11,32.38-5.67,57.3-31.27,79.18-53.82,4.48-4.62-2.58-11.7-7.07-7.07-19.92,20.53-41.92,43.7-70.85,50.45-22.47,5.24-50.14-1-61.59-22.71-3-5.69-11.64-.65-8.63,5Z" transform="translate(-470.23 -753.09)"/><path class="cls-1" d="M1507.57,1240.82c-25-11.51-50.82-23.33-71.65-41.66-21.76-19.14-33.69-44.12-38.24-72.52-4.86-30.35-2.22-61.65-.91-92.17L1401.27,929c.76-17.8,1.36-35.61,2.28-53.4.34-6.49,1.55-12.1,6.31-16.82,4.39-4.36,10.23-7.26,16-9.3,30.56-10.77,63.9-6.44,95.1-1.13,51.32,8.74,110.51,19.34,145.14,62.26,18.74,23.22,27.09,53.11,33.22,81.76A593.53,593.53,0,0,1,1712,1093.71q.5,13,.44,26.05c0,9.65,15,9.67,15,0a622.41,622.41,0,0,0-9.23-108.61c-5.55-31.89-12.68-64.87-29.05-93.17-30.48-52.66-90.45-70.53-146.64-81-33-6.12-67.09-12.42-100.63-7-14.64,2.37-30.41,7-41.6,17.19-12.94,11.81-11.76,28.9-12.44,45l-4.8,112.4c-1.44,33.76-4.43,67.92-2.45,101.7,1.82,31.18,9.23,61.94,28.91,86.85,18.29,23.15,44.54,38.49,70.67,51.25,6.57,3.21,13.2,6.29,19.84,9.35,8.71,4,16.34-8.91,7.57-13Z" transform="translate(-470.23 -753.09)"/><path class="cls-1" d="M1557,823.79q37.47,3.68,75.15,4.38,18.82.33,37.64-.1c11.72-.27,23.69-.24,35.35-1.61,13.8-1.62,34.35-10.14,28.07-27.87-2.88-8.11-11-12.72-18.54-15.84-9.73-4-19.82-7.37-29.86-10.53-41-12.9-84.26-20.48-127.33-18.94a268.93,268.93,0,0,0-62.39,9.36,235,235,0,0,0-29.6,10.45c-8.19,3.51-18.37,7.13-23.86,14.59-5.67,7.7-3.41,17.36,4.15,22.73,7.87,5.58,17.82,6.16,27.11,6.73l84.73,5.17c6.43.39,6.4-9.61,0-10l-66-4c-9.68-.59-19.91-.29-29.45-2.1-4.69-.89-15.09-3.4-13.71-10.12,1.44-7,14.22-10.89,19.77-13.33a216.21,216.21,0,0,1,26.32-9.53,251.93,251.93,0,0,1,55.38-9.55c37.87-2.34,75.89,2.75,112.48,12.48q14.07,3.74,27.88,8.37c8.32,2.78,17.17,5.33,24.93,9.47,5.3,2.82,12.37,8.75,7.39,15.13-4,5.17-12.58,6.84-18.7,7.49-23.61,2.52-48,2-71.75,1.57q-37.65-.66-75.15-4.38c-6.4-.63-6.36,9.38,0,10Z" transform="translate(-470.23 -753.09)"/><path class="cls-1" d="M1464.94,986.72c-2.08-11.67-13.66-22.45-26-18.4-10.56,3.45-17.75,17.67-8.64,26.47a16.49,16.49,0,0,0,13.36,4.28c4.52-.58,10.51-4,10.69-9.19.39-11.12-16.54-11.67-21.14-3.77-3.41,5.85-1.09,13.38,3.45,17.89,5.46,5.42,13.54,6.16,20.81,6.59v-10l-34.1.14c-5.43,0-7.06,8.9-1.33,9.82l20.05,3.24c6.3,1,9-8.62,2.66-9.64l-20.05-3.24-1.33,9.82,34.1-.14c6.48,0,6.38-9.62,0-10-5-.3-12.18-.37-15-5.29-.69-1.2-1.63-3.6-.15-4.52.81-.5,2-.42,2.2.42l.5-3.85c-3,5.31-12.49-.7-7-6.92,7.13-8,15.94,1.43,17.28,8.94,1.13,6.33,10.76,3.64,9.64-2.66Z" transform="translate(-470.23 -753.09)"/><path class="cls-1" d="M1606.4,977.7c-7.29-6-16.06-11.12-25.5-12.57-7.22-1.11-16.13.08-20.45,6.71-4,6.2-2.24,13.77,3.3,18.31,6,4.92,14.08,6.12,21.56,5.08,2.13-.3,3.67-2.84,3.67-4.82V976.27a5.07,5.07,0,0,0-3.67-4.82c-4.66-1-11.53-1.64-15.45,1.73-2.77,2.37-4.16,6.52-4.4,10a17.46,17.46,0,0,0,11.48,17.82l1.33-9.82-19.94.86a5,5,0,0,0-2.52,9.32,63.19,63.19,0,0,0,37.62,9.33c6.38-.44,6.43-10.45,0-10a53.94,53.94,0,0,1-32.57-8l-2.52,9.32,19.94-.86c5.8-.25,6.58-7.89,1.33-9.82-2.63-1-4.07-3.81-4.21-6.49-.25-4.87,3.21-4.69,7.26-3.82l-3.67-4.82V990.4l3.67-4.82a17.73,17.73,0,0,1-11.51-2.38c-3-1.94-4.25-5.25-.56-7.37,8.67-5,22.36,3.71,28.75,8.94,4.94,4,12.06-3,7.07-7.07Z" transform="translate(-470.23 -753.09)"/><path class="cls-1" d="M1418.81,975.22c-1.5,1.29-5.54-.45-5.68-2.41-.44-6.39-10.44-6.43-10,0,.76,11.07,14.35,16.69,22.75,9.48,4.89-4.2-2.21-11.24-7.07-7.07Z" transform="translate(-470.23 -753.09)"/><path class="cls-1" d="M1429.35,966.22a6.22,6.22,0,0,1-8.43-2c-3.34-5.49-12-.47-8.63,5a16.38,16.38,0,0,0,22.11,5.62c5.54-3.27.51-11.91-5-8.63Z" transform="translate(-470.23 -753.09)"/><path class="cls-1" d="M1589.25,974.21a25.64,25.64,0,0,0,26.07-6.52c4.52-4.59-2.55-11.67-7.07-7.07a15.58,15.58,0,0,1-16.34,3.95c-6.14-2-8.77,7.69-2.66,9.64Z" transform="translate(-470.23 -753.09)"/><path class="cls-1" d="M1600.58,978.65c6.71,10.26,23.2,10.21,29.29-.74,3.13-5.63-5.5-10.68-8.63-5-2.29,4.13-9.29,4.91-12,.74-3.51-5.36-12.17-.36-8.63,5Z" transform="translate(-470.23 -753.09)"/><path class="cls-1" d="M1693.31,1007.68c.54.35.77,1.31,1,1.43-.11,0,1-.63.73-.79,1.51.79,2,3,2.27,4.45.94,4.89-.08,10.55-.78,15.41a134.93,134.93,0,0,1-9.31,33.08l7.34-3-8.7-6.13a5,5,0,0,0-5,0,9.84,9.84,0,0,0-4.89,11.87c1.85,6.15,11.51,3.53,9.64-2.66l.29-.58h-5l8.7,6.13c2.94,2.07,6.21-.29,7.34-3a136.59,136.59,0,0,0,8.89-30.39c1.41-8.46,3.59-18.86.06-27.07-2.86-6.66-10.08-10.41-16.57-6.11-5.78,3.83-7.28,11.94-1,16,5.43,3.49,10.45-5.16,5-8.63Z" transform="translate(-470.23 -753.09)"/><path class="cls-1" d="M1318.27,1232.79q-21.62-28.14-43.25-56.27c-6.09-7.94-11.65-15.81-14-25.68a51.31,51.31,0,0,1,.77-26.05c1.75-6,6.34-19.45,14.36-18.44,8.3,1.05,16.8,8.71,22.49,14.33,11.49,11.35,18.24,33.08,35.85,36.45,5.81,1.11,11.29.23,13.82-5.62a32.43,32.43,0,0,0,2.69-14c-.35-9.79-4.68-19.48-12.45-25.6l-9.09,11.78c18.63,10.85,32,30.55,34.26,52.15,1.37,13.18-1.49,26.69,2.17,39.65,3.15,11.14,10.44,20.71,21.68,24.36,9.2,3,13.14-11.49,4-14.46-10.25-3.33-12.45-16.25-12.65-25.51-.28-12.77.74-25.14-2.57-37.66a85.44,85.44,0,0,0-39.31-51.48c-7.1-4.14-16,6.37-9.09,11.78s10.45,15.13,6.45,23.53l6.48-3.71c-6.62.87-10.77-4.45-14.28-9.44-4.75-6.76-8.91-13.78-14.53-19.9-10.26-11.18-29.35-27.14-45.6-19.92-7.6,3.37-12.49,11.51-15.78,18.82a67.7,67.7,0,0,0-5.88,24.36c-1,18.33,6.38,33.64,17.27,47.84q21.6,28.16,43.25,56.27c2.49,3.24,6.42,4.87,10.26,2.69,3.18-1.81,5.15-7.06,2.69-10.26Z" transform="translate(-470.23 -753.09)"/><path class="cls-1" d="M1253.35,1104c-2.54,1.47-9.43-2.21-12.39-2.7-6.63-1.1-13.22,1-16.46,7.31-2.63,5.07.13,12.95-5.3,15.93s-11.86,3.44-17.12,7.12c-5.82,4.08-10.3,10.65-8.5,18.05,1.92,7.94,10.18,13.69,15.76,19.1l39.94,38.7L1294.2,1251c6.94,6.72,17.55-3.87,10.61-10.61l-71.32-69.1L1215.65,1154c-1.43-1.38-7.28-5.48-7.51-7.7.05.5.21-.29.45-.69.68-1.11,2.32-2,3.42-2.55,5-2.66,11-3.2,15.88-6.29,5.72-3.6,8.7-8.9,9.36-15.56.14-1.46,1.32-6.05-.31-5.34,1.41-.61,4.61,1,6.06,1.41,6.07,1.86,12.12,3,17.91-.39,8.35-4.83.81-17.8-7.57-13Z" transform="translate(-470.23 -753.09)"/><path class="cls-1" d="M1391.92,1017.51c-47.21-11.33-95,2.69-138.82,20.05-41.45,16.41-83.49,36.91-128.83,38.61-36.12,1.36-77-9.51-96.93-42.26-15.86-26.1-16.45-61-3.14-88.27,7.1-14.55,18.71-28.91,33.92-35.47,11.62-5,34.38-7.91,39.57,7.6l11-8.47c-14.3-8-32.81-10.74-47.57-2.24-12.66,7.29-19.07,22.78-15.88,37,4,18,21.84,21.3,37.53,23.21,16.07,2,32.8,3,48.63-1.08,14.75-3.84,28.48-13.12,35.25-27.09,6.38-13.16,7-28.37,3.23-42.4-4-14.8-12.66-26.7-24.37-36.35-6-4.91-11.65-9.95-11.66-18.25,0-7.86,3.66-15.42,8.2-21.65,9.95-13.65,25.5-23,41.72-27.05a76,76,0,0,1,24.53-2,48.25,48.25,0,0,1,12.14,2.2,12.83,12.83,0,0,1,4.21,2.39,12.63,12.63,0,0,0,1.33,1.35c1.62,1-.75,1,1-1.09h10.61c-10.32-8.16-23.73-15.14-36.56-7.91-5.6,3.15-9.9,8.82-10.51,15.3-.67,7.14,3.2,13.17,7.64,18.4,15.79,18.58,44,26.12,67,18.31,25.09-8.51,38.81-32.68,61.26-45.17,17.89-9.95,39.64-11.76,59.38-7.07,22.74,5.4,43.14,19.13,54.36,39.92,4.59,8.5,17.54.93,13-7.57-19.42-36-62.64-54.23-102.34-48.74-21.51,3-38.89,13.32-54.6,27.93-8.66,8-16.93,16.78-27.3,22.67a46.71,46.71,0,0,1-30.16,5.55c-11.61-1.77-23.1-7.63-30.43-17-3.35-4.27-4-8.63,2.18-10.36,5.8-1.62,12.22,2.95,16.5,6.33,2.92,2.31,7.82,3.43,10.61,0,5.25-6.46,4.6-13.94-.94-20.08-5.2-5.76-12.43-8.13-19.87-9.34a90.41,90.41,0,0,0-45.27,4.06c-14.31,5.19-27.62,13.67-37.57,25.29-10.16,11.86-18.46,28.59-13.79,44.51,4.5,15.33,20.43,21.36,28.57,34.2,6.8,10.73,10.38,24.42,7.84,37-6.62,32.88-44.21,33.1-70.76,30.1-7.29-.82-18.32-.77-23.47-6.83-3.91-4.6-3.54-11.84-1.31-17.1,6.68-15.77,27.91-13.21,40.12-6.4,5.43,3,13.17-2,11-8.47-5.82-17.36-23.59-24-40.73-22.21-18.08,1.87-33.69,11.28-45.61,24.79-23.46,26.57-31.3,65.29-22.3,99.33,4.37,16.51,13,32.11,25.38,43.94,15.51,14.8,35.63,24.16,56.51,28.43,47.46,9.72,94-4.82,137.79-22.34,51.66-20.68,107.79-47.44,164.74-33.76,9.38,2.25,13.38-12.21,4-14.46Z" transform="translate(-470.23 -753.09)"/><path class="cls-1" d="M1482.1,797.08a1147.31,1147.31,0,0,0,116.12,15.47c18.55,1.51,37.36,3.18,56,3,13.35-.12,28.12-2.48,36.86-13.63,2.26-2.89,1.72-7.22-2.21-8.36q-46.3-13.4-93.72-22.39c-26-4.9-53-10-79.39-5.11a74.32,74.32,0,0,0-36.57,17.5c-4.8,4.3,2.29,11.36,7.07,7.07,23.32-20.9,58.27-18,86.93-13.25a981.87,981.87,0,0,1,113,25.82l-2.21-8.36c-8.37,10.68-22.92,11-35.39,10.63-18.12-.52-36.24-1.74-54.29-3.27q-55.11-4.67-109.55-14.79c-6.29-1.17-9,8.47-2.66,9.64Z" transform="translate(-470.23 -753.09)"/><path class="cls-1" d="M1053.45,1070.1q-42.24,29.16-86.1,55.86c-2.74,1.67-.24,6,2.52,4.32q43.85-26.69,86.1-55.86c2.63-1.82.13-6.15-2.52-4.32Z" transform="translate(-470.23 -753.09)"/><path class="cls-1" d="M1082.74,1081.6,1003,1130.4c-2.74,1.68-.23,6,2.52,4.32l79.74-48.8c2.74-1.68.23-6-2.52-4.32Z" transform="translate(-470.23 -753.09)"/><path class="cls-1" d="M1121.75,1084.7a851.26,851.26,0,0,0-89.61,57c-2.58,1.87-.09,6.21,2.52,4.32a851.26,851.26,0,0,1,89.61-57c2.82-1.55.3-5.87-2.52-4.32Z" transform="translate(-470.23 -753.09)"/><path class="cls-1" d="M1165.06,1077.6q-46,38.24-93.76,74.29c-2.54,1.91,0,6.26,2.52,4.32q48.26-36.42,94.77-75.08c2.48-2.06-1.08-5.58-3.54-3.54Z" transform="translate(-470.23 -753.09)"/><path class="cls-1" d="M1224.19,1056.76q-58.75,47.93-114.15,99.78c-2.35,2.2,1.19,5.73,3.54,3.54q55.36-51.82,114.15-99.78c2.49-2-1.06-5.55-3.54-3.54Z" transform="translate(-470.23 -753.09)"/><path class="cls-1" d="M1288.16,1032.57q-80.76,73.46-164.3,143.77c-2.46,2.07,1.09,5.6,3.54,3.54q83.53-70.3,164.3-143.77c2.39-2.17-1.16-5.7-3.54-3.54Z" transform="translate(-470.23 -753.09)"/><path class="cls-1" d="M1323.39,1024q-45.34,38.46-88.29,79.61c-2.33,2.23,1.21,5.76,3.54,3.54q42.93-41.14,88.29-79.61c2.46-2.08-1.09-5.61-3.54-3.54Z" transform="translate(-470.23 -753.09)"/><path class="cls-1" d="M1350.81,1021.29a669.18,669.18,0,0,0-82.28,76.65c-2.16,2.38,1.37,5.92,3.54,3.54a669.18,669.18,0,0,1,82.28-76.65c2.53-2-1-5.5-3.54-3.54Z" transform="translate(-470.23 -753.09)"/><path class="cls-1" d="M1376.27,1024.72a1067.17,1067.17,0,0,1-84.15,80.76c-2.44,2.1,1.11,5.62,3.54,3.54a1067.17,1067.17,0,0,0,84.15-80.76c2.19-2.35-1.33-5.89-3.54-3.54Z" transform="translate(-470.23 -753.09)"/><path class="cls-1" d="M1385.64,1041.14l-76.86,75.58c-2.3,2.26,1.24,5.79,3.54,3.54l76.86-75.58c2.3-2.26-1.24-5.79-3.54-3.54Z" transform="translate(-470.23 -753.09)"/><path class="cls-1" d="M1385.39,1068.92q-22.64,25.78-47.22,49.74c-2.31,2.25,1.23,5.78,3.54,3.54q24.57-24,47.22-49.74c2.12-2.41-1.41-6-3.54-3.54Z" transform="translate(-470.23 -753.09)"/><path class="cls-1" d="M1385,1100.46a386.66,386.66,0,0,1-32.27,29.72c-2.49,2,1.07,5.56,3.54,3.54a386.66,386.66,0,0,0,32.27-29.72c2.24-2.31-1.29-5.85-3.54-3.54Z" transform="translate(-470.23 -753.09)"/><path class="cls-1" d="M1388.08,1127.64a175.58,175.58,0,0,0-22.65,21.32c-2.13,2.4,1.39,5.95,3.54,3.54a175.58,175.58,0,0,1,22.65-21.32c2.53-2-1-5.5-3.54-3.54Z" transform="translate(-470.23 -753.09)"/><path class="cls-1" d="M1393.19,1149.71a237.37,237.37,0,0,1-23.33,18.52c-2.62,1.83-.13,6.16,2.52,4.32a247.66,247.66,0,0,0,24.35-19.31c2.4-2.16-1.15-5.69-3.54-3.54Z" transform="translate(-470.23 -753.09)"/><path class="cls-1" d="M1403.15,1169.68q-14.41,12.73-29.94,24.09c-2.57,1.88-.08,6.22,2.52,4.32q16-11.72,30.95-24.87c2.42-2.13-1.13-5.66-3.54-3.54Z" transform="translate(-470.23 -753.09)"/><path class="cls-1" d="M1416.95,1190.47l-38.47,30.41c-2.52,2,1,5.51,3.54,3.54l38.47-30.41c2.52-2-1-5.51-3.54-3.54Z" transform="translate(-470.23 -753.09)"/><path class="cls-1" d="M1429.24,1206.82a297.47,297.47,0,0,1-37.94,24.18c-2.84,1.52-.31,5.84,2.52,4.32a297.47,297.47,0,0,0,37.94-24.18c2.54-1.91.05-6.25-2.52-4.32Z" transform="translate(-470.23 -753.09)"/><path class="cls-1" d="M1445.47,1219.15a264.64,264.64,0,0,0-36.61,28.2c-2.37,2.18,1.17,5.71,3.54,3.54a257.15,257.15,0,0,1,35.6-27.41c2.7-1.73.2-6.06-2.52-4.32Z" transform="translate(-470.23 -753.09)"/><path class="cls-1" d="M1464.93,1229.44l-40,32c-2.51,2,1,5.53,3.54,3.54l40-32c2.51-2-1-5.53-3.54-3.54Z" transform="translate(-470.23 -753.09)"/><path class="cls-1" d="M1478.08,1239.61l-51.7,44.18c-2.45,2.09,1.1,5.62,3.54,3.54l51.7-44.18c2.45-2.09-1.1-5.62-3.54-3.54Z" transform="translate(-470.23 -753.09)"/><path class="cls-1" d="M1494.09,1242.61c-30.86,30.64-60.18,64.23-98.71,85.42-2.82,1.55-.3,5.87,2.52,4.32,38.93-21.4,68.56-55.26,99.73-86.2,2.29-2.27-1.25-5.81-3.54-3.54Z" transform="translate(-470.23 -753.09)"/><path class="cls-1" d="M1493.67,1278.22a197.77,197.77,0,0,1,25-17.29c2.78-1.62.26-5.95-2.52-4.32a206.07,206.07,0,0,0-26,18.07c-2.5,2,1.06,5.55,3.54,3.54Z" transform="translate(-470.23 -753.09)"/><path class="cls-1" d="M1508,1289.53a132.06,132.06,0,0,0,23.83-13.37c2.61-1.84.11-6.18-2.52-4.32a132.06,132.06,0,0,1-23.83,13.37c-2.95,1.27-.4,5.58,2.52,4.32Z" transform="translate(-470.23 -753.09)"/><path class="cls-1" d="M1518.53,1307a152.62,152.62,0,0,1,23.21-18c2.72-1.71.21-6-2.52-4.32a159.41,159.41,0,0,0-24.22,18.74c-2.35,2.21,1.19,5.74,3.54,3.54Z" transform="translate(-470.23 -753.09)"/><path class="cls-1" d="M1514.61,1327.1a250.42,250.42,0,0,1,33.73-26.65c2.68-1.76.17-6.1-2.52-4.32a258,258,0,0,0-34.74,27.43c-2.35,2.21,1.19,5.74,3.54,3.54Z" transform="translate(-470.23 -753.09)"/><path class="cls-1" d="M1477.13,1373.61l41.89-28.36c13.25-9,26.4-19.46,41.37-25.41,3-1.17,1.67-6-1.33-4.82-14.87,5.91-27.8,15.91-41,24.82l-43.5,29.45c-2.65,1.79-.15,6.13,2.52,4.32Z" transform="translate(-470.23 -753.09)"/><path class="cls-1" d="M1434.76,1434.13q56.42-47,116.12-89.85c2.59-1.86.1-6.2-2.52-4.32q-60.17,43.2-117.13,90.64c-2.47,2.06,1.08,5.58,3.54,3.54Z" transform="translate(-470.23 -753.09)"/><path class="cls-1" d="M1460.64,1442.2l58.14-46.83c2.51-2-1.05-5.54-3.54-3.54l-58.14,46.83c-2.51,2,1.05,5.54,3.54,3.54Z" transform="translate(-470.23 -753.09)"/><path class="cls-1" d="M1485.54,1443.06l32.48-26.63c2.49-2-1.07-5.56-3.54-3.54L1482,1439.52c-2.49,2,1.07,5.56,3.54,3.54Z" transform="translate(-470.23 -753.09)"/><path class="cls-1" d="M1508.43,1446.92l22.75-21.26c2.36-2.2-1.19-5.73-3.54-3.54l-22.75,21.26c-2.36,2.2,1.19,5.73,3.54,3.54Z" transform="translate(-470.23 -753.09)"/><path class="cls-1" d="M1533.1,1447.59a216.81,216.81,0,0,1,16.28-14.71c2.49-2-1.06-5.55-3.54-3.54a216.81,216.81,0,0,0-16.28,14.71c-2.28,2.28,1.26,5.81,3.54,3.54Z" transform="translate(-470.23 -753.09)"/><path class="cls-1" d="M1556.88,1448.41a82.3,82.3,0,0,0,11.6-13.28c1.86-2.64-2.48-5.14-4.32-2.52a76.34,76.34,0,0,1-10.81,12.26c-2.37,2.18,1.17,5.71,3.54,3.54Z" transform="translate(-470.23 -753.09)"/><path class="cls-1" d="M1578.55,1450a205.81,205.81,0,0,1,23.42-21.67c2.52-2-1-5.51-3.54-3.54a205.81,205.81,0,0,0-23.42,21.67c-2.18,2.36,1.34,5.9,3.54,3.54Z" transform="translate(-470.23 -753.09)"/><path class="cls-1" d="M1602.24,1452.71a517.15,517.15,0,0,1,42.65-34.42c2.58-1.87.09-6.21-2.52-4.32a529.26,529.26,0,0,0-43.66,35.21c-2.4,2.15,1.15,5.68,3.54,3.54Z" transform="translate(-470.23 -753.09)"/><path class="cls-1" d="M1626.36,1459.9a604.43,604.43,0,0,0,55.68-48.38c2.3-2.26-1.24-5.79-3.54-3.54a594.17,594.17,0,0,1-54.67,47.6c-2.52,1.93,0,6.28,2.52,4.32Z" transform="translate(-470.23 -753.09)"/><path class="cls-1" d="M1654.17,1468.66q27.34-29.17,57.29-55.7c2.41-2.14-1.13-5.66-3.54-3.54q-29.93,26.51-57.29,55.7c-2.2,2.35,1.33,5.89,3.54,3.54Z" transform="translate(-470.23 -753.09)"/><path class="cls-1" d="M1676.54,1474.63c21.28-17.21,37.1-41,61.55-54.22,2.83-1.53.31-5.85-2.52-4.32-24.85,13.43-40.93,37.51-62.56,55-2.5,2,1.05,5.54,3.54,3.54Z" transform="translate(-470.23 -753.09)"/><path class="cls-1" d="M1690.12,1485.54l84.29-65.62c2.54-2-1-5.49-3.54-3.54L1686.58,1482c-2.54,2,1,5.49,3.54,3.54Z" transform="translate(-470.23 -753.09)"/><path class="cls-1" d="M1707.44,1495.67l88.2-64.72c2.57-1.88.08-6.22-2.52-4.32l-88.2,64.72c-2.57,1.88-.08,6.22,2.52,4.32Z" transform="translate(-470.23 -753.09)"/><path class="cls-1" d="M1721.94,1512.36l93.41-68.45c2.57-1.88.08-6.22-2.52-4.32L1719.42,1508c-2.57,1.88-.08,6.22,2.52,4.32Z" transform="translate(-470.23 -753.09)"/><path class="cls-1" d="M1739.67,1534.24,1841.44,1452c2.5-2-1.05-5.54-3.54-3.54l-101.77,82.28c-2.5,2,1.05,5.54,3.54,3.54Z" transform="translate(-470.23 -753.09)"/><path class="cls-1" d="M1752,1563.5q63.13-44.85,122.92-94.14c2.48-2-1.07-5.57-3.54-3.54q-59.26,48.85-121.91,93.36c-2.6,1.85-.11,6.19,2.52,4.32Z" transform="translate(-470.23 -753.09)"/><path class="cls-1" d="M1756.12,1601.59a1550,1550,0,0,1,158.8-129.25c2.6-1.85.11-6.18-2.52-4.32a1559.71,1559.71,0,0,0-159.81,130c-2.36,2.2,1.18,5.73,3.54,3.54Z" transform="translate(-470.23 -753.09)"/><path class="cls-1" d="M1201.87,1151a462.32,462.32,0,0,0-39.36,47.85c-1.88,2.62,2.46,5.12,4.32,2.52a452.72,452.72,0,0,1,38.58-46.84c2.21-2.34-1.32-5.88-3.54-3.54Z" transform="translate(-470.23 -753.09)"/><path class="cls-1" d="M1221.27,1172.67l-37.14,45.06c-2,2.46,1.49,6,3.54,3.54l37.14-45.06c2-2.46-1.49-6-3.54-3.54Z" transform="translate(-470.23 -753.09)"/><path class="cls-1" d="M1241.19,1194.61q-19.8,24-37.36,49.79c-1.82,2.67,2.51,5.17,4.32,2.52q17.18-25.21,36.58-48.77c2-2.47-1.49-6-3.54-3.54Z" transform="translate(-470.23 -753.09)"/><path class="cls-1" d="M1257.3,1209.39a363.75,363.75,0,0,1-26.71,34.71c-2.1,2.42,1.42,6,3.54,3.54a374.49,374.49,0,0,0,27.49-35.72c1.81-2.67-2.52-5.18-4.32-2.52Z" transform="translate(-470.23 -753.09)"/><path class="cls-1" d="M1276.94,1223.8l-18,22.59c-2,2.49,1.53,6.05,3.54,3.54l18-22.59c2-2.49-1.53-6.05-3.54-3.54Z" transform="translate(-470.23 -753.09)"/><path class="cls-1" d="M1335.65,1121.05q-6.22,8.26-13.17,15.91c-2.15,2.38,1.37,5.93,3.54,3.54q7.36-8.14,14-16.92c1.94-2.57-2.4-5.07-4.32-2.52Z" transform="translate(-470.23 -753.09)"/><path class="cls-2" d="M1392.57,1234.72" transform="translate(-470.23 -753.09)"/></svg>