<svg id="Layer_8" data-name="Layer 8" xmlns="http://www.w3.org/2000/svg" viewBox="0 0 1279.13 1294.98"><defs><style>.cls-1{fill:#f6e93e;}.cls-2{fill:#fcee6c;}.cls-3{fill:#e5c093;}.cls-4{fill:#cbe9fc;}.cls-5{fill:#fdeff7;}.cls-6{fill:#fdd7a4;}.cls-7{fill:#fff;}.cls-8{opacity:0.3;}</style></defs><title>6</title><ellipse class="cls-1" cx="573.68" cy="219.89" rx="352" ry="118.55"/><ellipse cx="580.27" cy="278.06" rx="313.67" ry="105.64"/><path class="cls-2" d="M846.9,797.32l87,728.36,547,9.09,70.07-737.45S1174.9,961.32,846.9,797.32Z" transform="translate(-625.21 -577.44)"/><ellipse class="cls-3" cx="985.56" cy="773.74" rx="293.56" ry="183.59"/><ellipse class="cls-4" cx="985.56" cy="803.19" rx="252.49" ry="346.2"/><path class="cls-3" d="M1368.6,1712.62c28.55,114.75,485.35,137.69,485.35-38.25l50.38-313.64s-290.2,260.09-587.13,0Z" transform="translate(-625.21 -577.44)"/><ellipse class="cls-3" cx="411.3" cy="822.9" rx="411.3" ry="192"/><ellipse class="cls-5" cx="411.3" cy="822.9" rx="331.77" ry="154.88"/><path class="cls-6" d="M697.21,1778.33c40,120,680,144,680-40l70.59-328s-406.59,272-822.59,0Z" transform="translate(-625.21 -577.44)"/><polygon class="cls-3" points="265.47 759.92 178.46 775.17 289.47 805.02 289.47 881.55 382.48 835.13 460.49 881.55 475.49 820.73 607.5 848.1 553.5 784.86 661.51 759.92 550.5 732.55 580.27 689.88 502.49 714.3 490.74 672.56 419.99 705.18 411.3 668.02 373.48 717.34 297.92 677.43 301.47 735.59 238.47 714.3 265.47 759.92"/><polygon class="cls-7" points="265.47 755.69 178.46 770.74 289.47 800.19 289.47 875.7 382.48 829.89 460.49 875.7 475.49 815.69 607.5 842.7 553.5 780.3 661.51 755.69 550.5 728.68 580.27 686.58 502.49 710.68 490.74 669.5 419.99 701.68 411.3 665.02 373.48 713.68 297.92 674.3 301.47 731.68 238.47 710.68 265.47 755.69"/><polygon class="cls-6" points="265.47 748.15 178.46 763.79 289.47 794.41 289.47 872.91 382.48 825.29 460.49 872.91 475.49 810.53 607.5 838.6 553.5 773.73 661.51 748.15 550.5 720.08 580.27 676.31 502.49 701.36 490.74 658.54 419.99 692 411.3 653.88 373.48 704.48 297.92 663.54 301.47 723.19 238.47 701.36 265.47 748.15"/><polygon class="cls-3" points="902.43 489.49 855.61 500.17 915.34 521.08 915.34 574.7 965.38 542.18 1007.36 574.7 1015.43 532.09 1086.46 551.27 1057.4 506.96 1115.51 489.49 1055.79 470.31 1071.8 440.42 1029.96 457.53 1023.63 428.29 985.56 451.14 980.89 425.11 960.54 459.66 919.88 431.7 921.8 472.44 887.9 457.53 902.43 489.49"/><polygon class="cls-7" points="902.43 487.35 855.61 498.04 915.34 518.95 915.34 572.57 965.38 540.05 1007.36 572.57 1015.43 529.96 1086.46 549.13 1057.4 504.83 1115.51 487.35 1055.79 468.18 1071.8 438.29 1029.96 455.4 1023.63 426.15 985.56 449.01 980.89 422.97 960.54 457.53 919.88 429.56 921.8 470.31 887.9 455.4 902.43 487.35"/><polygon class="cls-6" points="902.43 485.38 855.61 496.06 915.34 516.97 915.34 570.59 965.38 538.07 1007.36 570.59 1015.43 527.98 1086.46 547.16 1057.4 502.85 1115.51 485.38 1055.79 466.2 1071.8 436.31 1029.96 453.42 1023.63 424.18 985.56 447.03 980.89 421 960.54 455.55 919.88 427.59 921.8 468.33 887.9 453.42 902.43 485.38"/><g class="cls-8"><path class="cls-7" d="M1079.95,806.86c41.29-6.72,82.62-13.22,123.88-20.17,16.18-2.73,35.18-10.91,34.91-30.32s-25.28-26.23-40.66-28.4c-8.45-1.19-18.48-2.11-26.71.68-7.49,2.54-15.48,9.12-13.61,18,2,9.55,12.84,9,20.76,9a96.61,96.61,0,0,0,21.91-2.6c28.91-6.74,55.34-26.89,68.65-53.55a85.84,85.84,0,0,0,8.19-24.24,37.86,37.86,0,0,0-6.54-29.07,112.67,112.67,0,0,0-44.29-37.4l-1.91,14.62A159.66,159.66,0,0,0,1293.17,591c3.38-2.7,2.82-8.5,0-11.31-3.34-3.34-7.93-2.71-11.31,0a143,143,0,0,1-61.59,28.21c-6.51,1.29-8,11.73-1.91,14.62a100.68,100.68,0,0,1,33.86,25.64c4.33,5.06,9.43,11.16,9.8,18.1.35,6.53-1.94,13.4-4.25,19.43-8.41,22-27.89,40-49.73,48.22-12.61,4.77-26.37,6.94-39.79,5l5.59,5.59q-.81-2.64-.62,1l.66-.47c.5.11,3.64-1.52,4.34-1.64,4.32-.75,9.12-.47,13.46-.14a65.86,65.86,0,0,1,24.95,6.9c2.66,1.39,5.76,2.94,6.12,6.23.31,2.82-1.48,5.81-3.38,7.73-5.32,5.4-14.33,6.26-21.39,7.43-40.74,6.73-81.51,13.27-122.27,19.91-4.27.69-6.64,6-5.59,9.84,1.25,4.54,5.56,6.28,9.84,5.59Z" transform="translate(-625.21 -577.44)"/></g><g class="cls-8"><path class="cls-7" d="M1239.78,824.24a145.46,145.46,0,0,0,39.43-4.81c11-3,22.15-8.21,26.64-19.37,3.8-9.42,1.57-21.23-8.08-26.09a17.51,17.51,0,0,0-24.52,9.15c-2.13,5.32,3.15,9.64,7.71,10.13,18.3,2,33.49-13.56,38-30.16,5.71-20.85-4.77-41.88-14.21-59.88-4.78-9.12-18.6-1-13.82,8.08,7,13.33,15.84,29.17,13.23,44.82-1.9,11.34-10.94,22.45-23.23,21.14l7.71,10.13c-.8,2-.32.06,1.41.66,1.07.37,1.14.62,1.52,1.69,1.8,5.07-4.46,9.57-8.13,11.36-12.93,6.31-29.58,7.33-43.71,7.16-10.3-.12-10.31,15.88,0,16Z" transform="translate(-625.21 -577.44)"/></g><g class="cls-8"><path class="cls-7" d="M1105.09,774.22c13.1-7.88,26.62-16.69,32.61-31.42,5.58-13.7,2.86-29.32-9.22-38.46-9.31-7-21.22-8.6-32.16-11.68-4.81-1.35-9.85-3-13.71-6.28-4.87-4.19-6.54-10.82-7-17-1.23-17.93,4.41-35.24,15.12-49.57,2.59-3.46.56-8.94-2.87-10.95-4.08-2.39-8.35-.6-10.95,2.87A89.21,89.21,0,0,0,1060,655.21c-1.62,14.19-.3,31.11,10.45,41.7,8.36,8.23,20.12,10.86,31.12,13.59,8.91,2.21,21.4,4.91,23,15.83,2.35,16.49-15.73,27-27.52,34.07-8.81,5.3-.78,19.14,8.08,13.82Z" transform="translate(-625.21 -577.44)"/></g></svg>