<svg id="Layer_15" data-name="Layer 15" xmlns="http://www.w3.org/2000/svg" viewBox="0 0 1449.97 1151.67"><defs><style>.cls-1{fill:#1d1d1b;}</style></defs><title>66</title><path class="cls-1" d="M1379.12,1446.24q14.05-67.12,25.38-134.77c1.92-11.55,3.6-23.15,5.57-34.69,1.83-10.68,5-21.05,7.59-31.55,5.58-22.38,8.73-45.61,12.79-68.31q6.72-37.58,13.05-75.24c1.59-9.44-12.86-13.5-14.46-4q-11.39,67.64-24,135.06c-2.07,11.05-5.59,21.76-8,32.74s-3.77,22.25-5.58,33.36q-5.55,34-11.86,67.95-7,37.81-14.95,75.45c-2,9.42,12.48,13.45,14.46,4Z" transform="translate(-539.18 -647.77)"/><path class="cls-1" d="M562,1157.69c1,7.25,5,14.48,7.66,21.28q4.58,11.78,9.06,23.61t8.65,23.61c2.46,6.95,5.89,13.42,8.56,20.27,6.11,15.69,11.47,31.67,17.61,47.36,5.89,15.07,11,30.65,16.16,46,2.41,7.14,5.93,13.88,8.61,20.92,2.91,7.64,5.29,15.51,8,23.23,5.36,15.36,10.86,30.66,16.4,46,11,30.41,22.11,60.77,32.48,91.4q7.86,23.21,15,46.64,3.61,11.88,7,23.82c2,7.25,3.66,14.69,6.54,21.67a71.24,71.24,0,0,0,23.06,30c11.56,8.69,25.21,11.78,39,15,31.73,7.5,63.95,12.63,96.12,17.84,33,5.34,66.36,10,99.77,12.2,67.59,4.4,135.3-.46,202.62-6.6q12.69-1.16,25.37-2.36c9.53-.9,9.62-15.9,0-15-66,6.2-132.27,12.19-198.65,10.31-33.13-.94-65.83-4.46-98.61-9.12-31.85-4.53-63.69-9.54-95.24-15.81-15.48-3.07-31.28-6.11-46.38-10.75a52.17,52.17,0,0,1-27.24-20.28c-8-11.75-10.39-26-14.29-39.42q-6.73-23.2-14.31-46.15c-9.9-30.16-20.66-60-31.47-89.88-5.41-14.95-10.84-29.89-16.17-44.86s-9.84-30.73-16.07-45.46c-6-14.08-10.87-28.46-16.1-42.83-5.6-15.36-11.34-30.64-17-46-2.87-7.86-5.37-15.91-8.46-23.68-2.59-6.54-5.87-12.71-8.24-19.36-5.52-15.53-11.41-30.94-17.38-46.3-2.64-6.79-6.68-14-7.66-21.28-.54-4-5.7-6.23-9.23-5.24-4.33,1.21-5.79,5.18-5.24,9.23Z" transform="translate(-539.18 -647.77)"/><path class="cls-1" d="M576.49,1153.7c-4.12-14,13.55-22.69,25-23.38,18.23-1.1,34.7,13.61,49.31,22.54,17.7,10.82,37.44,16.77,58.31,14.47a89.66,89.66,0,0,0,28.68-8c9-4.27,16.92-10.49,24.78-16.6,13.09-10.18,27.48-20.75,45-17.48,15.27,2.85,28.37,12.8,40.81,21.51,13.56,9.51,27.59,19.4,43.86,23.63,15,3.91,30.7,2.05,45.19-3.1,29.14-10.37,53.27-32.08,83-40.71,13.14-3.81,26.65-3.42,38.61,3.75,14.39,8.63,24.47,22.87,37.89,32.81,12.4,9.18,27.14,13,42.33,10.08,13-2.49,24.75-9.69,35.28-17.34,11.16-8.1,21.53-17.23,32.69-25.34,9.52-6.92,20.36-14.18,32.35-15.6,12.63-1.49,23.75,5.46,33,14.44,11.26,10.95,21.33,24.07,36.57,29.66,18.25,6.69,35.45-2.4,49.33-13.84,7.15-5.9,13.69-12.53,21-18.26a92,92,0,0,1,27.48-14.78,95.57,95.57,0,0,1,29.3-4.94c9.64-.12,9.67-15.12,0-15a109.17,109.17,0,0,0-60.49,18.93c-8.15,5.64-15.3,12.48-22.71,19-6.5,5.73-13.6,11.91-22,14.67-16.26,5.37-28.33-6-38.84-16.83-11-11.36-22.46-23.64-38.57-27.11-27.83-6-51.64,14.38-71.8,30.5-18.15,14.51-42.6,35.91-67.26,24.92-15.5-6.91-25.78-22-38.76-32.38-12.69-10.14-27.8-16.14-44.23-14.66-31.54,2.84-57.59,24.57-85.17,38-13,6.33-27.16,11.23-41.82,10.12-16.06-1.21-30.29-10.84-43.15-19.74-13.6-9.41-27-19.76-42.92-25-17.42-5.78-35.05-2.34-50.3,7.47-16.68,10.73-30.16,25.34-50,30.47-20.18,5.22-40.18,1.11-57.86-9.39-16.58-9.84-32.77-23.63-52.67-25.67-15.84-1.62-33.91,5.67-42.65,19.33a27.72,27.72,0,0,0-3.11,22.88c2.72,9.24,17.2,5.31,14.46-4Z" transform="translate(-539.18 -647.77)"/><path class="cls-1" d="M636.46,1141.4,696,1342.11l59.51,200.71,33.44,112.78c2.74,9.23,17.22,5.3,14.46-4L743.87,1450.9l-59.51-200.71-33.44-112.78c-2.74-9.23-17.22-5.3-14.46,4Z" transform="translate(-539.18 -647.77)"/><path class="cls-1" d="M789.86,1120.08l41,215.89,41,215.89,23.09,121.68c1.8,9.47,16.26,5.46,14.46-4l-41-215.89-41-215.89L804.33,1116.1c-1.8-9.47-16.26-5.46-14.46,4Z" transform="translate(-539.18 -647.77)"/><path class="cls-1" d="M1025.82,1118.47l4.6,218.58,4.6,218.58,2.6,123.76c.2,9.64,15.2,9.67,15,0l-4.6-218.58-4.6-218.58-2.6-123.76c-.2-9.64-15.2-9.67-15,0Z" transform="translate(-539.18 -647.77)"/><path class="cls-1" d="M1182.63,1644.49q-1.62,14.88-3.38,29.75c-.38,3.19,4.62,3.16,5,0q1.78-14.87,3.38-29.75c.35-3.19-4.65-3.17-5,0Z" transform="translate(-539.18 -647.77)"/><path class="cls-1" d="M1237.5,1109.57c-9.68,101.64-22.76,202.9-34.37,304.32q-5,43.24-9.42,86.53c-.41,4,3.74,7.5,7.5,7.5,4.4,0,7.09-3.45,7.5-7.5,10.38-101.53,23.62-202.74,34.83-304.18q4.79-43.31,9-86.68c.91-9.6-14.09-9.54-15,0Z" transform="translate(-539.18 -647.77)"/><path class="cls-1" d="M588.41,1117.36c-16.94-1-29.07-16.16-33-31.64-4.71-18.65,3.83-37.66,16.17-51.44,29.87-33.34,78-43.66,120.69-47.19,99.94-8.27,199.93,8.63,299.82,9.79,55.8.65,112-3.68,165.84-19.14,9.26-2.66,5.32-17.14-4-14.46-102.39,29.4-209.89,17-314.46,10.26-51.7-3.31-104.14-6-155.8-.65-45.11,4.66-95.72,17.49-125.7,54.29-14.78,18.15-23.38,41.94-16.32,65.11,6.46,21.21,23.91,38.72,46.73,40.08,9.64.57,9.61-14.43,0-15Z" transform="translate(-539.18 -647.77)"/><path class="cls-1" d="M1406.37,1106c36.62-18.85,51.6-62.58,47-101.71a123,123,0,0,0-22.71-58.56c-14.25-19.64-32.84-35.5-53.42-48.21-20.84-12.88-43.61-22.57-66.73-30.56a520,520,0,0,0-84.93-21.83,433,433,0,0,0-89.37-5.55c-30.62,1.31-61.05,5.33-91.45,9.08L835.26,874.5c-4,.5-7.5,3.09-7.5,7.5,0,3.67,3.45,8,7.5,7.5l178.88-22.06c57.87-7.14,116.36-16.79,174.82-11.91a458.17,458.17,0,0,1,83.37,15.29c24.35,6.7,48.55,14.76,71.39,25.62,38.55,18.32,78,47.07,90.81,89.83,11.46,38.19,2.33,87.19-35.74,106.79-8.59,4.42-1,17.37,7.57,13Z" transform="translate(-539.18 -647.77)"/><path class="cls-1" d="M698.84,968.8c-19-1.69-34.32-15.82-42.36-32.42-8.86-18.28-7.13-39.83.92-58.08,19.06-43.23,64.42-64,106.51-78.56,85-29.45,174.5-42.87,259.78-71.35,47.54-15.87,93.7-36.66,134.2-66.5l-11.29-6.48c-2.35,61.42-2.79,130.6,43.51,177.56a108.38,108.38,0,0,0,38.44,25.19c9,3.47,12.92-11,4-14.46-53-20.4-69.88-82.58-71.67-133.72-.64-18.19,0-36.39.73-54.57.2-5.3-6.68-9.87-11.29-6.48C1074,705.18,980.42,727.15,889.9,749.16c-45.84,11.15-91.81,22.39-136.27,38.32S663.07,827.1,643.5,872.9c-9.87,23.09-11,48.9.33,71.69,10.6,21.38,31,37.08,55,39.21,9.61.85,9.56-14.15,0-15Z" transform="translate(-539.18 -647.77)"/><path class="cls-1" d="M642.51,1072.8c4.62,4.71,13.3,5.16,16.92-1.05s-2.59-13.67-9.28-11.92c-3.11.81-1.79,5.64,1.33,4.82,3.32-.87,5.23,3.41,2.79,5.61s-6.16,1.11-8.22-1c-2.26-2.3-5.79,1.23-3.54,3.54Z" transform="translate(-539.18 -647.77)"/><path class="cls-1" d="M644.55,1059.72c-1.31.7-2.78.16-3.91,1.3a6.91,6.91,0,0,0-1.82,3.36c-.61,3,.89,5.7,3.06,7.65,2.39,2.15,5.93-1.38,3.54-3.54-1.26-1.13-2.48-2.59-1.1-4.09l-1.77.73a9.31,9.31,0,0,0,4.53-1.1c2.84-1.51.32-5.83-2.52-4.32Z" transform="translate(-539.18 -647.77)"/><path class="cls-1" d="M732.28,999.88c1,3.75,3,7.6,6.6,9.4a5.41,5.41,0,0,0,3.33.76,6.81,6.81,0,0,0,2.05-1.07,6.54,6.54,0,0,0,3.22-5c1-8.7-11.68-11.09-14.52-3.16-1.08,3,3.74,4.34,4.82,1.33a2.31,2.31,0,0,1,2.71-1.27c1.75.28,2.09,1.64,1.87,3.17a2.22,2.22,0,0,1-.32.57q.91-.56-.19,0c-.21.12-1.14.7-1.08.82q1.49-.14.78-.34a2.43,2.43,0,0,1-.59-.28,5.21,5.21,0,0,1-1.19-.91,11.28,11.28,0,0,1-2.68-5.28c-.82-3.11-5.64-1.79-4.82,1.33Z" transform="translate(-539.18 -647.77)"/><path class="cls-1" d="M927.34,1084.58c-3.41,4-.63,8.05,3.63,9.77,4.57,1.84,10.44.64,13.57-3.26,6-7.45-3.4-18.15-11.76-14.62-2.92,1.23-1.64,6.07,1.33,4.82,3.21-1.35,8.09,1.13,7.3,5.13-.47,2.34-3.17,3.57-5.32,3.76-.72.06-6.19-.93-5.22-2.06,2.08-2.43-1.44-6-3.54-3.54Z" transform="translate(-539.18 -647.77)"/><path class="cls-1" d="M1037.27,899.66c3.52,9.79,20.77,8.69,21.68-2.24.9-10.75-16-15.17-21-5.85-1.51,2.84,2.81,5.37,4.32,2.52,2.43-4.59,11.89-2.86,11.71,2.68s-10.14,6.48-11.9,1.56c-1.08-3-5.91-1.71-4.82,1.33Z" transform="translate(-539.18 -647.77)"/><path class="cls-1" d="M1118.62,874.13c0-2.7.14-5.74-2.77-7-3.31-1.44-7.55,0-9.77,2.7-2.05,2.45,1.47,6,3.54,3.54a4.34,4.34,0,0,1,4.29-1.66c-.48-.11-.2-.43-.27.05a19.39,19.39,0,0,0,0,2.37c0,3.22,5,3.22,5,0Z" transform="translate(-539.18 -647.77)"/><path class="cls-1" d="M1104.64,873.72c-1.58,2-3.41,4.22-2.72,7,.58,2.34,3.26,3.25,5.39,3.71,4.77,1,9.53-.54,11.2-5.43,1-3.05-3.79-4.36-4.82-1.33-1.09,3.21-5.69,2.19-7.88.82L1107,880c-.38-1.05.6-1.92,1.22-2.71,2-2.5-1.55-6.06-3.54-3.54Z" transform="translate(-539.18 -647.77)"/><path class="cls-1" d="M1183,873.83c-4.7,1.36-9.74,4.7-10.81,9.81-1.13,5.44,3.68,10.23,8.67,11.37,9.93,2.27,15.32-9.59,9.92-17.06-1.87-2.58-6.21-.09-4.32,2.52,2.44,3.37,2,10-3.41,9.82-3-.1-6.92-3-5.76-6.28,1-2.85,4.33-4.58,7-5.36,3.09-.89,1.77-5.72-1.33-4.82Z" transform="translate(-539.18 -647.77)"/><path class="cls-1" d="M1258.6,901.68c-3.15,3.28-4.09,7.67-.93,11.32a13,13,0,0,0,11.94,4.06c7.89-1.74,6.18-11.45,3.8-16.89-1.29-2.94-5.6-.4-4.32,2.52.92,2.1,2.77,7.34.36,9.12-1.59,1.18-4.51.23-6-.57-2.8-1.47-3.59-3.64-1.3-6s-1.3-5.86-3.54-3.54Z" transform="translate(-539.18 -647.77)"/><path class="cls-1" d="M1141.24,931.18a12.94,12.94,0,0,0,2.78,16.14c5.21,4.56,12.76,3.05,16.86-2.2s3.63-12.37-1.66-16.4a12.89,12.89,0,0,0-16.16.29c-2.46,2.09,1.1,5.61,3.54,3.54,6.12-5.2,15.73,2.65,10.33,9.53-5.8,7.39-15.75-1.07-11.36-8.36,1.66-2.76-2.66-5.28-4.32-2.52Z" transform="translate(-539.18 -647.77)"/><path class="cls-1" d="M1214,976.7c3.41,2.56-1.51,10.52-5.14,7.57-3.1-2.52-.13-8.82,3.66-8.33,3.18.41,3.15-4.6,0-5-9.29-1.19-13.62,14-5.38,18.12,9.48,4.8,17.47-10.6,9.39-16.67-2.57-1.93-5.07,2.41-2.52,4.32Z" transform="translate(-539.18 -647.77)"/><path class="cls-1" d="M1380.44,985.87c-5.15-6.64-14.86,1.72-13.56,8.4,2,10.14,15.72,7.62,21.26,2.6a2.45,2.45,0,0,0,.64-2.43A20.26,20.26,0,0,0,1375,981.34c-3.1-.87-4.43,4-1.33,4.82a15,15,0,0,1,10.34,9.6l.64-2.43c-2.76,2.5-10,5.28-12.49.8-1.36-2.46,2.64-7.49,4.79-4.72,2,2.54,5.49-1,3.54-3.54Z" transform="translate(-539.18 -647.77)"/><path class="cls-1" d="M1356.36,929.89a5.14,5.14,0,0,0-4.67,4.11,6.3,6.3,0,0,0,1.61,5.9c2.1,2,5.1,1.27,6.86-.79a7,7,0,0,0,.95-7.85c-1.5-2.85-5.82-.32-4.32,2.52a1.85,1.85,0,0,1-.29,1.93,2.62,2.62,0,0,1-.46.44q.94.11.5,0-.27-.08.12.05l.1.09a1.83,1.83,0,0,1-.21-.22c.13.5,0-.37.13.2,0-.17-.11-.35-.15-.52.1.4,0-.8,0-.32a3.4,3.4,0,0,1,.16-.63c-.18.49.05-.06.12-.15-.28.36.29,0-.17.2s.29,0-.25,0a2.58,2.58,0,0,0,2.5-2.5,2.52,2.52,0,0,0-2.5-2.5Z" transform="translate(-539.18 -647.77)"/><path class="cls-1" d="M786.23,830.47a13,13,0,0,0,13-7.15A12,12,0,0,0,796,809.16c-7.77-6.11-20.34,2.15-16.77,11.71,1.11,3,5.95,1.7,4.82-1.33-1.86-5,4.62-9.87,8.91-6.45a7,7,0,0,1,1.66,8.33c-1.6,3.17-5,4.33-8.36,4s-3.19,4.73,0,5Z" transform="translate(-539.18 -647.77)"/><path class="cls-1" d="M844.46,799.33c-4.15-3.32-11.1-1.37-12.37,4.11-1.32,5.71,6.2,6.26,9.85,4.89s9.12-5.61,6.42-10.09c-2-3.27-7.35-4-10.8-3.66-3.18.28-3.21,5.29,0,5a12.87,12.87,0,0,1,4.9.47c.44.13,1.31.32,1.58.7-.05-.08.2-.73-.1.12a3.53,3.53,0,0,1-1,1.2,8.45,8.45,0,0,1-2.88,1.62,22.92,22.92,0,0,1-2.87.35l-.47-.12a.72.72,0,0,0,.2.62c.21-.06.62-.94.84-1.13.75-.67,2.22-1.28,3.13-.54,2.49,2,6-1.52,3.54-3.54Z" transform="translate(-539.18 -647.77)"/><path class="cls-1" d="M830.8,833.28c-.35,5.28,6.88,8.75,10.68,4.95a6.52,6.52,0,0,0-4.13-10.8,2.51,2.51,0,0,0-2.5,2.5,2.56,2.56,0,0,0,2.5,2.5c-.46-.06.33.29.21.19a2,2,0,0,1,.45.7,2,2,0,0,1,.14.83,1.29,1.29,0,0,1-.21.55,1.07,1.07,0,0,1-1.15,0,1.34,1.34,0,0,1-1-1.44c.21-3.21-4.79-3.2-5,0Z" transform="translate(-539.18 -647.77)"/><path class="cls-1" d="M1080.34,720.05c-5.66-.15-6.54,9.07-1.3,10.48a6.92,6.92,0,0,0,7.35-2.94,6.71,6.71,0,0,0-.28-8.09,2.51,2.51,0,0,0-3.54,0,2.56,2.56,0,0,0,0,3.54,2.93,2.93,0,0,1,.08.69,2.61,2.61,0,0,1-.5,1.2,3.32,3.32,0,0,1-.67.66c-.54.25-.6.12-1.34.08.06,0,.75.22.26,0a.49.49,0,0,1,.26.22q.16.23,0-.09a2.62,2.62,0,0,1-.09-.47c0-.17.09-.69,0-.25,0-.18.24-.63.05-.23.12-.25,0-.06,0-.06-.18.06-.8.2-.29.22,3.22.09,3.22-4.91,0-5Z" transform="translate(-539.18 -647.77)"/><path class="cls-1" d="M1051.68,746.55a4,4,0,0,0-2.57-3.67,4.77,4.77,0,0,0-3.11.11c-2.26.82-4.6,3.06-3.88,5.7.9,3.31,5.22,3.71,7.69,2s4.07-5.42,2.19-8.24a2.56,2.56,0,0,0-3.42-.9,2.52,2.52,0,0,0-.9,3.42l.19.29c-.12-.19,0,.25,0,0s0,.29,0,.3c0-.44,0,0,0,0s-.15.39,0,0a4.8,4.8,0,0,1-.28.49c-.2.32.23-.25,0,0a5.24,5.24,0,0,1-.4.4c.38-.34-.56.3-.32.19s-.16,0-.21.05c-.29.07.36-.16-.07,0-.24.09-.22-.1,0,0-.35-.15-.06,0,.09.1.32.28-.17-.28.1.13s0-.36.2.39c0,0,0,.64.05.3,0,.05-.1.64,0,.3-.15.58-.18.37,0,.17s-.35.28-.13.16.65-.53.13-.19c.2-.13.43-.24.62-.38s-.5.12-.08,0a1.34,1.34,0,0,0,.3-.09c.38-.2-.42,0-.16,0a1.21,1.21,0,0,1,.27,0c.29,0-.66-.15-.22,0a1.92,1.92,0,0,1-.68-.4c.24.21-.12-.14-.16-.2q-.2-.55-.12-.26t0-.25a2.57,2.57,0,0,0,2.5,2.5,2.52,2.52,0,0,0,2.5-2.5Z" transform="translate(-539.18 -647.77)"/><path class="cls-1" d="M1106,775.9c5.61,8.82,22.21,5.3,22.29-5.77s-16.18-15.05-22.12-6.39c-1.82,2.66,2.51,5.16,4.32,2.52,3.19-4.65,13-2,12.81,3.86s-10,8-13,3.25c-1.72-2.71-6-.2-4.32,2.52Z" transform="translate(-539.18 -647.77)"/><path class="cls-1" d="M1127.9,708.22c-2.45,5.41,5.21,8,8.66,4.54,2.11-2.14,1.49-5.44-.3-7.57-2-2.33-5.19-3.27-8.13-3.46-3.21-.21-3.2,4.8,0,5a7.3,7.3,0,0,1,3.78,1.21,2.52,2.52,0,0,1,.89,1c.07.17.07.4.13.55-.1-.26-.05.05,0-.06s.21-.43,0-.13c.18-.28-.16-.06.15-.1-.22,0-.45.14-.67.18.52-.08-.19,0-.26,0s-.33,0-.36-.09c.29.54.74.74.41,1.48a2.58,2.58,0,0,0-.9-3.42,2.52,2.52,0,0,0-3.42.9Z" transform="translate(-539.18 -647.77)"/><path class="cls-1" d="M1134.35,682.88c3.22,0,3.22-5,0-5s-3.22,5,0,5Z" transform="translate(-539.18 -647.77)"/><path class="cls-1" d="M586.18,1130.48l.15-.24-3.93.51c.24.2-3.45,13.26-3.74,14.52l-3.7,16c-.72,3.13,4.09,4.47,4.82,1.33l5-21.6c.77-3.32,4.46-11,1.15-13.75a2.55,2.55,0,0,0-3.93.51l-.15.24c-1.76,2.7,2.56,5.21,4.32,2.52Z" transform="translate(-539.18 -647.77)"/><path class="cls-1" d="M597.26,1122a512.33,512.33,0,0,0-13.77,54c-.62,3.14,4.2,4.49,4.82,1.33a512.33,512.33,0,0,1,13.77-54c1-3.08-3.86-4.39-4.82-1.33Z" transform="translate(-539.18 -647.77)"/><path class="cls-1" d="M610.64,1124l-14.11,79.43c-.56,3.15,4.26,4.5,4.82,1.33l14.11-79.43c.56-3.15-4.26-4.5-4.82-1.33Z" transform="translate(-539.18 -647.77)"/><path class="cls-1" d="M626.45,1129.42q-7.34,40.73-16.71,81c-.73,3.13,4.09,4.47,4.82,1.33q9.37-40.31,16.71-81c.57-3.15-4.25-4.5-4.82-1.33Z" transform="translate(-539.18 -647.77)"/><path class="cls-1" d="M637.73,1138l-21.24,104c-.64,3.14,4.18,4.48,4.82,1.33l21.24-104c.64-3.14-4.18-4.48-4.82-1.33Z" transform="translate(-539.18 -647.77)"/><path class="cls-1" d="M647.88,1162.14q-10.19,44-21.28,87.86c-.79,3.12,4,4.45,4.82,1.33q11.09-43.82,21.28-87.86c.72-3.13-4.09-4.47-4.82-1.33Z" transform="translate(-539.18 -647.77)"/><path class="cls-1" d="M656,1192.52l-18,72.84c-.77,3.12,4,4.46,4.82,1.33l18-72.84c.77-3.12-4-4.46-4.82-1.33Z" transform="translate(-539.18 -647.77)"/><path class="cls-1" d="M665.41,1220.48a498,498,0,0,0-24.91,80.31c-.69,3.14,4.13,4.48,4.82,1.33a498,498,0,0,1,24.91-80.31c1.21-3-3.63-4.28-4.82-1.33Z" transform="translate(-539.18 -647.77)"/><path class="cls-1" d="M672.23,1244.58c-4,26.63-17.81,50.62-20.72,77.49-.35,3.19,4.66,3.17,5,0,2.85-26.38,16.66-50,20.54-76.16.47-3.15-4.35-4.51-4.82-1.33Z" transform="translate(-539.18 -647.77)"/><path class="cls-1" d="M681.38,1273.85,672,1306.34c-2.94,10.23-4.89,21.73-9.81,31.2-1.48,2.85,2.83,5.38,4.32,2.52,4.86-9.35,6.87-20.41,9.76-30.49l9.89-34.39c.89-3.1-3.93-4.42-4.82-1.33Z" transform="translate(-539.18 -647.77)"/><path class="cls-1" d="M688.43,1302.63a412.66,412.66,0,0,1-19.19,54c-1.27,2.92,3,5.47,4.32,2.52a421.85,421.85,0,0,0,19.7-55.21c.87-3.1-4-4.43-4.82-1.33Z" transform="translate(-539.18 -647.77)"/><path class="cls-1" d="M697.89,1332.61a396.13,396.13,0,0,0-26.17,53.59c-1.19,3,3.64,4.29,4.82,1.33a387.58,387.58,0,0,1,25.66-52.4c1.63-2.78-2.69-5.3-4.32-2.52Z" transform="translate(-539.18 -647.77)"/><path class="cls-1" d="M706.37,1358.93a350.09,350.09,0,0,0-28.16,49.19c-1.36,2.9,2.95,5.44,4.32,2.52a350.09,350.09,0,0,1,28.16-49.19c1.82-2.66-2.51-5.16-4.32-2.52Z" transform="translate(-539.18 -647.77)"/><path class="cls-1" d="M711.51,1380.1a384.85,384.85,0,0,1-24.57,41c-1.83,2.66,2.5,5.16,4.32,2.52a384.85,384.85,0,0,0,24.57-41c1.48-2.85-2.83-5.38-4.32-2.52Z" transform="translate(-539.18 -647.77)"/><path class="cls-1" d="M719.38,1404.61c-7,14.28-19,25.42-24.45,40.5-1.1,3,3.73,4.33,4.82,1.33,5.32-14.6,17.2-25.45,23.94-39.3,1.4-2.88-2.91-5.42-4.32-2.52Z" transform="translate(-539.18 -647.77)"/><path class="cls-1" d="M728.81,1429c-2.31.57-3.48,2-4.78,3.86-2.52,3.64-4.67,7.65-7,11.44l-14,22.87c-1.68,2.75,2.64,5.27,4.32,2.52l11-18,5-8.17c1.35-2.21,4.16-9.08,6.77-9.73,3.12-.77,1.8-5.59-1.33-4.82Z" transform="translate(-539.18 -647.77)"/><path class="cls-1" d="M732.36,1448.26a339.69,339.69,0,0,0-21.12,33.4c-1.56,2.82,2.76,5.34,4.32,2.52a339.69,339.69,0,0,1,21.12-33.4c1.88-2.62-2.46-5.12-4.32-2.52Z" transform="translate(-539.18 -647.77)"/><path class="cls-1" d="M739.59,1472.85l-24.36,33.74c-1.89,2.61,2.45,5.11,4.32,2.52l24.36-33.74c1.89-2.61-2.45-5.11-4.32-2.52Z" transform="translate(-539.18 -647.77)"/><path class="cls-1" d="M745.69,1492.93q-12.75,17.72-26.54,34.64c-2,2.47,1.5,6,3.54,3.54q14.2-17.41,27.32-35.65c1.88-2.62-2.45-5.11-4.32-2.52Z" transform="translate(-539.18 -647.77)"/><path class="cls-1" d="M752.6,1513.3A319.74,319.74,0,0,1,727,1548.8c-2,2.46,1.48,6,3.54,3.54a329.16,329.16,0,0,0,26.35-36.52c1.7-2.74-2.62-5.25-4.32-2.52Z" transform="translate(-539.18 -647.77)"/><path class="cls-1" d="M759.18,1540.33l-25,39.77c-1.72,2.73,2.61,5.24,4.32,2.52l25-39.77c1.72-2.73-2.61-5.24-4.32-2.52Z" transform="translate(-539.18 -647.77)"/><path class="cls-1" d="M765,1559.86a212.94,212.94,0,0,1-25.67,39.88c-2,2.47,1.5,6,3.54,3.54a218.51,218.51,0,0,0,26.45-40.89c1.43-2.87-2.88-5.41-4.32-2.52Z" transform="translate(-539.18 -647.77)"/><path class="cls-1" d="M770.15,1581.42A197.87,197.87,0,0,1,751,1613.11c-1.91,2.59,2.42,5.09,4.32,2.52a197.87,197.87,0,0,0,19.12-31.69c1.39-2.89-2.92-5.42-4.32-2.52Z" transform="translate(-539.18 -647.77)"/><path class="cls-1" d="M777.9,1601.09l-21.66,29.1c-1.47,2,1.45,4.88,3.42,3.42l1.87-1.39c2.55-1.9.06-6.24-2.52-4.32l-1.87,1.39,3.42,3.42,21.66-29.1c1.92-2.58-2.42-5.08-4.32-2.52Z" transform="translate(-539.18 -647.77)"/><path class="cls-1" d="M782.13,1618.76l-15.62,21.8c-1.88,2.62,2.46,5.12,4.32,2.52l15.62-21.8c1.88-2.62-2.46-5.12-4.32-2.52Z" transform="translate(-539.18 -647.77)"/><path class="cls-1" d="M787,1634.19a65.79,65.79,0,0,1-9.82,12c-2.31,2.24,1.22,5.78,3.54,3.54a71.44,71.44,0,0,0,10.6-13.05c1.73-2.73-2.6-5.24-4.32-2.52Z" transform="translate(-539.18 -647.77)"/><path class="cls-1" d="M747.63,1141.54l-35.34,51.33c-1.83,2.66,2.5,5.16,4.32,2.52l35.34-51.33c1.83-2.66-2.5-5.16-4.32-2.52Z" transform="translate(-539.18 -647.77)"/><path class="cls-1" d="M775.14,1124.36A453.58,453.58,0,0,0,727,1202.82c-1.39,2.89,2.92,5.42,4.32,2.52a453.58,453.58,0,0,1,48.19-78.46c2-2.56-2.39-5-4.32-2.52Z" transform="translate(-539.18 -647.77)"/><path class="cls-1" d="M791.81,1117.64a854.76,854.76,0,0,0-63.3,120.88c-1.25,2.93,3.06,5.48,4.32,2.52a854.76,854.76,0,0,1,63.3-120.88c1.72-2.73-2.6-5.24-4.32-2.52Z" transform="translate(-539.18 -647.77)"/><path class="cls-1" d="M799.68,1142.21q-30.24,51.63-58,104.65c-1.49,2.85,2.82,5.38,4.32,2.52q27.76-53,58-104.65c1.63-2.78-2.69-5.3-4.32-2.52Z" transform="translate(-539.18 -647.77)"/><path class="cls-1" d="M806.75,1187.39l-51.51,77c-1.79,2.68,2.53,5.19,4.32,2.52l51.51-77c1.79-2.68-2.53-5.19-4.32-2.52Z" transform="translate(-539.18 -647.77)"/><path class="cls-1" d="M813.3,1219.61c-6.94,12.49-17.23,23.23-25.22,35.08a347.77,347.77,0,0,0-22.3,38.19c-1.44,2.87,2.87,5.4,4.32,2.52a347.77,347.77,0,0,1,22.3-38.19c8-11.87,18.27-22.57,25.22-35.08,1.56-2.81-2.75-5.34-4.32-2.52Z" transform="translate(-539.18 -647.77)"/><path class="cls-1" d="M821.1,1255a575,575,0,0,1-53.62,66.29c-2.2,2.34,1.33,5.89,3.54,3.54a583.74,583.74,0,0,0,54.4-67.3c1.84-2.65-2.5-5.15-4.32-2.52Z" transform="translate(-539.18 -647.77)"/><path class="cls-1" d="M825.61,1286.86a738.08,738.08,0,0,1-48.55,62.63c-2.1,2.42,1.43,6,3.54,3.54a750.1,750.1,0,0,0,49.34-63.64c1.84-2.65-2.5-5.15-4.32-2.52Z" transform="translate(-539.18 -647.77)"/><path class="cls-1" d="M834.25,1328q-24.49,27.82-50.07,54.66c-2.22,2.33,1.31,5.87,3.54,3.54q25.58-26.83,50.07-54.66c2.12-2.41-1.4-6-3.54-3.54Z" transform="translate(-539.18 -647.77)"/><path class="cls-1" d="M840.06,1357.22q-24.77,30.09-50.51,59.37c-2.12,2.41,1.41,6,3.54,3.54q25.74-29.27,50.51-59.37c2-2.47-1.49-6-3.54-3.54Z" transform="translate(-539.18 -647.77)"/><path class="cls-1" d="M847.32,1393.76a443.78,443.78,0,0,0-49.91,52.67c-2,2.49,1.52,6,3.54,3.54a443.78,443.78,0,0,1,49.91-52.67c2.4-2.15-1.14-5.68-3.54-3.54Z" transform="translate(-539.18 -647.77)"/><path class="cls-1" d="M853.23,1433.31c.42,1.2-4.61,5.71-5.45,6.64l-5.28,5.8-11.22,12.32L809.48,1482c-2.16,2.37,1.36,5.92,3.54,3.54l26.41-29L852,1442.76c2.57-2.82,7.61-6.43,6.08-10.78-1.06-3-5.89-1.72-4.82,1.33Z" transform="translate(-539.18 -647.77)"/><path class="cls-1" d="M862.8,1471.22Q840.15,1494,816,1515.07c-2.43,2.12,1.12,5.64,3.54,3.54q24.18-21.11,46.84-43.85c2.27-2.28-1.26-5.82-3.54-3.54Z" transform="translate(-539.18 -647.77)"/><path class="cls-1" d="M869.47,1507.2a586.82,586.82,0,0,0-51.53,42.54c-2.37,2.19,1.17,5.71,3.54,3.54A575.56,575.56,0,0,1,872,1511.51c2.57-1.88.08-6.22-2.52-4.32Z" transform="translate(-539.18 -647.77)"/><path class="cls-1" d="M874.57,1542.67c-1.39,4.4-6.47,7.2-9.91,9.89q-6.08,4.76-12.12,9.56-12.09,9.6-24,19.37c-2.49,2,1.06,5.55,3.54,3.54q13.45-11,27.06-21.77,6.43-5.09,12.89-10.13c3.29-2.58,6.1-5,7.39-9.13,1-3.08-3.85-4.39-4.82-1.33Z" transform="translate(-539.18 -647.77)"/><path class="cls-1" d="M881.24,1575.56a288,288,0,0,0-46,40.75c-2.16,2.38,1.36,5.92,3.54,3.54a282,282,0,0,1,45-40c2.6-1.85.1-6.19-2.52-4.32Z" transform="translate(-539.18 -647.77)"/><path class="cls-1" d="M887.6,1604.11c-5.07,9.32-16.33,15.18-24.67,21.3l-27.5,20.17c-2.57,1.88-.08,6.22,2.52,4.32l30.64-22.47c8.16-6,18.33-11.63,23.32-20.79,1.54-2.83-2.78-5.35-4.32-2.52Z" transform="translate(-539.18 -647.77)"/><path class="cls-1" d="M893.95,1635.57a385.29,385.29,0,0,1-33.53,23.12c-2.74,1.68-.23,6,2.52,4.32a385.29,385.29,0,0,0,33.53-23.12c2.51-1.94,0-6.28-2.52-4.32Z" transform="translate(-539.18 -647.77)"/><path class="cls-1" d="M897,1655.24l-19.48,10.39c-2.84,1.51-.32,5.83,2.52,4.32l19.48-10.39c2.84-1.51.32-5.83-2.52-4.32Z" transform="translate(-539.18 -647.77)"/><path class="cls-1" d="M945.44,1153.76c-13.43,14.14-30.31,24.64-41.91,40.54-1.9,2.6,2.44,5.1,4.32,2.52,11.31-15.51,28-25.73,41.13-39.53,2.22-2.33-1.31-5.87-3.54-3.54Z" transform="translate(-539.18 -647.77)"/><path class="cls-1" d="M990.18,1131.89q-39,43.21-75.14,88.91c-2,2.5,1.54,6.06,3.54,3.54q36.1-45.68,75.14-88.91c2.15-2.38-1.37-5.93-3.54-3.54Z" transform="translate(-539.18 -647.77)"/><path class="cls-1" d="M1024.35,1118.65q-48.92,62-98.69,123.33c-2,2.48,1.51,6,3.54,3.54q49.77-61.32,98.69-123.33c2-2.5-1.54-6.06-3.54-3.54Z" transform="translate(-539.18 -647.77)"/><path class="cls-1" d="M1028.52,1152.45q-41.34,47.6-79.63,97.72c-2,2.56,2.39,5,4.32,2.52q37.89-49.58,78.85-96.71c2.1-2.42-1.42-6-3.54-3.54Z" transform="translate(-539.18 -647.77)"/><path class="cls-1" d="M1031,1187.39c-31.33,36.54-65.06,71.35-91.32,111.9-1.75,2.71,2.57,5.22,4.32,2.52,26-40.19,59.49-74.67,90.54-110.89,2.08-2.43-1.44-6-3.54-3.54Z" transform="translate(-539.18 -647.77)"/><path class="cls-1" d="M1030.75,1232.74c-32.92,39.12-63.81,79.89-93.9,121.21-1.9,2.6,2.44,5.1,4.32,2.52,29.84-41,60.47-81.4,93.12-120.19,2.06-2.45-1.46-6-3.54-3.54Z" transform="translate(-539.18 -647.77)"/><path class="cls-1" d="M1034,1277.42c-32.24,38.55-63.07,78.27-95.27,116.85-2,2.45,1.47,6,3.54,3.54,32.21-38.58,63-78.3,95.27-116.85,2.05-2.45-1.47-6-3.54-3.54Z" transform="translate(-539.18 -647.77)"/><path class="cls-1" d="M1034.34,1311.16A964.86,964.86,0,0,1,932.65,1445c-2.16,2.38,1.37,5.92,3.54,3.54a972.4,972.4,0,0,0,102.48-134.84c1.72-2.73-2.6-5.24-4.32-2.52Z" transform="translate(-539.18 -647.77)"/><path class="cls-1" d="M1035,1361.76q-52.45,69.17-101.88,140.56c-1.84,2.65,2.49,5.15,4.32,2.52q49.5-71.31,101.88-140.56c1.94-2.56-2.4-5.06-4.32-2.52Z" transform="translate(-539.18 -647.77)"/><path class="cls-1" d="M1036.37,1414.34c-39.92,43-74.81,90.57-117.73,130.76-2.35,2.2,1.19,5.73,3.54,3.54,42.92-40.19,77.81-87.77,117.73-130.76,2.19-2.36-1.34-5.9-3.54-3.54Z" transform="translate(-539.18 -647.77)"/><path class="cls-1" d="M1038,1465.87,946.7,1572.42c-2.08,2.43,1.44,6,3.54,3.54l91.25-106.55c2.08-2.43-1.44-6-3.54-3.54Z" transform="translate(-539.18 -647.77)"/><path class="cls-1" d="M1037.82,1514.22q-43.91,50.65-89.25,100c-2.17,2.37,1.35,5.91,3.54,3.54q45.33-49.39,89.25-100c2.1-2.42-1.42-6-3.54-3.54Z" transform="translate(-539.18 -647.77)"/><path class="cls-1" d="M1039.7,1563.88c-28.64,23.86-53.86,51.73-84.49,73.18-2.62,1.83-.12,6.17,2.52,4.32,31-21.7,56.53-49.83,85.5-74,2.47-2.06-1.08-5.58-3.54-3.54Z" transform="translate(-539.18 -647.77)"/><path class="cls-1" d="M1040,1600.51a662.15,662.15,0,0,1-64.9,51.46c-2.62,1.82-.13,6.16,2.52,4.32a672.5,672.5,0,0,0,65.91-52.25c2.4-2.16-1.15-5.68-3.54-3.54Z" transform="translate(-539.18 -647.77)"/><path class="cls-1" d="M1042.42,1630.19c-16.75,15.83-33.53,31.62-51,46.61-2.45,2.1,1.1,5.62,3.54,3.54,17.5-15,34.29-30.79,51-46.61,2.34-2.21-1.2-5.75-3.54-3.54Z" transform="translate(-539.18 -647.77)"/><path class="cls-1" d="M1040.27,1658.31q-12.26,10.44-25,20.25c-2.52,1.93,0,6.28,2.52,4.32q13.29-10.18,26-21c2.45-2.09-1.1-5.61-3.54-3.54Z" transform="translate(-539.18 -647.77)"/><path class="cls-1" d="M1204.06,1120.48q-35.71,36.33-73.72,70.27c-2.41,2.15,1.14,5.67,3.54,3.54q38-33.93,73.72-70.27c2.26-2.3-1.28-5.84-3.54-3.54Z" transform="translate(-539.18 -647.77)"/><path class="cls-1" d="M1239.11,1115.89c-37.19,35.86-73.68,72.5-106.55,112.4-2,2.47,1.49,6,3.54,3.54,32.87-39.91,69.37-76.55,106.55-112.4,2.32-2.24-1.22-5.77-3.54-3.54Z" transform="translate(-539.18 -647.77)"/><path class="cls-1" d="M1234.55,1165.15c-42.12,38-84.63,75.61-126,114.47-2.35,2.21,1.19,5.74,3.54,3.54,41.36-38.86,83.87-76.45,126-114.47,2.39-2.16-1.15-5.69-3.54-3.54Z" transform="translate(-539.18 -647.77)"/><path class="cls-1" d="M1229.77,1217.85q-52.14,45.45-105.61,89.33c-2.49,2,1.07,5.56,3.54,3.54q53.47-43.88,105.61-89.33c2.43-2.12-1.12-5.64-3.54-3.54Z" transform="translate(-539.18 -647.77)"/><path class="cls-1" d="M1223.19,1273.35c-29.76,26.83-59.57,53.61-90.59,79-2.49,2,1.06,5.56,3.54,3.54,31-25.37,60.84-52.15,90.59-79,2.4-2.16-1.15-5.69-3.54-3.54Z" transform="translate(-539.18 -647.77)"/><path class="cls-1" d="M1219,1316.78q-37.42,35.92-75.56,71.08c-2.37,2.19,1.17,5.71,3.54,3.54q38.14-35.15,75.56-71.08c2.33-2.23-1.21-5.77-3.54-3.54Z" transform="translate(-539.18 -647.77)"/><path class="cls-1" d="M1213.76,1364.9q-41.29,37.64-81.65,76.28c-2.33,2.23,1.21,5.76,3.54,3.54q40.36-38.64,81.65-76.28c2.38-2.17-1.16-5.7-3.54-3.54Z" transform="translate(-539.18 -647.77)"/><path class="cls-1" d="M1207.65,1411.9l-90.36,74.37c-2.49,2,1.07,5.57,3.54,3.54l90.36-74.37c2.49-2-1.07-5.57-3.54-3.54Z" transform="translate(-539.18 -647.77)"/><path class="cls-1" d="M1201.21,1467.86l-40.66,37.92c-2.36,2.2,1.18,5.73,3.54,3.54l40.66-37.92c2.36-2.2-1.18-5.73-3.54-3.54Z" transform="translate(-539.18 -647.77)"/><path class="cls-1" d="M1142.63,1605.29q-22.8,24.78-44.9,50.2c-2.11,2.42,1.42,6,3.54,3.54q22.13-25.38,44.9-50.2c2.18-2.36-1.35-5.91-3.54-3.54Z" transform="translate(-539.18 -647.77)"/><path class="cls-1" d="M1158.68,1622.31q-18.56,20.82-37.61,41.19c-2.2,2.35,1.33,5.89,3.54,3.54q19.05-20.37,37.61-41.19c2.14-2.4-1.39-5.94-3.54-3.54Z" transform="translate(-539.18 -647.77)"/><path class="cls-1" d="M1175.07,1637.07a397.29,397.29,0,0,1-32.77,37.2c-2.28,2.28,1.26,5.82,3.54,3.54a397.29,397.29,0,0,0,32.77-37.2c1.95-2.51-1.56-6.08-3.54-3.54Z" transform="translate(-539.18 -647.77)"/><path class="cls-1" d="M1181.25,1660.26l-10.7,13.36c-2,2.49,1.52,6,3.54,3.54l10.7-13.36c2-2.49-1.52-6-3.54-3.54Z" transform="translate(-539.18 -647.77)"/><path class="cls-1" d="M1408,1103.13q-44.14,43.22-89.7,85c-2.38,2.18,1.17,5.71,3.54,3.54q45.55-41.73,89.7-85c2.3-2.25-1.23-5.79-3.54-3.54Z" transform="translate(-539.18 -647.77)"/><path class="cls-1" d="M1433.46,1101.92a882.32,882.32,0,0,0-127.21,142.45c-1.87,2.62,2.46,5.12,4.32,2.52A876.51,876.51,0,0,1,1437,1105.46c2.4-2.16-1.15-5.68-3.54-3.54Z" transform="translate(-539.18 -647.77)"/><path class="cls-1" d="M1424.29,1146.72a1535.08,1535.08,0,0,0-116.51,128.15c-2,2.48,1.51,6,3.54,3.54a1535.08,1535.08,0,0,1,116.51-128.15c2.3-2.26-1.24-5.79-3.54-3.54Z" transform="translate(-539.18 -647.77)"/><path class="cls-1" d="M1411.69,1211.14c-29.83,31.59-61,61.84-92,92.33-2.3,2.26,1.24,5.8,3.54,3.54,30.95-30.49,62.14-60.74,92-92.33,2.21-2.34-1.32-5.88-3.54-3.54Z" transform="translate(-539.18 -647.77)"/><path class="cls-1" d="M1400.4,1273.78q-50.24,43.68-101.14,86.6c-2.46,2.08,1.09,5.6,3.54,3.54q50.9-42.91,101.14-86.6c2.43-2.12-1.12-5.64-3.54-3.54Z" transform="translate(-539.18 -647.77)"/><path class="cls-1" d="M1389.8,1329.1c-28.15,25.82-58,49.78-85.5,76.28-2.32,2.24,1.22,5.77,3.54,3.54,27.54-26.5,57.35-50.46,85.5-76.28,2.38-2.18-1.17-5.71-3.54-3.54Z" transform="translate(-539.18 -647.77)"/><path class="cls-1" d="M1377.23,1396.27q-30.54,25.74-60,52.77c-2.37,2.18,1.17,5.71,3.54,3.54q29.42-27,60-52.77c2.46-2.08-1.09-5.6-3.54-3.54Z" transform="translate(-539.18 -647.77)"/><path class="cls-1" d="M1096.56,1557.61q72.62,84.54,153.07,161.9c24.34,23.38,49.63,47.34,82.35,58.15,16.67,5.5,34.32,7.57,51.76,8.8,19,1.34,38.07,2.06,57.1,3q116.67,5.54,233.44,8.63c18.93.5,37.87,1.08,56.81,1.34,16.62.23,33.82-.22,49.75-5.48,16.18-5.35,29.37-15.72,40.78-28.15,11.67-12.71,22.36-26.43,33.06-40a1441.06,1441.06,0,0,0,120.47-178q6.62-11.57,13-23.26a7.7,7.7,0,0,0-1.17-9.09c-18.59-19.07-45.09-11.49-67.08-3.56-11.82,4.26-23.6,9.08-36,11.46-14.05,2.71-28.58.34-42.39-2.61-28.9-6.19-57.45-14.32-86.42-3.7-13.62,5-26.1,12.36-38.77,19.33s-25.66,12.83-39.69,16.55c-59.36,15.75-121.86-1-181.81-3.73-29.63-1.34-62.31-1.49-87.57,16.2-12,8.4-22.67,17.65-37.91,18.9-15.6,1.28-31.33-2.17-46.66-4.56l-203.66-31.84-25.58-4,5.24,9.23c7.91-19,27.69-27.44,46.28-32.37,21.91-5.8,44.62-7.73,66.56-13.36,29.59-7.59,55.9-23.59,83.79-35.51,29.3-12.52,60-16.43,91.62-17.26,32.35-.85,64.55-.1,96.7-4.46s64-12,96.49-15c33.8-3.09,66.76,1.62,100.14,6.55,32.48,4.8,65,9.46,97.43,14.44,56.3,8.65,114.33,19.4,164,48.75q9.32,5.51,18.12,11.83c7.87,5.62,15.36-7.38,7.57-13-48.58-34.74-107.7-49.2-165.72-58.9-32.19-5.38-64.55-9.82-96.83-14.59-34-5-68.49-11.86-103-11.33-33.61.52-66.64,7.69-99.65,13.27a453.67,453.67,0,0,1-49.65,6c-16.54.95-33.12.91-49.68,1.09-32.65.36-65.92,1.67-97.06,12.46-29.26,10.14-55.64,27-84.91,37.09-23.22,8-47.84,10-71.7,15.38-21.31,4.77-43.43,12.58-57.09,30.6a63.56,63.56,0,0,0-7.88,14.24c-1.44,3.46,1.59,8.66,5.24,9.23L1292.18,1590c16.36,2.56,32.71,5.33,49.11,7.63,14.9,2.09,30.7,3.48,45.15-1.81,13.65-5,23.62-15.47,36.14-22.4,13.08-7.24,28.44-8.87,43.12-9.44,60.83-2.4,121,14.89,181.87,9.09a194,194,0,0,0,43-8.66c14.07-4.69,27.06-11.57,40-18.76,12.14-6.77,24.4-13.66,38-17.08,14-3.53,28.43-2.08,42.42.7,28.29,5.62,55.8,14.58,84.64,6.74,12.3-3.34,24.06-8.35,36.13-12.39,9.95-3.33,21.41-7.13,32-4.87a24.48,24.48,0,0,1,12.72,7.28l-1.17-9.09a1434.25,1434.25,0,0,1-113.76,175.79q-16.06,21.23-32.94,41.81c-10.14,12.37-20.25,25.77-33.26,35.3-13.23,9.69-28.89,13.37-45,14.29-17.6,1-35.37,0-53-.47q-113.77-2.78-227.47-7.88-28.42-1.28-56.84-2.7c-17.47-.87-35.13-1.32-52.43-4.07-16.66-2.65-32.52-7.6-47.11-16.18-14-8.24-26.39-18.8-38.28-29.81-52.94-49-102.85-101.67-150.45-155.86q-8.8-10-17.49-20.14c-6.3-7.33-16.87,3.32-10.61,10.61Z" transform="translate(-539.18 -647.77)"/><path class="cls-1" d="M1237.55,1572.31c-6.31-8.23-13.6-20.11-8.67-30.66,3.85-8.25,13.61-12,21.6-14.93a402.58,402.58,0,0,1,67.69-18.06c49.31-8.66,99.55-9.39,149.45-11.07,48.95-1.65,98.25-4.09,146.1-15.26,12.73-3,25.32-6.57,38.22-8.73a146.71,146.71,0,0,1,37.24-1.26c18.56,1.66,36.07,7.17,53.59,13.18,48.29,16.56,97.05,31.76,145.87,46.71,3.08.94,4.4-3.88,1.33-4.82-45.71-14-91.37-28.24-136.66-43.58-17.71-6-35.22-12.45-53.79-15.24a158.06,158.06,0,0,0-36.24-1.42c-12.95,1.05-25.6,4.11-38.18,7.23-51.16,12.71-103.14,16.34-155.66,18.13-51,1.74-102.24,2.46-152.59,11.31-25.3,4.45-51.4,10.52-75,20.94-8.62,3.81-17.08,9.75-19,19.56-2.23,11.09,3.92,22,10.43,30.49,1.93,2.52,6.28,0,4.32-2.52Z" transform="translate(-539.18 -647.77)"/><path class="cls-1" d="M1352.72,1554.57c32.75-6.38,65.46-13,98.26-19.08,25.91-4.82,52-8.45,78.38-8.91,39-.68,77.91,5.24,116.81,7.43q45.64,2.56,91.39,1.72c3.21-.06,3.22-5.06,0-5-50,.86-99.78-1.8-149.59-6.24-17.53-1.56-35.08-3-52.7-3-24.22,0-48.31,2.67-72.17,6.73-37.36,6.37-74.5,14.24-111.7,21.49-3.16.61-1.82,5.43,1.33,4.82Z" transform="translate(-539.18 -647.77)"/><path class="cls-1" d="M1248.66,1573.83c-11.81-16.26,3.48-33.74,18.09-40.68,17.55-8.33,37.72-10.38,56.74-12.89,39.93-5.26,79.95-10.44,120.23-12,19.9-.75,39.74-.25,59.63.62s40.16,1.64,60.1-.91c37.79-4.83,73.4-21.23,112.05-19.4,43.16,2,86.51,13.27,126.17,30.13,2.93,1.24,5.48-3.06,2.52-4.32a397.16,397.16,0,0,0-114-29.64,188.07,188.07,0,0,0-59.9,3.13c-19.85,4.25-39.25,10.49-59.27,13.95-21.07,3.64-42.5,3.14-63.78,2.23s-42.31-1.59-63.52-.79c-42.84,1.62-85.41,7.29-127.86,13-20,2.69-42.56,5.4-59.66,17.14-13.48,9.26-22.62,28.11-11.85,42.94,1.87,2.58,6.21.09,4.32-2.52Z" transform="translate(-539.18 -647.77)"/><path class="cls-1" d="M1273,1577.78c-1.31-14.19,10.16-25.41,22.72-29.94,15.44-5.57,32.07-9,48.07-12.55,33.63-7.46,68-13.09,102.37-15.36a447.08,447.08,0,0,1,51.37-.8c16.59.82,33,3.67,49.64,4.1,32.88.86,62.62-14.64,94.8-18.5,34.62-4.15,69.19,4.48,97.34,25.13,2.6,1.91,5.09-2.43,2.52-4.32a139.27,139.27,0,0,0-87.09-26.78c-16.45.54-32.28,4.22-48.07,8.64-16.6,4.65-33.63,10.36-51,10.83-17.66.48-35.12-2.48-52.69-3.76s-35.36-.84-53,.21c-35.81,2.14-71.62,7.85-106.63,15.58q-15,3.3-29.79,7.25c-8.26,2.21-17.06,4-24.74,7.89-12.15,6.16-22.17,18.13-20.86,32.38.29,3.18,5.3,3.21,5,0Z" transform="translate(-539.18 -647.77)"/><path class="cls-1" d="M1351.64,1549.74c-11.76,1.86-26.41,2.16-35.92,10.27-8.83,7.53-9.14,17.89-2.73,27,1.84,2.61,6.17.12,4.32-2.52-2.93-4.17-5.22-8.55-3.37-13.71,1.7-4.74,5.76-8.17,10.22-10.22,8.76-4,19.39-4.52,28.81-6,3.17-.5,1.82-5.32-1.33-4.82Z" transform="translate(-539.18 -647.77)"/><path class="cls-1" d="M1691.49,1553.9c-23-7.42-45.57-15.18-69.77-17.21-24.84-2.08-49.78.36-74.45,3.23s-49.33,6.16-74.2,6.38c-12.73.11-25.5-.23-38.16,1.38-11.95,1.52-23.63,4.58-35.19,7.89-11.41,3.27-24.66,6-34.82,12.34-8.19,5.15-13.4,14.78-8.94,24.1,1.39,2.9,5.7.37,4.32-2.52-5.87-12.28,10.09-19.37,18.94-22.34q16.18-5.43,32.73-9.75a171.72,171.72,0,0,1,33.62-5.69c11.75-.66,23.52-.2,35.27-.56,44.91-1.37,89.29-12.28,134.35-9.9,26.15,1.38,50.28,9.48,75,17.47,3.07,1,4.38-3.83,1.33-4.82Z" transform="translate(-539.18 -647.77)"/><path class="cls-1" d="M1626,1564.79c-10-12.2-25.9-16.75-41.21-16.76-19.62,0-39.52,5.05-58.77,8.32-3.17.54-1.82,5.36,1.33,4.82,17.66-3,35.69-7.33,53.62-8.06,15.33-.62,31.34,2.86,41.49,15.21,2,2.49,5.56-1.07,3.54-3.54Z" transform="translate(-539.18 -647.77)"/><path class="cls-1" d="M1433.78,1158.21A1074.19,1074.19,0,0,0,1606,1097l-11-4.48c9.48,28.41,33.73,45.7,55.09,64.87,11,9.88,21.51,20.93,27.91,34.44a48.23,48.23,0,0,1,4.76,19.32c.2,8.65-2.24,17-3.44,25.51-3.44,24.31,7.36,45,21.66,63.87,12.89,17,29.68,33.54,36.27,54.3a48.7,48.7,0,0,1,2.39,16.62c-.33,9.21-3.42,18.09-4.07,27.29-1.33,18.69,8.35,35.6,17.79,51,5,8.21,18,.68,13-7.57-8.09-13.16-16.88-27.31-15.74-43.38.58-8.18,3.13-16.11,3.88-24.29a60.3,60.3,0,0,0-1.15-17.58c-4.5-21.9-20.14-39.66-33.66-56.64-12.77-16-27.13-34.32-26.11-56,.4-8.47,2.86-16.71,3.82-25.12a60.34,60.34,0,0,0-1.82-23c-3.9-14-12.44-26.25-22.13-36.88-21.06-23.1-53.51-39.54-63.93-70.75-1.65-4.94-6.47-6.55-11-4.48a1051.64,1051.64,0,0,1-168.61,59.73c-9.33,2.44-5.37,16.91,4,14.46Z" transform="translate(-539.18 -647.77)"/><path class="cls-1" d="M1472.56,1140.16A723.2,723.2,0,0,0,1399,1281.91c-1.16,3,3.67,4.3,4.82,1.33a717.48,717.48,0,0,1,73.09-140.55c1.79-2.68-2.53-5.19-4.32-2.52Z" transform="translate(-539.18 -647.77)"/><path class="cls-1" d="M1573.08,1100.66c-48.8,86.24-93,175-134.21,265.1q-17.54,38.32-34.42,76.93c-1.28,2.92,3,5.47,4.32,2.52,39.74-90.71,81.84-180.43,128.14-268q19.72-37.3,40.5-74c1.59-2.8-2.73-5.33-4.32-2.52Z" transform="translate(-539.18 -647.77)"/><path class="cls-1" d="M1653.78,1152.62l-114.66,219.27-32.89,62.9c-1.49,2.85,2.82,5.38,4.32,2.52l115-220,32.53-62.2c1.49-2.85-2.82-5.38-4.32-2.52Z" transform="translate(-539.18 -647.77)"/><path class="cls-1" d="M1688.67,1266.93q-43.7,77.11-82.73,156.73c-1.41,2.88,2.9,5.42,4.32,2.52q39-79.58,82.73-156.73c1.59-2.8-2.73-5.33-4.32-2.52Z" transform="translate(-539.18 -647.77)"/><path class="cls-1" d="M1740.18,1357c-16.73,25.33-31.94,51.6-47.29,77.77-1.63,2.78,2.69,5.3,4.32,2.52,15.35-26.18,30.56-52.44,47.29-77.77,1.78-2.69-2.55-5.2-4.32-2.52Z" transform="translate(-539.18 -647.77)"/><path class="cls-1" d="M1477.45,1139.73l207.23,107.6c2.85,1.48,5.38-2.83,2.52-4.32L1480,1135.42c-2.85-1.48-5.38,2.83-2.52,4.32Z" transform="translate(-539.18 -647.77)"/><path class="cls-1" d="M1420.35,1206.66l248.48,131.49,70.49,37.3c2.84,1.5,5.37-2.81,2.52-4.32l-248.48-131.49-70.49-37.3c-2.84-1.5-5.37,2.81-2.52,4.32Z" transform="translate(-539.18 -647.77)"/><path class="cls-1" d="M1394.57,1320.16q107.4,48,211.14,103.71c2.83,1.52,5.36-2.79,2.52-4.32q-103.66-55.64-211.14-103.71c-2.91-1.3-5.46,3-2.52,4.32Z" transform="translate(-539.18 -647.77)"/><path class="cls-1" d="M1381.09,1393.69c25.07,17.07,48.93,35.86,74.24,52.58,2.69,1.78,5.2-2.55,2.52-4.32-25.31-16.72-49.17-35.5-74.24-52.58-2.67-1.82-5.17,2.51-2.52,4.32Z" transform="translate(-539.18 -647.77)"/><path class="cls-1" d="M1639.36,1124.36c-2.51-2.7,1.63-7.24,4.18-8.11,6.57-2.24,14.24,2.23,19.59,5.62a80.8,80.8,0,0,1,24.39,24.56c13.46,20.83,19.07,46,20.26,70.55,1.38,28.63-7.13,59.61,8.63,85.67,13.64,22.55,38.94,36.78,42.64,64.7,2.2,16.6-.25,33.44,3.32,49.93,3.07,14.19,10.48,28,23.74,34.92,8.55,4.47,16.14-8.47,7.57-13-11.67-6.1-16.29-19.32-17.86-31.71-2.11-16.66.42-33.57-3.39-50.09-3.35-14.53-12.14-26.29-22-37.12-9.09-10-19.74-19.76-24.85-32.59-6.31-15.84-3.58-33.64-2.81-50.19a217,217,0,0,0-2-41.12c-3.86-26.71-13.73-53.68-32.72-73.4-10.58-11-26.65-23.32-42.76-22.17s-29.09,20.63-16.51,34.12c6.6,7.07,17.19-3.55,10.61-10.61Z" transform="translate(-539.18 -647.77)"/><path class="cls-1" d="M1816,1449.45a146.48,146.48,0,0,1-22.87-52.27c-4.12-18.91-3.06-38.91-10.5-57.06-7.25-17.68-19.69-32.78-28.08-49.94a227.23,227.23,0,0,1-18.43-54.79c-3.87-19.19-3.3-40.82-15.5-57.2-2.44-3.27-6.46-4.85-10.26-2.69-3.22,1.83-5.1,7-2.69,10.26,10.63,14.27,10.2,33.34,13.31,50.16a241.68,241.68,0,0,0,17.25,54.65,233.19,233.19,0,0,0,13.5,25.73c4.86,8,10.34,15.68,14.6,24,9,17.78,7.95,38.25,11.63,57.4A157,157,0,0,0,1803,1457c5.45,7.89,18.46.4,13-7.57Z" transform="translate(-539.18 -647.77)"/><path class="cls-1" d="M1636.71,1135.26a78.71,78.71,0,0,1,5.05-17.34c1.25-2.93-3.06-5.48-4.32-2.52a83.89,83.89,0,0,0-5.56,18.53c-.55,3.15,4.27,4.5,4.82,1.33Z" transform="translate(-539.18 -647.77)"/><path class="cls-1" d="M1643.9,1138.28a59.08,59.08,0,0,1,9.22-17c2-2.51-1.56-6.07-3.54-3.54a66.41,66.41,0,0,0-10.51,19.24c-1.06,3,3.77,4.36,4.82,1.33Z" transform="translate(-539.18 -647.77)"/><path class="cls-1" d="M1648.49,1144.57a52.89,52.89,0,0,0,10.36-16.31c1.21-3-3.62-4.27-4.82-1.33A46.23,46.23,0,0,1,1645,1141c-2.19,2.35,1.34,5.9,3.54,3.54Z" transform="translate(-539.18 -647.77)"/><path class="cls-1" d="M1657.1,1151.22l11-13c2.08-2.44-1.44-6-3.54-3.54l-11,13c-2.08,2.44,1.44,6,3.54,3.54Z" transform="translate(-539.18 -647.77)"/><path class="cls-1" d="M1665.79,1160l10.81-15.14c1.87-2.62-2.46-5.12-4.32-2.52l-10.81,15.14c-1.87,2.62,2.46,5.12,4.32,2.52Z" transform="translate(-539.18 -647.77)"/><path class="cls-1" d="M1672.22,1168.32l14-16c2.12-2.41-1.41-6-3.54-3.54l-14,16c-2.12,2.41,1.41,6,3.54,3.54Z" transform="translate(-539.18 -647.77)"/><path class="cls-1" d="M1678.48,1176.59a140.6,140.6,0,0,0,15.8-17.21c1.95-2.51-1.57-6.08-3.54-3.54a140.6,140.6,0,0,1-15.8,17.21c-2.37,2.19,1.17,5.72,3.54,3.54Z" transform="translate(-539.18 -647.77)"/><path class="cls-1" d="M1688.59,1187.81l13.27-17.8c1.92-2.58-2.41-5.08-4.32-2.52l-13.27,17.8c-1.92,2.58,2.41,5.08,4.32,2.52Z" transform="translate(-539.18 -647.77)"/><path class="cls-1" d="M1693,1202l8.53-14.28c1.65-2.77-2.67-5.29-4.32-2.52l-8.53,14.28c-1.65,2.77,2.67,5.29,4.32,2.52Z" transform="translate(-539.18 -647.77)"/><path class="cls-1" d="M1691.87,1224l12.82-20.11c1.73-2.72-2.59-5.23-4.32-2.52l-12.82,20.11c-1.73,2.72,2.59,5.23,4.32,2.52Z" transform="translate(-539.18 -647.77)"/><path class="cls-1" d="M1689.56,1248.61a127.61,127.61,0,0,0,16.9-25.83c1.41-2.88-2.9-5.41-4.32-2.52a122.35,122.35,0,0,1-16.12,24.82c-2.06,2.45,1.46,6,3.54,3.54Z" transform="translate(-539.18 -647.77)"/><path class="cls-1" d="M1693.87,1266a148.24,148.24,0,0,0,11.74-20.16c1.39-2.89-2.92-5.42-4.32-2.52a148.24,148.24,0,0,1-11.74,20.16c-1.84,2.65,2.49,5.15,4.32,2.52Z" transform="translate(-539.18 -647.77)"/><path class="cls-1" d="M1698.82,1280l11.68-20.19c1.61-2.79-2.7-5.31-4.32-2.52l-11.68,20.19c-1.61,2.79,2.7,5.31,4.32,2.52Z" transform="translate(-539.18 -647.77)"/><path class="cls-1" d="M1705.87,1293l8.66-16.18c1.52-2.84-2.8-5.36-4.32-2.52l-8.66,16.18c-1.52,2.84,2.8,5.36,4.32,2.52Z" transform="translate(-539.18 -647.77)"/><path class="cls-1" d="M1715.7,1304.9a44.48,44.48,0,0,1,6.61-9.49c2.17-2.37-1.36-5.92-3.54-3.54a49.56,49.56,0,0,0-7.39,10.51c-1.49,2.85,2.83,5.38,4.32,2.52Z" transform="translate(-539.18 -647.77)"/><path class="cls-1" d="M1728.57,1322.83l4.06-8c1.46-2.86-2.85-5.39-4.32-2.52l-4.06,8c-1.46,2.86,2.85,5.39,4.32,2.52Z" transform="translate(-539.18 -647.77)"/><path class="cls-1" d="M1741.76,1335.92l5.06-10c1.45-2.86-2.86-5.4-4.32-2.52l-5.06,10c-1.45,2.86,2.86,5.4,4.32,2.52Z" transform="translate(-539.18 -647.77)"/><path class="cls-1" d="M1746.8,1351l7.86-13.08c1.66-2.76-2.66-5.28-4.32-2.52l-7.86,13.08c-1.66,2.76,2.66,5.28,4.32,2.52Z" transform="translate(-539.18 -647.77)"/><path class="cls-1" d="M1749,1374.1a131.28,131.28,0,0,0,11.47-23c1.16-3-3.68-4.31-4.82-1.33a124.6,124.6,0,0,1-11,21.78c-1.72,2.73,2.6,5.24,4.32,2.52Z" transform="translate(-539.18 -647.77)"/><path class="cls-1" d="M1748.65,1395.87l16.72-30.16c1.56-2.82-2.76-5.34-4.32-2.52l-16.72,30.16c-1.56,2.82,2.76,5.34,4.32,2.52Z" transform="translate(-539.18 -647.77)"/><path class="cls-1" d="M1748.76,1419.75a137.55,137.55,0,0,0,20.9-37.56c1.11-3-3.72-4.33-4.82-1.33a129.9,129.9,0,0,1-19.62,35.36c-2,2.51,1.56,6.07,3.54,3.54Z" transform="translate(-539.18 -647.77)"/><path class="cls-1" d="M1756.08,1436.09l13-25c1.48-2.85-2.83-5.38-4.32-2.52l-13,25c-1.48,2.85,2.83,5.38,4.32,2.52Z" transform="translate(-539.18 -647.77)"/><path class="cls-1" d="M1765.08,1445.16a49.4,49.4,0,0,0,7.74-18.88c.58-3.15-4.24-4.49-4.82-1.33a45.8,45.8,0,0,1-7.23,17.69c-1.81,2.67,2.52,5.18,4.32,2.52Z" transform="translate(-539.18 -647.77)"/><path class="cls-1" d="M1778.9,1449l2.87-6.06a2.57,2.57,0,0,0-.9-3.42,2.52,2.52,0,0,0-3.42.9l-2.87,6.06a2.57,2.57,0,0,0,.9,3.42,2.52,2.52,0,0,0,3.42-.9Z" transform="translate(-539.18 -647.77)"/></svg>