<svg id="Layer_9" data-name="Layer 9" xmlns="http://www.w3.org/2000/svg" viewBox="0 0 1456.48 1502.32"><defs><style>.cls-1{fill:#fdd7a4;}.cls-2{fill:#1d1d1b;}.cls-3{fill:#fff;}</style></defs><title>7</title><path class="cls-1" d="M1125.8,861.78s-123,72-192,84c0,0-165,27-207,0l-138-147s-69-24-45,36l135,147s123,69,264,30,147,108,147,108l12,155.79-24,777.31s48,78,102,0l57-606.06,38.77,618.06c1.31,2.1,16.75,25.94,45.1,27,22.93.89,44.71-13.46,54.14-36l6-771.08,15-180s-15-144,153-120c123.6,50.38,191.43,42.65,231,24,16.77-7.9,35.12-20.88,78-39,40.75-17.22,61-21,87-42,19.62-15.79,45.81-43.94,39.18-55.37-8-13.78-60,3.1-65.43,4.88L1753.18,945.1a388.64,388.64,0,0,1-171.33-32.31s-225-15-237-54C1344.83,858.78,1248.82,960.79,1125.8,861.78Z" transform="translate(-533.58 -594.57)"/><path class="cls-2" d="M1123.28,857.46c-48.34,28.27-99.39,54.69-152.36,73a296.68,296.68,0,0,1-57.38,13.27c-28.54,3.92-57.26,6.88-86,8.29-28.35,1.39-59.67,3.1-87.11-5.6-6.24-2-9.23-3.28-13.24-7.56l-16.07-17.12L604.4,808.14c-3.77-4-7.36-8.69-11.53-12.28-3-2.6-7.16-3.31-11-4.22-15.87-3.77-41.92-6.17-47.3,14.27-2.56,9.71,0,25,6.09,32.89,3.32,4.29,7.47,8.14,11.14,12.13l51.06,55.6,54.46,59.3c6.35,6.92,12.77,16.92,21.19,21.49,19.65,10.67,41.43,18.35,62.79,24.7,40.51,12,83.09,18.07,125.37,16.47A343.07,343.07,0,0,0,942.83,1017c17.43-4.7,35.23-7.81,53.35-6.41,25.13,1.95,47.76,14.06,62.81,34.32,16.27,21.9,24,50,25.91,76.15,3.38,46.31,7.13,92.6,10.7,138.9,1.12,14.51.81,28.32.37,42.88l-3.3,106.87-4.84,156.89-5.42,175.64-5,160.59-3.53,114.29-.91,29.31c-.19,6.19.09,8.83,4.07,14.13,14.51,19.35,37.24,36.74,62.8,30.76,8.15-1.91,15.58-6.14,22.1-11.29a91.19,91.19,0,0,0,11.63-11.06c3.53-4,9.29-9.62,11-14.72,2-5.76,1.35-13.82,1.93-19.91l2.15-22.87,4.17-44.31,32.94-350.2,16-170.1h-10l27.77,442.7,6.85,109.24,3.43,54.62c.31,4.9-.37,10.73,2.1,15.09a44.42,44.42,0,0,0,5.66,7.2c15.09,16.91,38,25.27,60.24,19.25a62.15,62.15,0,0,0,30.62-19.44,66,66,0,0,0,9.79-15.11c3.31-7.14,1.64-16.89,1.7-24.63l3.45-443.08,1.72-221.54c.28-36.4-.45-72.89,2.58-109.17l9.17-110c1.39-16.73,4.44-34,3.69-50.8a136,136,0,0,1,.67-20c2.32-22.45,10.29-45.13,25.65-62,25-27.51,63.63-33.68,99.15-31.64q9.25.53,18.46,1.73c8.8,1.14,17.81,6.33,26.15,9.42,14.66,5.42,29.5,10.36,44.53,14.62,23.95,6.79,48.48,11.9,73.32,13.93,31.83,2.6,64.68-.34,93.87-14.06,18.59-8.74,36-19.74,54.62-28.55,25.82-12.24,53.1-20.93,79-33,22.35-10.4,42.08-26.31,58.09-45,8.39-9.79,27.42-35,6.56-42.78-7.7-2.88-16.7-1.84-24.64-.74a206.33,206.33,0,0,0-27.6,6c-25.87,7.3-50.59,19.56-75.42,29.73l-51.22,21-23.64,9.68-11.82,4.84c-4.71,1.93-10,5-15.1,5.81-6.08.93-12.93.28-19.05.19q-11.8-.17-23.57-1.05a377.78,377.78,0,0,1-51.53-7.48,389,389,0,0,1-46.16-13q-9.5-3.32-18.82-7.12c-3.39-1.39-6.8-3.33-10.41-3.95-6-1-12.39-.93-18.43-1.44-31.93-2.71-63.83-6.19-95.52-11-32.77-4.94-67.72-9.92-98.34-23.23-6.86-3-17.5-8-19.73-14.69-1.14-3.44-5.65-5.07-8.36-2.21-33.66,35.61-88.77,52-136.16,41.43-28.06-6.27-53.45-20.64-75.79-38.43-5-4-12.11,3.06-7.07,7.07,36.94,29.41,82,49.42,130,43.68,29.79-3.56,58-15.94,81.69-34.17a121.62,121.62,0,0,0,14.4-12.51l-8.36-2.21c3,9.07,11.89,14.64,20,18.67,12.85,6.36,26.86,10.4,40.72,13.88,34.82,8.75,70.61,13.73,106.22,18,23.93,2.84,47.93,5.22,72,7a16.68,16.68,0,0,1,2.35.17c.17,0,.36,0,.53,0-1.9-.46,3.29,1.79,4,2.08A391.54,391.54,0,0,0,1720.66,950q10.1.44,20.22.36c8.13-.07,13.93-.6,21.51-3.7l49.9-20.45,98.49-40.35c15.76-6.46,32.57-11.52,49.57-13.36,4.5-.49,17.27-2.57,19.64,3,1.31,3.07-2,8.3-3.36,10.76A93.41,93.41,0,0,1,1965,901.84c-16.52,18.53-36.16,33.41-58.95,43.31-26.59,11.56-54,20.89-80.06,33.65-16.88,8.26-32.84,18.44-49.91,26.26a143.71,143.71,0,0,1-39.64,11.2c-44.22,6.25-89.93-3.56-132-16.67-15.66-4.88-31.12-10.44-46.37-16.47-12.55-5-26.2-5.65-39.67-6-19.79-.47-40.12,1.61-58.76,8.59-46.51,17.42-69.48,63.39-69.13,111.15.06,7.57-.21,14.48-.85,22.19l-9,108.58-4.41,52.86c-1.5,18-.61,36.53-.75,54.64l-.84,107.89L1371.21,1879l-.85,109.33-.41,53.23c0,4,.86,9.93-.29,13.83-.84,2.85-3,5.88-4.64,8.3a53.41,53.41,0,0,1-14.71,14.75c-21.52,14.36-48.23,9.33-65.2-9.34-1.5-1.65-3.77-3.73-4.64-5.84-.72-1.75-.28-4.79-.41-7l-.9-14.37-3.43-54.62-27.23-434.08-6.67-106.36c-.41-6.49-9.4-6.37-10,0l-32.67,347.34-16.27,173-4.17,44.31-2,21.44c-.63,6.69,0,15.18-3.65,20.92-9.8,15.42-28.39,30.79-47.75,28.56-12.66-1.46-23.65-9.5-32.28-18.41a92.56,92.56,0,0,1-8.32-9.81c-.57-.78-1.27-2.4-2.06-3-1.66-1.16,1,.18.16,1.68,1.57-2.83.32-10.43.42-13.55l2.76-89.54,4.53-146.54,5.31-172.06,5.11-165.48,4-129.29c.61-19.85,1.91-39.82,1.84-59.68,0-9.28-1.32-18.69-2-27.94l-6.31-81.86c-2-25.39-2.18-51.92-8.32-76.8-10.88-44.13-40-82.62-87.51-88.88-16.53-2.18-33.31-.63-49.55,2.87-24.48,5.27-48,11.69-73.13,13.62-43.51,3.33-87.38-1.73-129.35-13.44-22.71-6.34-45.3-14.37-66.28-25.21-.87-.45-4.07-2.65-2-.82a33.17,33.17,0,0,1-2.26-2.47l-15-16.28-104.73-114c-4-4.3-8.72-8.49-12.15-13.23-1.61-2.23-2.26-5.76-3.26-9.84-1.26-5.1-2.34-11.5.24-16.4,4-7.55,14.82-7.33,22.1-6.72a80.66,80.66,0,0,1,11.94,2c2.08.5,5.44,2.26,7.56,2.1.8-.06-2.25-2.43-.56,0a50.79,50.79,0,0,0,4.78,5.09l18.23,19.42,56.24,59.91,48.43,51.59c3,3.22,5.9,7,9.25,9.85,7,6,18.21,8.24,27,9.88,30.07,5.6,61.56,4.14,91.9,2.08,26.76-1.82,53.44-4.82,80-8.61,56.45-8.07,109.36-34.7,159.44-60.81,15.79-8.23,31.5-16.68,46.87-25.67C1133.88,862.85,1128.85,854.2,1123.28,857.46Z" transform="translate(-533.58 -594.57)"/><path class="cls-1" d="M1128.8,708.76s33,174,87,171l59.78,0s72.24-78,60.24-171.06C1335.83,708.76,1260.82,462.74,1128.8,708.76Z" transform="translate(-533.58 -594.57)"/><path class="cls-2" d="M1124,710.09c3.13,16.48,7.2,32.82,11.64,49,8.17,29.74,17.82,59.94,32.91,87,10.56,18.93,25.31,38.84,49,38.72,13-.07,26,0,39,0h17.1c2.57,0,4.56-.46,6.38-2.35,6.67-6.91,12.32-15.17,17.75-23a276.44,276.44,0,0,0,26.35-47.5c8.88-20.68,15.07-42.38,17.29-64.82a169.49,169.49,0,0,0-.29-36.76,22.6,22.6,0,0,0-1-4.83,290.58,290.58,0,0,0-16.75-40.18c-9.79-19.42-22-38.78-38.68-53-17.11-14.61-38.83-22-61-15.23-34.52,10.5-59.28,44.16-77.92,73-7.6,11.75-14.59,23.87-21.22,36.19-3.05,5.67,5.58,10.72,8.63,5,14.25-26.46,30.1-52.78,50.72-74.83,11.89-12.72,26.11-25,43.16-29.94,25.23-7.35,47.27,7,63.2,25.69,15.21,17.88,26.55,40.37,34.87,61.38,2,5.16,4.41,10.51,5.75,15.91,2,8.24,1.54,17.92,1.24,26.35a183.93,183.93,0,0,1-6.39,41.33c-6.24,23.22-16.43,45.22-29.08,65.62-7,11.34-15.09,21.58-23.27,32.05-.39.5-.85,1-1.28,1.43l3.54-1.46-52.23,0c-5.4,0-10.63.48-15.46-1-6.75-2.13-12.71-7.64-17.44-13.09-13.63-15.69-22.2-36.07-29.48-55.29a580,580,0,0,1-19.41-62.94c-2.94-11.58-5.71-23.24-7.94-35C1132.43,701.12,1122.79,703.79,1124,710.09Z" transform="translate(-533.58 -594.57)"/><path class="cls-2" d="M1196,795.36c8.54,21.49,29.28,41.3,53.49,30,12.78-6,22.33-17.65,30.43-28.8,3.79-5.21-4.89-10.21-8.63-5-10.58,14.57-30.19,36.85-49.54,22.81-5-3.63-8.92-8.72-12.09-14-1.17-1.93-2.25-3.92-3.23-6-.3-.63-.59-1.27-.88-1.91-.51-1.12.48,1.21.09.22-2.35-5.91-12-3.33-9.64,2.66Z" transform="translate(-533.58 -594.57)"/><path class="cls-2" d="M1280.59,963.95l-38.86-33.7a5.14,5.14,0,0,0-7.07,0l-37.39,33.7c-4.79,4.32,2.3,11.37,7.07,7.07l37.39-33.7h-7.07l38.86,33.7c4.84,4.2,11.94-2.85,7.07-7.07Z" transform="translate(-533.58 -594.57)"/><polygon class="cls-3" points="705.35 720.25 742.01 681.02 724.05 356.06 685.92 356.06 676.05 681.02 705.35 720.25"/><path class="cls-2" d="M1242.47,1318.36l28.34-30.33c2.88-3.08,9.38-7.87,9.78-12.44a22.2,22.2,0,0,0-.17-3.07l-3.38-61.17-5.81-105.2-5.63-101.9c-1-17.59-1.52-35.26-2.92-52.82,0-.26,0-.52,0-.78a5.09,5.09,0,0,0-5-5h-38.12a5.09,5.09,0,0,0-5,5l-1.28,42.09-2.93,96.49-3.23,106.24-2.17,71.32c-.11,3.68-1.12,8.54.8,11.85,3.26,5.61,8,10.74,11.9,15.93L1232,1313.9l2.57,3.44c3.81,5.1,12.49.12,8.63-5l-24.5-32.8c-1.23-1.65-2.64-4.61-4.34-5.81-1.49-1.05-.07,2.26.23,1.57.51-1.19.11-3.58.15-4.86l2-64.67,3.16-104.1,3-99.47,1-34.11c.16-5.27,1.25-11.43.51-16.68a4.51,4.51,0,0,1,0-.73l-5,5h38.12l-5-5,6.08,110,9.68,175.09,2.2,39.87,1.46-3.54-36.65,39.23C1231,1316,1238.07,1323.07,1242.47,1318.36Z" transform="translate(-533.58 -594.57)"/><path class="cls-2" d="M1141.2,760.47c28.22-9.75,58.89-32.46,63.9-63.61,1.19-7.39,1.35-13.63,6.78-19.36,4.91-5.18,11.55-8.58,18.18-11,15.73-5.8,32.79-7.74,49.43-8.55a272.13,272.13,0,0,1,31.34.06c6.42.43,6.4-9.57,0-10-25.23-1.68-52.3-.43-76.64,6.63-14.35,4.17-30.22,11.55-36.18,26.28a39,39,0,0,0-2.29,11.08,49,49,0,0,1-4.06,15.19c-4.15,9.18-10.8,16.91-18.38,23.44a113.38,113.38,0,0,1-34.73,20.22c-6,2.09-3.45,11.75,2.66,9.64Z" transform="translate(-533.58 -594.57)"/></svg>