<svg id="Layer_16" data-name="Layer 16" xmlns="http://www.w3.org/2000/svg" viewBox="0 0 1508.15 1661.63"><defs><style>.cls-1{fill:#1d1d1b;}.cls-2{fill:none;stroke:#1d1d1b;stroke-miterlimit:10;}</style></defs><title>77</title><path class="cls-1" d="M572.17,874.71c-32.88-20.34-75.09-19-108.63-1-3.73,2-4.46,6.74-2.69,10.26,9.61,19.15,29.2,30.58,49,37.33s40.65,8.61,61.19,11.29c19.82,2.59,39.74,6,57.46,15.69,17.08,9.35,31.47,22.53,45.23,36.14,7.07,7,14,14.13,21.07,21.11,3.46,3.41,6.91,6.8,10.68,9.87,4.28,3.49,9,6.7,13,10.5,15.4,14.71,37.74,24.48,58.51,28.64,11.58,2.32,23.47,2.67,35.25,2.6a137.67,137.67,0,0,0,16.14-1.44c6.31-.78,12.72-.49,19-1.42,25.25-3.78,50.43-8.17,75.56-12.7,54.8-9.88,109.32-21.33,163.38-34.7,9.37-2.32,5.4-16.79-4-14.46q-70.88,17.53-142.7,30.89-36,6.74-72.06,12.63-8.68,1.42-17.37,2.8c-6.21,1-12.4.65-18.6,1.56-11.33,1.67-22.23,1.79-33.64,1.49-21.46-.58-41.48-7.88-59.56-19.28-4.72-3-8.12-6.79-12.43-10.2s-8.73-6.34-12.8-9.94c-7.24-6.41-13.89-13.58-20.7-20.45-13.72-13.83-27.65-27.59-43.71-38.73-16.29-11.31-34.3-18.28-53.73-21.95-22.22-4.2-45-5.21-67-10.37-21-4.9-44-14.28-54.13-34.46l-2.69,10.26c28.93-15.58,65.18-16.53,93.49,1,8.23,5.09,15.77-7.88,7.57-13Z" transform="translate(-459.94 -544.56)"/><path class="cls-1" d="M568.38,888.69c6.75-.47,17-1.25,19.24-9.25,2.71-9.66-7.69-15-12.48-21.41-.28-.38-.86-1.86-1.2-2.06l-.19-.65-1.7,2.41c-.26-.37,6.26-.76,6.52-.74a28,28,0,0,1,12.87,4.8c8.55,5.55,14.08,14.82,19.65,23.09,12.73,18.87,28.93,33.42,47.33,46.64,19.22,13.82,39.19,26.63,59.61,38.58,20,11.68,40.55,23.93,62.29,32,20.3,7.52,42.09,6.93,62.31-.6,23.69-8.82,46.86-19.43,70.09-29.38q66.84-28.64,133.23-58.33c3.73-1.66,4.54-7,2.69-10.26-2.18-3.83-6.58-4.33-10.26-2.69-64,28.55-128.21,57-193.09,83.55-16.19,6.64-33.28,10.75-50.7,6.45-11.12-2.74-21.39-7.85-31.52-13.07q-15.7-8.09-31-16.88-30.65-17.57-59.66-37.79c-17.69-12.34-34.64-25.71-46.92-43.68s-27.84-40.84-53.18-37c-6,.91-11.7,3.11-13.16,9.66-1.17,5.27.84,10.56,4,14.75a59,59,0,0,0,6.28,6.62c.14.13,4.06,4.76,4.08,4.75-.94.17.12-3.79.25-4q3-2.58,1.21-1.43l.46-.18c-1.77-.2-5.16,1-7,1.15-9.58.67-9.65,15.67,0,15Z" transform="translate(-459.94 -544.56)"/><path class="cls-1" d="M1399.43,1000.07a1302.5,1302.5,0,0,0,160.48,40.65c26,4.85,52.85,10.26,79.47,8.63,26-1.6,49.58-11.17,71.54-24.84a644.64,644.64,0,0,0,62-44.54c10.42-8.36,20.25-17.36,30.36-26.08a251.26,251.26,0,0,1,31.31-22.56c22.46-14,44.63-28.34,66.82-42.78,11.05-7.2,22.21-14.24,33.63-20.85,10-5.79,20.61-11,27.33-20.81a34.68,34.68,0,0,0,2.31-34.1c-5.26-10.88-16.39-16.32-28.23-15.27-13,1.15-23.87,7.5-33.68,15.73-9.45,7.93-21.64,16.74-34,17l5.3,2.2c3.54,3.19.5,2.26,1,1.08a15.62,15.62,0,0,0,.11-2.66,9.88,9.88,0,0,1,1.15-3.67c1.45-2.38,4.4-3.79,6.56-5.42,8.42-6.36,6.61-15.93-2.1-21-7.72-4.47-14-1.62-20.88,3.1-7.63,5.24-13.48,11.59-18.89,19.06a209.88,209.88,0,0,0-25.9,47.64c-3.07,8-4.6,16.75-8,24.61-3.33,7.7-10.4,12.79-17.2,17.24-15.4,10.07-32.39,17.66-49,25.41q-27,12.56-54.4,24.05c-17.35,7.28-33.66,15.26-53,13.61-18.74-1.6-37.09-8.62-54.32-15.76a789.47,789.47,0,0,1-116-60c-8.21-5.13-15.75,7.84-7.57,13a794.2,794.2,0,0,0,92.77,49.89c15.66,7.1,31.51,14.12,47.81,19.61,16,5.38,33.45,9.83,50.41,8.4s32.76-9.54,48.35-16.12q24.7-10.43,49.07-21.62c15.42-7.12,31.05-14.15,45.75-22.71,13.54-7.89,26.7-17,32.29-32.24,3.12-8.54,5.1-17.4,8.51-25.87a189.69,189.69,0,0,1,12.21-24c4.58-7.91,9.41-16,15.43-22.92a50.16,50.16,0,0,1,9.89-8.67c1.15-.77,4-1.79,4.71-2.86l.7-.36q-3.38-.93-1.49-.09.61.29,1.19.64,1.16.95.35-.8l1-3.79c-.94,1.6-3.85,2.89-5.32,4.06a24.15,24.15,0,0,0-5.35,5.59,25.78,25.78,0,0,0-3.73,16.21c.51,5.24,3.32,10.42,9.28,10.21,6.21-.23,12.79-2.46,18.51-4.73,11.42-4.54,19.43-12.26,29-19.53,7.07-5.34,19.18-11.42,28.22-7.65,8,3.34,9.54,14.83,6.58,22-4.26,10.34-17,15.16-25.9,20.38-23.33,13.62-45.5,29.06-68.15,43.74-22.29,14.44-45.52,27-65.7,44.45-20,17.34-40.1,34-61.71,49.36-20.18,14.37-41,29.27-65,36.51-26.14,7.89-53.65,4.71-80.1.26a1296,1296,0,0,1-181.74-44.43c-9.21-3-13.16,11.51-4,14.46Z" transform="translate(-459.94 -544.56)"/><path class="cls-1" d="M1078.78,1001.19c6.49,46.61,12.71,93.27,17.93,140,3,27.17,5.91,54.42,7.18,81.73.35,7.58.6,15.19.34,22.78-.09,2.52-.31,5-.51,7.53-.16,2,.23-1.21.06-.35-.1.49-.14,1-.24,1.47-.39,1.88-.75,3.74-1,5.66-1.28,10.53,1.68,21.81,10.09,28.73,7.88,6.48,18.16,8.57,28.09,9.32,12.73,1,25.72-.1,38.46-.37l43.92-1,197.62-4.28c5.1-.11,8.24-4.69,7.23-9.49a1034.29,1034.29,0,0,1-21.75-231.65q.55-29.3,2.71-58.53c.7-9.63-14.3-9.59-15,0a1062.09,1062.09,0,0,0,7.62,226.21q4.84,34.17,12,67.95l7.23-9.49-171.67,3.71-85.84,1.86c-15.61.34-46.75,4.11-46-19.48.17-5.27,1.67-10.82,1.93-16.3.33-7.05.15-14.13-.14-21.19-1-25.53-3.64-51-6.39-76.4-5.52-50.95-12.33-101.75-19.4-152.51-.56-4-5.69-6.23-9.23-5.24-4.32,1.21-5.8,5.18-5.24,9.23Z" transform="translate(-459.94 -544.56)"/><path class="cls-1" d="M1108,1281.2q15.28,132.4,30.51,264.81,12.16,105.74,24.25,211.48,8.38,73.3,16.65,146.62c2.54,22.59,5.29,45.18,7.41,67.81.33,3.52.35,7.11,1.61,10.46,3.91,10.39,14.27,11.94,23.91,13.9q17.06,3.47,34.27,6.15a765.9,765.9,0,0,0,138.89,9q17.41-.48,34.78-1.77c4-.29,7.54-3.2,7.5-7.5q-1.41-139.62-4-279.23-2.59-139.86-6.36-279.7-2.13-78.94-4.63-157.86c-.31-9.63-15.31-9.67-15,0q4.44,139.86,7.7,279.76,3.25,139.72,5.33,279.46,1.17,78.79,2,157.58l7.5-7.5a758.82,758.82,0,0,1-137.15-2.37q-34.1-3.71-67.75-10.64c-2.92-.6-9.6-.85-12-3-1.18-1.07-1.15-2.4-1.3-3.76-.06-.56-.09-1.13-.13-1.7-1.66-20.58-4.4-41.12-6.7-61.64q-7.76-69.28-15.71-138.54-11.55-101.13-23.18-202.25-14.66-127.53-29.37-255.06l-4-34.44c-.46-4-3.11-7.5-7.5-7.5-3.69,0-8,3.45-7.5,7.5Z" transform="translate(-459.94 -544.56)"/><path class="cls-1" d="M1249.88,1375.29q16.18,121.79,29.11,244T1301.55,1864q5.44,69.14,9.84,138.37c.61,9.59,15.61,9.66,15,0q-7.8-122.62-18.85-245t-25.42-244.4q-8.1-68.88-17.24-137.64c-.53-4-3.07-7.5-7.5-7.5-3.64,0-8,3.46-7.5,7.5Z" transform="translate(-459.94 -544.56)"/><path class="cls-1" d="M1209.85,1990.42q-19.92,31.77-38.89,64.12c-8.84,15.08-17.91,29.88-24.56,46.09a152.28,152.28,0,0,0-9.81,33.86c-2,12.45-3.89,28.17,3,39.5,6.59,10.81,20.65,14.6,32,18.26a243.9,243.9,0,0,0,42.18,9.49,250.1,250.1,0,0,0,95.28-5.43,7.59,7.59,0,0,0,5.51-7.23l-6.63-187.65c-.34-9.63-15.34-9.67-15,0l6.63,187.65,5.51-7.23a235.68,235.68,0,0,1-78.53,6.34,228.6,228.6,0,0,1-38.83-6.84q-8.72-2.31-17.24-5.28c-5.2-1.81-11.4-3.55-15.67-7.19-4.11-3.51-4.64-9-4.76-14.1a92.89,92.89,0,0,1,1.34-17.92,151.08,151.08,0,0,1,9.54-32.23c5.83-14,14-27,21.64-40.09q19.64-33.57,40.3-66.53c5.14-8.2-7.83-15.74-13-7.57Z" transform="translate(-459.94 -544.56)"/><path class="cls-1" d="M1329.22,2005.43c-1.69,38.27-7.45,76-10.23,114.2-.92,12.63-1.81,25.33-1.77,38,0,7.19.22,14.93,2.7,21.77,4,11.07,12.45,16,23.53,18.15a541.41,541.41,0,0,0,58,7.83c9.46.76,19.07.82,28.56.81,8.9,0,18-.37,26.69-2.45,18.73-4.49,31.31-19.39,36.09-37.71,2.72-10.44,3.29-21.43,3-32.17-.38-12.5-1.83-24.79-6.9-36.34-8-18.19-22.81-30-36.4-43.74-17.38-17.57-33.42-36.44-49-55.65-2.57-3.17-7.93-2.62-10.61,0-3.15,3.08-2.53,7.47,0,10.61,13.49,16.68,27.36,33.07,42.14,48.62,9.67,10.18,20.83,19.19,29.91,29.88,14.17,16.67,16.81,37.62,15.71,58.8-.82,15.9-5.8,34.83-22,41.44-6.39,2.6-13.47,3.25-20.29,3.55-10.41.45-20.85,0-31.25-.35-16.53-.56-33.18-3.52-49.51-5.92-3.72-.55-7.44-1.11-11.12-1.85-1.38-.28-2.77-.57-4.14-.94-.67-.18-3.39-1.09-2.64-.78,1,.41-.9-.5-1.25-.68-1.76-.9-.19,0-.48-.31-2.08-2-1.86-1.57-3.16-4-1.89-3.49-2.42-10.56-2.53-16-.22-11.14.52-22.31,1.24-33.42,2.64-40.58,8.93-80.73,10.73-121.39.43-9.65-14.57-9.63-15,0Z" transform="translate(-459.94 -544.56)"/><path class="cls-1" d="M1165.88,2110.13a108.28,108.28,0,0,1,103.26,15.12c2.56,2,5-2.39,2.52-4.32-30.15-23-71.64-29.07-107.12-15.63-3,1.13-1.69,6,1.33,4.82Z" transform="translate(-459.94 -544.56)"/><path class="cls-1" d="M1385.49,2134.47c19.79-19.58,51.23-25.16,76.49-13.31,2.9,1.36,5.44-3,2.52-4.32-27.31-12.81-61.05-7.16-82.54,14.09-2.29,2.27,1.24,5.8,3.54,3.54Z" transform="translate(-459.94 -544.56)"/><path class="cls-1" d="M1045.94,913.78a543.33,543.33,0,0,1,114.39-55.27c9.07-3.13,5.17-17.62-4-14.46a560.25,560.25,0,0,0-118,56.78c-8.12,5.16-.61,18.15,7.57,13Z" transform="translate(-459.94 -544.56)"/><path class="cls-1" d="M1463.11,899.73c-29.78-16.17-59.83-32.13-90.9-45.72-14.45-6.32-29.7-13.27-45.49-15.37-4-.53-8.13-.74-12,.59a13.52,13.52,0,0,0-5.41,3.32,20,20,0,0,0-3,4.45,49.81,49.81,0,0,1-7.79,10.8c-11.64,12-29.52,18.86-45.4,22.92a102,102,0,0,1-32.66,3.08c-2.89-.21.73.31-.76-.07-4-1-8-1.75-12-3.08A82.44,82.44,0,0,1,1185.63,869a92,92,0,0,1-14.46-13.35q-1.21-1.37-2.37-2.77l-.92-1.14c-1.43-1.77.81,1.1-.43-.55q-1.36-1.81-2.63-3.69c-5.38-8-18.38-.46-13,7.57,13.83,20.45,35.06,36.39,59.23,42.15s51.23-1.52,73.11-12a95.85,95.85,0,0,0,20.91-13c6.59-5.58,11.06-12.4,15.37-19.74-.27.45-1.2,1.06-.45.57s1-.42-.92.65c1.6-.89.26-.11-.22-.07a6.06,6.06,0,0,0,1.64-.44c1.13-.7-1.82,0-.66.09.4,0,.82-.08,1.23-.07l2.66.09c.47,0,.94.1,1.42.14-1.22-.1-1-.2.33.07,2.79.55,5.55,1.15,8.29,1.92a214.53,214.53,0,0,1,23.29,8.32c33.71,13.83,66.36,31.5,98.45,48.93,8.49,4.61,16.07-8.34,7.57-13Z" transform="translate(-459.94 -544.56)"/><path class="cls-1" d="M1163.58,861.46c31.49-8.08,53.33-38,50.14-70.63-.62-6.35-10.63-6.41-10,0a57,57,0,0,1-42.8,61c-6.23,1.6-3.59,11.25,2.66,9.64Z" transform="translate(-459.94 -544.56)"/><path class="cls-1" d="M1308.66,846.39c-18.37-5.06-32.12-20.19-30.69-40,.47-6.42-9.54-6.39-10,0-1.75,24.12,15.59,43.42,38,49.59,6.21,1.71,8.86-7.93,2.66-9.64Z" transform="translate(-459.94 -544.56)"/><path class="cls-1" d="M1143.19,635.67c-13.36,35.88-5.29,79.95,14.86,112,20.9,33.3,58.72,61.62,98.57,65.31,15.61,1.44,29-5.67,41-14.94a225.08,225.08,0,0,0,31.65-29.37c19.82-22.58,32.84-49.45,33.47-79.86.36-17-2.5-33.89-6.07-50.41-3.3-15.23-7.64-30.75-17.07-43.43-17.22-23.14-45.28-33.76-73.33-35.37-47.16-2.7-94.29,20.9-117.1,63a112.67,112.67,0,0,0-6,13c-2.32,6,7.34,8.61,9.64,2.66,14.86-38.44,53.44-64.58,93.85-68.34,26.05-2.42,54.58,2.39,74.83,20.06,10.68,9.33,17.34,21.26,21.44,34.74a239.81,239.81,0,0,1,9.07,46c1.45,14.89,1.06,30-3.1,44.43-3.65,12.66-9.92,24.37-17.59,35a183.28,183.28,0,0,1-27.12,29.41c-10.07,9-21.35,19.18-34.75,22.56-13,3.27-27.62-1.67-39.63-6.5a130.14,130.14,0,0,1-29.1-16.55A140.59,140.59,0,0,1,1168.88,746a119.54,119.54,0,0,1-12.59-24.81c-10.11-26.51-13.53-55.8-3.45-82.86C1155.08,632.29,1145.42,629.68,1143.19,635.67Z" transform="translate(-459.94 -544.56)"/><path class="cls-1" d="M1262.15,664a80,80,0,0,0,16.4,49.11v-2.52a19,19,0,0,1-4.11,5.41c-2.55,2.25-3.24,2.27-6.32,1.39-5.06-1.45-10-3.27-15-4.9a2.47,2.47,0,0,0-2.43.64c-2.39,2.59-4.91,5.43-8.24,6.77-2.07.83-3.89,1.1-5.82-.21-1.59-1.08-3.41-3.48-1.68-5.42,2.14-2.39-1.38-5.94-3.54-3.54-4.23,4.72-1.46,11.44,3.89,14,7.3,3.47,14.36-3.12,18.93-8.05l-2.43.64L1263,721c2.53.82,6.21,3,8.85,2.45,4.64-.91,8.91-6.48,11-10.32a2.47,2.47,0,0,0,0-2.52A75.62,75.62,0,0,1,1267.15,664c0-3.22-5-3.22-5,0Z" transform="translate(-459.94 -544.56)"/><path class="cls-1" d="M1233.14,758.4l-13.94-6.14c-2.4-1.06-5.29,1.84-3,3.93,26.89,24.91,74.71,18.24,93.68-13.17,1.41-2.33-1.29-4.36-3.42-3.42A203.27,203.27,0,0,1,1229,756.85c-3.21.08-3.22,5.08,0,5a209.61,209.61,0,0,0,80-17.93l-3.42-3.42c-17.27,28.59-61.31,34.88-85.83,12.16l-3,3.93,13.94,6.14c2.92,1.28,5.47-3,2.52-4.32Z" transform="translate(-459.94 -544.56)"/><path class="cls-1" d="M1172.16,606.53c12.21-5,25.22-8.32,38.5-7,10.68,1.1,19.26,5.8,28.05,11.58a76,76,0,0,0,34.66,12.61c12,1.19,23.76-1.49,35.82.81,14.45,2.76,27.74,9,39.7,17.42,5.26,3.72,10.27-4.94,5-8.63a111.58,111.58,0,0,0-34.42-16.63,90.87,90.87,0,0,0-22.78-3.46c-5.65-.09-11.26.7-16.91.76-13.12.15-25.25-4.39-36.08-11.52-9.3-6.12-18.47-10.93-29.65-12.52-15.27-2.17-30.47,1.06-44.61,6.88-5.87,2.42-3.3,12.1,2.66,9.64Z" transform="translate(-459.94 -544.56)"/><path class="cls-1" d="M1143.37,657.12a8.88,8.88,0,0,0-9.94-12.44c-9,1.79-10,13.92-11,21.13a109.69,109.69,0,0,0,8.65,58.12c2.57,5.88,11.19.8,8.63-5a98,98,0,0,1-8-33.13A102.74,102.74,0,0,1,1132,670a87,87,0,0,1,1.34-9.1c.21-1,.39-2.09.69-3.1a7.12,7.12,0,0,1,.74-2.07,3.43,3.43,0,0,0,0-3.63c-2.75,5.78,5.87,10.86,8.63,5Z" transform="translate(-459.94 -544.56)"/><path class="cls-1" d="M1134.11,726.23l18,6.32c6.08,2.14,8.7-7.52,2.66-9.64l-18-6.32c-6.08-2.14-8.7,7.52-2.66,9.64Z" transform="translate(-459.94 -544.56)"/><path class="cls-2" d="M1307.33,851.21" transform="translate(-459.94 -544.56)"/><path class="cls-1" d="M1227.38,670.71c-.24-11.34-11.52-19.44-22.39-18.74a15.18,15.18,0,0,0-12.67,7.92c-3.35,5.9-3.48,14.38-10.06,17.88-2.69,1.43-.68,5,1.93,4.57a121.56,121.56,0,0,1,22-1.08c5.48.14,10.78-.17,15.46-3.28,2.67-1.77.17-6.1-2.52-4.32-5.32,3.53-11.69,2.53-17.73,2.44a110.29,110.29,0,0,0-18.55,1.41l1.93,4.57c8.62-4.58,7.46-14.48,12.94-21.28,7.49-9.29,24.42-1,24.65,9.91.07,3.21,5.07,3.22,5,0Z" transform="translate(-459.94 -544.56)"/><path class="cls-1" d="M1204,661.92a7.6,7.6,0,0,0-.55,9.94c1,1.41,2.59,2.94,4.37,3.24,2.27.38,3.76-1.41,4.64-3.27,1.54-3.26,1.41-7.74-2.14-9.63a5.47,5.47,0,0,0-7.82,2.73,2.52,2.52,0,0,0,1.75,3.08,2.56,2.56,0,0,0,3.08-1.75c-.17.42.42.15.75.39.9.65.19,2.44-.18,3.18a6.45,6.45,0,0,1-.44.74q2,0,1-.62c-.24-.51-.94-.9-1.23-1.45a2.45,2.45,0,0,1,.33-3c2.29-2.27-1.25-5.81-3.54-3.54Z" transform="translate(-459.94 -544.56)"/><path class="cls-1" d="M1291.59,665.16c.48-4,1.2-8.61,3.84-11.79,4.45-5.34,10.84-1.37,15.25,1.84,6,4.35,13,8.9,20.32,4.82l-3-3.93a58.11,58.11,0,0,1-31.33,14.5c-3.17.44-1.82,5.26,1.33,4.82a62.55,62.55,0,0,0,33.53-15.78c2.15-1.94-.6-5.28-3-3.93-6.19,3.45-12.47-3.05-17.27-6.24-3.78-2.51-8.18-4.52-12.81-3.55-8.71,1.82-10.89,11.71-11.8,19.23-.38,3.19,4.62,3.16,5,0Z" transform="translate(-459.94 -544.56)"/><path class="cls-1" d="M1296.75,657.51a6,6,0,0,0,1.93,5.65,6.65,6.65,0,0,0,6,1.59c5.54-1.47,2.9-9.27-1.68-10.13a2.57,2.57,0,0,0-3.08,1.75,2.52,2.52,0,0,0,1.75,3.08,1.16,1.16,0,0,1,1,1.73l1.15-1.49s-.69.37-.33.22c-.45.18.14.07-.35,0a1.53,1.53,0,0,1-.73-.25,1.72,1.72,0,0,1-.61-.55c-.22-.32,0,0-.11-.22,0,0,0-.27-.07-.08a2.58,2.58,0,0,0-1.75-3.08,2.52,2.52,0,0,0-3.08,1.75Z" transform="translate(-459.94 -544.56)"/><path class="cls-1" d="M643.05,950.64c7.24,2.44,15.84,0,20.09-6.58s3-15.28-2.11-21c-2.14-2.41-5.66,1.13-3.54,3.54,8.51,9.6-1.3,23.25-13.12,19.26-3.06-1-4.37,3.8-1.33,4.82Z" transform="translate(-459.94 -544.56)"/><path class="cls-1" d="M1781.69,924.29c-7,4.43-10.1,13.92-5.29,21.14s15.33,8.72,22.69,4.75c2.83-1.53.31-5.85-2.52-4.32-4.94,2.67-12.43,2-15.85-3s-1.22-11.31,3.5-14.3c2.71-1.72.2-6-2.52-4.32Z" transform="translate(-459.94 -544.56)"/><path class="cls-1" d="M1397,1081.95c-37.91,47.18-79.83,98.31-141.62,112.87l1.93,4.57,7.19-3.13c2.94-1.28.4-5.59-2.52-4.32l-7.19,3.13c-2.68,1.17-.72,5.19,1.93,4.57,62.67-14.77,105.36-66.28,143.83-114.16,2-2.49-1.52-6-3.54-3.54Z" transform="translate(-459.94 -544.56)"/><path class="cls-1" d="M1398.82,1154.3l-68.23,21.26c-3.06,1-1.76,5.78,1.33,4.82l68.23-21.26c3.06-1,1.76-5.78-1.33-4.82Z" transform="translate(-459.94 -544.56)"/><path class="cls-1" d="M1115.87,1225.89c4.33-19.79,19.18-33.93,33.47-47.21,2.36-2.2-1.18-5.73-3.54-3.54-14.91,13.86-30.24,28.77-34.76,49.42-.69,3.14,4.13,4.48,4.82,1.33Z" transform="translate(-459.94 -544.56)"/><path class="cls-1" d="M1487.5,926a331.73,331.73,0,0,1,45,54.56c1.76,2.68,6.09.17,4.32-2.52A337.89,337.89,0,0,0,1491,922.5c-2.3-2.25-5.84,1.28-3.54,3.54Z" transform="translate(-459.94 -544.56)"/><path class="cls-1" d="M1222.33,2027.21a6.82,6.82,0,0,0,6.85,5,6.45,6.45,0,0,0,.18-12.84,6.81,6.81,0,0,0-7,4.93c-.8,3.12,4,4.45,4.82,1.33.44-1.74,2.93-1.7,2.92.16s-2.49,1.84-2.92.11c-.77-3.12-5.6-1.8-4.82,1.33Z" transform="translate(-459.94 -544.56)"/><path class="cls-1" d="M1211.48,2048.82a6.82,6.82,0,0,0,6.85,5,6.45,6.45,0,0,0,.18-12.84,6.81,6.81,0,0,0-7,4.93c-.8,3.12,4,4.45,4.82,1.33.44-1.74,2.93-1.7,2.92.16s-2.49,1.84-2.92.11c-.77-3.12-5.6-1.8-4.82,1.33Z" transform="translate(-459.94 -544.56)"/><path class="cls-1" d="M1199.55,2067.88a6.82,6.82,0,0,0,6.85,5,6.45,6.45,0,0,0,.18-12.84,6.81,6.81,0,0,0-7,4.93c-.8,3.12,4,4.45,4.82,1.33.44-1.74,2.93-1.7,2.92.16s-2.49,1.84-2.92.11c-.77-3.12-5.6-1.8-4.82,1.33Z" transform="translate(-459.94 -544.56)"/><path class="cls-1" d="M1240.84,2079.25a6.82,6.82,0,0,0,6.85,5,6.45,6.45,0,0,0,.18-12.84,6.81,6.81,0,0,0-7,4.93c-.8,3.12,4,4.45,4.82,1.33.44-1.74,2.93-1.7,2.92.16s-2.49,1.84-2.92.11c-.77-3.12-5.6-1.8-4.82,1.33Z" transform="translate(-459.94 -544.56)"/><path class="cls-1" d="M1369.25,2087.12a6.82,6.82,0,0,0,6.85,5,6.45,6.45,0,0,0,.18-12.84,6.81,6.81,0,0,0-7,4.93c-.8,3.12,4,4.45,4.82,1.33.44-1.74,2.93-1.7,2.92.16s-2.49,1.84-2.92.11c-.77-3.12-5.6-1.8-4.82,1.33Z" transform="translate(-459.94 -544.56)"/><path class="cls-1" d="M1410,2081.73a6.82,6.82,0,0,0,6.85,5,6.45,6.45,0,0,0,.18-12.84,6.81,6.81,0,0,0-7,4.93c-.8,3.12,4,4.45,4.82,1.33.44-1.74,2.93-1.7,2.92.16s-2.49,1.84-2.92.11c-.77-3.12-5.6-1.8-4.82,1.33Z" transform="translate(-459.94 -544.56)"/><path class="cls-1" d="M1383.13,2037.69a6.82,6.82,0,0,0,6.85,5,6.45,6.45,0,0,0,.18-12.84,6.81,6.81,0,0,0-7,4.93c-.8,3.12,4,4.45,4.82,1.33.44-1.74,2.93-1.7,2.92.16s-2.49,1.84-2.92.11c-.77-3.12-5.6-1.8-4.82,1.33Z" transform="translate(-459.94 -544.56)"/><path class="cls-1" d="M1243.21,2055.86a6.82,6.82,0,0,0,6.85,5,6.45,6.45,0,0,0,.18-12.84,6.81,6.81,0,0,0-7,4.93c-.8,3.12,4,4.45,4.82,1.33.44-1.74,2.93-1.7,2.92.16s-2.49,1.84-2.92.11c-.77-3.12-5.6-1.8-4.82,1.33Z" transform="translate(-459.94 -544.56)"/><path class="cls-1" d="M1361.41,2058.5a6.82,6.82,0,0,0,6.85,5,6.45,6.45,0,0,0,.18-12.84,6.81,6.81,0,0,0-7,4.93c-.8,3.12,4,4.45,4.82,1.33.44-1.74,2.93-1.7,2.92.16s-2.49,1.84-2.92.11c-.77-3.12-5.6-1.8-4.82,1.33Z" transform="translate(-459.94 -544.56)"/><path class="cls-1" d="M1394.21,2057.16a6.82,6.82,0,0,0,6.85,5,6.45,6.45,0,0,0,.18-12.84,6.81,6.81,0,0,0-7,4.93c-.8,3.12,4,4.45,4.82,1.33.44-1.74,2.93-1.7,2.92.16s-2.49,1.84-2.92.11c-.77-3.12-5.6-1.8-4.82,1.33Z" transform="translate(-459.94 -544.56)"/><path class="cls-1" d="M1247.13,2033.75a6.82,6.82,0,0,0,6.85,5,6.45,6.45,0,0,0,.18-12.84,6.81,6.81,0,0,0-7,4.93c-.8,3.12,4,4.45,4.82,1.33.44-1.74,2.93-1.7,2.92.16s-2.49,1.84-2.92.11c-.77-3.12-5.6-1.8-4.82,1.33Z" transform="translate(-459.94 -544.56)"/><path class="cls-1" d="M1357.49,2039a6.82,6.82,0,0,0,6.85,5,6.45,6.45,0,0,0,.18-12.84,6.81,6.81,0,0,0-7,4.93c-.8,3.12,4,4.45,4.82,1.33.44-1.74,2.93-1.7,2.92.16s-2.49,1.84-2.92.11c-.77-3.12-5.6-1.8-4.82,1.33Z" transform="translate(-459.94 -544.56)"/><path class="cls-1" d="M1226.93,2031.43a90.44,90.44,0,0,0,15.79,23.38c2.19,2.36,5.72-1.18,3.54-3.54a86.21,86.21,0,0,1-15-22.37c-1.36-2.91-5.67-.38-4.32,2.52Z" transform="translate(-459.94 -544.56)"/><path class="cls-1" d="M1216.53,2054.79c2.67,4.82,7.46,8.46,11.57,12,4.54,3.93,9.28,7.61,14.14,11.13,2.61,1.89,5.11-2.45,2.52-4.32-4.52-3.27-8.91-6.7-13.13-10.35-3.72-3.22-8.38-6.64-10.79-11-1.56-2.82-5.88-.3-4.32,2.52Z" transform="translate(-459.94 -544.56)"/><path class="cls-1" d="M1208.66,2073a141.23,141.23,0,0,0,39-11.78c2.91-1.36.38-5.67-2.52-4.32a136.92,136.92,0,0,1-37.81,11.28c-3.17.47-1.82,5.29,1.33,4.82Z" transform="translate(-459.94 -544.56)"/><path class="cls-1" d="M1223.36,2050.15a105.39,105.39,0,0,0,31.27-11.71c2.8-1.59.28-5.91-2.52-4.32a101.07,101.07,0,0,1-30.08,11.2c-3.15.64-1.82,5.46,1.33,4.82Z" transform="translate(-459.94 -544.56)"/><path class="cls-1" d="M1365.37,2041.85a76.1,76.1,0,0,0,15.11,10.22c4.85,2.57,9.92,5.78,15.52,6,3.22.14,3.21-4.86,0-5-4.94-.21-10.23-3.8-14.49-6.13a67.34,67.34,0,0,1-12.61-8.64c-2.4-2.13-5.95,1.39-3.54,3.54Z" transform="translate(-459.94 -544.56)"/><path class="cls-1" d="M1368.84,2061.71c7.21,5.65,14.62,11,22.3,16,6.61,4.29,13.44,8.1,21.52,8.12,3.22,0,3.22-5,0-5-7.78,0-14.27-4.32-20.54-8.45q-10.16-6.7-19.74-14.23c-2.5-2-6.07,1.55-3.54,3.54Z" transform="translate(-459.94 -544.56)"/><path class="cls-1" d="M1387.94,2039.86c-2.67,7.56-9.62,12.16-16.44,15.66-2.86,1.47-.34,5.78,2.52,4.32,8.1-4.16,15.6-9.77,18.74-18.65,1.07-3-3.75-4.35-4.82-1.33Z" transform="translate(-459.94 -544.56)"/><path class="cls-1" d="M1397.12,2059.79a111.69,111.69,0,0,1-19.92,24c-2.38,2.17,1.16,5.7,3.54,3.54a116.5,116.5,0,0,0,20.7-25c1.7-2.74-2.63-5.26-4.32-2.52Z" transform="translate(-459.94 -544.56)"/><path class="cls-1" d="M1196.8,1626a76.91,76.91,0,0,1,48.75,2c3,1.13,4.32-3.7,1.33-4.82a81.47,81.47,0,0,0-51.41-2c-3.09.89-1.77,5.72,1.33,4.82Z" transform="translate(-459.94 -544.56)"/><path class="cls-1" d="M1227.41,1737.33a58.85,58.85,0,0,0,52.4-7.66c2.61-1.84.11-6.18-2.52-4.32a54.06,54.06,0,0,1-48.55,7.16c-3.06-1-4.37,3.8-1.33,4.82Z" transform="translate(-459.94 -544.56)"/><path class="cls-1" d="M1319,1626.62a112.08,112.08,0,0,1,52.66,0c3.13.75,4.46-4.07,1.33-4.82a117.75,117.75,0,0,0-55.31,0c-3.13.75-1.8,5.57,1.33,4.82Z" transform="translate(-459.94 -544.56)"/><path class="cls-1" d="M1321.68,1724.91c2.26,9.08,13.73,13.55,21.58,16.56a79.23,79.23,0,0,0,33.14,4.93c3.2-.19,3.22-5.2,0-5a75.61,75.61,0,0,1-26.87-3.05c-7.14-2.19-21-6.61-23-14.77-.78-3.12-5.6-1.8-4.82,1.33Z" transform="translate(-459.94 -544.56)"/><path class="cls-1" d="M837.93,998.58c22.16-3.54,44.46.08,66.35,3.78,3.15.53,4.5-4.29,1.33-4.82-22.85-3.86-45.89-7.48-69-3.78-3.17.51-1.82,5.33,1.33,4.82Z" transform="translate(-459.94 -544.56)"/><path class="cls-1" d="M1128,1382a23.64,23.64,0,0,0,13.44-4.78c2.52-1.93,0-6.27-2.52-4.32A19.1,19.1,0,0,1,1128,1377c-3.2.15-3.22,5.15,0,5Z" transform="translate(-459.94 -544.56)"/><path class="cls-1" d="M1149.78,1369a83.23,83.23,0,0,0,5-9.55c1.28-2.92-3-5.47-4.32-2.52a83.23,83.23,0,0,1-5,9.55c-1.67,2.76,2.65,5.28,4.32,2.52Z" transform="translate(-459.94 -544.56)"/><path class="cls-1" d="M1159.25,1351.59l4-14.67c.84-3.11-4-4.44-4.82-1.33l-4,14.67c-.84,3.11,4,4.44,4.82,1.33Z" transform="translate(-459.94 -544.56)"/><path class="cls-1" d="M1164.94,1328.85a71.22,71.22,0,0,0,.92-11.31c0-3.22-5-3.22-5,0a62.89,62.89,0,0,1-.74,10c-.5,3.15,4.32,4.5,4.82,1.33Z" transform="translate(-459.94 -544.56)"/><path class="cls-1" d="M1164.49,1308.87v-8.67c0-3.22-5-3.22-5,0v8.67c0,3.22,5,3.22,5,0Z" transform="translate(-459.94 -544.56)"/><path class="cls-1" d="M1352,1289.55l.85,9.32c.29,3.18,5.29,3.21,5,0l-.85-9.32c-.29-3.18-5.29-3.21-5,0Z" transform="translate(-459.94 -544.56)"/><path class="cls-1" d="M1355.52,1314.21a17.86,17.86,0,0,0,3.57,12.66c1.93,2.52,6.27,0,4.32-2.52a13.73,13.73,0,0,1-2.89-10.13c.33-3.2-4.68-3.18-5,0Z" transform="translate(-459.94 -544.56)"/><path class="cls-1" d="M1363.48,1338.91a23.48,23.48,0,0,0,12,13.33c2.89,1.37,5.43-2.94,2.52-4.32a18.51,18.51,0,0,1-9.68-10.34c-1.1-3-5.94-1.7-4.82,1.33Z" transform="translate(-459.94 -544.56)"/><path class="cls-1" d="M1386,1363.1l11.93,6.14c2.86,1.47,5.39-2.84,2.52-4.32l-11.93-6.14c-2.86-1.47-5.39,2.84-2.52,4.32Z" transform="translate(-459.94 -544.56)"/><path class="cls-1" d="M1122,1309.63l35.3-1.53c3.21-.14,3.22-5.14,0-5l-35.3,1.53c-3.21.14-3.22,5.14,0,5Z" transform="translate(-459.94 -544.56)"/><path class="cls-1" d="M1356.82,1299.34c2.1,2.07,4.39,2.14,7.21,2.34,4.5.33,9,.54,13.53.75q13.54.63,27.09.79c3.22,0,3.22-5,0-5q-11.13-.15-22.26-.58-5.32-.22-10.64-.5c-2.56-.14-9.44.6-11.41-1.33-2.29-2.26-5.83,1.27-3.54,3.54Z" transform="translate(-459.94 -544.56)"/><path class="cls-1" d="M1165.34,659.36c14.57-18.86,41.14-22.21,60.35-8.48,2.62,1.87,5.12-2.46,2.52-4.32-21.66-15.48-51.06-10.61-67.19,10.27-2,2.54,2.38,5,4.32,2.52Z" transform="translate(-459.94 -544.56)"/><path class="cls-1" d="M1271.59,647.42c15.13-6.77,38.05-14,53.11-3.56,2.65,1.84,5.15-2.5,2.52-4.32-16.68-11.55-41.4-3.95-58.16,3.56-2.93,1.31-.39,5.62,2.52,4.32Z" transform="translate(-459.94 -544.56)"/><path class="cls-1" d="M1274.83,561.92A288.43,288.43,0,0,0,1241.38,545c-3.1-1.32-7.89.1-7.52,4.32l.72,8.23,7.52-4.32a52.28,52.28,0,0,0-22.32-8.63c-4.71-.65-8.59,4.42-4.86,8.36a19.8,19.8,0,0,1,4.5,7.28l4.82-6.33-30.41-3c-4.29-.43-6.64,5.78-3.54,8.54l10.71,9.51,3.54-8.54a221.07,221.07,0,0,0-38.14,1.23c-5.31.63-7.13,8.13-1.33,9.82a31.73,31.73,0,0,1,15.1,9.57l2.21-8.36a153.61,153.61,0,0,1-32.78,3.25c-5.48,0-7,8.77-1.33,9.82a55,55,0,0,1,21.24,8.7l1.19-9.14a128.56,128.56,0,0,1-40.23,9.35c-5.83.38-6.53,7.76-1.33,9.82l22.15,8.78-1.19-9.14a110.75,110.75,0,0,1-33.1,15.16c-5.37,1.45-4.39,10,1.33,9.82a31.2,31.2,0,0,1,17.35,4.43v-8.63a186.6,186.6,0,0,0-26.24,17.25c-4.45,3.47.64,9,4.86,8.36l22.38-3.35-3.85-9.14a116.63,116.63,0,0,0-26.06,21.45c-3.13,3.45-.15,10.09,4.86,8.36l16.11-5.56-4.86-8.36a70.32,70.32,0,0,0-14.09,18.24c-1.37,2.54-.36,6.84,3,7.34l9.64,1.46-3-7.34a100.3,100.3,0,0,1-9.38,14.86c-2,2.65.2,6.54,3,7.34l8,2.31-3.49-6.15a32.2,32.2,0,0,1-5.51,11.68c-2.7,3.68,1.75,8.37,5.65,7.34a6.56,6.56,0,0,1,5.08.38l-2.3-5.65-2.12,8.28a5.13,5.13,0,0,0,3.49,6.15l4.89,1.81-3-7.34-4.86,10.9c-1.17,2.62-.52,6.77,3,7.34l15.69,2.57-2.21-8.36-8.55,9.32c-2.65,2.89-1.06,9,3.54,8.54l25.88-2.6c6.34-.64,6.41-10.64,0-10l-25.88,2.6,3.54,8.54,8.55-9.32c2.3-2.51,1.73-7.71-2.21-8.36l-15.69-2.57,3,7.34,4.86-10.9c1.39-3.12.28-6.14-3-7.34l-4.89-1.81,3.49,6.15,2.12-8.28c.52-2-.31-4.68-2.3-5.65a17.56,17.56,0,0,0-12.78-1.38l5.65,7.34a39.45,39.45,0,0,0,6.52-14.07,5.1,5.1,0,0,0-3.49-6.15l-8-2.31,3,7.34a100.3,100.3,0,0,0,9.38-14.86c1.32-2.55.4-6.83-3-7.34l-9.64-1.46,3,7.34A61.86,61.86,0,0,1,1129.94,661c3.57-3.32-.12-10-4.86-8.36L1109,658.19l4.86,8.36a107.25,107.25,0,0,1,24-19.89c5.15-3.12,1.51-9.94-3.85-9.14l-22.38,3.35,4.86,8.36a171.94,171.94,0,0,1,24.22-15.68c3.35-1.81,3.14-6.78,0-8.63a41,41,0,0,0-22.4-5.8l1.33,9.82a119.27,119.27,0,0,0,35.49-16.17c3.79-2.55,2.82-7.55-1.19-9.14l-22.15-8.78-1.33,9.82a136.89,136.89,0,0,0,42.89-9.71c4-1.63,5-6.58,1.19-9.14a62,62,0,0,0-23.63-9.71l-1.33,9.82a166.45,166.45,0,0,0,35.44-3.61c3.89-.82,4.56-5.74,2.21-8.36a41.45,41.45,0,0,0-19.51-12.15l-1.33,9.82a221.07,221.07,0,0,1,38.14-1.23c4.23.23,6.73-5.7,3.54-8.54l-10.71-9.51-3.54,8.54,30.41,3c3.13.31,5.82-3.46,4.82-6.33a31.88,31.88,0,0,0-7.07-11.7l-4.86,8.36A45.88,45.88,0,0,1,1237,561.9c3,2,7.84-.63,7.52-4.32l-.72-8.23-7.52,4.32a288.43,288.43,0,0,1,33.46,16.88c5.56,3.27,10.59-5.37,5-8.63Z" transform="translate(-459.94 -544.56)"/><path class="cls-1" d="M1263.79,568.74a114,114,0,0,1,54.53,53.84c2.83,5.78,11.46.72,8.63-5-12.25-25-32.75-45.74-58.11-57.42-5.81-2.67-10.89,5.94-5,8.63Z" transform="translate(-459.94 -544.56)"/><path class="cls-1" d="M1236,571c19.32,7.87,32.38,26.43,36.08,46.58,1.16,6.32,10.8,3.64,9.64-2.66-4.37-23.87-20.55-44.4-43.06-53.57-6-2.43-8.55,7.24-2.66,9.64Z" transform="translate(-459.94 -544.56)"/><path class="cls-1" d="M1208.09,578.87A51.74,51.74,0,0,1,1233,604.93c2.63,5.86,11.25.78,8.63-5a60.13,60.13,0,0,0-28.51-29.64c-5.77-2.78-10.85,5.84-5,8.63Z" transform="translate(-459.94 -544.56)"/></svg>