<svg id="Слой_1" data-name="Слой 1" xmlns="http://www.w3.org/2000/svg" viewBox="0 0 447.5 125"><defs><style>.cls-1{fill:#333;}.cls-2{fill:#a2dbf4;}.cls-3{fill:#06c;}.cls-4{fill:#8bcdea;}.cls-5{fill:#fff;}.cls-6{fill:#bbebfc;}.cls-7{fill:#def3f9;}.cls-8{fill:#1a1a1a;}</style></defs><title>plane</title><path class="cls-1" d="M297.75,274s5.5,14.5,6.5,1.5Z" transform="translate(-224.75 -196.5)"/><path class="cls-1" d="M600.25,273.67s-5.5,14.5-6.5,1.5Z" transform="translate(-224.75 -196.5)"/><path class="cls-1" d="M342.5,283.38s3.88,12.5,8.25,1.63Z" transform="translate(-224.75 -196.5)"/><path class="cls-1" d="M552.25,283.38s-3.87,12.5-8.25,1.63Z" transform="translate(-224.75 -196.5)"/><path class="cls-1" d="M380.25,290.5s-.12,12.13,5.13,1.13Z" transform="translate(-224.75 -196.5)"/><path class="cls-1" d="M512.87,291.25s.13,12.13-5.12,1.13Z" transform="translate(-224.75 -196.5)"/><polygon class="cls-1" points="248.5 85 289 79.5 247 90 248.5 85"/><polygon class="cls-1" points="196.5 82 156 76.5 198 87 196.5 82"/><polygon class="cls-2" points="227 47.5 224 0 220 47.5 227 47.5"/><path class="cls-3" d="M472.25,300.5s0-10.5,16-8.5l100.5-14.5Z" transform="translate(-224.75 -196.5)"/><path class="cls-2" d="M448.25,289.5l84-7.5c8.59-.67,17.61-1.61,27-2.87,10.76-1.45,20.94-3.2,30.5-5.12q16.49-3.5,34.06-8.06c17.15-4.49,33.31-9.37,48.44-14.44q-18.92,6.24-38.31,12.38-22.31,7.05-44.19,13.63l-104.5,15s-12-1-14,14Z" transform="translate(-224.75 -196.5)"/><path class="cls-4" d="M425.75,306.5s24,13,45.5,0l-22.5-17Z" transform="translate(-224.75 -196.5)"/><circle class="cls-5" cx="141.75" cy="108.75" r="15.75"/><ellipse class="cls-6" cx="224" cy="78" rx="29" ry="32.5"/><path class="cls-3" d="M423.75,300.5s0-10.5-16-8.5l-100.5-14.5Z" transform="translate(-224.75 -196.5)"/><path class="cls-7" d="M448.75,289.5l-84-7.5c-8.59-.67-17.61-1.61-27-2.87-10.76-1.45-20.94-3.2-30.5-5.12q-16.49-3.5-34.06-8.06c-17.15-4.49-33.31-9.37-48.44-14.44q18.92,6.24,38.31,12.38,22.31,7.05,44.19,13.63l104.5,15s12-1,14,14Z" transform="translate(-224.75 -196.5)"/><path class="cls-5" d="M448.72,241.94c-16,0-29,14.55-29,32.5,0,16.06,10.39,29.38,24,32a6.85,6.85,0,0,1,2.1.32c.75.08,1.51.12,2.27.14l.08-.08v-64.4" transform="translate(-224.75 -196.5)"/><ellipse cx="141.5" cy="108.5" rx="12.5" ry="13"/><circle class="cls-1" cx="141.5" cy="108.5" r="5.5"/><circle class="cls-8" cx="141.25" cy="108.25" r="4.25"/><circle class="cls-5" cx="302.25" cy="109.25" r="15.75"/><circle class="cls-6" cx="223.92" cy="86.58" r="15.75"/><path class="cls-2" d="M448.67,267.33a15.75,15.75,0,0,1,0,31.5" transform="translate(-224.75 -196.5)"/><ellipse cx="302" cy="109" rx="12.5" ry="13"/><circle class="cls-1" cx="302" cy="109" r="5.5"/><circle class="cls-8" cx="301.75" cy="108.75" r="4.25"/><polygon class="cls-3" points="247 59.83 243 58.17 237 57.83 223.33 58.83 211.33 58.17 204.33 59.17 200.33 60.5 198 67.17 201.33 71.17 209.67 67.17 224.33 66.83 239 67.17 246.67 70.17 249.33 67.17 247 59.83"/><polygon class="cls-1" points="222 59.17 211 58.17 208 66.5 222.67 66.17 222 59.17"/><polygon class="cls-1" points="225.17 59.25 236.17 58.25 239.17 66.58 224.5 66.25 225.17 59.25"/><polygon class="cls-1" points="208.94 59.31 207.19 66.69 201.75 69.5 199.56 66.69 201.19 61.69 205.13 60.13 208.94 59.31"/><polygon class="cls-1" points="238.9 58.65 240.65 66.02 246.08 68.83 248.27 66.02 246.65 61.02 242.71 59.46 238.9 58.65"/></svg>