<svg id="Слой_2" data-name="Слой 2" xmlns="http://www.w3.org/2000/svg" viewBox="0 0 860.87 518.3"><defs><style>.cls-1{opacity:0.3;}.cls-2{fill:#fff;}</style></defs><title>sky11</title><g class="cls-1"><path class="cls-2" d="M20.79,377.31c21.38,19.15,44.3,33,73.1,37.84,11.31,1.89,22.85,3.49,34.33,3.53a25.46,25.46,0,0,0,2.68,0l36.55-2a264.63,264.63,0,0,0,45.7-9.1c46.35-13.73,92.86-34.63,123.06-73.92,14.31-18.61,15.06-32.29,14.24-54.11-.26-6.87-1.23-13.73-2-20.57-1.46-13.57-3.53-27.24-3.7-40.9l-.06,20.47c0-8.29,1-16.4,4.55-24l-10,21.07a39.46,39.46,0,0,1,5.12-7.62l-18.76,20.6a47.55,47.55,0,0,1,5.92-5.3l-26.32,19.08a73.33,73.33,0,0,1,8.23-5l-32.67,16.51a117.33,117.33,0,0,1,14.05-6L257,280.69c2.22-.72,4.43-1.34,6.7-1.86l-39.2,7.76a61.55,61.55,0,0,1,6.85-1l-36.55,2a53.19,53.19,0,0,1,6.91.14l-32.33-3.37a54,54,0,0,1,9.9,2.15l-26.55-8.46c10,3.4,18.87,9.24,27.54,15.2l-19.2-13.24c11.22,7.74,22.24,15.83,33.79,23.08a90.08,90.08,0,0,0,16.37,8.4c26.53,9.86,45.54,14.23,74.34,15,27.51.78,57.34-3.48,83.83-10.55a388.4,388.4,0,0,0,42.36-14.49c23.1-9.13,31.22-15.09,48.59-27.69,14.88-10.79,27-20.46,37.8-36.48a87.37,87.37,0,0,0,5.54-10.26q10.6-21.53,20.62-43.34c7.08-15.36,13.35-31.08,20.55-46.38l-10,21.07c6-12.61,13-24.72,22.38-35.13l-18.76,20.6a81.51,81.51,0,0,1,11.37-10.12l-26.32,19.08a83.38,83.38,0,0,1,9-5.47l-32.67,16.51a78.23,78.23,0,0,1,9.61-4L471.6,172.79c2.35-.75,4.7-1.38,7.11-1.89l-39.2,7.76a68.22,68.22,0,0,1,7.19-1l-36.55,2a57.86,57.86,0,0,1,8.59.17l-32.33-3.37a51.74,51.74,0,0,1,8.38,1.77l-26.55-8.46a47.27,47.27,0,0,1,11.34,5.61l-19.2-13.24A58.29,58.29,0,0,1,376.24,180l-10.29-17.7c7.22,12.45,11.42,26.26,16.22,39.75,7.78,21.86,19.2,42.27,31.85,61.68a191.58,191.58,0,0,0,32.73,38.44c3.08,2.75,6.28,5.36,9.59,7.82a342,342,0,0,0,28.78,19.61c14.73,8.72,32,13.19,48.22,17.85,20.06,5.76,41.24,6,61.2,12.24L568,351.22a80.57,80.57,0,0,1,20.15,9.72L569,347.7a56.57,56.57,0,0,1,15.93,16.87l-10.29-17.7a42,42,0,0,1,5.42,20.5l.06-20.47c-.26,8.71-2.74,16.8-6.4,24.65l10-21.07a139,139,0,0,1-22,31.65l18.76-20.6a180.46,180.46,0,0,1-26.86,23.78l26.32-19.08A211.77,211.77,0,0,1,553,382.48L585.64,366a236.55,236.55,0,0,1-29.06,12.16l37.83-12.89a282.77,282.77,0,0,1-33.65,8.94l39.2-7.76a382.39,382.39,0,0,1-52.39,6.36l36.55-2c-21.05,1.1-42.64,1.7-63.66-.3l32.33,3.37a91,91,0,0,1-16-3.12l26.55,8.46c-9.22-3-17.52-7.85-25.5-13.3L557,379.09c-32.54-22.63-63.61-48.11-99.55-65.32a219.05,219.05,0,0,0-22.34-9.24c-16.11-5.63-32.47-10.94-49-15.18-16.1-4.13-32.46-7.1-48.77-10.23-18.37-3.52-36.71-7.29-54.56-13l26.55,8.46c-5.17-1.69-10.59-3.18-15.17-6.18l19.2,13.24a16.43,16.43,0,0,1-4.51-4.83l10.29,17.7a6.32,6.32,0,0,1-.66-2.19l-.06,20.47a5,5,0,0,1,.29-2.24l-10,21.07a5.77,5.77,0,0,1,1.4-2.13l-18.76,20.6,1-.83-26.32,19.08,1.17-.67-32.67,16.51c2-.87,4-1.56,6-2.25l-37.83,12.89a217.62,217.62,0,0,1,24.89-6.59L188.42,396a325.72,325.72,0,0,1,44-5.24l-36.55,2c24.15-1.3,48.41-1.23,72.59-1.2,24.81,0,49.64.66,74.33,3.22l-32.33-3.37a397.44,397.44,0,0,1,78.12,16.61L362,399.61c28.8,9.29,56.67,21.07,84.49,32.89a108.08,108.08,0,0,0,42.72,10.15,166.12,166.12,0,0,0,52.72-.35,225.73,225.73,0,0,0,58.12-14.2,202.88,202.88,0,0,0,51.59-23L678,386.06a87.08,87.08,0,0,0,28.77-41.67l.06-20.47q-7.72-22-29.49-30.94c-43.35-18.43-87.09-35.66-132.74-47.72-23.9-6.31-48-9.37-72.59-11.93s-49.21-4.44-74-4.79c-19.47-.27-38.95-.1-58.42.15-30.39.39-61,1.38-91.16,5-22,2.67-44,7.32-65.5,12.29q-6.72,1.55-13.33,3.54c-16.26,4.94-32.73,10.14-48.48,16.54-18.17,7.39-46.63,22.88-61.29,37-2.84,2.72-17,17.59-19.28,21l-1.4,2.13c-2.32,3.59-9.45,18.14-10.28,22.18-.48,2.34-.07,21.79,0,11.35,0,6.37-.83,7.72.41,11.89A37.86,37.86,0,0,0,34.53,381q2.85,5,5.77,9.91c9.33,12,24.22,18.57,38.26,23.19,18,5.93,36,11.78,54.46,16,10.32,2.34,20.71,4.33,31.1,6.31,20.45,3.9,40.92,7.81,60.79,14.09L198.37,442c26.87,8.71,51.15,22.67,74.33,38.63l-19.2-13.24c21.17,14.67,41.23,31.56,63.62,44.34a83.76,83.76,0,0,0,11.43,5.5c12.72,4.89,25.89,9.56,39.36,12,14.48,2.6,29.42,3.74,44.07,4.74,5.2.36,10.41.46,15.62.56a888.32,888.32,0,0,0,95.13-3.76c10-.89,20-2.16,29.91-3.89,22-3.85,44.24-7.77,65.84-13.68q6.52-1.78,12.93-3.9c16.36-5.38,32.87-10.63,48.93-16.89,18.69-7.28,36.5-17.05,54.22-26.25a202.27,202.27,0,0,0,21.59-12.93c15.22-10.48,30.93-21.16,44.76-33.59,12.48-11.22,23.73-24,34.5-36.82a140.74,140.74,0,0,0,14.68-20.8,260.72,260.72,0,0,0,15.34-32,60.3,60.3,0,0,0,3.73-13.16,58.7,58.7,0,0,0,.57-6.72c.33-8.37.74-17.16-.19-25.53a38.81,38.81,0,0,0-3.19-11.6c-6-13.21-14-27.55-25.8-36.66-9.12-7-18.84-14.22-29.16-19.55-12-6.18-27.1-9.94-39.13-13.61-20.88-6.38-43-6.64-63.85-13l26.55,8.46a101.15,101.15,0,0,1-25.25-12.57l19.2,13.24C707.8,184.6,690.83,164,677.86,142l10.29,17.7C678,142,672,123.2,664.81,104.28A205.23,205.23,0,0,0,643.28,63.5c-8.71-13.06-23.07-22.25-36.35-29.75-11.34-6.41-24.82-9.63-37.21-12.69a171.53,171.53,0,0,0-45.11-4.61C478.14,17.65,431,25.18,388.37,44.81c-12.74,5.87-25.81,12.32-38,19.25-2,1.11-3.84,2.34-5.7,3.61-11,7.51-26.22,17.2-36.57,27.81-13.53,13.87-26.86,27.88-36.35,44.83-16.08,28.7-27.45,59.92-41.5,89.63l10-21.07c-4.18,8.8-7.86,18.67-14.13,26.23l18.76-20.6a30.2,30.2,0,0,1-3.49,3.19l26.32-19.08a19,19,0,0,1-2.76,1.64l32.67-16.51a21.49,21.49,0,0,1-3,1.17L332.47,172a25.16,25.16,0,0,1-3.14.76l39.2-7.76a29.64,29.64,0,0,1-3.23.38l36.55-2a48.2,48.2,0,0,1-6.18-.15L428,166.58a55.93,55.93,0,0,1-10.09-2.17l26.55,8.46c-10.12-3.4-19.06-9.22-27.81-15.23l19.2,13.24c-15.12-10.43-30.78-23.61-48.14-30.74-10.68-4.39-22-7.7-33.16-10.74q-2.14-.58-4.33-1c-11.58-2-23.78-2.95-35.48-3.82-1.29-.1-2.57-.21-3.86-.22-1,0-2,.05-3,.08-10.63.28-26.9,1-37.41,2.11-1.73.18-3.43.42-5.14.73-14.57,2.57-30,4.83-44.26,9-13.73,4-27.7,9.08-41.15,14-1.92.7-3.82,1.42-5.7,2.22-14,6-27.59,13.21-40.91,20.41-12.06,6.51-23.1,15.37-33.83,23.71-1.26,1-2.52,1.94-3.69,3-.79.73-1.49,1.5-2.23,2.27-6.48,6.63-14.09,14.53-19.8,21.82-6.46,8.24-10.28,18.74-14.41,28.16A46.29,46.29,0,0,0,56.14,262a63.72,63.72,0,0,0-1,9.26c-.4,10-.49,20,0,30,1,18.68,5,37.21,5.49,55.9l.06-20.47a22.35,22.35,0,0,1-2,9.45l10-21.07a21.69,21.69,0,0,1-2.2,3.12l18.76-20.6A24.37,24.37,0,0,1,82.47,310L108.78,291a19.09,19.09,0,0,1-2.21,1.31l32.67-16.51a21.17,21.17,0,0,1-2.4,1l37.83-12.89a34.62,34.62,0,0,1-3.84,1l39.2-7.76a25.09,25.09,0,0,1-2.66.33l36.55-2a37.45,37.45,0,0,1-4,0l32.33,3.37a33.31,33.31,0,0,1-5.46-1.12l26.55,8.46A47.08,47.08,0,0,1,282,260.3l19.2,13.24A136.87,136.87,0,0,1,290,264.27a63.49,63.49,0,0,0-32.48-17.47,113.93,113.93,0,0,0-45.61-7.6,202.88,202.88,0,0,0-56.15,5.91,225.73,225.73,0,0,0-57.43,16.76L65.65,278.39a147.76,147.76,0,0,0-45.08,39.69l-10,21.07Q5.32,361,20.79,377.31Z" transform="translate(-9.23 -16.39)"/></g></svg>