<svg id="Слой_3" data-name="Слой 3" xmlns="http://www.w3.org/2000/svg" viewBox="0 0 837.49 472.15"><defs><style>.cls-1{opacity:0.6;}.cls-2{fill:#fff;}</style></defs><title>sky22</title><g class="cls-1"><path class="cls-2" d="M112.89,183.05a459.24,459.24,0,0,0-4.83,49c-.51,10.56-.28,21.16,2,31.52,3.4,15.09,11.85,27.65,20.85,40.09a84.17,84.17,0,0,0,20.85,19.77c21.14,14.49,45,25.17,69.07,33.78,22.47,8,46.38,9.93,70,9.36,11.55-.28,26.48-2.14,37.87-3.69,37.06-5,26.46-4.86,40.7-8.72,24.2-6.56,50.41-16.23,72.56-28.24,10.45-5.67,18.8-11.22,29.9-18.66,9.51-6.38,18.53-13.56,27.4-20.79a745,745,0,0,0,76.56-71.7L298,257.53c5.86,20.79-.1,43.08,6.82,63.63a57.45,57.45,0,0,0,5.52,11.69c5.14,8.37,10.53,17.11,17.09,24.57,6.18,7,13.4,13.07,20.76,18.83,7.87,6.17,15.82,12.34,24.23,17.77a317.31,317.31,0,0,0,28.66,16.07,76.94,76.94,0,0,0,15,5.81c12,3.21,25.12,6.8,37.85,7.9a322.37,322.37,0,0,0,62.71-.38c8-.74,16.43-1.17,24.49-2.47,14.66-2.36,29.4-5.79,43.85-9.13,2.39-.55,4.76-1.14,7.12-1.84,14.79-4.38,29.72-9.22,44.23-14.48,16.06-5.83,31.65-13.56,46.88-21.18,9.59-4.8,18.49-10.76,27.55-16.5,14.23-9,27.93-17.95,40.73-28.88L493,353.78l71.64,124.48,204.46-109a697.51,697.51,0,0,1-80.9,1.4L720,371.94a691.14,691.14,0,0,1-120-15.77L625.81,362c-23.89-5.39-47.51-12.32-69.08-24.13l18.36,10.09c-17.72-10-34.47-21.33-52.89-30.14C510,311.91,497,308,484.15,303.65a471.61,471.61,0,0,1-74-32.51l18.36,10.09q-15.76-8.67-30.84-18.47c-9.26-6-18.86-12.13-25.19-21.43l9.35,14.19c-7.62-12.31-10.7-27.94-13.77-41.92-3.34-15.19-5.29-30.66-4.48-46.23l-1,17a116,116,0,0,1,3.52-21.85L77.31,223.16a151,151,0,0,1,.37,23.4l1-17c-3.14,45.51-23.79,87.69-26.9,133.21-.71,10.31-1.57,20.8-1.24,31.18.19,5.8.4,12,2.45,17.46,6.24,16.71,18.3,26.28,32.76,34.77,25.54,15,51.18,27,79.81,34.52,32.75,8.57,66,14.61,99.41,19.63a187,187,0,0,0,49.88-.38A253.49,253.49,0,0,0,372,490.07l38-12.41A195.59,195.59,0,0,0,456.43,454a81.33,81.33,0,0,0,23.17-17.48,60.92,60.92,0,0,0,20.59-26.88l1-17q-7.66-18.85-27.71-24.28-6.42-3-12.64-6.34l18.36,10.09c-34.15-18.81-62.14-46.3-88.59-74.54-13.46-14.37-26.62-29-40.29-43.19-6.56-6.8-13.08-14.15-20.49-20-13.57-10.77-30.43-14.72-47.15-17.06-30-4.2-60.55.15-89.85,6.32-31.54,6.64-64.47,16.33-92.69,32.67C92.32,260.8,79.34,268.5,72.27,274q-5.39,4.87-10.7,9.84a88.6,88.6,0,0,0-10.65,10c-10.7,13.19-17,28.93-22.78,44.65C24.26,349,21,359.85,19.47,371c-2,14.65-3.3,30.49-.45,45.18,2.9,15,11.31,27.72,20.43,39.73,6.08,8,14.12,14.2,21.53,20.89,7.64,6.89,14.25,14.73,21.25,22.25,6.63,7.12,13.64,13.5,22.07,18.41,9.91,5.78,20.2,12,31.25,15.53,13.4,4.33,27.49,6.83,41.22,9.72,26.14,5.51,52.43,10.4,78.65,15.55,34,6.68,69,5.95,103.18,1.15,1.22-.17,2.43-.34,3.64-.55,13.73-2.37,29.23-5.44,42.68-9,12.82-3.43,27.19-8.54,39.74-12.93,1.66-.58,3.31-1.14,4.93-1.81,16.61-6.91,32.55-15.23,48.84-22.81l-33,15.18c2.68-1.19,5.39-2.24,8.17-3.17l-38,12.41c2.78-.87,5.57-1.62,8.41-2.27L405,542.66a130.31,130.31,0,0,1,13.83-2.09l-36.19,3.37c16.69-1.45,33.43-.28,50.15-.24q25.74.06,51.42-2.13c28.86-2.46,57.75-4.89,86.31-9.81,29.69-5.11,59.31-11.29,88.46-18.91,31.26-8.18,62.08-18.4,92.41-29.51a195.59,195.59,0,0,0,46.46-23.69,118.35,118.35,0,0,0,32.91-26.44q12.44-11.09,11.36-26.4,3.34-13.42-8.85-22.68L814.86,374a162.66,162.66,0,0,0-57.61-7.1c-39,1.72-76.64,10.59-113.23,24q-10.55,3.87-21.22,7.36l38-12.41a607.94,607.94,0,0,1-61.47,16.39l39.08-8.23a609.48,609.48,0,0,1-66.6,10.06L608,400.75c-27.16,2.49-54.17,2.54-81.41,2.11a366.17,366.17,0,0,0-73.13,5.78c-32.76,6.18-60,12.62-91.28,24.74-17.06,6.62-33.22,15.19-49.69,23.08l33-15.18a78.69,78.69,0,0,1-8.12,3.24l38-12.41q-1.77.55-3.58,1l39.08-8.23a70.53,70.53,0,0,1-7.28,1.11l36.19-3.37a86.74,86.74,0,0,1-9.25.13L462.25,424c-17.88-1.07-35.67-5.79-53.2-9.25s-35.43-6.69-53-10.56L381.85,410c-8.62-2-17-4.47-24.82-8.62l18.36,10.09c-13.49-7.65-23-19.77-33.46-30.93-10.69-11.46-24.29-20.31-33.3-33.28L318,361.42c-8.36-12.83-11.14-27.9-10.49-43l-1,17a130.88,130.88,0,0,1,6.72-32.83c3.4-10.37,7-21.45,12.25-31.06L314.6,289.37a27.41,27.41,0,0,1,3.29-4.44l-19.48,17.93a11.64,11.64,0,0,1,2-1.6l-26.87,17,1.06-.57-33,15.18,1.11-.39-77,20.64,1.15-.19-36.19,3.37,1.19,0-57.61-7.1a6.66,6.66,0,0,1,2.42.83L58.22,340c5.56,3.69,10.25,9.4,14.93,14.14q7.83,7.93,15.44,16.07c9.84,10.48,19.51,21.12,29.32,31.63,19.52,20.91,39.69,41.48,62.72,58.58,18.08,13.42,38.11,24.7,58.49,34.14l208.53-132c-20.21-3-40.41-6.18-60.37-10.64l25.83,5.79c-24.1-5.48-47.75-13-69.56-24.75l18.36,10.09c-9.24-5.1-20.61-10.8-26.71-19.71l9.35,14.19c-5.61-10-4.65-23.54-4.07-34.6l-1,17c1.72-27.17,9.78-53.26,16.72-79.43,8.16-30.77,13.95-63,10.87-95Q362.3,131,348.56,126.28a66.11,66.11,0,0,0-35-10.83l-31.78-1.31A245.6,245.6,0,0,0,226,121.62a184,184,0,0,0-38.52,10.32,245.6,245.6,0,0,0-52,21.39l-26.87,17a84.42,84.42,0,0,0-30.33,35.84c-4,15.22-4.82,31.48-4.73,47.12a172,172,0,0,0,3.37,31.48,311.7,311.7,0,0,0,7.89,31.46,79.18,79.18,0,0,0,4.74,12.56c3.27,6.52,7.68,12.58,11.82,18.55a48.44,48.44,0,0,0,5.12,6.35c6.67,6.82,15.1,11.92,23.08,17q13.24,8.5,27,16.09c23.78,13.14,47.55,25.7,72.87,35.62,21.82,8.55,45,14,65.69,25.32l-18.36-10.09c22.8,12.83,44.47,27.75,69,37.22,25.85,10,53.59,15.38,80.57,21C477,506.49,528.06,510,579.64,511.39a690.17,690.17,0,0,0,70.31-1.76,350.12,350.12,0,0,0,146.26-39.19,162.66,162.66,0,0,0,46.35-35q14.64-14.73,11.86-34.88L782.77,276.13l-9.35-14.19-18.36-10.09-25.83-5.79a187,187,0,0,0-49.88.38,166.27,166.27,0,0,0-37.64,5.8,184,184,0,0,0-38.52,10.32,166.27,166.27,0,0,0-35.49,13.8A187,187,0,0,0,524.32,301,243.35,243.35,0,0,1,497,321.34l26.87-17A174.51,174.51,0,0,1,506,314.14L539,299a137.09,137.09,0,0,1-14,5.5L563,292c-3.13,1-6.28,1.84-9.47,2.56l39.08-8.23a100.64,100.64,0,0,1-11.17,1.69l36.19-3.37a91.63,91.63,0,0,1-9.62.21l31.78,1.31A80.48,80.48,0,0,1,627,284.51l25.83,5.79a83.94,83.94,0,0,1-20.36-8l18.36,10.09c-11.65-6.55-22.29-14.86-32.76-23.13-9.73-7.69-19-16-26.05-26.32l9.35,14.19c-7.19-11.13-9.78-23.24-10.26-36.36-.5-13.72.46-27.51-3.31-40.88l-9.35-14.19a60.92,60.92,0,0,0-31.27-13,81.33,81.33,0,0,0-28.81-3.55,195.59,195.59,0,0,0-52.08,2.71,421.2,421.2,0,0,0-77,20.64,195.59,195.59,0,0,0-46.46,23.69,118.35,118.35,0,0,0-32.91,26.44q-15.48,16.77-32.26,32.26L297.07,237c-16.35,15-33.56,30.24-52.23,42.3l26.87-17a28.08,28.08,0,0,1-3,1.64l33-15.18-1.58.65,38-12.41-1.63.5,39.08-8.23-1.68.32,36.19-3.37a16,16,0,0,1-3.37.07l31.78,1.31a22.63,22.63,0,0,1-3.34-.54L461,232.81c-15.43-4-31.07-11.06-45.09-18.59l18.36,10.09c-13.24-7.28-25.3-16.42-33.85-29.06l9.35,14.19c-10.66-16.5-12.89-35.8-11.9-55l-1,17c.66-10.75,2.17-21.4,3.83-32q5.93-14.11-3.67-24.06-6.71-13.8-23-17.18a118.35,118.35,0,0,0-41.72-6.44,195.59,195.59,0,0,0-52.08,2.71c-37.71,6.35-76.76,16.58-110.06,35.82l-26.87,17a84.42,84.42,0,0,0-30.33,35.84Z" transform="translate(-17.37 -91)"/></g></svg>