<svg id="Слой_4" data-name="Слой 4" xmlns="http://www.w3.org/2000/svg" viewBox="0 0 839.89 515.4"><defs><style>.cls-1{opacity:0.27;}.cls-2{fill:#fff;}</style></defs><title>sky333</title><g class="cls-1"><path class="cls-2" d="M244.53,421.49,241,393.31,70.29,464l22.83,18.35c13.06,10.49,25.65,23.1,40.39,30.88,25.32,13.36,55.84,20.11,84,11.44a168,168,0,0,0,26.54-11,87.46,87.46,0,0,0,23-18.24C280.17,481,291.2,464,295.23,444.5c.93-4.51,1.53-9.11,2.28-13.65L316.75,314,149.62,358.08q1,1.19,1.93,2.41l-15.64-20.24c7.82,10.22,13.77,21.55,18.81,33.36l-10.08-23.89c6.53,15.61,11.53,31.78,17.42,47.63,5.71,15.36,12,30.6,19,45.39a145.79,145.79,0,0,0,12.83,22,100,100,0,0,0,86.35,49.53c35.08,0,68.77-19.06,86.35-49.53,19.67-34.08,29.7-72.16,39.81-109.79l25.94-96.55L249.59,282.25l.74,1.75-10.08-23.89q18.12,43,32.89,87.21,7.51,22.57,14.11,45.42c1.9,6.57,3.6,13.2,5.53,19.76a150.75,150.75,0,0,0,13,30.72c13.62,24.44,37.8,41.29,64,49.61,45,14.32,92-5.49,123.54-37.78a299.53,299.53,0,0,0,38.81-50,262.77,262.77,0,0,0,18.24-35.33c8.83-20.41,17.26-40.75,24.13-61.88,10.54-32.47,18.92-65.67,32.14-97.21l-10.08,23.89q2.19-5.14,4.53-10.2L418.23,200.39c21.81,59.68,33.16,122.38,51.05,183.22,4.48,15.24,9.38,30.37,15,45.25q2.09,5.58,4.32,11.12c4.36,10.85,8.33,22.09,13.67,32.45A93,93,0,0,0,522,498.16c3,2.7,17.43,14,20.77,15.93,2.65,1.55,21.3,9.47,24.42,10.37,5.16,1.5,3.58.7,14.47,2.17,6,.81,10.18,1.83,15.46,1.84,3.31,0,23.92-2.77,27.3-3.66,4.42-1.16,11.16-4.56,13.34-5.48,6.4-2.7,10.76-3.93,15.84-7.42,9.09-6.26,18.28-13.18,26.17-21,10-10,18.49-21.86,26.63-33.23,11.89-16.61,19.21-36.55,26.76-55.25C744,375.58,749.94,347.11,761,320.42L751,344.31c1.71-4,3.54-8,5.5-12H583.76a112.13,112.13,0,0,1,13,22.83l-10.08-23.89c8.43,20.2,12.33,41.91,16.86,63.22l15.7,73.82,10.08,23.89L645,512.46l20.24,15.64A74.43,74.43,0,0,0,702.38,540,50.35,50.35,0,0,0,729,540a49.77,49.77,0,0,0,25.24-6.83,50,50,0,0,0,22.06-12.86A75.57,75.57,0,0,0,802,492.22a114.15,114.15,0,0,0,7.57-13.84c5.6-12.29,11.42-24.84,15.33-37.83a115.17,115.17,0,0,0,3.45-15.39c2.13-13.61,4.51-27.57,4.76-41.43L662.42,454.43c1.23,1.32,2.4,2.67,3.54,4.08l-15.64-20.24a70,70,0,0,1,8.6,14.93l-10.08-23.89c6.09,14.77,8.23,30.68,11.64,46.19a143,143,0,0,0,6.58,22.39c4.37,11,8.52,22.61,14.47,32.95s14.18,19.84,21.81,29.07L774,389.21q-61.55-3.12-123.2-2.71-30.81.22-61.61,1.34c-18.45.67-37.17,2.56-55.55.16l26.58,3.57a81,81,0,0,1-19.46-5.25l23.89,10.08c-10-4.48-18.31-11.64-27.95-16.69-16.14-8.46-34-16.05-52-19.87-29.56-6.26-59.68-7.89-89.78-8.29a1298.3,1298.3,0,0,0-143.42,6.06c-35.22,3.45-70.16,8.9-105.21,13.62l26.58-3.57a69.25,69.25,0,0,1-16.64.32l26.58,3.57a38.61,38.61,0,0,1-7.63-2l23.89,10.08a34.47,34.47,0,0,1-6.13-3.48l20.24,15.64a29,29,0,0,1-4.89-4.89L224,407.12a28.29,28.29,0,0,1-2.06-3.51L232,427.5a22.06,22.06,0,0,1-1.42-5.25,75.31,75.31,0,0,0-17.9-34,75.57,75.57,0,0,0-28.06-25.76,74.43,74.43,0,0,0-37.18-11.87,75.75,75.75,0,0,0-39.88,1.79L83.67,362.48A100.5,100.5,0,0,0,47.8,398.36L37.72,422.24a100.71,100.71,0,0,0,0,53.17,25.64,25.64,0,0,0,1.42,5.25c3.1,8.52,6.82,18.4,11.37,26.27,5.07,8.78,12.84,19.2,21.29,26.26,7,5.82,14.77,12.51,22.58,17.21a42.22,42.22,0,0,0,3.79,1.91C122.86,564,129,565.12,156.28,568c16.22,1.7,32.9-2.29,48.77-4.68,9-1.36,18.09-2.71,27.15-3.93l-26.58,3.57q60.95-8.12,122.46-10.53,30.47-1.17,61-.91c19.07.16,38.28.28,57.21,2.75l-26.58-3.57a135.08,135.08,0,0,1,33.06,8.54l-23.89-10.08c8.67,3.76,16.21,9,24.13,14.08a88.55,88.55,0,0,0,10.76,5.89c10.67,4.91,23.68,11.16,35.88,14s25,4,37.42,5.35c4.54.48,9.11.68,13.68.72,9.53.08,19.05-.51,28.57-.9q62.07-2.54,124.22-1.44,35.28.63,70.52,2.43l26.58-3.57,23.89-10.08,20.24-15.64a75,75,0,0,0,20.68-32.18,49.77,49.77,0,0,0,6.83-25.24,50.35,50.35,0,0,0,0-26.58,49.77,49.77,0,0,0-6.83-25.24,75,75,0,0,0-20.68-32.18q-.88-1-1.71-2.12l15.64,20.24a72.2,72.2,0,0,1-8.59-15.15l10.08,23.89c-6.22-15.28-8.32-31.71-11.93-47.7s-10-30.32-16.62-45.39a75.55,75.55,0,0,0-5.17-10c-1.07-1.7-2.23-3.3-3.44-4.9-6.17-8.21-12.15-16.8-19.17-24.32L783.6,297.38,759.71,287.3l-26.58-3.57a75.31,75.31,0,0,0-38.53,8.61,50,50,0,0,0-22.06,12.86,50.25,50.25,0,0,0-17.94,17.94,50,50,0,0,0-12.86,22.06,75.31,75.31,0,0,0-8.61,38.53,122.74,122.74,0,0,1-1.06,14l3.57-26.58a116.8,116.8,0,0,1-7.42,27l10.08-23.89a118.52,118.52,0,0,1-9,17.05L812.1,415.16Q802.54,370.23,793,325.3c-2.67-12.51-5.47-25-9.62-37.14-6.66-19.44-14.45-40.07-26.91-56.77a100,100,0,0,0-172.69,0c-11.45,22.94-20.5,47.09-28.05,71.57-5.15,16.67-10,33.46-16.76,49.57L549,328.65a146,146,0,0,1-17.4,30.87l15.64-20.24a99.19,99.19,0,0,1-14.82,15.57l20.24-15.64a23.1,23.1,0,0,1-3.89,2.38l23.89-10.08-1.4.44,26.58-3.57a6.64,6.64,0,0,1-2.88,0L621.56,332l-1.17-.38,23.89,10.08-1.06-.58,20.24,15.64a8.79,8.79,0,0,1-1.81-1.65l15.64,20.24a26.39,26.39,0,0,1-3.15-5.61l10.08,23.89c-25.84-61.78-37.89-127.91-55.86-192.14-5.11-18.28-10.75-36.41-17.27-54.25L601,123.33l-15.64-20.24L565.13,87.46A74.43,74.43,0,0,0,528,75.59a50.35,50.35,0,0,0-26.58,0,49.77,49.77,0,0,0-25.24,6.83,50,50,0,0,0-22.06,12.86,75.57,75.57,0,0,0-25.76,28.06c-14.54,31.45-26.07,63.47-36,96.55-7.24,24-14.37,48.06-24.09,71.21l10.08-23.89c-7.79,18.29-17.14,35.87-29.18,51.74l15.64-20.24c-6.19,8-13,16.13-21,22.4L364,305.47a41,41,0,0,1-6.41,3.85l23.89-10.08a25.76,25.76,0,0,1-5.39,1.6l26.58-3.57a17.54,17.54,0,0,1-3.92-.06l26.58,3.57a10,10,0,0,1-2.45-.79l23.89,10.08a10.17,10.17,0,0,1-2.27-1.48l20.24,15.64a11,11,0,0,1-1.94-2.18l15.64,20.24A15.84,15.84,0,0,1,477,339.7l10.08,23.89c-2.49-6.23-3.85-13-5.68-19.44q-2.86-10.07-5.9-20.08-6.22-20.48-13.17-40.73c-11.89-34.61-25.78-68.35-40.06-102l-15.64-20.24-20.24-15.64-23.89-10.08a75.75,75.75,0,0,0-39.88-1.79,49.77,49.77,0,0,0-25.24,6.83,50,50,0,0,0-22.06,12.86,50.25,50.25,0,0,0-17.94,17.94,75.31,75.31,0,0,0-17.9,34l-22.86,85.08c-7.17,26.68-13.21,54.1-23.95,79.63L202.78,346a171.65,171.65,0,0,1-8.86,17.75H366.61a161.81,161.81,0,0,1-16.94-31.14l10.08,23.89c-7-16.83-12.25-34.31-18.79-51.31-6-15.7-12.29-31.52-20.07-46.46-8-15.29-19-28.75-29.86-42.07A100,100,0,0,0,123.9,260.79l-11.39,69.16L106.9,364l-2.73,16.56c-.83,5.07-1.3,10.39-3.07,15.24l10.08-23.89a12.56,12.56,0,0,1-1.2,2.28L125.62,354a8.77,8.77,0,0,1-1.68,1.87l20.24-15.64a7.84,7.84,0,0,1-2.36,1.34l23.89-10.08-1.35.34,26.58-3.57a9,9,0,0,1-2.77,0l26.58,3.57a13.29,13.29,0,0,1-2.8-.76l23.89,10.08a34,34,0,0,1-6.65-3.91l20.24,15.64c-12.7-9.92-25.16-20.19-37.72-30.29L191.47,307l-23.89-10.08L141,293.31a75.31,75.31,0,0,0-38.53,8.61A50,50,0,0,0,80.4,314.78a50.25,50.25,0,0,0-17.94,17.94,50,50,0,0,0-12.86,22.06A75.31,75.31,0,0,0,41,393.31l3.54,28.19A75.31,75.31,0,0,0,53.15,460,75,75,0,0,0,73.82,492.2,75,75,0,0,0,106,512.88a75.31,75.31,0,0,0,38.53,8.61l26.58-3.57a99.91,99.91,0,0,0,44.13-25.72L230.88,472a99.54,99.54,0,0,0,13.65-50.47Z" transform="translate(-34.15 -73.81)"/></g></svg>